<?xml version="1.0" encoding="utf-8"?>
<!-- Generator: Adobe Illustrator 12.0.0, SVG Export Plug-In . SVG Version: 6.00 Build 51448)  -->
<!DOCTYPE svg PUBLIC "-//W3C//DTD SVG 1.1//EN" "http://www.w3.org/Graphics/SVG/1.1/DTD/svg11.dtd" [
	<!ENTITY ns_svg "http://www.w3.org/2000/svg">
	<!ENTITY ns_xlink "http://www.w3.org/1999/xlink">
]>
<svg  version="1.1" id="Layer_1" xmlns="&ns_svg;" xmlns:xlink="&ns_xlink;" width="342.547" height="200"
	 viewBox="0 0 342.547 200" overflow="visible" enable-background="new 0 0 342.547 200" xml:space="preserve">
<g>
	<g>
		<path fill-rule="evenodd" clip-rule="evenodd" fill="#E51E25" d="M124.497,1.96v68.832c0,4.655-0.223,7.607-0.662,8.856
			c-0.443,1.251-1.433,1.877-2.971,1.877c-1.347,0-2.242-0.568-2.685-1.704c-0.441-1.135-0.662-3.74-0.662-7.817V1.96H93.224v55.274
			c0,10.539,0.193,17.453,0.579,20.742c0.383,3.289,1.633,6.414,3.752,9.375c2.114,2.964,5.306,5.366,9.575,7.213
			c4.27,1.846,9.195,2.771,14.77,2.771c5.041,0,9.413-0.781,13.127-2.337c3.71-1.558,6.702-3.847,8.969-6.867
			c2.272-3.019,3.638-5.961,4.098-8.828c0.462-2.864,0.692-7.837,0.692-14.914V1.96H124.497L124.497,1.96z"/>
		<path fill-rule="evenodd" clip-rule="evenodd" fill="#E51E25" d="M183.507,19.386c0.999,0.962,1.5,3.039,1.5,6.23v7.675
			c0,3.459-0.432,5.74-1.298,6.835c-0.867,1.098-2.414,1.645-4.645,1.645c-0.501,0-1.096-0.019-1.788-0.057V17.943
			C180.429,17.943,182.505,18.424,183.507,19.386L183.507,19.386z M152.986,95.371h24.29V57.753h6.519
			c5.306,0,9.607-0.729,12.895-2.191c3.287-1.461,5.548-3.559,6.781-6.289c1.229-2.732,1.845-7.079,1.845-13.04v-8.136
			c0-5.846-0.316-10.165-0.952-12.951c-0.635-2.789-1.845-5.165-3.634-7.127s-4.463-3.461-8.021-4.501
			c-3.557-1.038-8.644-1.558-15.26-1.558h-24.462V95.371L152.986,95.371z"/>
		<polygon fill-rule="evenodd" clip-rule="evenodd" fill="#E51E25" points="207.09,95.371 249.207,95.371 249.207,76.679 
			231.38,76.679 231.38,56.139 246.554,56.139 246.554,38.367 231.38,38.367 231.38,20.654 247.595,20.654 247.595,1.96 
			207.09,1.96 207.09,95.371 		"/>
		<path fill-rule="evenodd" clip-rule="evenodd" fill="#E51E25" d="M281.072,19.328c1.057,0.922,1.586,2.867,1.586,5.828v5.135
			c0,4.115-0.548,6.547-1.645,7.298c-1.096,0.751-3.011,1.127-5.742,1.127V17.943C278.082,17.943,280.015,18.405,281.072,19.328
			L281.072,19.328z M250.981,95.371h24.29V53.253c3.348,0,5.417,0.597,6.202,1.789c0.79,1.194,1.185,4.29,1.185,9.29v31.039h22.56
			V70.735c0-7.54-0.202-12.145-0.606-13.817c-0.404-1.674-1.434-3.511-3.085-5.51c-1.656-2-4.888-3.597-9.696-4.789
			c5.311-0.5,8.867-2.001,10.677-4.501c1.808-2.5,2.711-7.385,2.711-14.655c0-7.963-1.28-13.76-3.835-17.395
			c-2.561-3.635-5.868-5.894-9.927-6.781c-4.059-0.885-11.817-1.327-23.279-1.327h-17.195V95.371L250.981,95.371z"/>
		<path fill-rule="evenodd" clip-rule="evenodd" fill="#E51E25" d="M89.145,26.539c0-7.423-0.72-12.682-2.165-15.779
			c-1.442-3.096-4.386-5.663-8.828-7.701C73.71,1.018,68.335,0,62.025,0c-5.771,0-10.693,0.933-14.77,2.797
			c-4.079,1.867-7.029,4.455-8.855,7.761c-1.828,3.308-2.741,8.539-2.741,15.692c0,4.963,0.644,9.04,1.933,12.233
			c1.287,3.192,2.913,5.693,4.874,7.5c1.961,1.809,5.963,4.712,12.001,8.712c6.04,3.963,9.829,6.788,11.369,8.481
			c1.499,1.692,2.249,5.289,2.249,10.791c0,2.499-0.395,4.384-1.183,5.653s-1.991,1.905-3.607,1.905c-1.615,0-2.741-0.5-3.373-1.502
			c-0.637-0.999-0.953-3.25-0.953-6.75V61.908H36.407v6.117c0,7,0.713,12.404,2.137,16.212c1.422,3.808,4.433,6.942,9.027,9.405
			c4.598,2.461,10.147,3.693,16.647,3.693c5.924,0,11.116-1.069,15.579-3.204c4.46-2.134,7.471-4.778,9.029-7.933
			c1.559-3.152,2.335-8.058,2.335-14.712c0-9.155-1.403-15.79-4.209-19.905c-2.811-4.116-9.62-9.383-20.434-15.8
			c-3.77-2.228-6.059-4.133-6.862-5.711c-0.845-1.577-1.266-3.926-1.266-7.043c0-2.424,0.374-4.232,1.127-5.427
			c0.75-1.194,1.854-1.79,3.317-1.79c1.345,0,2.307,0.441,2.885,1.326c0.576,0.885,0.864,2.942,0.864,6.172v6.925h22.562V26.539
			L89.145,26.539z"/>
	</g>
	<g>
		<polygon fill-rule="evenodd" clip-rule="evenodd" fill="#005284" points="260.59,104.628 260.59,198.039 284.88,198.039 
			284.88,104.628 260.59,104.628 		"/>
		<polygon fill-rule="evenodd" clip-rule="evenodd" fill="#005284" points="289.424,104.628 289.424,198.039 313.713,198.039 
			313.713,104.628 289.424,104.628 		"/>
		<polygon fill-rule="evenodd" clip-rule="evenodd" fill="#005284" points="318.257,104.628 318.257,198.039 342.547,198.039 
			342.547,104.628 318.257,104.628 		"/>
	</g>
	<g>
		<path fill-rule="evenodd" clip-rule="evenodd" fill="#005284" d="M29.341,121.128c0.864,0.309,1.566,1.048,2.105,2.224
			c0.539,1.173,0.807,3.222,0.807,6.142c0,5.541-0.327,8.896-0.98,10.07c-0.654,1.174-2.173,1.759-4.559,1.759
			c-0.576,0-1.383,0.021-2.422,0.058v-20.772C26.792,120.647,28.475,120.821,29.341,121.128L29.341,121.128z M0,198.039h28.101
			c9.77,0,16.232-0.56,19.387-1.672c3.152-1.12,5.45-3.197,6.893-6.235c1.442-3.043,2.163-7.717,2.163-14.031v-8.658
			c0-6.079-0.999-10.596-2.999-13.538c-2-2.943-5.81-5.051-11.422-6.321c5.036-1.152,8.414-2.807,10.124-4.957
			c1.712-2.154,2.569-5.959,2.569-11.421c0-8.07-1.212-13.922-3.638-17.553c-2.42-3.633-5.603-6.044-9.548-7.236
			c-3.942-1.191-9.74-1.788-17.395-1.788H0V198.039l30.984-40.676c0.847,0.845,1.27,3.271,1.27,7.269v8.711
			c0,3.771-0.471,6.136-1.414,7.098c-0.942,0.961-3.125,1.5-6.548,1.616v-26.139c3.616,0.116,5.846,0.597,6.692,1.445L0,198.039
			L0,198.039z"/>
		<path fill-rule="evenodd" clip-rule="evenodd" fill="#005284" d="M91.263,171.557c0,5.499-0.232,8.98-0.692,10.442
			c-0.462,1.461-1.519,2.19-3.173,2.19c-1.617,0-2.644-0.632-3.085-1.902c-0.443-1.269-0.664-4.616-0.664-10.038v-43.62
			c0-4.806,0.334-7.703,1.008-8.684c0.674-0.98,1.645-1.47,2.913-1.47c1.501,0,2.491,0.604,2.974,1.816
			c0.479,1.213,0.72,3.991,0.72,8.337V171.557L91.263,171.557z M115.553,143.341c0-9.615-0.228-16.345-0.692-20.191
			c-0.46-3.848-1.905-7.406-4.326-10.677c-2.425-3.267-5.626-5.72-9.608-7.355c-3.982-1.635-8.47-2.453-13.472-2.453
			c-5.271,0-9.884,0.867-13.848,2.598c-3.963,1.733-7.106,4.214-9.431,7.443c-2.328,3.231-3.712,6.797-4.156,10.704
			c-0.443,3.902-0.662,10.547-0.662,19.932v15.982c0,9.617,0.23,16.35,0.69,20.194c0.462,3.847,1.905,7.403,4.328,10.675
			c2.423,3.271,5.626,5.719,9.608,7.354c3.979,1.636,8.47,2.453,13.471,2.453c5.271,0,9.885-0.864,13.848-2.597
			c3.961-1.731,7.106-4.21,9.432-7.443c2.328-3.229,3.712-6.798,4.156-10.7c0.441-3.907,0.662-10.551,0.662-19.937V143.341
			L115.553,143.341z"/>
		<path fill-rule="evenodd" clip-rule="evenodd" fill="#005284" d="M187.256,104.628c-3.136,21.625-5.398,43.74-6.778,66.351
			l-2.681-35.54c-1.434-17.809-2.318-28.079-2.653-30.811H149.92c-3.582,26.429-5.819,47.796-6.713,64.1l-2.483-31.508
			l-2.567-32.592h-23.598l10.872,93.411h30.153c3.55-24.808,5.808-41.136,6.776-48.983c2.125,18.306,4.574,34.632,7.353,48.983
			h30.325l10.816-93.411H187.256L187.256,104.628z"/>
		<polygon fill-rule="evenodd" clip-rule="evenodd" fill="#005284" points="210.436,104.628 210.436,198.039 249.497,198.039 
			249.497,179.344 234.725,179.344 234.725,104.628 210.436,104.628 		"/>
	</g>
	<g>
		<g>
			<polygon fill-rule="evenodd" clip-rule="evenodd" fill="#FFFFFF" points="46.062,20.226 43.864,26.991 49.625,22.808 
				55.386,26.991 53.186,20.226 58.931,16.042 51.823,16.042 49.625,9.273 47.427,16.042 40.314,16.042 46.062,20.226 			"/>
			<polygon fill-rule="evenodd" clip-rule="evenodd" fill="#FFFFFF" points="73.999,20.226 71.798,26.991 77.557,22.808 
				83.318,26.991 81.121,20.226 86.868,16.042 79.757,16.042 77.557,9.273 75.36,16.042 68.251,16.042 73.999,20.226 			"/>
			<polygon fill-rule="evenodd" clip-rule="evenodd" fill="#FFFFFF" points="101.675,20.226 99.478,26.991 105.239,22.808 
				111,26.991 108.8,20.226 114.547,16.042 107.436,16.042 105.239,9.273 103.041,16.042 95.93,16.042 101.675,20.226 			"/>
			<polygon fill-rule="evenodd" clip-rule="evenodd" fill="#FFFFFF" points="133.05,20.226 130.853,26.991 136.614,22.808 
				142.373,26.991 140.175,20.226 145.922,16.042 138.811,16.042 136.614,9.273 134.416,16.042 127.303,16.042 133.05,20.226 			"/>
			<polygon fill-rule="evenodd" clip-rule="evenodd" fill="#FFFFFF" points="160.987,20.226 158.787,26.991 164.548,22.808 
				170.307,26.991 168.109,20.226 173.856,16.042 166.746,16.042 164.548,9.273 162.348,16.042 155.24,16.042 160.987,20.226 			"/>
			<polygon fill-rule="evenodd" clip-rule="evenodd" fill="#FFFFFF" points="188.919,20.226 186.722,26.991 192.482,22.808 
				198.244,26.991 196.044,20.226 201.789,16.042 194.681,16.042 192.482,9.273 190.283,16.042 183.172,16.042 188.919,20.226 			
				"/>
			<polygon fill-rule="evenodd" clip-rule="evenodd" fill="#FFFFFF" points="215.834,20.226 213.637,26.991 219.397,22.808 
				225.156,26.991 222.959,20.226 228.708,16.042 221.595,16.042 219.397,9.273 217.2,16.042 210.087,16.042 215.834,20.226 			"/>
			<polygon fill-rule="evenodd" clip-rule="evenodd" fill="#FFFFFF" points="260.111,20.226 257.914,26.991 263.673,22.808 
				269.432,26.991 267.233,20.226 272.98,16.042 265.87,16.042 263.673,9.273 261.475,16.042 254.364,16.042 260.111,20.226 			"/>
			<polygon fill-rule="evenodd" clip-rule="evenodd" fill="#FFFFFF" points="288.811,20.226 286.612,26.991 292.371,22.808 
				298.13,26.991 295.933,20.226 301.68,16.042 294.569,16.042 292.371,9.273 290.172,16.042 283.063,16.042 288.811,20.226 			"/>
		</g>
		<g>
			<polygon fill-rule="evenodd" clip-rule="evenodd" fill="#FFFFFF" points="8.785,122.894 6.586,129.663 12.346,125.477 
				18.106,129.663 15.908,122.894 21.654,118.712 14.543,118.712 12.346,111.942 10.147,118.712 3.038,118.712 8.785,122.894 			"/>
			<polygon fill-rule="evenodd" clip-rule="evenodd" fill="#FFFFFF" points="38.354,122.894 36.154,129.663 41.913,125.477 
				47.674,129.663 45.476,122.894 51.223,118.712 44.112,118.712 41.913,111.942 39.715,118.712 32.605,118.712 38.354,122.894 			
				"/>
			<polygon fill-rule="evenodd" clip-rule="evenodd" fill="#FFFFFF" points="69.905,122.894 67.705,129.663 73.466,125.477 
				79.225,129.663 77.028,122.894 82.775,118.712 75.667,118.712 73.466,111.942 71.267,118.712 64.158,118.712 69.905,122.894 			
				"/>
			<polygon fill-rule="evenodd" clip-rule="evenodd" fill="#FFFFFF" points="98.59,122.894 96.393,129.663 102.154,125.477 
				107.913,129.663 105.715,122.894 111.46,118.712 104.351,118.712 102.154,111.942 99.954,118.712 92.843,118.712 98.59,122.894 
							"/>
			<polygon fill-rule="evenodd" clip-rule="evenodd" fill="#FFFFFF" points="124.408,122.894 122.211,129.663 127.972,125.477 
				133.733,129.663 131.536,122.894 137.283,118.712 130.169,118.712 127.972,111.942 125.774,118.712 118.664,118.712 
				124.408,122.894 			"/>
			<polygon fill-rule="evenodd" clip-rule="evenodd" fill="#FFFFFF" points="158.524,122.894 156.327,129.663 162.086,125.477 
				167.845,129.663 165.647,122.894 171.395,118.712 164.286,118.712 162.086,111.942 159.888,118.712 152.777,118.712 
				158.524,122.894 			"/>
			<polygon fill-rule="evenodd" clip-rule="evenodd" fill="#FFFFFF" points="194.044,122.894 191.847,129.663 197.607,125.477 
				203.368,129.663 201.169,122.894 206.918,118.712 199.805,118.712 197.607,111.942 195.41,118.712 188.297,118.712 
				194.044,122.894 			"/>
			<polygon fill-rule="evenodd" clip-rule="evenodd" fill="#FFFFFF" points="219.202,122.894 217.005,129.663 222.766,125.477 
				228.524,129.663 226.327,122.894 232.074,118.712 224.964,118.712 222.766,111.942 220.568,118.712 213.455,118.712 
				219.202,122.894 			"/>
			<polygon fill-rule="evenodd" clip-rule="evenodd" fill="#FFFFFF" points="269.134,122.894 266.937,129.663 272.697,125.477 
				278.459,129.663 276.261,122.894 282.006,118.712 274.896,118.712 272.697,111.942 270.5,118.712 263.387,118.712 
				269.134,122.894 			"/>
			<polygon fill-rule="evenodd" clip-rule="evenodd" fill="#FFFFFF" points="297.968,122.894 295.77,129.663 301.528,125.477 
				307.29,129.663 305.09,122.894 310.84,118.712 303.729,118.712 301.528,111.942 299.331,118.712 292.221,118.712 
				297.968,122.894 			"/>
			<polygon fill-rule="evenodd" clip-rule="evenodd" fill="#FFFFFF" points="326.797,122.894 324.602,129.663 330.36,125.477 
				336.121,129.663 333.924,122.894 339.671,118.712 332.558,118.712 330.36,111.942 328.162,118.712 321.052,118.712 
				326.797,122.894 			"/>
		</g>
	</g>
</g>
</svg>
