<?xml version="1.0" encoding="iso-8859-1"?>
<!-- Generator: Adobe Illustrator 14.0.0, SVG Export Plug-In . SVG Version: 6.00 Build 43363)  -->
<!DOCTYPE svg PUBLIC "-//W3C//DTD SVG 1.1//EN" "http://www.w3.org/Graphics/SVG/1.1/DTD/svg11.dtd">
<svg version="1.1" id="Layer_1" xmlns="http://www.w3.org/2000/svg" xmlns:xlink="http://www.w3.org/1999/xlink" x="0px" y="0px"
	 width="250px" height="39px" viewBox="0 0 250 39" style="enable-background:new 0 0 250 39;" xml:space="preserve">
<g>
	<path style="fill-rule:evenodd;clip-rule:evenodd;fill:#DA2128;" d="M5.352,25.852c1.095,0.469,2.071,0.703,2.971,0.703
		c1.719,0,2.736-1.016,2.736-2.188c0-1.602-1.486-2.502-3.167-4.183C5.938,18.23,5,16.158,5,13.695c0-4.807,3.674-8.599,9.459-8.599
		c1.642,0,3.166,0.197,4.69,0.705v6.917c-1.212-0.586-2.268-0.898-3.088-0.898c-1.876,0-2.854,0.82-2.854,2.188
		c0,1.563,1.484,2.228,3.245,3.792c2.188,1.914,3.322,4.416,3.322,7.152c0,5.392-3.674,8.948-10.476,8.948
		c-1.328,0-2.578-0.117-3.751-0.352L5.352,25.852z"/>
	<path style="fill:none;stroke:#005496;stroke-width:0.7796;stroke-miterlimit:10;" d="M5.352,25.852
		c1.095,0.469,2.071,0.703,2.971,0.703c1.719,0,2.736-1.016,2.736-2.188c0-1.602-1.486-2.502-3.167-4.183
		C5.938,18.23,5,16.158,5,13.695c0-4.807,3.674-8.599,9.459-8.599c1.642,0,3.166,0.197,4.69,0.705v6.917
		c-1.212-0.586-2.268-0.898-3.088-0.898c-1.876,0-2.854,0.82-2.854,2.188c0,1.563,1.484,2.228,3.245,3.792
		c2.188,1.914,3.322,4.416,3.322,7.152c0,5.392-3.674,8.948-10.476,8.948c-1.328,0-2.578-0.117-3.751-0.352L5.352,25.852z"/>
	<path style="fill-rule:evenodd;clip-rule:evenodd;fill:#DA2128;" d="M34.141,5.528h7.231v16.923c0,4.063-0.274,6.957-2.424,9.223
		c-1.446,1.525-3.947,2.541-6.957,2.541c-3.009,0-5.511-1.016-6.956-2.541c-2.15-2.266-2.464-5.159-2.464-9.223V5.528h7.271v16.923
		c0,2.813,0.429,4.221,2.148,4.221c1.681,0,2.15-1.407,2.15-4.221V5.528z"/>
	<path style="fill:none;stroke:#005496;stroke-width:0.7796;stroke-miterlimit:10;" d="M34.141,5.528h7.231v16.923
		c0,4.063-0.274,6.957-2.424,9.223c-1.446,1.525-3.947,2.541-6.957,2.541c-3.009,0-5.511-1.016-6.956-2.541
		c-2.15-2.266-2.464-5.159-2.464-9.223V5.528h7.271v16.923c0,2.813,0.429,4.221,2.148,4.221c1.681,0,2.15-1.407,2.15-4.221V5.528z"
		/>
	<path style="fill-rule:evenodd;clip-rule:evenodd;fill:#DA2128;" d="M52.881,18.973c2.423,0,3.752-1.29,3.752-3.323
		c0-2.189-1.329-3.439-3.792-3.439h-0.821v6.762H52.881z M44.791,5.528h7.269c7.896,0,11.804,3.204,11.804,10.045
		c0,6.487-3.869,10.396-10.749,10.396h-1.095v7.504h-7.229V5.528z"/>
	<path style="fill:none;stroke:#005496;stroke-width:0.7796;stroke-miterlimit:10;" d="M52.881,18.973
		c2.423,0,3.752-1.29,3.752-3.323c0-2.189-1.329-3.439-3.792-3.439h-0.821v6.762H52.881z M44.791,5.528h7.269
		c7.896,0,11.804,3.204,11.804,10.045c0,6.487-3.869,10.396-10.749,10.396h-1.095v7.504h-7.229V5.528z"/>
	<polygon style="fill-rule:evenodd;clip-rule:evenodd;fill:#DA2128;" points="82.796,33.473 67.278,33.473 67.278,22.604 
		65.568,16.435 67.278,16.435 67.278,5.528 82.718,5.528 82.708,12.465 74.509,12.465 74.509,16.418 82.634,16.418 84.344,22.521 
		74.509,22.521 74.509,26.506 82.796,26.506 	"/>
	<polygon style="fill:none;stroke:#005496;stroke-width:0.7796;stroke-miterlimit:10;" points="82.796,33.473 67.278,33.473 
		67.278,22.604 65.568,16.435 67.278,16.435 67.278,5.528 82.718,5.528 82.708,12.465 74.509,12.465 74.509,16.418 82.634,16.418 
		84.344,22.521 74.509,22.521 74.509,26.506 82.796,26.506 	"/>
	<path style="fill-rule:evenodd;clip-rule:evenodd;fill:#DA2128;" d="M147.082,19.48c0,3.909,2.854,6.917,6.645,6.917
		c3.83,0,6.646-3.086,6.646-6.917c0-3.83-2.815-6.917-6.646-6.917C149.976,12.563,147.082,15.573,147.082,19.48z M162.912,8.263
		c3.205,2.931,4.964,6.919,4.964,11.217c0,4.3-1.759,8.325-4.964,11.256c-2.425,2.228-5.668,3.479-9.225,3.479
		s-6.761-1.251-9.185-3.479c-3.204-2.932-4.925-6.956-4.925-11.256c0-4.298,1.721-8.286,4.925-11.217
		c2.424-2.228,5.628-3.478,9.185-3.478S160.527,6.035,162.912,8.263z"/>
	<path style="fill:none;stroke:#005496;stroke-width:0.7796;stroke-miterlimit:10;" d="M147.082,19.48
		c0,3.909,2.854,6.917,6.645,6.917c3.83,0,6.646-3.086,6.646-6.917c0-3.83-2.815-6.917-6.646-6.917
		C149.976,12.563,147.082,15.573,147.082,19.48z M162.912,8.263c3.205,2.931,4.964,6.919,4.964,11.217
		c0,4.3-1.759,8.325-4.964,11.256c-2.425,2.228-5.668,3.479-9.225,3.479s-6.761-1.251-9.185-3.479
		c-3.204-2.932-4.925-6.956-4.925-11.256c0-4.298,1.721-8.286,4.925-11.217c2.424-2.228,5.628-3.478,9.185-3.478
		S160.527,6.035,162.912,8.263z"/>
	<polygon style="fill-rule:evenodd;clip-rule:evenodd;fill:#DA2128;" points="169.003,5.528 176.271,5.528 177.679,18.542 
		183.347,7.736 188.935,18.542 190.655,5.528 197.768,5.528 194.133,33.473 188.426,33.473 183.347,23.369 178.383,33.473 
		172.872,33.473 	"/>
	<polygon style="fill:none;stroke:#005496;stroke-width:0.7796;stroke-miterlimit:10;" points="169.003,5.528 176.271,5.528 
		177.679,18.542 183.347,7.736 188.935,18.542 190.655,5.528 197.768,5.528 194.133,33.473 188.426,33.473 183.347,23.369 
		178.383,33.473 172.872,33.473 	"/>
	<polygon style="fill-rule:evenodd;clip-rule:evenodd;fill:#DA2128;" points="217.817,33.473 200.199,33.473 200.199,5.528 
		207.433,5.528 207.433,25.773 217.79,25.773 	"/>
	<polygon style="fill:none;stroke:#005496;stroke-width:0.7796;stroke-miterlimit:10;" points="217.817,33.473 200.199,33.473 
		200.199,5.528 207.433,5.528 207.433,25.773 217.79,25.773 	"/>
	<rect x="226.668" y="5.528" style="fill-rule:evenodd;clip-rule:evenodd;fill:#DA2128;" width="7.231" height="27.945"/>
	
		<rect x="226.668" y="5.528" style="fill:none;stroke:#005496;stroke-width:0.7796;stroke-miterlimit:10;" width="7.231" height="27.945"/>
	<rect x="237.771" y="5.528" style="fill-rule:evenodd;clip-rule:evenodd;fill:#DA2128;" width="7.229" height="27.945"/>
	
		<rect x="237.771" y="5.528" style="fill:none;stroke:#005496;stroke-width:0.7796;stroke-miterlimit:10;" width="7.229" height="27.945"/>
	<path style="fill-rule:evenodd;clip-rule:evenodd;fill:#DA2128;" d="M95.285,18.66c2.659,0,3.986-1.25,3.986-3.478
		s-1.29-3.518-3.79-3.518h-0.9v6.996H95.285z M87.352,5.528h7.895c7.543,0,11.333,3.243,11.333,8.833c0,3.323-1.68,5.9-4.416,6.84
		l6.137,12.271h-7.935l-5.563-11.287l-0.221-0.001v11.288h-7.229V5.528z"/>
	<path style="fill:none;stroke:#005496;stroke-width:0.7796;stroke-miterlimit:10;" d="M95.285,18.66
		c2.659,0,3.986-1.25,3.986-3.478s-1.29-3.518-3.79-3.518h-0.9v6.996H95.285z M87.352,5.528h7.895
		c7.543,0,11.333,3.243,11.333,8.833c0,3.323-1.68,5.9-4.416,6.84l6.137,12.271h-7.935l-5.563-11.287l-0.221-0.001v11.288h-7.229
		V5.528z"/>
	<path style="fill-rule:evenodd;clip-rule:evenodd;fill:#DA2128;" d="M126.892,22.131H125.6v4.961
		c1.437,0.052,2.384,0.103,3.073-0.196c0.883-0.385,1.264-1.051,1.416-1.724c0.139-0.599-0.137-1.625-0.651-2.208
		C128.923,22.379,128.073,22.131,126.892,22.131z M126.867,11.731h-1.29v4.635c1.436,0.047,2.385,0.095,3.071-0.184
		c0.885-0.359,1.264-0.982,1.419-1.611c0.137-0.559-0.137-1.517-0.653-2.063C128.898,11.963,128.049,11.731,126.867,11.731z
		 M118.423,5.528h9.34c6.372,0,9.654,2.735,9.654,7.699c0,2.933-1.172,4.886-3.752,6.176c2.541,0.898,3.829,3.009,3.829,6.254
		c0,5.159-3.283,7.816-9.81,7.816h-9.262V5.528z"/>
	<path style="fill:none;stroke:#005496;stroke-width:0.7796;stroke-miterlimit:10;" d="M126.892,22.131H125.6v4.961
		c1.437,0.052,2.384,0.103,3.073-0.196c0.883-0.385,1.264-1.051,1.416-1.724c0.139-0.599-0.137-1.625-0.651-2.208
		C128.923,22.379,128.073,22.131,126.892,22.131z M126.867,11.731h-1.29v4.635c1.436,0.047,2.385,0.095,3.071-0.184
		c0.885-0.359,1.264-0.982,1.419-1.611c0.137-0.559-0.137-1.517-0.653-2.063C128.898,11.963,128.049,11.731,126.867,11.731z
		 M118.423,5.528h9.34c6.372,0,9.654,2.735,9.654,7.699c0,2.933-1.172,4.886-3.752,6.176c2.541,0.898,3.829,3.009,3.829,6.254
		c0,5.159-3.283,7.816-9.81,7.816h-9.262V5.528z"/>
</g>
</svg>
