<?xml version="1.0" encoding="UTF-8"?>
<svg xmlns="http://www.w3.org/2000/svg" width="216" height="79">
	<path fill="#a67a04" d="M166.999 9.469v4.705l1.237-.022c1.883.011 2.582-1.385 2.582-2.601 0-.679-.587-2.07-2.061-2.07zm17.032.321c0 2.658-.325 4.538-3.113 7.326.843.716 2.14 2.464 2.14 5.578v3.566l2.851 3.568v5.573h-10.147l-4.342-5.573c-.554-.847-1.362-3.504-1.524-5.645-.421-1.736-2.078-1.424-2.919-1.424v3.434l2.788 3.437v5.771h-14.98l-2.916-3.631v-5.577h2.789V9.466l-2.919-3.956V.063h16.663c13.033 0 15.629 7.393 15.629 9.727zM15.813 65.82v3.439l1.688-.021c1.427-.025 2.065-.575 2.065-1.79 0-.68-.554-1.617-2.063-1.617zm0-13.194v3.437h1.616c1.234-.021 1.936-.51 1.936-1.721 0-.683-.554-1.716-2.065-1.716zm16.025-.491c0 1.686-.811 5.38-3.31 7.456 1.104.585 4.799 3.437 4.994 8.755 0 3.566-1.749 10.083-13.421 10.083H3.209L.063 74.31v-5.056h3.179V52.522L0 48.373v-5.316h18.609c10.958 0 13.229 6.44 13.229 9.078zM107.21 9.599v4.639l1.237-.022c1.85.012 2.584-1.321 2.584-2.533 0-.678-.586-2.069-2.063-2.069zm16.448 2.267c0 9.272-9.144 12.255-16.47 12.061v2.204l3.111 4.217v5.055H94.413l-2.854-3.825v-5.316h3.114V9.402l-3.049-3.827V.063h16.861c9.075 0 15.173 4.537 15.173 11.803zM51.227 42.532c10.333 0 18.646 7.944 18.646 18.226 0 11.516-7.599 18.617-18.646 18.617-10.983 0-17.862-7.623-17.802-18.551.062-10.672 6.37-18.292 17.802-18.292zm-3.523 24.224c0 3.152 2.102 4.063 4.1 4.063 1.714 0 3.901-1.229 3.901-3.568l.003-12.166c0-2.596-1.243-4.295-4.15-4.295-1.261-.068-3.854-.115-3.854 4.68zm132.047-23.637h13.779l4.372 5.58.006 3.823h-.974l3.469 8.755 3.177-8.949-2.365-3.632v-5.577h11.153L216 48.436v4.087c-2.01 0-3.307-.194-4.605 3.63l-7.779 22.311h-8.431l-2.918-3.893-8.623-22.048h-.944l-2.949-3.89zm-4.671 0h-14.072v5.447l2.853 3.893v16.795h-2.332v5.185l3.112 4.024h14.202V72.69l-2.593-3.436V52.522h2.593v-3.889l-3.763-5.514m-108.941 0v5.447l3.277 3.956h1.361L79.11 74.83l2.723 3.696h6.616l5.508-15.306 4.28 11.543 2.597 3.699h6.42l9.727-24.318c.519-1.231 1.555-1.622 2.69-1.622h1.851v-4.538l-3.86-4.865H105.6v5.514l2.756 3.695-2.594 6.421-3.696-9.209-5.838-6.421h-4.603l-5.512 15.174-2.107-5.771h1.006v-4.604l-4.348-4.799H66.139m56.028 0v5.383l3.146 3.989v16.763h-3.146v5.186l3.179 4.023h24.121V67.695l-3.89-5.056h-4.022l-2.01 6.614h-1.88V52.522h3.111v-3.956l-4.15-5.447s-14.459-.062-14.459 0M54.533 12.904h-5.577l-3.307-4.15c-1.104-1.298-3.176-1.816-3.954-.261-1.457 3.482 3.306 5.059 5.12 5.707 5.515 2.204 10.44 4.862 10.44 10.828 0 8.559-6.74 11.153-11.411 11.153-2.01 0-3.729-.227-6.354-1.946l-.812 1.167h-4.766l-2.788-3.597v-8.657h5.088l3.017 1.88c.325 1.814 2.205 4.409 5.059 2.725 2.397-2.79-3.307-5.122-4.929-5.902-2.075-1.036-9.469-4.148-9.469-10.893C29.891 2.981 35.857 0 40.138 0c1.427 0 3.31.127 5.574 1.749L46.946.063h3.534l4.02 5.414m36.151 4.052V4.798L86.764.064H76.126v5.384l2.824 3.889v13.552c.029 3.18-2.368 3.373-3.665 3.373-2.27-.066-4.476.258-4.41-5.576V9.466h3.111V4.861L70.357.063H55.409v5.384l3.081 4.082v11.867c0 6.744 4.343 14.654 14.655 14.654 6.353 0 14.59-2.852 14.59-12.317V14.2c0-3.503.326-4.671 2.916-4.671m51.422 6.357l-2.623-3.371h-1.393V9.466h4.016l3.309 4.15h4.704V5.544L145.9.063h-23.281v5.384l3.114 3.987v16.373h-3.175v5.707l3.078 3.888 24.479-.03V25.095l-3.502-4.541h-4.277l-1.752 5.189h-2.527v-5.709h4.016v-4.148"/>
	<path fill="#fff" d="M166.005 4.798h-3.958v10.958h3.958c3.951 0 6.87-1.168 6.87-5.51 0-3.829-2.658-5.385-6.87-5.448zm13.098 4.862c0 3.374-1.948 6.096-6.682 7.456 7.004 1.428 5.707 5.446 5.838 7.654.13 2.982 1.554 2.853 2.658 2.982v3.176h-3.825c-4.996 0-5.124-2.918-5.315-7.974-.261-3.375-1.561-4.604-4.349-4.604h-5.382v9.402h2.789v3.176h-11.606v-3.176h2.851V4.798h-2.916V1.555h14.652c9.276 0 11.287 3.567 11.287 8.105zM49.669 43.959c9.073-.369 15.12 4.939 15.18 15.893.065 11.078-6.042 16.02-14.856 16.02-8.81-.001-14.981-6.173-14.981-15.114 0-9.072 5.334-16.42 14.657-16.799zm-6.808 20.82c0 5.836 3.893 7.521 7.587 7.521 3.339 0 6.808-1.394 6.808-5.48V55.053c-.065-4.928-1.88-7.717-7.264-7.717-2.333 0-7.131.389-7.131 8.43zM27.514 70.98c-1.587 3.008-4.86 3.008-9.1 3.008H1.554v-3.18h3.18V47.854h-3.18v-3.243h16.991c8.107 0 8.817 5.059 8.817 7.717 0 3.893-2.851 5.965-6.808 7.006 3.439.518 7.326 2.721 7.912 6.871.035.24.068.5.064.712-.021 1.29-.192 2.059-.399 2.562-.1.335-.152.521-.152.521-.125.402-.303.675-.465.98zM10.697 47.854v9.79h4.929c3.762-.063 5.902-1.554 5.902-5.252 0-2.074-1.688-4.538-6.293-4.538zm0 13.166v9.789h5.446c3.795 0 5.902-1.621 5.902-5.316 0-2.075-1.684-4.473-6.29-4.473zM119.443 9.66c0 6.159-2.593 9.402-11.609 9.402h-5.639v8.69h3.111v3.176H93.052v-3.176h3.176V4.798h-3.176V1.555h14.98c8.17 0 11.411 2.853 11.411 8.105zm-17.248-4.862v10.958h5.446c2.919 0 5.316-1.252 5.316-4.668 0-4.41-2.658-6.29-7.521-6.29zm78.983 39.813v3.243h2.072l10.378 26.134h6.548l7.977-23.021c.877-2.725 2.271-3.078 3.502-3.112v-3.243h-8.886v3.243c1.104 0 3.505.712 2.727 3.37l-6.616 18.808-8.883-22.178h2.463v-3.244zm-18.61 0v3.243h2.788v22.955h-2.658v3.179h11.219v-3.179h-2.596V47.854h2.658v-3.243zm-95.003 3.243h3.052l9.528 26.134h4.479l7.457-20.232 7.391 20.232h4.213l9.078-22.565c.847-2.339 1.947-3.312 3.957-3.534V44.58l-9.661.031v3.243c1.492.063 4.28.842 3.046 4.149l-6.29 15.628-8.623-23.021h-2.53L84.17 67.694l-7.265-19.841h2.756V44.61l-12.096.001zm56.029 0h3.178v22.955h-3.178v3.179h20.945v-9.856h-2.011l-1.879 6.677h-7.909V47.854h3.108v-3.243h-12.254zM41.888 3.889c-3.564 0-5.316 3.049-5.316 4.541-.063 1.816-.323 3.564 5.254 5.771 4.733 1.88 10.505 3.763 10.505 10.502 0 6.551-5.515 8.236-7.459 8.304-2.983 0-5.254-.648-8.492-3.177l-1.042 1.36h-2.785v-6.614h2.658c.257 1.75 2.14 5.124 6.808 5.124 4.15 0 5.287-3.114 5.254-4.929 0-2.466-3.7-4.604-7.068-5.902-4.668-2.076-8.756-3.176-8.756-8.495 0-6.16 5.902-8.882 8.561-8.882 2.593 0 4.668 1.1 6.029 2.334l1.688-2.271h1.88v7.069h-1.948c-.518-2.271-1.554-4.735-5.771-4.735zm14.915-2.334v3.243h3.177v17.053c0 8.236 7.134 10.312 11.349 10.312 4.668 0 11.479-1.103 11.479-8.235V7.195c0-2.271 2.01-2.203 2.887-2.397V1.555H77.62v3.243c.905.063 2.788.127 2.788 2.334v16.602c0 4.798-6.29 5.122-6.938 5.122-2.271 0-7.521-.454-7.521-9.209V4.798h3.111V1.555H56.803m76.325 12.449V4.798h8.622l1.685 4.083h1.752V1.555h-21.203v3.243h3.176v22.435h-3.176v3.696h21.203V21.98h-1.752l-1.685 5.253h-8.622v-9.987h5.446v-3.242z"/>
</svg>
