<?xml version="1.0" encoding="iso-8859-1"?>
<!-- Generator: Adobe Illustrator 14.0.0, SVG Export Plug-In . SVG Version: 6.00 Build 43363)  -->
<!DOCTYPE svg PUBLIC "-//W3C//DTD SVG 1.1//EN" "http://www.w3.org/Graphics/SVG/1.1/DTD/svg11.dtd">
<svg version="1.1" id="Layer_1" xmlns="http://www.w3.org/2000/svg" xmlns:xlink="http://www.w3.org/1999/xlink" x="0px" y="0px"
	 width="250px" height="44px" viewBox="0 0 250 44" style="enable-background:new 0 0 250 44;" xml:space="preserve">
<g>
	<polyline style="fill:none;stroke:#DA2128;stroke-width:1.1261;stroke-miterlimit:10;" points="52.916,38.642 52.916,9.476 
		58.616,9.476 	"/>
	<path style="fill:none;stroke:#DA2128;stroke-width:1.1261;stroke-miterlimit:10;" d="M58.616,9.476
		c5.298,0,7.786,3.184,7.786,6.851c0,4.629-3.05,7.171-7.438,7.171"/>
	
		<line style="fill:none;stroke:#DA2128;stroke-width:1.1261;stroke-miterlimit:10;" x1="58.963" y1="23.497" x2="53.13" y2="23.497"/>
	
		<line style="fill:none;stroke:#DA2128;stroke-width:1.1261;stroke-miterlimit:10;" x1="30.654" y1="5.998" x2="30.654" y2="29.169"/>
	<path style="fill:none;stroke:#DA2128;stroke-width:1.1261;stroke-miterlimit:10;" d="M30.654,29.169c0,4.951,3.96,6.85,6.689,6.85
		c2.89,0,6.583-2.192,6.583-6.77c0-0.052,0-23.198,0-23.198"/>
	<path style="fill:none;stroke:#DA2128;stroke-width:1.1261;stroke-miterlimit:10;" d="M87.861,16.326
		c0-5.058-3.318-7.385-6.743-7.385c-3.478,0-6.85,2.301-6.797,7.706"/>
	
		<line style="fill:none;stroke:#DA2128;stroke-width:1.1261;stroke-miterlimit:10;" x1="74.322" y1="16.646" x2="74.322" y2="28.742"/>
	<path style="fill:none;stroke:#DA2128;stroke-width:1.1261;stroke-miterlimit:10;" d="M74.322,28.742
		c-0.026,4.146,2.355,7.491,6.851,7.491c3.104,0,6.689-2.113,6.689-7.76"/>
	
		<line style="fill:none;stroke:#DA2128;stroke-width:1.1261;stroke-miterlimit:10;" x1="84.598" y1="22.106" x2="74.536" y2="22.106"/>
	<polyline style="fill:none;stroke:#DA2128;stroke-width:1.1261;stroke-miterlimit:10;" points="95.836,38.695 95.836,9.476 
		102.418,9.476 	"/>
	<path style="fill:none;stroke:#DA2128;stroke-width:1.1261;stroke-miterlimit:10;" d="M102.418,9.476
		c3.639,0,7.385,2.409,7.385,6.422c0,4.388-2.516,7.278-7.171,7.278"/>
	
		<line style="fill:none;stroke:#DA2128;stroke-width:1.1261;stroke-miterlimit:10;" x1="102.632" y1="23.176" x2="96.049" y2="23.176"/>
	
		<line style="fill:none;stroke:#DA2128;stroke-width:1.1261;stroke-miterlimit:10;" x1="105.361" y1="22.909" x2="109.695" y2="38.214"/>
	<path style="fill:none;stroke:#DA2128;stroke-width:1.1261;stroke-miterlimit:10;" d="M133.67,22.213
		c2.569,0,6.689,1.686,6.689,6.529c0,3.611-2.89,6.421-6.422,6.421"/>
	<polyline style="fill:none;stroke:#DA2128;stroke-width:1.1261;stroke-miterlimit:10;" points="133.938,35.163 126.981,35.163 
		126.981,9.476 133.51,9.476 	"/>
	<path style="fill:none;stroke:#DA2128;stroke-width:1.1261;stroke-miterlimit:10;" d="M133.51,9.476c3.613,0,6.85,2.569,6.85,6.155
		c0,4.415-3.522,6.796-7.251,6.583"/>
	
		<line style="fill:none;stroke:#DA2128;stroke-width:1.1261;stroke-miterlimit:10;" x1="133.108" y1="22.213" x2="127.143" y2="22.213"/>
	<path style="fill:none;stroke:#DA2128;stroke-width:1.1261;stroke-miterlimit:10;" d="M155.611,9.048
		c-2.756,0-6.796,2.113-6.796,6.715"/>
	
		<line style="fill:none;stroke:#DA2128;stroke-width:1.1261;stroke-miterlimit:10;" x1="148.815" y1="15.764" x2="148.815" y2="29.115"/>
	<path style="fill:none;stroke:#DA2128;stroke-width:1.1261;stroke-miterlimit:10;" d="M148.815,29.115
		c0,4.47,3.905,6.797,6.796,6.797c3.372,0,6.689-3.157,6.689-6.528c0-0.054,0-13.7,0-13.7c0-4.496-4.039-6.636-6.689-6.636"/>
	
		<line style="fill:none;stroke:#DA2128;stroke-width:1.1261;stroke-miterlimit:10;" x1="170.891" y1="6.051" x2="170.891" y2="29.491"/>
	<path style="fill:none;stroke:#DA2128;stroke-width:1.1261;stroke-miterlimit:10;" d="M170.891,29.491
		c0,4.066,3.291,6.849,6.636,6.849c2.756,0,6.636-1.953,6.636-6.876"/>
	
		<line style="fill:none;stroke:#DA2128;stroke-width:1.1261;stroke-miterlimit:10;" x1="184.162" y1="29.464" x2="184.162" y2="6.051"/>
	
		<line style="fill:none;stroke:#DA2128;stroke-width:1.1261;stroke-miterlimit:10;" x1="197.344" y1="6.141" x2="197.344" y2="29.633"/>
	<path style="fill:none;stroke:#DA2128;stroke-width:1.1261;stroke-miterlimit:10;" d="M197.344,29.633
		c0.091,4.165-3.256,6.707-6.547,6.707c-3.371,0-6.635-2.354-6.635-6.876"/>
	
		<line style="fill:none;stroke:#DA2128;stroke-width:1.1261;stroke-miterlimit:10;" x1="184.162" y1="29.464" x2="184.162" y2="6.051"/>
	<polyline style="fill:none;stroke:#DA2128;stroke-width:1.1261;stroke-miterlimit:10;" points="206.397,6.051 206.397,35.323 
		219.188,35.323 	"/>
	<path style="fill-rule:evenodd;clip-rule:evenodd;fill:#005496;" d="M223.014,6.292l8.055,32.189L223.014,6.292z"/>
	<path style="fill:none;stroke:#005496;stroke-width:1.1261;stroke-miterlimit:10;" d="M223.014,6.292l8.055,32.189L223.014,6.292z"
		/>
	<polyline style="fill:none;stroke:#DA2128;stroke-width:1.1261;stroke-miterlimit:10;" points="225.877,6.292 233.797,38.588 
		241.743,6.292 	"/>
	<path style="fill-rule:evenodd;clip-rule:evenodd;fill:#005496;" d="M244.581,6.266L236.5,38.508L244.581,6.266z"/>
	<path style="fill:none;stroke:#005496;stroke-width:1.1261;stroke-miterlimit:10;" d="M244.581,6.266L236.5,38.508L244.581,6.266z"
		/>
	<polyline style="fill:none;stroke:#005496;stroke-width:1.1261;stroke-miterlimit:10;" points="228.713,6.292 233.797,26.922 
		238.935,6.292 	"/>
	<polygon style="fill-rule:evenodd;clip-rule:evenodd;fill:#005496;" points="228.044,6.051 229.274,6.051 229.463,7.041 
		228.365,7.282 	"/>
	<polygon style="fill-rule:evenodd;clip-rule:evenodd;fill:#DA2128;" points="225.182,6.051 226.412,6.051 226.599,7.041 
		225.502,7.282 	"/>
	<polygon style="fill-rule:evenodd;clip-rule:evenodd;fill:#005496;" points="222.346,6.051 223.575,6.051 223.764,7.041 
		222.667,7.282 	"/>
	<polygon style="fill-rule:evenodd;clip-rule:evenodd;fill:#005496;" points="239.604,6.051 238.372,6.051 238.186,7.041 
		239.282,7.282 	"/>
	<polygon style="fill-rule:evenodd;clip-rule:evenodd;fill:#DA2128;" points="242.438,6.051 241.209,6.051 241.021,7.041 
		242.118,7.282 	"/>
	<polygon style="fill-rule:evenodd;clip-rule:evenodd;fill:#005496;" points="245.249,6.051 244.019,6.051 243.832,7.041 
		244.929,7.282 	"/>
	<polygon style="fill-rule:evenodd;clip-rule:evenodd;fill:#005496;" points="235.832,38.695 237.061,38.695 237.249,37.705 
		236.152,37.465 	"/>
	<polygon style="fill-rule:evenodd;clip-rule:evenodd;fill:#005496;" points="231.737,38.695 230.506,38.695 230.319,37.705 
		231.416,37.465 	"/>
	<polygon style="fill-rule:evenodd;clip-rule:evenodd;fill:#005496;" points="107.582,38.695 106.325,38.695 106.057,37.519 
		107.234,37.465 	"/>
	<polygon style="fill-rule:evenodd;clip-rule:evenodd;fill:#DA2128;" points="110.445,38.695 109.188,38.695 108.919,37.519 
		110.097,37.465 	"/>
	<polygon style="fill-rule:evenodd;clip-rule:evenodd;fill:#005496;" points="113.361,38.695 112.104,38.695 111.837,37.519 
		113.041,37.465 	"/>
	<path style="fill:none;stroke:#DA2128;stroke-width:1.1261;stroke-miterlimit:10;" d="M8.622,29.009
		c0,3.804,3.083,6.888,6.888,6.888c3.803,0,6.886-3.084,6.886-6.888c0-2.038-0.858-3.44-2.265-4.702
		c-0.718-0.644-2.08-1.298-3.048-1.57c-1.452-0.404-3.483-0.716-4.838-1.301c-0.91-0.348-1.651-0.919-2.106-1.454
		c-1.072-1.249-1.463-2.6-1.463-4.352c0-3.804,3.083-6.887,6.887-6.887s6.887,3.083,6.887,6.887"/>
	<polyline style="fill:none;stroke:#005496;stroke-width:1.1261;stroke-miterlimit:10;" points="50.187,38.642 50.187,6.693 
		58.375,6.693 	"/>
	<path style="fill:none;stroke:#005496;stroke-width:1.1261;stroke-miterlimit:10;" d="M58.375,6.693
		c4.977,0,10.81,2.248,10.81,10.167c0,5.967-4.95,9.418-9.767,9.418"/>
	<polyline style="fill:none;stroke:#005496;stroke-width:1.1261;stroke-miterlimit:10;" points="59.418,26.279 55.699,26.279 
		55.699,38.642 	"/>
	<polyline style="fill:none;stroke:#005496;stroke-width:1.1261;stroke-miterlimit:10;" points="55.699,12.258 55.699,20.714 
		58.75,20.714 	"/>
	<path style="fill:none;stroke:#005496;stroke-width:1.1261;stroke-miterlimit:10;" d="M58.75,20.714
		c3.237,0,4.923-1.605,4.923-4.068c0-1.979-0.776-4.388-4.87-4.388"/>
	
		<line style="fill:none;stroke:#005496;stroke-width:1.1261;stroke-miterlimit:10;" x1="58.803" y1="12.258" x2="55.699" y2="12.258"/>
	
		<line style="fill:none;stroke:#005496;stroke-width:1.1261;stroke-miterlimit:10;" x1="27.925" y1="5.998" x2="27.925" y2="29.543"/>
	<path style="fill:none;stroke:#005496;stroke-width:1.1261;stroke-miterlimit:10;" d="M27.925,29.543
		c0,6.235,5.458,9.26,9.418,9.26c4.361,0,9.366-3.532,9.366-8.991c0-0.053,0-23.76,0-23.76"/>
	
		<line style="fill:none;stroke:#005496;stroke-width:1.1261;stroke-miterlimit:10;" x1="33.437" y1="5.998" x2="33.437" y2="28.929"/>
	<path style="fill:none;stroke:#005496;stroke-width:1.1261;stroke-miterlimit:10;" d="M33.437,28.929
		c0,3.425,2.515,4.308,3.88,4.308c1.257,0,3.88-0.802,3.88-4.335"/>
	
		<line style="fill:none;stroke:#005496;stroke-width:1.1261;stroke-miterlimit:10;" x1="41.197" y1="28.901" x2="41.197" y2="6.051"/>
	<path style="fill:none;stroke:#005496;stroke-width:1.1261;stroke-miterlimit:10;" d="M90.644,16.326
		c0-5.058-3.21-10.168-9.525-10.168c-5.726,0-9.526,4.094-9.526,9.9"/>
	
		<line style="fill:none;stroke:#005496;stroke-width:1.1261;stroke-miterlimit:10;" x1="71.593" y1="16.058" x2="71.593" y2="28.742"/>
	<path style="fill:none;stroke:#005496;stroke-width:1.1261;stroke-miterlimit:10;" d="M71.593,28.742
		c0,6.181,4.094,10.327,9.58,10.327c3.933,0,9.472-2.568,9.472-10.649"/>
	<path style="fill:none;stroke:#005496;stroke-width:1.1261;stroke-miterlimit:10;" d="M85.132,16.219
		c0-3.237-2.034-4.495-4.014-4.495c-2.943,0-4.014,2.194-4.014,4.334"/>
	<polyline style="fill:none;stroke:#005496;stroke-width:1.1261;stroke-miterlimit:10;" points="77.105,16.058 77.105,19.323 
		84.598,19.323 	"/>
	<path style="fill:none;stroke:#005496;stroke-width:1.1261;stroke-miterlimit:10;" d="M85.132,28.42c0,3.104-1.499,5.03-4.014,5.03
		s-4.014-1.767-4.014-4.869"/>
	<polyline style="fill:none;stroke:#005496;stroke-width:1.1261;stroke-miterlimit:10;" points="77.105,28.581 77.105,24.889 
		84.598,24.889 	"/>
	<polyline style="fill:none;stroke:#005496;stroke-width:1.1261;stroke-miterlimit:10;" points="93.106,38.695 93.106,6.693 
		100.813,6.693 	"/>
	<path style="fill:none;stroke:#005496;stroke-width:1.1261;stroke-miterlimit:10;" d="M100.813,6.693
		c8.991,0,11.773,5.137,11.773,9.15c0,5.673-2.783,7.546-3.961,8.402"/>
	
		<line style="fill:none;stroke:#005496;stroke-width:1.1261;stroke-miterlimit:10;" x1="108.625" y1="24.246" x2="112.639" y2="38.268"/>
	
		<line style="fill:none;stroke:#005496;stroke-width:1.1261;stroke-miterlimit:10;" x1="98.618" y1="38.695" x2="98.618" y2="25.905"/>
	<path style="fill:none;stroke:#005496;stroke-width:1.1261;stroke-miterlimit:10;" d="M98.618,25.905c0,0,3.693,0.053,4.709,0"/>
	
		<line style="fill:none;stroke:#005496;stroke-width:1.1261;stroke-miterlimit:10;" x1="103.328" y1="25.905" x2="106.859" y2="38.32"/>
	<polyline style="fill:none;stroke:#005496;stroke-width:1.1261;stroke-miterlimit:10;" points="98.618,20.393 98.618,12.258 
		102.632,12.258 	"/>
	<path style="fill:none;stroke:#005496;stroke-width:1.1261;stroke-miterlimit:10;" d="M102.632,12.258
		c2.301,0,4.388,1.445,4.442,3.854c0,2.943-2.087,4.281-4.174,4.281"/>
	
		<line style="fill:none;stroke:#005496;stroke-width:1.1261;stroke-miterlimit:10;" x1="102.899" y1="20.393" x2="98.618" y2="20.393"/>
	<polyline style="fill:none;stroke:#005496;stroke-width:1.1261;stroke-miterlimit:10;" points="124.252,37.946 124.252,6.693 
		133.001,6.693 	"/>
	<path style="fill:none;stroke:#005496;stroke-width:1.1261;stroke-miterlimit:10;" d="M133.001,6.693
		c6.102,0,10.141,3.907,10.141,8.884c0,2.729-1.016,5.324-2.701,6.662c1.338,1.419,2.701,3.184,2.701,6.77
		c0,4.817-3.638,8.938-10.061,8.938"/>
	
		<line style="fill:none;stroke:#005496;stroke-width:1.1261;stroke-miterlimit:10;" x1="133.081" y1="37.946" x2="124.252" y2="37.946"/>
	
		<line style="fill:none;stroke:#005496;stroke-width:1.1261;stroke-miterlimit:10;" x1="129.764" y1="12.258" x2="133.563" y2="12.258"/>
	<path style="fill:none;stroke:#005496;stroke-width:1.1261;stroke-miterlimit:10;" d="M133.563,12.258
		c3.051,0,4.066,2.301,4.066,3.372c0,1.712-1.016,3.8-4.12,3.8"/>
	<polyline style="fill:none;stroke:#005496;stroke-width:1.1261;stroke-miterlimit:10;" points="133.51,19.431 129.764,19.431 
		129.764,12.258 	"/>
	<polyline style="fill:none;stroke:#005496;stroke-width:1.1261;stroke-miterlimit:10;" points="129.764,32.38 129.764,24.995 
		133.51,24.995 	"/>
	<path style="fill:none;stroke:#005496;stroke-width:1.1261;stroke-miterlimit:10;" d="M133.51,24.995
		c2.302,0,4.066,1.499,4.066,3.747c0,2.087-1.605,3.638-3.719,3.638"/>
	
		<line style="fill:none;stroke:#005496;stroke-width:1.1261;stroke-miterlimit:10;" x1="133.857" y1="32.38" x2="129.764" y2="32.38"/>
	
		<line style="fill:none;stroke:#005496;stroke-width:1.1261;stroke-miterlimit:10;" x1="151.598" y1="16.085" x2="151.598" y2="29.036"/>
	<path style="fill:none;stroke:#005496;stroke-width:1.1261;stroke-miterlimit:10;" d="M151.598,29.036
		c0,2.836,2.302,4.066,3.934,4.066c1.872,0,4.04-1.338,4.04-4.12c0-0.027,0-12.924,0-12.924c0-2.675-1.846-4.255-3.986-4.255
		c-1.767,0-3.987,1.204-3.987,4.282"/>
	<path style="fill:none;stroke:#005496;stroke-width:1.1261;stroke-miterlimit:10;" d="M155.611,6.266
		c-5.373,0.004-9.819,4.644-9.75,9.757c0.064,4.985-0.165,8.696,0.1,13.415c0,5.458,4.965,9.258,9.65,9.258
		c4.309,0,9.472-3.56,9.472-9.419c0-0.054,0-13.807,0-13.807C165.083,9.958,159.975,6.26,155.611,6.266"/>
	
		<line style="fill:none;stroke:#005496;stroke-width:1.1261;stroke-miterlimit:10;" x1="173.646" y1="6.051" x2="173.646" y2="29.41"/>
	<path style="fill:none;stroke:#005496;stroke-width:1.1261;stroke-miterlimit:10;" d="M173.646,29.41
		c0,2.73,1.874,4.147,3.96,4.147c1.847,0,3.801-1.498,3.801-4.015"/>
	
		<line style="fill:none;stroke:#005496;stroke-width:1.1261;stroke-miterlimit:10;" x1="181.406" y1="29.543" x2="181.406" y2="6.051"/>
	
		<line style="fill:none;stroke:#005496;stroke-width:1.1261;stroke-miterlimit:10;" x1="194.624" y1="6.051" x2="194.624" y2="29.41"/>
	<path style="fill:none;stroke:#005496;stroke-width:1.1261;stroke-miterlimit:10;" d="M194.624,29.41
		c0,2.623-1.846,4.147-3.827,4.147c-1.845,0-3.932-1.097-3.844-4.228"/>
	
		<line style="fill:none;stroke:#005496;stroke-width:1.1261;stroke-miterlimit:10;" x1="186.953" y1="29.33" x2="186.953" y2="6.051"/>
	
		<line style="fill:none;stroke:#005496;stroke-width:1.1261;stroke-miterlimit:10;" x1="168.16" y1="6.051" x2="168.16" y2="29.384"/>
	<path style="fill:none;stroke:#005496;stroke-width:1.1261;stroke-miterlimit:10;" d="M168.16,29.384
		c0,5.672,4.282,9.739,9.366,9.739c3.933,0,5.913-2.06,6.608-2.649"/>
	
		<line style="fill:none;stroke:#005496;stroke-width:1.1261;stroke-miterlimit:10;" x1="200.162" y1="6.051" x2="200.137" y2="29.839"/>
	<path style="fill:none;stroke:#005496;stroke-width:1.1261;stroke-miterlimit:10;" d="M200.137,29.839
		c0,5.378-4.336,9.284-9.34,9.284c-3.932,0-5.859-2.06-6.555-2.649"/>
	<polyline style="fill:none;stroke:#005496;stroke-width:1.1261;stroke-miterlimit:10;" points="203.668,5.998 203.668,38.106 
		219.188,38.106 	"/>
	<path style="fill:none;stroke:#005496;stroke-width:1.1261;stroke-miterlimit:10;" d="M209.181,6.104c0-0.053,0,26.438,0,26.438"/>
	
		<line style="fill:none;stroke:#005496;stroke-width:1.1261;stroke-miterlimit:10;" x1="209.181" y1="32.542" x2="219.188" y2="32.542"/>
	
		<line style="fill:none;stroke:#005496;stroke-width:1.1261;stroke-miterlimit:10;" x1="209.209" y1="6.102" x2="209.209" y2="33.066"/>
	<path style="fill:none;stroke:#005496;stroke-width:1.1261;stroke-miterlimit:10;" d="M11.316,28.952
		c0,2.317,1.879,4.195,4.196,4.195c2.317,0,4.196-1.878,4.196-4.195c-0.038-1.871-1.38-2.696-2.266-3.192
		c-0.408-0.173-0.617-0.268-0.809-0.337c-0.315-0.095-0.753-0.24-1.047-0.332c-2.411-0.59-3.827-0.912-4.784-1.357
		c-0.668-0.267-1.296-0.651-1.885-1.081c-0.49-0.375-1.188-0.956-1.984-2.359c-0.721-1.271-1.078-3.052-1.078-4.652
		c0-5.333,4.325-9.658,9.658-9.658c5.334,0,9.658,4.325,9.658,9.658"/>
	<path style="fill:none;stroke:#005496;stroke-width:1.1261;stroke-miterlimit:10;" d="M5.854,29.021
		c0,5.333,4.325,9.658,9.658,9.658c5.334,0,9.658-4.325,9.658-9.658c0-2.507-1.25-4.87-2.629-6.186
		c-1.445-1.392-3.5-2.174-4.731-2.549c-1.592-0.484-3.75-0.856-4.629-1.338"/>
	
		<line style="fill:none;stroke:#005496;stroke-width:1.1261;stroke-miterlimit:10;" x1="13.182" y1="18.948" x2="13.074" y2="18.894"/>
	<path style="fill:none;stroke:#005496;stroke-width:1.1261;stroke-miterlimit:10;" d="M13.074,18.894
		c-0.482-0.267-1.677-0.965-1.704-3.212c0-2.318,1.879-4.196,4.195-4.196c2.318,0,4.196,1.878,4.196,4.196"/>
	<path style="fill-rule:evenodd;clip-rule:evenodd;fill:#005496;" d="M19.015,14.48c0.107,0.562,0.133,1.445,0.133,1.445h1.178
		c0.053-0.777-0.081-1.178-0.241-1.606L19.015,14.48z"/>
	<path style="fill-rule:evenodd;clip-rule:evenodd;fill:#DA2128;" d="M21.744,14.48c0.134,0.616,0.107,1.445,0.107,1.445h1.204
		c0.054-0.777-0.08-1.178-0.241-1.606L21.744,14.48z"/>
	<path style="fill-rule:evenodd;clip-rule:evenodd;fill:#005496;" d="M24.581,14.452c0.026,0.536-0.028,1.473-0.028,1.473h1.205
		c0.054-0.777-0.081-1.178-0.241-1.606L24.581,14.452z"/>
	<path style="fill-rule:evenodd;clip-rule:evenodd;fill:#005496;" d="M12.031,30.079c-0.107-0.562-0.134-1.444-0.134-1.444h-1.178
		c-0.054,0.775,0.081,1.177,0.241,1.605L12.031,30.079z"/>
	<path style="fill-rule:evenodd;clip-rule:evenodd;fill:#DA2128;" d="M9.355,30.079c-0.133-0.61-0.108-1.444-0.108-1.444H8.044
		C7.99,29.41,8.125,29.812,8.285,30.24L9.355,30.079z"/>
	<path style="fill-rule:evenodd;clip-rule:evenodd;fill:#005496;" d="M6.438,30.105c-0.027-0.535,0.026-1.471,0.026-1.471H5.261
		c-0.053,0.775,0.081,1.177,0.241,1.605L6.438,30.105z"/>
	<rect x="84.514" y="15.787" style="fill-rule:evenodd;clip-rule:evenodd;fill:#005496;" width="1.186" height="0.568"/>
	<rect x="87.243" y="15.787" style="fill-rule:evenodd;clip-rule:evenodd;fill:#DA2128;" width="1.187" height="0.568"/>
	<rect x="90.026" y="15.787" style="fill-rule:evenodd;clip-rule:evenodd;fill:#005496;" width="1.186" height="0.568"/>
	<rect x="84.514" y="28.39" style="fill-rule:evenodd;clip-rule:evenodd;fill:#005496;" width="1.186" height="0.568"/>
	<rect x="87.243" y="28.39" style="fill-rule:evenodd;clip-rule:evenodd;fill:#DA2128;" width="1.187" height="0.568"/>
	<rect x="90.026" y="28.39" style="fill-rule:evenodd;clip-rule:evenodd;fill:#005496;" width="1.186" height="0.568"/>
	<path style="fill-rule:evenodd;clip-rule:evenodd;fill:#005496;" d="M184.162,35.404c-0.187,0.24-0.536,0.749-0.938,1.043
		l0.938,0.375l0.937-0.375C184.778,36.18,184.377,35.698,184.162,35.404"/>
	
		<line style="fill:none;stroke:#005496;stroke-width:1.1261;stroke-miterlimit:10;" x1="103.816" y1="25.844" x2="98.105" y2="25.844"/>
</g>
</svg>
