<?xml version="1.0" encoding="iso-8859-1"?>
<!-- Generator: Adobe Illustrator 14.0.0, SVG Export Plug-In . SVG Version: 6.00 Build 43363)  -->
<!DOCTYPE svg PUBLIC "-//W3C//DTD SVG 1.1//EN" "http://www.w3.org/Graphics/SVG/1.1/DTD/svg11.dtd">
<svg version="1.1" id="Layer_1" xmlns="http://www.w3.org/2000/svg" xmlns:xlink="http://www.w3.org/1999/xlink" x="0px" y="0px"
	 width="250px" height="167px" viewBox="0 0 250 167" style="enable-background:new 0 0 250 167;" xml:space="preserve">
<g>
	<path style="fill-rule:evenodd;clip-rule:evenodd;fill:#FFFFFF;" d="M215.325,39.645c6.483,2.751,11.497,7.868,13.676,14.4
		c0,0,8.193-0.469,9.146-0.417c0.977,0.051,3.144,0.245,4.729,1.619c2.068,1.795,2.141,4.606,2.122,5.751
		c-0.018,1.101-0.175,2.081-0.258,2.515l-5.253,70.036l-13.294-0.232l-0.852,13.297l-15.447-0.684l-0.366,5.262l-35.821-1.71
		l0.209-5.24l-151.943-7.324l-0.49-7.213l-7.215-0.127c-1.583,0.021-2.878-0.49-4.042-1.526c-2.143-1.906-2.689-4.869-1.462-7.412
		l9.508-22.751L5.587,75.074c-0.691-1.712-0.764-3.125-0.261-4.745c0.905-2.924,3.611-4.946,6.78-4.678l6.205-0.33l-0.155-2.568
		c-0.281-4.799,3.048-9.524,8.193-9.893l14.813-1.341l-0.387-11.865l15.076-1.323c0.771-3.347,3.25-6.308,6.795-7.347
		c1.117-4.549,4.748-7.886,9.993-8.601L197.214,4.931c10.006-1.106,19.277,3.595,18.903,15.455L215.325,39.645z"/>
	<path style="fill-rule:evenodd;clip-rule:evenodd;fill:#003976;" d="M59.249,41.481l-0.021-0.658
		c-0.113-3.332,2.329-6.486,5.849-6.79l0.918-0.103c-0.025-4.211,2.633-7.52,7.355-8.165L197.879,8.319
		c8.813-0.973,15.392,2.947,15.103,11.979l-0.893,21.699c7.605,2.401,13.16,8.211,14.594,15.604l9.803-0.523
		c0,0,3.128-0.358,4.423,0.761c1.586,1.375,0.722,5.248,0.722,5.248l-5.031,67.061l-13.327-0.235l-0.847,13.212l-15.429-0.684
		l-0.366,5.248l-29.165-1.39l0.206-5.24l-152.283-7.34l-0.493-7.306l-10.323-0.184c-0.764,0.031-1.271-0.154-1.852-0.67
		c-0.993-0.882-1.251-2.205-0.666-3.415l10.215-24.43L8.891,73.65c-0.331-0.82-0.356-1.434-0.09-2.285
		c0.49-1.583,1.903-2.509,3.456-2.288l9.877-0.528l-0.355-5.962c-0.191-3.273,2.065-6.107,5.057-6.321l18.057-1.63l-0.387-11.86
		L59.249,41.481z"/>
	<path style="fill-rule:evenodd;clip-rule:evenodd;fill:#00ACD4;" d="M211.305,48.924c3.727,1.882,6.494,5.026,7.667,8.884
		l-8.142,0.436L211.305,48.924z"/>
	<polygon style="fill-rule:evenodd;clip-rule:evenodd;fill:#00ACD4;" points="216.13,129.598 215.751,136.197 206.893,135.872 
		207.218,129.44 	"/>
	<polygon style="fill-rule:evenodd;clip-rule:evenodd;fill:#00ACD4;" points="177.666,134.797 29.349,129.338 29.155,126.3 
		177.898,128.925 	"/>
	<path style="fill-rule:evenodd;clip-rule:evenodd;fill:#FDB927;" d="M194.465,13.552c7.69-0.668,11.316,2.295,11.051,8.748
		l-1.689,36.321L196.731,59l1.396-31.816c0.355-7.507-1.818-8.325-9.132-7.463L69.28,33.368l-0.016-0.488
		c-0.054-1.854,1.488-3.401,3.082-3.665L194.465,13.552z"/>
	<path style="fill-rule:evenodd;clip-rule:evenodd;fill:#FDB927;" d="M194.77,26.021l-1.414,33.16l-6.741,0.361l1.228-30.544
		L61.892,40.929l-0.013-0.395c-0.067-1.942,1.364-3.649,3.203-3.807l125.499-13.825C193.962,22.47,194.979,23.643,194.77,26.021"/>
	<path style="fill-rule:evenodd;clip-rule:evenodd;fill:#FFFFFF;" d="M27.518,64.314c-0.09-1.637,1.05-3.045,2.553-3.144
		c1.511-0.095,2.806,1.163,2.891,2.811c0.085,1.646-1.07,3.046-2.577,3.131C28.89,67.198,27.608,65.944,27.518,64.314"/>
	<path style="fill-rule:evenodd;clip-rule:evenodd;fill:#FFFFFF;" d="M37.341,63.559c-0.085-1.759,1.163-3.272,2.795-3.378
		c1.64-0.106,3.041,1.246,3.121,3.017c0.08,1.767-1.187,3.27-2.821,3.363C38.808,66.654,37.426,65.31,37.341,63.559"/>
	<polygon style="fill-rule:evenodd;clip-rule:evenodd;fill:#FDB927;" points="200.734,129.327 200.076,141.876 193.269,141.551 
		193.858,129.206 	"/>
	<polygon style="fill-rule:evenodd;clip-rule:evenodd;fill:#FDB927;" points="189.978,129.137 189.434,141.368 182.754,141.051 
		183.252,129.018 	"/>
	<polygon style="fill-rule:evenodd;clip-rule:evenodd;fill:#FFFFFF;" points="49.234,66.894 48.296,46.038 182.158,33.858 
		181.006,59.84 	"/>
	<polygon style="fill-rule:evenodd;clip-rule:evenodd;fill:#FFFFFF;" points="180.448,123.065 182.659,66.458 202.56,65.527 
		199.607,123.287 180.462,123.065 	"/>
	<polygon style="fill-rule:evenodd;clip-rule:evenodd;fill:#F5822B;" points="180.448,123.065 182.659,66.458 190.991,70.782 
		188.863,118.885 180.462,123.065 191.414,120.188 197.434,123.262 180.462,123.065 	"/>
	<polygon style="fill-rule:evenodd;clip-rule:evenodd;fill:#FDB927;" points="197.434,123.262 191.414,120.188 193.751,69.256 
		200.298,65.632 	"/>
	<polygon style="fill-rule:evenodd;clip-rule:evenodd;fill:#FFFFFF;" points="208.161,123.394 211.483,65.081 232.622,64.093 
		228.47,123.628 208.177,123.394 	"/>
	<polygon style="fill-rule:evenodd;clip-rule:evenodd;fill:#F5822B;" points="208.161,123.394 211.483,65.081 220.249,69.529 
		217.154,119.094 208.177,123.394 219.833,120.436 226.165,123.602 208.177,123.394 	"/>
	<polygon style="fill-rule:evenodd;clip-rule:evenodd;fill:#FDB927;" points="226.165,123.602 219.833,120.436 223.204,67.951 
		230.222,64.206 	"/>
	<polygon style="fill-rule:evenodd;clip-rule:evenodd;fill:#00ACD4;" points="47.311,96.954 53.993,80.227 62.555,97.058 
		55.674,113.135 	"/>
	<polygon style="fill-rule:evenodd;clip-rule:evenodd;fill:#00ACD4;" points="90.515,96.302 97.991,79.566 106.398,96.165 
		98.662,112.296 	"/>
	<polygon style="fill-rule:evenodd;clip-rule:evenodd;fill:#00ACD4;" points="137.858,95.626 147.096,77.15 146.34,112.389 	"/>
	<path style="fill-rule:evenodd;clip-rule:evenodd;fill:#003976;" d="M71.906,47.09c-0.003-0.003-2.744,0.222-2.744,0.222
		c0.002-0.002,0.196,12.895,0.196,12.895l0.002,0.049c0.005,0.333,0.013,0.748-0.792,0.815c-0.219,0.005-0.402-0.049-0.516-0.157
		c-0.085-0.083-0.188-0.25-0.191-0.58c0-0.003-0.214-12.897-0.214-12.897c-0.002,0-2.739,0.222-2.739,0.222
		c0.002-0.003,0.227,12.791,0.227,12.791c0.046,1.019,0.361,1.795,0.941,2.324c0.611,0.557,1.486,0.815,2.597,0.763
		c0.988-0.064,1.857-0.407,2.455-0.967c0.972-0.913,0.962-1.893,0.957-2.479L71.906,47.09z"/>
	<path style="fill-rule:evenodd;clip-rule:evenodd;fill:#003976;" d="M81.419,56.116l-0.025-2.955l-0.026-2.834
		c1.426,1.251,1.434,2.512,1.437,3.304C82.796,54.574,82.002,55.611,81.419,56.116 M79.165,46.247l-0.59-0.24
		c0-0.002,0.165,17.042,0.165,17.042c0,0.002,2.726-0.183,2.726-0.183c0.008-0.002,0.023-2.646-0.01-3.417
		c0.513-0.271,1.106-0.59,2.061-1.318c1.382-1.147,2.146-2.868,2.226-4.99C85.574,49.548,83.101,47.843,79.165,46.247z"/>
	<path style="fill-rule:evenodd;clip-rule:evenodd;fill:#003976;" d="M91.693,45.463c0-0.002,0.008,9.016,0.008,9.016l-3.123,0.201
		l1.712,2.326c0,0,1-0.054,1.416-0.083l0.021,2.156c0.051,0.823,0.178,2.754,3.045,2.685c0.016,0,3.237-0.175,3.237-0.175
		c-0.005,0.002-0.003-2.561-0.003-2.561c0.003-0.002-3.492,0.181-3.528,0.173c-0.013-0.07-0.018-2.45-0.018-2.45l3.543-0.222
		c0,0.003,0.002-2.46,0.002-2.46c0-0.003-3.548,0.229-3.548,0.229l0.005-6.483l3.561-0.286c0,0.002,0.005-2.592,0.005-2.592
		C98.03,44.934,91.693,45.463,91.693,45.463"/>
	<path style="fill-rule:evenodd;clip-rule:evenodd;fill:#003976;" d="M107.747,50.487l0.023-2.935
		c1.418,1.163,1.728,2.386,1.717,3.25c-0.018,1.106-0.372,1.591-1.764,2.612L107.747,50.487z M112.149,50.822
		c-0.026-1.81-0.722-6.086-6.63-7.21l-0.505-0.096l-0.062,10.094l-3.133,0.206c-0.003,0,1.689,2.365,1.689,2.365
		s1.026-0.059,1.426-0.085l-0.023,5.111c0.003,0.002,2.765-0.149,2.765-0.149c-0.002,0.002,0.026-5.14,0.026-5.14l1.248-0.08
		c-0.013,0.002,0,0.002,0.026,0.031c0.085,0.085,0.358,0.49,0.338,2.12l-0.01,1.276l-0.018,1.702
		c-0.003,0.002,2.77-0.152,2.77-0.152c-0.005,0.003,0.026-2.93,0.026-2.93v-0.057c0.018-1.075,0.049-3.339-1.313-4.196
		C111.375,53.315,112.067,52.697,112.149,50.822z"/>
	<path style="fill-rule:evenodd;clip-rule:evenodd;fill:#003976;" d="M129.611,52.031l0.139-6.573
		c1.524,1.377,1.738,3.061,1.715,4.007C131.432,50.58,131.045,51.162,129.611,52.031l-0.072,2.326
		c0.366-0.026,0.737-0.049,1.127-0.072l0.188-0.01c0.064-0.002,0.104,0.018,0.14,0.054c0.346,0.346,0.31,1.692,0.291,2.414
		c-0.013,0.322-0.074,0.363-0.552,0.395c-0.446,0.026-0.827,0.044-1.245,0.072l0.052-2.853L129.611,52.031z M134.124,49.161
		c-0.003-1.455-0.49-6.212-6.595-7.494l-0.508-0.108l-0.002,0.518c-0.023,3.025-0.199,10.019-0.199,10.019l-3.148,0.214
		c-0.003-0.003,1.653,2.432,1.653,2.432s1.029-0.075,1.444-0.101l-0.093,5.297c0,0.005,0.457-0.023,0.457-0.023l3.368-0.191
		c2.793-0.209,3.357-1.882,3.445-2.86c0.002-0.026,0.054-2.669,0.054-2.669c-0.025-1.31-0.696-1.885-1.349-2.161
		C133.407,51.624,134.019,51.039,134.124,49.161z"/>
	<path style="fill-rule:evenodd;clip-rule:evenodd;fill:#003976;" d="M143.308,44.485c-0.091-0.993,0.461-1.186,0.949-1.243
		c0.178-0.008,0.451,0.007,0.588,0.142c0.175,0.175,0.159,0.562,0.149,0.846l-0.335,11.167l-0.003,0.043
		c-0.023,0.676-0.096,1.125-0.88,1.199c-0.193,0.005-0.484-0.018-0.629-0.165c-0.178-0.178-0.165-0.564-0.154-0.876
		c0-0.013,0.314-11.061,0.314-11.061l0.002-0.023C143.31,44.509,143.308,44.485,143.308,44.485 M144.213,40.506
		c-1.612,0.186-3.528,1.261-3.703,3.683c-0.003,0.018-0.328,11.997-0.328,12.012c0.008,0.985,0.31,1.77,0.897,2.329
		c0.64,0.611,1.573,0.91,2.7,0.864c1.666-0.119,3.492-1.117,3.665-3.564c0-0.016,0.376-12.128,0.376-12.128
		c0.028-0.947-0.283-1.782-0.879-2.357C146.302,40.726,145.357,40.437,144.213,40.506z"/>
	<path style="fill-rule:evenodd;clip-rule:evenodd;fill:#003976;" d="M173.911,54.313c-0.041-0.103,0.712-16.041,0.712-16.041
		c-0.005-0.002-2.886,0.255-2.886,0.255c0.002,0.002-0.681,14.994-0.681,14.994c-0.05,0.978-0.088,1.741,0.613,2.687
		c0.668,0.918,1.811,0.988,2.837,0.934c0.005,0,2.595-0.157,2.595-0.157c0.002,0.002,0.139-2.819,0.139-2.819
		C177.238,54.164,173.96,54.332,173.911,54.313"/>
	<path style="fill-rule:evenodd;clip-rule:evenodd;fill:#003976;" d="M59.241,58.035c0-0.003-3.084-4.088-3.781-4.97l-0.049-1.98
		c0.044-0.266,0.286-0.487,0.575-0.521c0.136-0.005,0.307,0.052,0.415,0.152c0.044,0.041,0.098,0.108,0.098,0.19
		c0-0.002,0.049,1.996,0.049,1.996c-0.002,0,2.574-0.186,2.574-0.186c0.002,0-0.039-1.96-0.039-1.96
		c-0.116-1.558-1.462-2.607-3.203-2.517c-1.761,0.188-3.061,1.452-3.046,2.938c0,0.005,0.067,2.729,0.067,2.729l3.778,4.926
		c0,0,0.008,1.818,0.057,2.419c-0.043,0.214-0.273,0.461-0.56,0.49c-0.26,0.005-0.513-0.214-0.518-0.353
		c0,0.002-0.049-1.991-0.049-1.991c0.003-0.002-2.571,0.147-2.571,0.147c0.005-0.002,0.051,1.96,0.051,1.96
		c0.119,1.504,1.45,2.553,3.169,2.515c1.759-0.137,3.059-1.349,3.048-2.824C59.308,61.189,59.241,58.035,59.241,58.035"/>
	<path style="fill-rule:evenodd;clip-rule:evenodd;fill:#003976;" d="M162.686,39.446c0,0-0.462,10.251-0.63,15.53
		c-0.016,0.273-0.379,0.614-0.709,0.647c-0.105,0.003-0.253-0.059-0.363-0.17c-0.093-0.096-0.147-0.211-0.143-0.32
		c-0.002,0.005,0.609-15.577,0.609-15.577c0-0.002-2.656,0.232-2.656,0.232s-0.39,10.844-0.583,15.427
		c-0.016,0.276-0.377,0.611-0.704,0.645c-0.105,0.003-0.255-0.062-0.363-0.17c-0.096-0.096-0.147-0.209-0.145-0.315l0.569-15.483
		c0,0.002-2.648,0.234-2.648,0.234l-0.547,15.332c0.008,0.864,0.32,1.623,0.877,2.159c0.57,0.547,1.367,0.835,2.249,0.813
		c0.717-0.057,1.465-0.348,1.971-0.735c0.523,0.348,1.209,0.539,1.872,0.51c1.82-0.16,3.252-1.581,3.348-3.303
		c0.211-4.627,0.645-15.688,0.645-15.688L162.686,39.446z"/>
	<polygon style="fill-rule:evenodd;clip-rule:evenodd;fill:#FFFFFF;" points="100.273,122.119 112.75,96.101 99.678,70.298 
		117.696,69.457 121.748,77.348 125.714,69.083 144.716,68.196 131.001,95.639 144.669,122.658 126.135,122.444 121.799,113.96 
		117.611,122.344 100.263,122.145 	"/>
	<polygon style="fill-rule:evenodd;clip-rule:evenodd;fill:#F5822B;" points="125.812,105.965 134.212,122.537 126.135,122.444 
		121.799,113.96 	"/>
	<polygon style="fill-rule:evenodd;clip-rule:evenodd;fill:#F5822B;" points="115.778,122.323 100.263,122.145 112.263,117.929 	"/>
	<path style="fill-rule:evenodd;clip-rule:evenodd;fill:#F5822B;" d="M110.891,116.216l-10.617,5.903l12.477-26.019L99.678,70.298
		c9.687,3.216,9.689,3.218,9.689,3.218l7.303,14.413l9.044-18.846l5.211,6.184L110.891,116.216z"/>
	<polygon style="fill-rule:evenodd;clip-rule:evenodd;fill:#FDB927;" points="111.128,72.428 115.804,69.544 120.781,79.362 
		117.8,85.575 	"/>
	<polygon style="fill-rule:evenodd;clip-rule:evenodd;fill:#FDB927;" points="126.016,101.784 115.778,122.323 112.263,117.929 
		134.178,73.341 142.709,68.289 129.057,95.681 142.728,122.635 136.515,122.565 	"/>
	<polygon style="fill-rule:evenodd;clip-rule:evenodd;fill:#FFFFFF;" points="15.255,74.236 29.991,73.547 33.687,80.678 
		36.528,73.243 51.981,72.523 42.148,97.199 54.645,121.616 39.476,121.441 35.515,113.767 32.482,121.358 18.208,121.193 
		27.224,97.589 	"/>
	<polygon style="fill-rule:evenodd;clip-rule:evenodd;fill:#F5822B;" points="38.406,106.522 46.096,121.519 39.476,121.441 
		35.515,113.767 	"/>
	<polygon style="fill-rule:evenodd;clip-rule:evenodd;fill:#F5822B;" points="15.255,74.236 23.381,77.219 30.042,90.211 
		36.528,73.243 41.088,78.831 26.667,115.809 18.216,121.173 27.876,117.361 30.979,121.343 18.208,121.193 27.224,97.589 	"/>
	<polygon style="fill-rule:evenodd;clip-rule:evenodd;fill:#FDB927;" points="24.753,76.203 28.443,73.622 32.993,82.491 
		30.855,88.086 	"/>
	<polygon style="fill-rule:evenodd;clip-rule:evenodd;fill:#FFFFFF;" points="80.558,121.915 76.421,113.861 72.857,121.828 
		57.162,121.645 67.764,96.885 55.269,72.369 71.519,71.61 75.385,79.102 78.74,71.272 95.825,70.478 84.222,96.462 97.279,122.108 
			"/>
	<path style="fill-rule:evenodd;clip-rule:evenodd;fill:#F5822B;" d="M67.906,117.629l3.296,4.179l-14.04-0.163l10.602-24.76
		L55.269,72.369c8.838,3.071,8.838,3.074,8.838,3.074l6.981,13.685l7.652-17.854l4.858,5.877l-16.979,38.852l-9.446,5.619
		L67.906,117.629z"/>
	<polygon style="fill-rule:evenodd;clip-rule:evenodd;fill:#F5822B;" points="87.851,122.001 80.558,121.915 76.421,113.861 
		79.823,106.257 	"/>
	<polygon style="fill-rule:evenodd;clip-rule:evenodd;fill:#FDB927;" points="65.672,74.416 69.814,71.69 74.567,81.008 
		72.045,86.896 	"/>
	<path style="fill-rule:evenodd;clip-rule:evenodd;fill:#003976;" d="M26.984,145.675l0.449-0.684
		c-0.204-0.098-0.531-0.183-0.864-0.203c-1.055-0.06-1.705,0.402-1.687,1.193c0.013,0.467,0.25,0.856,0.851,1.449
		c0.493,0.482,0.79,0.817,0.8,1.226c0.005,0.268-0.243,0.423-0.578,0.404c-0.235-0.016-0.454-0.074-0.604-0.149l-0.462,0.712
		c0.307,0.154,0.65,0.242,1.086,0.271c1.07,0.067,1.865-0.376,1.841-1.292c-0.013-0.56-0.268-0.962-0.887-1.573
		c-0.503-0.495-0.781-0.781-0.789-1.111c-0.005-0.19,0.165-0.332,0.446-0.317C26.754,145.61,26.86,145.636,26.984,145.675"/>
	<path style="fill-rule:evenodd;clip-rule:evenodd;fill:#003976;" d="M31.505,148.901c0.005,0.304-0.183,0.505-0.413,0.489
		c-0.229-0.015-0.42-0.237-0.428-0.541l-0.088-3.799l-1.325-0.075l0.085,3.642c0.023,0.995,0.9,1.545,1.774,1.599
		c0.874,0.055,1.743-0.384,1.72-1.385l-0.077-3.654l-1.333-0.077L31.505,148.901z"/>
	<polygon style="fill-rule:evenodd;clip-rule:evenodd;fill:#003976;" points="37.663,150.596 38.29,150.634 38.192,145.486 
		36.905,145.414 36.957,147.921 35.167,145.313 34.542,145.277 34.648,150.407 35.925,150.484 35.874,147.988 	"/>
	<path style="fill-rule:evenodd;clip-rule:evenodd;fill:#003976;" d="M41.376,146.508c0.426,0.023,0.769,0.467,0.792,1.792
		c0.023,1.326-0.304,1.726-0.73,1.7L41.376,146.508z M40.005,145.59l0.093,5.157l0.949,0.06c1.385,0.088,2.52-0.261,2.484-2.424
		c-0.036-2.169-1.189-2.659-2.577-2.736L40.005,145.59z"/>
	<path style="fill-rule:evenodd;clip-rule:evenodd;fill:#003976;" d="M46.627,147.498l0.33,2.004l-0.622-0.039L46.627,147.498z
		 M45.825,145.925l-0.98,5.122l1.233,0.077l0.131-0.83l0.916,0.057l0.16,0.849l1.248,0.079l-1.14-5.266L45.825,145.925z"/>
	<polygon style="fill-rule:evenodd;clip-rule:evenodd;fill:#003976;" points="50.653,146.201 49.314,146.123 50.694,149.332 
		50.72,151.415 52.107,151.503 52.082,149.417 53.389,146.358 52.043,146.281 51.373,148.177 	"/>
	<polygon style="fill-rule:evenodd;clip-rule:evenodd;fill:#003976;" points="56.213,150.719 54.792,150.428 54.818,152.831 
		55.648,152.883 	"/>
	<path style="fill-rule:evenodd;clip-rule:evenodd;fill:#003976;" d="M61.082,149.435c0.01,1.455-0.271,1.801-0.789,1.767
		c-0.111-0.008-0.178-0.018-0.253-0.028l0.008,0.83c0,0,0.225,0.047,0.395,0.06c1.359,0.085,2.073-0.484,2.058-2.543l-0.018-2.643
		l-1.424-0.08L61.082,149.435z"/>
	<path style="fill-rule:evenodd;clip-rule:evenodd;fill:#003976;" d="M65.804,148.628l0.325,2.042l-0.65-0.038L65.804,148.628z
		 M64.981,147.021l-1.07,5.226l1.284,0.08l0.147-0.847l0.954,0.06l0.157,0.866l1.3,0.083l-1.137-5.374L64.981,147.021z"/>
	<polygon style="fill-rule:evenodd;clip-rule:evenodd;fill:#003976;" points="72.512,152.787 73.19,152.829 73.18,147.49 
		71.792,147.41 71.8,150.01 69.92,147.305 69.244,147.264 69.265,152.584 70.639,152.669 70.632,150.079 	"/>
	<path style="fill-rule:evenodd;clip-rule:evenodd;fill:#003976;" d="M77.525,151.728c0,0.319-0.214,0.528-0.467,0.513
		c-0.255-0.015-0.459-0.25-0.459-0.569l-0.002-3.984l-1.465-0.085l0.005,3.821c0,1.045,0.955,1.622,1.921,1.685
		c0.967,0.059,1.937-0.4,1.937-1.447l0.002-3.837l-1.473-0.085V151.728z"/>
	<path style="fill-rule:evenodd;clip-rule:evenodd;fill:#003976;" d="M82.533,149.612l0.32,2.082l-0.673-0.042L82.533,149.612z
		 M81.695,147.978l-1.153,5.313l1.328,0.085l0.16-0.861l0.99,0.063l0.155,0.882l1.346,0.082l-1.132-5.467L81.695,147.978z"/>
	<path style="fill-rule:evenodd;clip-rule:evenodd;fill:#003976;" d="M87.575,149.208c0.508,0.028,0.799,0.335,0.797,0.849
		c-0.005,0.725-0.578,1.096-0.808,1.083L87.575,149.208z M88.124,152.947c0.16,0.291,0.196,0.567,0.196,0.833l1.501,0.093
		c0.002-0.371-0.034-0.773-0.263-1.194c-0.199-0.371-0.519-0.706-0.745-0.91c0.34-0.142,1.055-0.583,1.063-1.63
		c0.008-1.158-1.184-1.761-2.618-1.844l-1.179-0.067l-0.023,5.411l1.496,0.093l0.008-1.449
		C87.727,152.403,87.957,152.643,88.124,152.947z"/>
	<polygon style="fill-rule:evenodd;clip-rule:evenodd;fill:#003976;" points="92.514,148.597 91.049,148.512 92.488,151.864 
		92.472,154.041 93.986,154.136 94.004,151.957 95.505,148.767 94.033,148.685 93.256,150.662 	"/>
	<path style="fill-rule:evenodd;clip-rule:evenodd;fill:#003976;" d="M102.282,150.598c0.013-1.063-0.949-1.531-2.246-1.606
		c-0.224-0.013-0.42-0.011-0.596,0.016l-0.008,0.854c0.155-0.019,0.317-0.031,0.503-0.021c0.461,0.028,0.859,0.242,0.856,0.629
		c-0.005,0.413-0.377,0.604-0.748,0.58l-0.314,0.792c0.634,0.041,1.279,0.343,1.271,1.009c-0.007,0.605-0.626,0.835-1.106,0.807
		c-0.207-0.013-0.348-0.036-0.503-0.074l-0.008,0.879c0.142,0.039,0.407,0.075,0.583,0.088c1.251,0.077,2.561-0.289,2.577-1.604
		c0.01-0.789-0.614-1.232-0.983-1.39C101.883,151.431,102.277,151.075,102.282,150.598"/>
	<polygon style="fill-rule:evenodd;clip-rule:evenodd;fill:#003976;" points="104.542,149.285 104.322,150.167 104.779,150.229 
		104.717,154.812 106.166,154.902 106.244,149.383 	"/>
	<polygon style="fill-rule:evenodd;clip-rule:evenodd;fill:#003976;" points="110.009,154.041 108.428,153.727 108.389,156.264 
		109.315,156.323 	"/>
	<polygon style="fill-rule:evenodd;clip-rule:evenodd;fill:#003976;" points="114.942,149.881 114.712,150.771 115.179,150.835 
		115.094,155.464 116.572,155.555 116.68,149.979 	"/>
	<path style="fill-rule:evenodd;clip-rule:evenodd;fill:#003976;" d="M121.103,152.721c0,0.087-0.002,0.159-0.015,0.231
		c-0.088,0.096-0.207,0.147-0.346,0.14c-0.245-0.016-0.457-0.217-0.438-1.006c0.016-0.792,0.214-1.014,0.459-0.998
		C121.01,151.101,121.131,151.385,121.103,152.721 M122.777,152.733c0.046-2.053-1.106-2.504-1.973-2.554
		c-0.846-0.049-2.048,0.209-2.082,1.834c-0.031,1.542,1.125,1.932,1.988,1.983c0.098,0.005,0.204-0.003,0.302-0.026
		c-0.085,0.495-0.438,0.976-1.176,0.929c-0.255-0.016-0.392-0.039-0.583-0.08l-0.018,0.89c0,0,0.273,0.067,0.658,0.093
		C120.812,155.858,122.707,155.905,122.777,152.733z"/>
	<path style="fill-rule:evenodd;clip-rule:evenodd;fill:#003976;" d="M126.751,153.059c-0.003,0.087-0.005,0.159-0.019,0.231
		c-0.087,0.099-0.208,0.149-0.351,0.14c-0.247-0.013-0.459-0.217-0.441-1.011c0.021-0.797,0.219-1.019,0.469-1.004
		C126.66,151.429,126.782,151.715,126.751,153.059 M128.442,153.071c0.052-2.063-1.111-2.518-1.988-2.568
		c-0.856-0.05-2.073,0.208-2.109,1.844c-0.036,1.55,1.132,1.941,2.007,1.993c0.095,0.008,0.203,0,0.302-0.023
		c-0.086,0.498-0.444,0.978-1.189,0.932c-0.258-0.016-0.397-0.039-0.59-0.08l-0.021,0.895c0,0,0.276,0.067,0.665,0.093
		C126.446,156.215,128.362,156.261,128.442,153.071z"/>
	<path style="fill-rule:evenodd;clip-rule:evenodd;fill:#003976;" d="M132.461,153.398c-0.003,0.088-0.006,0.162-0.019,0.234
		c-0.09,0.099-0.211,0.15-0.354,0.14c-0.252-0.013-0.464-0.217-0.443-1.016c0.021-0.8,0.225-1.024,0.478-1.012
		C132.373,151.761,132.497,152.047,132.461,153.398 M134.173,153.414c0.06-2.076-1.116-2.535-2.006-2.584
		c-0.864-0.049-2.095,0.211-2.139,1.852c-0.038,1.561,1.141,1.952,2.024,2.007c0.099,0.007,0.209,0,0.308-0.023
		c-0.091,0.5-0.454,0.982-1.205,0.936c-0.263-0.015-0.404-0.038-0.601-0.08l-0.023,0.897c0,0,0.284,0.07,0.676,0.096
		C132.146,156.573,134.085,156.622,134.173,153.414z"/>
	<polygon style="fill-rule:evenodd;clip-rule:evenodd;fill:#003976;" points="148.097,157.538 149.711,157.641 149.914,151.882 
		149.123,151.836 147.168,154.688 145.42,151.624 144.633,151.58 144.447,157.309 146.049,157.409 146.129,155.049 146.776,156.204 
		147.452,156.248 148.179,155.173 	"/>
	<polygon style="fill-rule:evenodd;clip-rule:evenodd;fill:#003976;" points="152.197,152.014 151.985,157.782 153.692,157.889 
		153.909,152.109 	"/>
	<path style="fill-rule:evenodd;clip-rule:evenodd;fill:#003976;" d="M157.958,154.057l0.291,2.24l-0.781-0.049L157.958,154.057z
		 M157.048,152.29l-1.556,5.715l1.548,0.095l0.219-0.926l1.15,0.072l0.147,0.949l1.565,0.098l-1.104-5.89L157.048,152.29z"/>
	<polygon style="fill-rule:evenodd;clip-rule:evenodd;fill:#003976;" points="165.723,158.646 167.392,158.752 167.652,152.896 
		166.829,152.85 164.784,155.748 163,152.63 162.188,152.584 161.945,158.409 163.604,158.513 163.704,156.114 164.366,157.29 
		165.065,157.334 165.826,156.243 	"/>
	<polygon style="fill-rule:evenodd;clip-rule:evenodd;fill:#003976;" points="170.012,153.032 169.746,158.899 171.513,159.01 
		171.786,153.133 	"/>
	<polygon style="fill-rule:evenodd;clip-rule:evenodd;fill:#003976;" points="175.711,158.098 173.916,157.757 173.787,160.457 
		174.845,160.524 	"/>
	<polygon style="fill-rule:evenodd;clip-rule:evenodd;fill:#003976;" points="185.075,154.863 185.127,153.896 181.341,153.68 
		181.181,156.826 180.699,156.798 180.649,157.757 181.132,157.785 181.039,159.608 182.845,159.722 182.938,157.896 
		184.533,157.994 184.583,157.029 182.989,156.935 183.1,154.747 	"/>
	<polygon style="fill-rule:evenodd;clip-rule:evenodd;fill:#003976;" points="187.125,154.013 186.806,159.972 190.498,160.204 
		190.553,159.237 188.683,159.121 188.956,154.118 	"/>
	<path style="fill-rule:evenodd;clip-rule:evenodd;fill:#003976;" d="M194.561,159.526c-0.395-0.026-0.715-0.459-0.622-2.112
		c0.096-1.656,0.465-2.048,0.859-2.024c0.396,0.023,0.719,0.456,0.624,2.114C195.326,159.16,194.955,159.549,194.561,159.526
		 M194.506,160.496c1.406,0.087,2.626-0.421,2.77-2.881c0.147-2.466-1.011-3.121-2.421-3.2c-1.408-0.08-2.623,0.436-2.76,2.891
		C191.958,159.753,193.104,160.405,194.506,160.496z"/>
	<path style="fill-rule:evenodd;clip-rule:evenodd;fill:#003976;" d="M201.505,155.833c0.638,0.039,0.983,0.382,0.947,0.954
		c-0.05,0.808-0.79,1.218-1.078,1.199L201.505,155.833z M201.964,160.008c0.184,0.325,0.215,0.632,0.196,0.929l1.878,0.119
		c0.025-0.416,0.002-0.864-0.258-1.336c-0.225-0.415-0.604-0.792-0.88-1.019c0.436-0.155,1.361-0.643,1.434-1.811
		c0.08-1.29-1.377-1.973-3.169-2.076l-1.473-0.083l-0.361,6.027l1.867,0.116l0.098-1.614
		C201.5,159.399,201.773,159.665,201.964,160.008z"/>
	<polygon style="fill-rule:evenodd;clip-rule:evenodd;fill:#003976;" points="206.73,155.134 206.346,161.2 208.236,161.318 
		208.628,155.242 	"/>
	<path style="fill-rule:evenodd;clip-rule:evenodd;fill:#003976;" d="M213.027,156.488c0.602,0.033,1.042,0.562,0.937,2.13
		c-0.105,1.565-0.611,2.032-1.21,1.996L213.027,156.488z M211.179,155.39l-0.399,6.089l1.336,0.085
		c1.949,0.121,3.595-0.273,3.77-2.832c0.173-2.561-1.41-3.153-3.367-3.268L211.179,155.39z"/>
	<path style="fill-rule:evenodd;clip-rule:evenodd;fill:#003976;" d="M220.362,157.731l0.263,2.372l-0.877-0.054L220.362,157.731z
		 M219.39,155.858l-1.919,6.04l1.738,0.111l0.276-0.98l1.292,0.083l0.137,1.003l1.762,0.111l-1.07-6.241L219.39,155.858z"/>
	<path style="fill-rule:evenodd;clip-rule:evenodd;fill:#003976;" d="M139.339,155.307c0.567,0.006,1.031-0.448,1.036-1.014
		c0.005-0.566-0.448-1.028-1.014-1.036c-0.564-0.005-1.028,0.448-1.036,1.014C138.319,154.838,138.773,155.299,139.339,155.307"/>
	<polygon style="fill-rule:evenodd;clip-rule:evenodd;fill:#FFFFFF;" points="153.04,122.743 154.219,67.807 172.941,66.932 
		171.103,122.952 	"/>
	<polygon style="fill-rule:evenodd;clip-rule:evenodd;fill:#F5822B;" points="153.04,122.743 154.219,67.807 162.136,72.01 
		160.905,118.682 153.053,122.743 163.33,119.945 169.053,122.927 	"/>
	<polygon style="fill-rule:evenodd;clip-rule:evenodd;fill:#FDB927;" points="169.053,122.927 163.33,119.945 164.71,70.535 
		170.816,67.033 	"/>
	<polygon style="fill-rule:evenodd;clip-rule:evenodd;fill:#FDB927;" points="82.471,96.498 95.528,122.088 89.927,122.023 
		79.893,102.29 71.202,121.808 67.906,117.629 86.481,75.327 94.022,70.561 	"/>
	<polygon style="fill-rule:evenodd;clip-rule:evenodd;fill:#FDB927;" points="43.646,77.111 50.351,72.598 40.559,97.235 
		53.057,121.599 47.979,121.539 38.37,102.744 30.979,121.343 27.876,117.361 	"/>
</g>
</svg>
