<?xml version="1.0" encoding="UTF-8" standalone="no"?>
<!-- Created with Inkscape (http://www.inkscape.org/) -->
<svg
   xmlns:dc="http://purl.org/dc/elements/1.1/"
   xmlns:cc="http://creativecommons.org/ns#"
   xmlns:rdf="http://www.w3.org/1999/02/22-rdf-syntax-ns#"
   xmlns:svg="http://www.w3.org/2000/svg"
   xmlns="http://www.w3.org/2000/svg"
   xmlns:sodipodi="http://sodipodi.sourceforge.net/DTD/sodipodi-0.dtd"
   xmlns:inkscape="http://www.inkscape.org/namespaces/inkscape"
   width="165.61464"
   height="100.73"
   id="svg2"
   sodipodi:version="0.32"
   inkscape:version="0.46"
   version="1.0"
   sodipodi:docname="Super Bowl XLI logo.svg"
   inkscape:output_extension="org.inkscape.output.svg.inkscape">
  <defs
     id="defs4">
    <inkscape:perspective
       sodipodi:type="inkscape:persp3d"
       inkscape:vp_x="0 : 526.18109 : 1"
       inkscape:vp_y="0 : 1000 : 0"
       inkscape:vp_z="744.09448 : 526.18109 : 1"
       inkscape:persp3d-origin="372.04724 : 350.78739 : 1"
       id="perspective10" />
    <inkscape:perspective
       id="perspective2390"
       inkscape:persp3d-origin="372.04724 : 350.78739 : 1"
       inkscape:vp_z="744.09448 : 526.18109 : 1"
       inkscape:vp_y="0 : 1000 : 0"
       inkscape:vp_x="0 : 526.18109 : 1"
       sodipodi:type="inkscape:persp3d" />
    <inkscape:perspective
       id="perspective2424"
       inkscape:persp3d-origin="372.04724 : 350.78739 : 1"
       inkscape:vp_z="744.09448 : 526.18109 : 1"
       inkscape:vp_y="0 : 1000 : 0"
       inkscape:vp_x="0 : 526.18109 : 1"
       sodipodi:type="inkscape:persp3d" />
  </defs>
  <sodipodi:namedview
     id="base"
     pagecolor="#ffffff"
     bordercolor="#666666"
     borderopacity="1.0"
     gridtolerance="10000"
     guidetolerance="10"
     objecttolerance="10"
     inkscape:pageopacity="0.0"
     inkscape:pageshadow="2"
     inkscape:zoom="2.2039115"
     inkscape:cx="143.83517"
     inkscape:cy="85.320404"
     inkscape:document-units="px"
     inkscape:current-layer="g3219"
     showgrid="false"
     showguides="true"
     inkscape:guide-bbox="true"
     inkscape:window-width="1024"
     inkscape:window-height="721"
     inkscape:window-x="-4"
     inkscape:window-y="-4" />
  <metadata
     id="metadata7">
    <rdf:RDF>
      <cc:Work
         rdf:about="">
        <dc:format>image/svg+xml</dc:format>
        <dc:type
           rdf:resource="http://purl.org/dc/dcmitype/StillImage" />
      </cc:Work>
    </rdf:RDF>
  </metadata>
  <g
     inkscape:label="Layer 1"
     inkscape:groupmode="layer"
     id="layer1"
     transform="translate(-286.56371,-471.31715)">
    <path
       style="fill:#ef6310;fill-opacity:1;fill-rule:evenodd;stroke:#000000;stroke-width:0;stroke-linecap:butt;stroke-linejoin:miter;stroke-miterlimit:4;stroke-dasharray:none;stroke-opacity:1"
       d="M 413.19186,492.28648 L 422.97299,492.36439 L 426.72729,524.19436 L 425.09499,534.64112 L 423.78915,551.29064 L 423.62591,551.78033 L 417.91285,550.96418 L 414.64823,513.91083 L 422.97299,518.48129 L 414.85226,509.948 L 413.19186,492.28648 z"
       id="path3248"
       sodipodi:nodetypes="ccccccccccc" />
    <path
       style="fill:#228ad7;fill-opacity:1;fill-rule:evenodd;stroke:#000000;stroke-width:0;stroke-linecap:butt;stroke-linejoin:miter;stroke-miterlimit:4;stroke-dasharray:none;stroke-opacity:1"
       d="M 297.82293,534.72198 L 315.02073,530.68223 L 308.55712,541.18558 L 302.78606,545.22534 L 301.28558,558.61422 L 306.01785,562.53856 C 345.94834,549.33226 415.59816,551.60382 439.56049,563.00024 L 435.63616,566.92456 C 422.46508,562.11579 387.20742,559.42434 354.72736,560.73806 C 336.40162,561.47927 318.80274,563.18076 306.94122,567.27083 L 298.63088,559.19133 L 300.70847,543.9557 L 306.94122,539.91595 L 310.86556,533.2215 L 297.82293,534.72198 z"
       id="path3244"
       sodipodi:nodetypes="ccccccccscccccc" />
    <path
       style="fill:#081973;fill-opacity:1;fill-rule:evenodd;stroke:#000000;stroke-width:0;stroke-linecap:butt;stroke-linejoin:miter;stroke-miterlimit:4;stroke-dasharray:none;stroke-opacity:1"
       d="M 301.17016,558.61422 L 305.55617,563.34651 C 326.59838,557.73083 347.68144,555.82516 368.23052,555.82989 C 392.24308,555.83541 419.46265,556.69187 439.02625,563.5398 L 444.40819,558.72965 C 424.43283,553.6554 397.60607,549.73554 367.41747,550.18904 C 346.51796,550.503 323.9471,552.85289 301.17016,558.61422 z"
       id="path3246"
       sodipodi:nodetypes="ccsccsc" />
    <path
       style="fill:#c50808;fill-opacity:1;fill-rule:evenodd;stroke:#000000;stroke-width:0;stroke-linecap:butt;stroke-linejoin:miter;stroke-miterlimit:4;stroke-dasharray:none;stroke-opacity:1"
       d="M 396.65208,529.30116 L 397.04893,527.35035 L 405.83606,528.8473 L 407.03208,549.39823 L 404.46927,549.21542 L 402.63562,530.99441 L 396.65208,529.30116 z"
       id="path3234"
       sodipodi:nodetypes="ccccccc" />
    <path
       style="fill:#c50808;fill-opacity:1;fill-rule:evenodd;stroke:#000000;stroke-width:0;stroke-linecap:butt;stroke-linejoin:miter;stroke-miterlimit:4;stroke-dasharray:none;stroke-opacity:1"
       d="M 377.30754,525.30257 L 379.38446,525.31362 L 379.69243,535.31911 L 395.52811,535.50991 L 394.38336,537.8948 L 377.40293,537.7994 L 376.92596,526.06573 L 377.30754,525.30257 z"
       id="path3232"
       sodipodi:nodetypes="cccccccc" />
    <path
       style="fill:#c50808;fill-opacity:1;fill-rule:evenodd;stroke:#000000;stroke-width:0;stroke-linecap:butt;stroke-linejoin:miter;stroke-miterlimit:4;stroke-dasharray:none;stroke-opacity:1"
       d="M 341.19232,526.88675 L 344.55019,526.6027 L 350.86364,536.22246 L 356.7933,539.3452 L 356.896,548.0392 L 352.58497,548.38639 L 352.68812,540.84386 L 346.40265,536.79139 L 341.19232,526.88675 z"
       id="path3226"
       sodipodi:nodetypes="ccccccccc" />
    <path
       style="fill:#c50808;fill-opacity:1;fill-rule:evenodd;stroke:#000000;stroke-width:0;stroke-linecap:butt;stroke-linejoin:miter;stroke-miterlimit:4;stroke-dasharray:none;stroke-opacity:1"
       d="M 332.44937,531.49018 L 325.87035,541.07016 L 328.75588,542.3398 L 327.97802,550.66259 L 323.90818,551.34267 L 325.0624,544.07112 L 319.52217,540.95473 L 329.56383,529.52801 L 332.44937,531.49018 z"
       id="path3224"
       sodipodi:nodetypes="ccccccccc" />
    <path
       style="fill:#c50808;fill-opacity:1;fill-rule:evenodd;stroke:#000000;stroke-width:0;stroke-linecap:butt;stroke-linejoin:miter;stroke-miterlimit:4;stroke-dasharray:none;stroke-opacity:1"
       d="M 380.40408,492.46527 L 382.85765,494.27357 L 382.68406,501.43834 L 378.67476,503.72359 L 378.67476,511.32208 L 375.92327,511.32399 L 376.0805,500.16961 L 380.40408,492.46527 z"
       id="path3208"
       sodipodi:nodetypes="cccccccc" />
    <path
       style="fill:#c50808;fill-opacity:1;fill-rule:evenodd;stroke:#000000;stroke-width:0;stroke-linecap:butt;stroke-linejoin:miter;stroke-miterlimit:4;stroke-dasharray:none;stroke-opacity:1"
       d="M 355.49167,492.81652 L 357.26135,493.96321 L 357.26135,501.05617 L 352.18658,504.79108 L 347.06154,512.35266 L 344.25091,512.60423 L 350.05114,502.81476 L 354.97519,499.9424 L 355.09242,493.67011 L 355.49167,492.81652 z"
       id="path3204"
       sodipodi:nodetypes="cccccccccc" />
    <path
       style="fill:#c50808;fill-opacity:1;fill-rule:evenodd;stroke:#000000;stroke-width:0;stroke-linecap:butt;stroke-linejoin:miter;stroke-miterlimit:4;stroke-dasharray:none;stroke-opacity:1"
       d="M 331.12844,492.71768 L 333.0395,493.96531 L 333.08907,501.45157 L 330.41187,503.53384 L 334.57641,509.92939 L 333.13865,512.06124 L 326.74311,502.64144 L 330.61018,499.8155 L 330.75892,493.07291 L 331.12844,492.71768 z"
       id="path3202"
       sodipodi:nodetypes="cccccccccc" />
    <g
       id="g3219"
       transform="matrix(0.5555556,0,0,0.5555556,166.64703,232.01685)">
      <path
         sodipodi:nodetypes="ccccccccc"
         id="path3195"
         d="M 281.43795,529.66724 L 285.14714,529.2495 L 285.60468,524.39116 C 285.95973,523.26552 286.78456,524.02074 288.73855,523.63499 C 294.84522,523.72925 295.76615,521.31339 295.75938,519.22493 L 295.92445,515.93367 C 295.70796,513.50384 294.48224,512.28645 291.19632,512.73623 C 289.03,512.87548 285.36838,513.47119 282.09042,513.69196 L 281.43795,529.66724 z"
         style="fill:#031071;fill-opacity:1;fill-rule:evenodd;stroke:none;stroke-width:1px;stroke-linecap:butt;stroke-linejoin:miter;stroke-opacity:1" />
      <path
         sodipodi:nodetypes="ccccccccc"
         id="path3211"
         d="M 361.71625,516.68166 C 362.0618,521.79691 364.64619,523.1712 367.72761,523.45019 L 372.41145,523.40657 C 375.13983,523.11449 377.5764,522.68375 377.97218,517.47798 L 377.2245,511.34271 C 376.69487,509.71734 376.19962,507.4544 372.13905,507.23945 L 367.80919,507.33569 C 364.00239,507.49517 362.06809,509.13042 361.78669,512.06835 L 361.71625,516.68166 z"
         style="fill:#031071;fill-opacity:1;fill-rule:evenodd;stroke:none;stroke-width:1px;stroke-linecap:butt;stroke-linejoin:miter;stroke-opacity:1" />
      <path
         sodipodi:nodetypes="cccccc"
         id="path3205"
         d="M 344.76285,523.89562 L 344.62876,508.12947 L 355.19274,508.09918 C 358.59647,508.16333 359.51951,514.05566 356.83498,515.92627 C 358.94239,515.69191 360.34946,522.37116 356.34119,523.46798 C 352.29738,523.68523 348.3473,523.96301 344.76285,523.89562 z"
         style="fill:#031071;fill-opacity:1;fill-rule:evenodd;stroke:none;stroke-width:1px;stroke-linecap:butt;stroke-linejoin:miter;stroke-opacity:1" />
      <path
         sodipodi:nodetypes="cccccccccccc"
         id="path3201"
         d="M 315.27895,525.76767 L 318.88917,525.48916 L 319.09081,521.23335 C 319.45371,520.1073 324.02685,520.70097 324.94478,520.64162 L 327.67459,524.82197 L 331.37676,524.74162 L 328.19591,519.61904 C 328.15171,519.31192 328.31771,519.19999 328.63078,519.04232 C 330.77629,518.21491 330.31003,514.53615 329.80213,511.28105 C 329.43787,509.99752 327.8504,509.58024 324.72121,509.66409 C 322.66184,509.87617 318.86413,509.63785 315.74777,509.96871 L 315.27895,525.76767 z"
         style="fill:#031071;fill-opacity:1;fill-rule:evenodd;stroke:none;stroke-width:1px;stroke-linecap:butt;stroke-linejoin:miter;stroke-opacity:1" />
      <path
         sodipodi:nodetypes="cccccccccccccc"
         id="path3191"
         d="M 246.58248,536.46162 L 246.61166,533.20309 C 249.6015,532.73283 252.49802,532.35589 256.3123,531.06118 C 256.86436,530.82858 257.20345,529.41143 256.34538,528.98579 C 254.03316,528.47461 250.52503,529.62837 248.82008,528.79413 C 245.86207,527.62456 246.8058,521.56922 249.64153,521.30005 C 253.0942,520.1562 256.54687,519.54186 259.99954,518.89331 L 259.71033,521.42807 L 250.80115,523.62536 C 249.9619,523.77532 249.56244,525.43229 250.45804,526.14232 C 252.22145,525.94897 256.4123,525.97697 257.89339,526.37543 C 259.75574,526.87934 260.46844,529.55994 259.36462,531.5842 C 259.06387,532.30871 258.18748,534.14446 254.69162,534.80759 C 251.9335,535.77085 248.99726,536.0699 246.58248,536.46162 z"
         style="fill:#031071;fill-opacity:1;fill-rule:evenodd;stroke:none;stroke-width:1px;stroke-linecap:butt;stroke-linejoin:miter;stroke-opacity:1" />
      <path
         sodipodi:nodetypes="ccccccccccc"
         id="path3193"
         d="M 264.24344,517.49198 L 267.87228,517.02039 L 267.39937,526.40762 C 267.355,528.395 268.17395,528.48345 271.38347,528.3049 C 274.64503,528.02895 274.8366,526.84831 275.00861,525.35187 L 275.44669,515.7193 L 279.03055,515.43018 L 278.77137,526.13786 C 278.25255,528.15875 276.27077,531.24688 272.67778,531.7443 C 267.86514,532.34049 263.58589,532.39393 263.54376,527.55263 L 264.24344,517.49198 z"
         style="fill:#031071;fill-opacity:1;fill-rule:evenodd;stroke:none;stroke-width:1px;stroke-linecap:butt;stroke-linejoin:miter;stroke-opacity:1" />
      <path
         sodipodi:nodetypes="ccscc"
         id="path3197"
         d="M 285.53798,516.22381 L 285.50131,520.76551 C 287.60813,520.83701 290.46169,520.82495 291.50543,520.27028 C 292.37069,519.81047 292.39197,518.89777 292.19955,517.36174 C 292.1512,514.94774 288.86579,516.08981 285.53798,516.22381 z"
         style="fill:#ffffff;fill-opacity:1;fill-rule:evenodd;stroke:none;stroke-width:1px;stroke-linecap:butt;stroke-linejoin:miter;stroke-opacity:1" />
      <path
         sodipodi:nodetypes="ccccccccccccccc"
         id="path3199"
         d="M 300.9136,527.06973 L 311.85079,526.55034 L 311.76291,523.10651 L 302.15595,523.55344 C 301.73053,523.18503 301.6998,521.03622 302.28388,520.82541 L 311.25971,520.13155 L 311.07132,516.64077 L 302.53553,517.34536 C 302.07243,516.83074 302.09297,515.07736 302.90608,514.83518 L 312.20376,514.38111 L 312.22774,510.53422 L 302.19827,511.38421 C 301.1684,511.17809 298.86648,513.03468 298.89796,515.47089 L 298.76469,522.46366 C 298.77421,524.40723 298.86508,526.88168 300.9136,527.06973 z"
         style="fill:#031071;fill-opacity:1;fill-rule:evenodd;stroke:none;stroke-width:1px;stroke-linecap:butt;stroke-linejoin:miter;stroke-opacity:1" />
      <path
         sodipodi:nodetypes="ccccc"
         id="path3207"
         d="M 348.18238,511.18603 L 348.32811,514.72884 C 351.42501,514.79867 353.74559,514.72735 354.92562,514.44866 C 355.46687,513.4173 355.29632,511.30092 354.32661,511.1368 C 352.85463,511.10084 351.51325,511.053 348.18238,511.18603 z"
         style="fill:#ffffff;fill-opacity:1;fill-rule:evenodd;stroke:none;stroke-width:1px;stroke-linecap:butt;stroke-linejoin:miter;stroke-opacity:1" />
      <path
         sodipodi:nodetypes="ccccc"
         id="path3209"
         d="M 348.36851,517.4337 L 348.28121,520.89587 C 350.46283,520.90607 352.53709,521.13098 354.87434,520.82991 C 355.98136,520.25637 355.57888,517.55137 354.53694,517.38725 C 353.57035,517.2324 350.74995,517.1235 348.36851,517.4337 z"
         style="fill:#ffffff;fill-opacity:1;fill-rule:evenodd;stroke:none;stroke-width:1px;stroke-linecap:butt;stroke-linejoin:miter;stroke-opacity:1" />
      <path
         sodipodi:nodetypes="ccccccccc"
         id="path3213"
         d="M 365.33657,516.01578 C 365.24201,519.45429 366.47181,519.97065 367.95974,519.8988 L 371.01304,519.98952 C 373.1166,519.63757 374.34306,519.94146 373.96424,516.75303 L 373.78982,513.28979 C 373.60439,511.65377 373.26744,510.85809 371.86476,510.84449 L 368.79306,510.90797 C 366.19929,510.78571 365.61258,511.22661 365.40126,512.83226 L 365.33657,516.01578 z"
         style="fill:#ffffff;fill-opacity:1;fill-rule:evenodd;stroke:none;stroke-width:1px;stroke-linecap:butt;stroke-linejoin:miter;stroke-opacity:1" />
      <path
         sodipodi:nodetypes="cccccccccccccccc"
         id="path3215"
         d="M 379.3965,508.27973 L 383.5864,522.78695 C 383.77963,523.7549 386.12657,524.60742 387.21312,522.48143 L 389.95348,514.8758 L 393.10717,523.01948 C 393.81552,524.5289 396.39389,525.26391 396.90383,522.40843 L 400.07161,508.95052 L 396.33112,508.56693 L 394.81924,516.60521 C 394.64857,516.95547 394.51798,517.43331 394.04917,516.83434 L 391.06631,509.70926 C 390.31281,508.16988 388.32182,508.99132 387.81447,509.9384 L 386.02237,515.68864 C 385.79504,516.0919 385.6247,515.92738 385.4537,515.76936 L 382.97155,508.28142 L 379.3965,508.27973 z"
         style="fill:#031071;fill-opacity:1;fill-rule:evenodd;stroke:none;stroke-width:1px;stroke-linecap:butt;stroke-linejoin:miter;stroke-opacity:1" />
      <path
         sodipodi:nodetypes="ccccccccc"
         id="path3217"
         d="M 402.80202,508.9996 L 403.08332,521.57475 C 403.11337,522.61048 403.19477,524.65517 405.87597,524.9315 L 414.96348,525.08526 L 414.87571,521.64601 L 406.94739,521.72662 C 406.0638,521.41387 406.03977,521.25271 406.12279,520.55978 L 405.90775,509.0621 L 402.80202,508.9996 z"
         style="fill:#031071;fill-opacity:1;fill-rule:evenodd;stroke:none;stroke-width:1px;stroke-linecap:butt;stroke-linejoin:miter;stroke-opacity:1" />
      <path
         sodipodi:nodetypes="ccscc"
         id="path3264"
         d="M 318.78207,512.95647 L 318.74269,517.2254 C 321.00492,517.42177 324.92781,517.52209 326.04855,517.03211 C 326.97763,516.6259 327.00048,515.71884 326.79388,514.1787 C 326.74195,511.77336 322.35534,513.02089 318.78207,512.95647 z"
         style="fill:#ffffff;fill-opacity:1;fill-rule:evenodd;stroke:none;stroke-width:1px;stroke-linecap:butt;stroke-linejoin:miter;stroke-opacity:1" />
    </g>
    <path
       style="fill:#ef6310;fill-opacity:1;fill-rule:evenodd;stroke:#000000;stroke-width:0;stroke-linecap:butt;stroke-linejoin:miter;stroke-miterlimit:4;stroke-dasharray:none;stroke-opacity:1"
       d="M 321.98602,515.17469 L 315.03009,503.54834 L 310.45904,500.9647 L 311.25401,492.81632 L 331.12811,492.71695 L 331.12811,500.39139 L 327.4514,503.28088 L 333.06196,511.47508 L 338.77965,502.87565 L 336.41766,500.9418 L 336.49412,492.71695 L 355.4968,492.81632 L 355.29806,500.07037 L 350.30663,503.3496 L 344.44377,512.59106 C 337.22363,513.2697 329.73418,514.23205 321.98602,515.17469 z"
       id="path2430"
       sodipodi:nodetypes="cccccccccccccccc" />
    <path
       style="fill:#ef6310;fill-opacity:1;fill-rule:evenodd;stroke:#000000;stroke-width:0;stroke-linecap:butt;stroke-linejoin:miter;stroke-miterlimit:4;stroke-dasharray:none;stroke-opacity:1"
       d="M 365.78209,503.4261 L 362.32308,501.15568 L 362.40169,492.46545 L 380.40426,492.46545 L 380.48288,499.98133 L 377.02387,502.01687 L 377.02387,511.33342 L 365.86071,511.49 L 365.78209,503.4261 z"
       id="path3206" />
    <path
       style="fill:#228ad7;fill-opacity:1;fill-rule:evenodd;stroke:#000000;stroke-width:0;stroke-linecap:butt;stroke-linejoin:miter;stroke-miterlimit:4;stroke-dasharray:none;stroke-opacity:1"
       d="M 299.89712,519.78713 L 318.83187,516.03282 L 312.95556,505.7493 L 307.73219,503.13761 L 309.3645,490.89532 L 382.08373,490.40562 L 384.85865,493.67024 L 384.85865,503.056 L 381.34919,505.09638 L 381.34919,511.95206 L 386.08288,511.95206 L 393.50987,501.17885 C 394.1285,500.19946 393.86329,499.22008 393.10179,498.24069 L 377.43166,481.10148 L 396.20318,493.83347 C 398.59183,495.56382 400.42928,494.62608 400.93686,494.15993 L 419.6953,477.78737 L 408.85695,491.353 L 413.1703,489.53167 L 424.76196,489.66487 L 428.4952,517.78885 L 441.31153,520.09695 L 430.00967,515.38385 L 426.80279,488.08239 L 414.11347,487.91342 L 421.44057,476.14995 L 400.36556,490.65047 C 399.45701,491.20561 397.95521,491.68703 395.87671,490.89532 L 375.63612,479.46917 L 381.67565,488.03878 C 381.87887,488.53007 381.96637,489.07669 380.69627,488.93655 L 307.89542,488.77332 L 305.61019,503.79053 L 311.81295,507.54484 L 315.56726,514.07406 L 299.89712,519.78713 z"
       id="path3210"
       sodipodi:nodetypes="cccccccccccccccccccccccccccccccccccc" />
    <path
       style="fill:#c50808;fill-opacity:1;fill-rule:nonzero;stroke:none;stroke-width:0;marker:none;marker-start:none;marker-mid:none;marker-end:none;stroke-miterlimit:4;stroke-opacity:1;visibility:visible;display:inline;overflow:visible;enable-background:accumulate"
       d="M 299.48904,531.94782 L 296.71687,530.42596 L 293.28736,533.42533 L 294.65617,529.43011 L 291.78281,527.7469 L 295.94109,526.61708 L 297.40491,522.81947 L 298.51253,525.89364 L 301.76971,525.02804 L 298.72333,528.43752 L 299.48904,531.94782 z"
       id="path3212"
       sodipodi:nodetypes="ccccccccccc" />
    <path
       style="fill:#000f6c;fill-opacity:1;fill-rule:nonzero;stroke:none;stroke-width:0;marker:none;marker-start:none;marker-mid:none;marker-end:none;stroke-miterlimit:4;stroke-opacity:1;visibility:visible;display:inline;overflow:visible;enable-background:accumulate"
       d="M 399.78334,523.53422 L 402.19828,521.93301 L 405.11156,524.19707 L 403.65095,520.88109 L 405.97918,519.14596 L 402.75092,518.48995 L 401.10374,515.45067 L 400.52517,518.1149 L 397.36778,517.73454 L 400.01072,520.11359 L 399.78334,523.53422 z"
       id="path3216"
       sodipodi:nodetypes="ccccccccccc" />
    <path
       style="fill:#228ad7;fill-opacity:1;fill-rule:evenodd;stroke:#000000;stroke-width:0;stroke-linecap:butt;stroke-linejoin:miter;stroke-miterlimit:4;stroke-dasharray:none;stroke-opacity:1"
       d="M 350.29212,512.03599 L 362.82329,511.49379 L 362.88354,504.86672 L 359.20853,503.17983 L 354.02737,506.07164 L 350.29212,512.03599 z"
       id="path3218"
       sodipodi:nodetypes="cccccc" />
    <path
       style="fill:#228ad7;fill-opacity:1;fill-rule:evenodd;stroke:#000000;stroke-width:0;stroke-linecap:butt;stroke-linejoin:miter;stroke-miterlimit:4;stroke-dasharray:none;stroke-opacity:1"
       d="M 390.17497,511.91551 L 399.03113,504.02328 L 404.39303,507.4573 L 404.57376,512.93968 L 390.17497,511.91551 z"
       id="path3220" />
    <path
       style="fill:#228ad7;fill-opacity:1;fill-rule:evenodd;stroke:#000000;stroke-width:0;stroke-linecap:butt;stroke-linejoin:miter;stroke-miterlimit:4;stroke-dasharray:none;stroke-opacity:1"
       d="M 347.65879,526.37522 L 362.50155,525.75442 L 362.61442,535.23573 L 359.6233,537.32388 C 357.49715,536.73747 354.14061,536.13536 352.343,534.21988 C 351.30176,532.95741 349.42115,529.5126 347.65879,526.37522 z"
       id="path3228"
       sodipodi:nodetypes="cccccc" />
    <path
       style="fill:#ef6310;fill-opacity:1;fill-rule:evenodd;stroke:#000000;stroke-width:0;stroke-linecap:butt;stroke-linejoin:miter;stroke-miterlimit:4;stroke-dasharray:none;stroke-opacity:1"
       d="M 319.06048,529.64344 L 341.2214,526.87332 L 348.49295,537.26125 L 354.61029,540.7239 L 354.72571,548.22629 L 331.98768,550.18845 L 332.21853,542.57064 L 336.3737,539.6851 L 330.60263,530.45139 L 322.98481,541.64727 L 326.21661,543.72485 L 325.98577,550.99641 L 304.05569,555.03616 L 305.32533,546.95666 L 310.63471,543.49401 L 319.06048,529.64344 z"
       id="path3222"
       sodipodi:nodetypes="cccccccccccccccc" />
    <path
       style="fill:#ef6310;fill-opacity:1;fill-rule:evenodd;stroke:#000000;stroke-width:0;stroke-linecap:butt;stroke-linejoin:miter;stroke-miterlimit:4;stroke-dasharray:none;stroke-opacity:1"
       d="M 365.86006,525.39796 L 366.14625,537.41782 L 360.7087,540.56587 L 360.89949,547.91134 C 375.78492,547.84032 390.40481,548.30038 404.78149,549.24688 L 404.01833,530.54933 L 396.67286,529.21379 L 393.90638,537.51321 L 377.59373,537.22703 L 377.30754,525.30257 L 365.86006,525.39796 z"
       id="path3230"
       sodipodi:nodetypes="ccccccccccc" />
    <path
       style="fill:#228ad7;fill-opacity:1;fill-rule:evenodd;stroke:#000000;stroke-width:0;stroke-linecap:butt;stroke-linejoin:miter;stroke-miterlimit:4;stroke-dasharray:none;stroke-opacity:1"
       d="M 381.7875,525.67032 L 393.37334,525.72421 C 394.47263,526.02898 394.42505,527.00275 393.80444,528.31081 L 392.13392,532.83737 L 381.89527,532.78348 L 381.7875,525.67032 z"
       id="path3236"
       sodipodi:nodetypes="cccccc" />
    <path
       style="fill:#c50808;fill-opacity:1;fill-rule:evenodd;stroke:#000000;stroke-width:0;stroke-linecap:butt;stroke-linejoin:miter;stroke-miterlimit:4;stroke-dasharray:none;stroke-opacity:1"
       d="M 406.59017,501.51109 L 414.88087,509.9888 L 413.19779,492.28535 L 406.77717,495.33981 L 406.59017,501.51109 z"
       id="path3238"
       sodipodi:nodetypes="ccccc" />
    <path
       style="fill:#c50808;fill-opacity:1;fill-rule:evenodd;stroke:#000000;stroke-width:0;stroke-linecap:butt;stroke-linejoin:miter;stroke-miterlimit:4;stroke-dasharray:none;stroke-opacity:1"
       d="M 407.31155,509.22611 L 414.958,514.06563 L 418.53924,550.94278 L 410.79601,549.97488 L 407.31155,509.22611 z"
       id="path3240"
       sodipodi:nodetypes="ccccc" />
    <path
       style="fill:#c50808;fill-opacity:1;fill-rule:evenodd;stroke:#000000;stroke-width:0;stroke-linecap:butt;stroke-linejoin:miter;stroke-miterlimit:4;stroke-dasharray:none;stroke-opacity:1"
       d="M 428.50093,552.8586 C 427.2451,552.54048 425.93329,552.20836 424.15218,551.75892 C 421.41278,551.42655 421.90731,547.94674 421.80285,545.01085 C 422.00279,542.06169 421.90282,539.11254 421.95281,536.16339 C 421.72805,533.46837 423.8246,531.79967 424.45209,529.86519 L 425.05192,529.61526 C 425.05192,529.61526 429.19337,542.77783 429.40068,542.86147 C 429.52377,542.91112 430.16489,549.36576 429.95052,550.7592 C 430.00748,552.549 430.47945,553.30422 428.50093,552.8586 z"
       id="path3250"
       sodipodi:nodetypes="ccccccscc" />
    <path
       style="fill:#2184d6;fill-opacity:1;fill-rule:evenodd;stroke:#000000;stroke-width:0;stroke-linecap:butt;stroke-linejoin:miter;stroke-miterlimit:4;stroke-dasharray:none;stroke-opacity:1"
       d="M 444.13009,555.92545 L 443.96377,550.76965 C 443.27328,547.70189 443.41112,545.10746 441.31936,541.23897 L 439.61323,541.51057 L 438.87905,540.08464 C 440.86088,539.27338 442.68855,538.9246 444.44944,538.77615 L 444.4696,540.21332 L 442.82073,540.86525 C 443.90909,544.22593 444.54397,547.17084 444.97999,550.53152 L 447.44553,549.53436 C 448.18704,546.02588 448.68096,540.76081 446.44847,535.32848 C 443.732,527.75332 436.17181,523.90057 429.39801,523.22928 L 434.18529,526.92644 L 435.97253,526.90658 L 437.01375,527.9506 C 435.40912,528.16622 433.8045,528.48774 432.19987,529.7748 L 431.3913,528.57861 L 432.84504,527.54724 C 431.27329,525.27367 429.31723,523.69448 427.52397,522.97148 C 423.58938,528.43664 424.33567,532.64642 424.67112,536.38332 C 424.48727,543.53236 431.07155,553.17293 444.13009,555.92545 z"
       id="path3256"
       sodipodi:nodetypes="ccccccccccccccccccccc" />
    <path
       style="fill:#081d76;fill-opacity:1;fill-rule:evenodd;stroke:#000000;stroke-width:0;stroke-linecap:butt;stroke-linejoin:miter;stroke-miterlimit:4;stroke-dasharray:none;stroke-opacity:1"
       d="M 444.13009,555.92545 L 443.96377,550.76965 C 437.75996,550.70672 428.68104,548.29924 424.67112,536.38332 C 424.32314,543.83237 431.27757,554.2742 444.13009,555.92545 z"
       id="path3252"
       sodipodi:nodetypes="cccc" />
    <path
       style="fill:#081d76;fill-opacity:1;fill-rule:evenodd;stroke:#000000;stroke-width:0;stroke-linecap:butt;stroke-linejoin:miter;stroke-miterlimit:4;stroke-dasharray:none;stroke-opacity:1"
       d="M 444.96167,556.0086 L 444.96167,550.27071 C 446.32326,550.21862 446.7892,549.27086 447.53957,548.60754 C 447.39445,551.50307 446.19158,553.76395 444.96167,556.0086 z"
       id="path3254"
       sodipodi:nodetypes="cccc" />
    <path
       style="fill:#ffffff;fill-rule:evenodd;stroke:#000000;stroke-width:0;stroke-linecap:butt;stroke-linejoin:miter;stroke-miterlimit:4;stroke-dasharray:none;stroke-opacity:1"
       d="M 433.6646,531.05004 C 435.2969,529.86746 436.92921,529.45875 438.56152,529.58097 L 439.70413,530.72358 C 438.0988,530.96888 436.50933,531.18247 434.48075,532.27427 L 433.6646,531.05004 z"
       id="path3258"
       sodipodi:nodetypes="ccccc" />
    <path
       style="fill:#ffffff;fill-rule:evenodd;stroke:#000000;stroke-width:0;stroke-linecap:butt;stroke-linejoin:miter;stroke-miterlimit:4;stroke-dasharray:none;stroke-opacity:1"
       d="M 435.37852,533.90658 C 437.01083,532.724 439.21444,532.31529 440.84675,532.4375 L 441.58128,533.90658 C 439.97595,534.15188 438.38648,534.28385 436.3579,535.37565 L 435.37852,533.90658 z"
       id="path3260"
       sodipodi:nodetypes="ccccc" />
    <path
       style="fill:#ffffff;fill-rule:evenodd;stroke:#000000;stroke-width:0;stroke-linecap:butt;stroke-linejoin:miter;stroke-miterlimit:4;stroke-dasharray:none;stroke-opacity:1"
       d="M 436.92921,537.17119 C 438.56152,535.98861 441.1732,535.57989 442.80551,535.70212 L 443.37682,536.92634 C 441.77149,537.17164 439.93718,537.54846 437.9086,538.64026 L 436.92921,537.17119 z"
       id="path3262"
       sodipodi:nodetypes="ccccc" />
  </g>
</svg>
