<?xml version="1.0" encoding="iso-8859-1"?>
<!-- Generator: Adobe Illustrator 14.0.0, SVG Export Plug-In . SVG Version: 6.00 Build 43363)  -->
<!DOCTYPE svg PUBLIC "-//W3C//DTD SVG 1.1//EN" "http://www.w3.org/Graphics/SVG/1.1/DTD/svg11.dtd">
<svg version="1.1" id="Layer_1" xmlns="http://www.w3.org/2000/svg" xmlns:xlink="http://www.w3.org/1999/xlink" x="0px" y="0px"
	 width="250px" height="118px" viewBox="0 0 250 118" style="enable-background:new 0 0 250 118;" xml:space="preserve">
<g>
	<polygon style="fill-rule:evenodd;clip-rule:evenodd;fill:#00386C;" points="22.959,4.669 38.083,19.793 17.59,19.793 
		29.558,31.834 9.226,31.834 40.764,63.299 5,99.166 51.128,99.166 63.293,86.971 75.408,99.086 111.765,99.086 126.076,113.367 
		140.373,99.086 244.934,99.166 245,31.834 221.775,31.834 233.01,20.365 213.154,20.365 228.82,4.632 	"/>
	<polygon style="fill-rule:evenodd;clip-rule:evenodd;fill:#FFFFFF;" points="209.016,24.964 221.343,24.964 214.451,31.908 
		202.117,31.908 	"/>
	<polygon style="fill-rule:evenodd;clip-rule:evenodd;fill:#FFFFFF;" points="29.258,24.349 41.907,24.349 48.645,31.117 
		36.04,31.117 	"/>
	<polygon style="fill-rule:evenodd;clip-rule:evenodd;fill:#FFFFFF;" points="19.868,36.222 53.113,36.222 63.945,47.083 
		74.822,36.258 114.688,36.222 126.033,47.582 137.459,36.222 184.305,36.222 184.305,94.61 140.711,94.61 125.989,79.889 
		111.289,94.61 77.122,94.61 63.293,80.76 49.465,94.61 15.803,94.61 47.026,63.387 	"/>
	<polygon style="fill-rule:evenodd;clip-rule:evenodd;fill:#DA2128;" points="29.851,40.616 51.414,40.616 63.945,53.075 
		76.433,40.682 113.384,40.616 126.076,53.28 138.762,40.616 159.578,40.616 136.316,63.871 162.99,90.545 141.854,90.545 
		126.076,74.77 110.278,90.545 78.484,90.545 63.293,75.311 48.088,90.545 25.464,90.545 52.615,63.395 	"/>
	<polygon style="fill-rule:evenodd;clip-rule:evenodd;fill:#FFFFFF;" points="95.037,44.19 75.54,63.79 95.139,83.39 
		114.688,63.842 	"/>
	
		<rect x="85.162" y="53.865" transform="matrix(0.7071 -0.7071 0.7071 0.7071 -17.2889 86.0035)" style="fill-rule:evenodd;clip-rule:evenodd;fill:#00386C;" width="20.012" height="20.012"/>
	<polygon style="fill-rule:evenodd;clip-rule:evenodd;fill:#00386C;" points="160.552,45.824 160.552,81.925 142.498,63.871 	"/>
	<rect x="164.777" y="40.616" style="fill-rule:evenodd;clip-rule:evenodd;fill:#DA2128;" width="15.455" height="49.929"/>
	<rect x="188.853" y="36.222" style="fill-rule:evenodd;clip-rule:evenodd;fill:#FFFFFF;" width="23.913" height="58.389"/>
	<rect x="193.211" y="40.616" style="fill-rule:evenodd;clip-rule:evenodd;fill:#DA2128;" width="15" height="49.929"/>
	<rect x="217.645" y="36.222" style="fill-rule:evenodd;clip-rule:evenodd;fill:#FFFFFF;" width="22.764" height="58.389"/>
	<rect x="221.805" y="40.616" style="fill-rule:evenodd;clip-rule:evenodd;fill:#DA2128;" width="14.545" height="49.929"/>
	<polygon style="fill-rule:evenodd;clip-rule:evenodd;fill:#FFFFFF;" points="55.728,13.941 64.758,13.941 64.758,16.791 
		59.712,16.791 59.712,18.124 64.802,20.746 64.802,27.235 55.647,27.235 55.647,23.983 61.506,23.983 61.506,22.914 55.728,20.042 
			"/>
	<path style="fill-rule:evenodd;clip-rule:evenodd;fill:#FFFFFF;" d="M70.083,13.941v13.337H80.33V13.941c0,0-3.926,0-3.97,0
		s-0.015,9.998-0.015,9.998h-2.446v-9.998H70.083z"/>
	<polygon style="fill-rule:evenodd;clip-rule:evenodd;fill:#FFFFFF;" points="86.145,13.941 96.633,13.941 96.633,21.258 
		90.129,23.456 90.129,27.279 86.13,27.279 	"/>
	<polygon style="fill-rule:evenodd;clip-rule:evenodd;fill:#FFFFFF;" points="101.101,13.941 109.407,13.941 109.407,16.952 
		105.012,16.952 105.012,18.739 108.176,18.739 108.176,22.079 104.924,22.079 104.924,23.939 109.48,23.939 109.48,27.279 
		101.123,27.279 	"/>
	<path style="fill-rule:evenodd;clip-rule:evenodd;fill:#FFFFFF;" d="M114.768,13.941h10.327v6.174c0,0-2.439,1.062-2.52,1.062
		l2.52,0.813v5.288h-3.823v-3.757l-1.318-0.667l-1.216,0.586l0.015,3.838h-3.984V13.941z"/>
	<polygon style="fill-rule:evenodd;clip-rule:evenodd;fill:#FFFFFF;" points="135.51,13.941 146.079,13.941 146.079,19.149 
		144.123,20.365 146.16,21.419 146.16,27.279 135.51,27.279 	"/>
	<rect x="151.857" y="13.941" style="fill-rule:evenodd;clip-rule:evenodd;fill:#FFFFFF;" width="9.756" height="13.337"/>
	<polygon style="fill-rule:evenodd;clip-rule:evenodd;fill:#FFFFFF;" points="167.466,13.941 171.369,13.941 171.369,21.844 
		173.436,19.808 173.42,13.941 177.303,13.941 177.316,21.668 179.178,19.808 179.178,13.941 183.074,13.941 183.074,20.899 
		176.753,27.279 173.406,27.279 173.406,24.51 170.637,27.279 167.443,27.279 	"/>
	<polygon style="fill-rule:evenodd;clip-rule:evenodd;fill:#FFFFFF;" points="188.281,13.941 191.613,13.941 191.613,24.269 
		194.705,24.269 194.705,27.279 188.281,27.279 	"/>
	<polygon style="fill-rule:evenodd;clip-rule:evenodd;fill:#00386C;" points="155.088,16.542 158.273,16.542 158.273,23.536 
		155.109,23.536 	"/>
	<polygon style="fill-rule:evenodd;clip-rule:evenodd;fill:#00386C;" points="138.924,16.542 138.924,19.149 142.014,17.845 
		142.014,16.542 	"/>
	<polygon style="fill-rule:evenodd;clip-rule:evenodd;fill:#00386C;" points="138.924,24.027 142.014,24.027 142.014,22.723 
		140.564,21.588 138.908,22.643 	"/>
	<polygon style="fill-rule:evenodd;clip-rule:evenodd;fill:#00386C;" points="118.752,16.542 121.199,16.542 121.199,18.578 
		118.738,19.793 	"/>
	<polygon style="fill-rule:evenodd;clip-rule:evenodd;fill:#00386C;" points="90.129,16.542 92.649,16.542 92.649,19.061 
		90.129,19.991 	"/>
</g>
</svg>
