<?xml version="1.0" encoding="utf-8"?>
<!-- Generator: Adobe Illustrator 12.0.0, SVG Export Plug-In . SVG Version: 6.00 Build 51448)  -->
<!DOCTYPE svg PUBLIC "-//W3C//DTD SVG 1.1//EN" "http://www.w3.org/Graphics/SVG/1.1/DTD/svg11.dtd" [
	<!ENTITY ns_svg "http://www.w3.org/2000/svg">
	<!ENTITY ns_xlink "http://www.w3.org/1999/xlink">
]>
<svg  version="1.1" id="Layer_1" xmlns="&ns_svg;" xmlns:xlink="&ns_xlink;" width="261.57" height="200" viewBox="0 0 261.57 200"
	 overflow="visible" enable-background="new 0 0 261.57 200" xml:space="preserve">
<g>
	<path fill-rule="evenodd" clip-rule="evenodd" fill="none" d="M54.033,63.005l-2.274-3.871l0.238-0.141
		c0.065,0.107,0.197,0.199,0.367,0.317c0.507,0.354,2.9-1.265,4.405-3.415c1.447-2.066,1.648-3.313,0.821-3.891
		c-1.391-0.973-5.813,8.62-9.439,6.081c-1.88-1.315-1.787-4.207,0.34-7.245c1.981-2.83,4.204-4.323,4.595-4.883
		c0.188-0.269,0.158-0.505,0.108-0.755l0.236-0.175l1.614,3.255l-0.287,0.169l-0.206-0.145c-0.47-0.328-2.646,1.659-4.007,3.601
		c-1.26,1.798-1.24,2.732-0.809,3.035c1.673,1.171,5.614-8.818,9.936-5.792c1.618,1.131,2.462,3.725-0.678,8.209
		c-2.416,3.45-4.351,4.374-4.685,4.85c-0.115,0.166-0.071,0.381-0.044,0.584L54.033,63.005L54.033,63.005z M76.524,36.846
		l-2.98-5.376c-0.099-0.181-0.245-0.285-0.819-0.019l-0.133-0.241l4.545-2.519l0.135,0.24c-0.528,0.346-0.518,0.524-0.418,0.704
		l2.982,5.377c1.957,3.529-0.112,6.197-3.488,8.068c-3.375,1.872-6.733,2.212-8.694-1.319l-2.978-5.376
		c-0.101-0.18-0.245-0.284-0.82-0.019l-0.133-0.24l4.544-2.52l0.133,0.241c-0.529,0.346-0.516,0.522-0.417,0.703l2.982,5.376
		c0.855,1.544,2.216,1.604,3.98,0.625C76.71,39.574,77.381,38.39,76.524,36.846L76.524,36.846z M93.705,25.128l0.639,2.562
		l3.72-0.928c1.321-0.329,1.882-0.895,1.649-1.829c-0.216-0.867-0.965-1.059-2.288-0.729L93.705,25.128L93.705,25.128z
		 M94.93,30.048l0.907,3.628c0.048,0.2,0.161,0.338,0.786,0.229l0.064,0.268l-5.04,1.256l-0.069-0.267
		c0.601-0.197,0.635-0.371,0.585-0.572L89.577,24.22c-0.05-0.199-0.163-0.338-0.786-0.229l-0.065-0.269l8.765-2.184
		c3.083-0.769,5.107,0.572,5.602,2.551c0.493,1.981-0.67,4.092-3.753,4.86L94.93,30.048L94.93,30.048z M124.638,26.003l-0.499,3.543
		l-0.3-0.043c-0.034-0.305-0.175-0.556-0.678-0.626l-4.644-0.654l-0.296,2.111l8.018,1.128c0.275,0.039,0.39-0.061,0.546-0.618
		l0.298,0.043l-0.555,3.951l-0.3-0.042c-0.02-0.397-0.103-0.524-0.378-0.563l-12.467-1.754l0.037-0.271
		c0.633,0.042,0.729-0.107,0.757-0.312l1.488-10.583c0.027-0.204-0.025-0.374-0.642-0.506l0.037-0.273l12.465,1.753
		c0.277,0.039,0.39-0.06,0.54-0.572l0.301,0.042l-0.555,3.951l-0.302-0.042c0-0.533-0.085-0.661-0.358-0.699l-8.022-1.129
		l-0.262,1.885l4.646,0.655c0.5,0.07,0.705-0.131,0.823-0.417L124.638,26.003L124.638,26.003z M148.078,32.82l-1.298,2.163
		l3.633,2.185c1.275,0.767,1.973,0.488,2.313-0.081c0.344-0.57,0.261-1.316-1.014-2.082L148.078,32.82L148.078,32.82z
		 M145.527,37.065l-1.983,3.304c-0.107,0.176-0.124,0.353,0.393,0.717l-0.142,0.235l-4.455-2.677l0.143-0.235
		c0.563,0.285,0.709,0.186,0.819,0.009l5.503-9.161c0.104-0.177,0.124-0.353-0.395-0.718l0.143-0.236l7.915,4.758
		c3.2,1.924,3.948,3.765,2.601,6.004c-1.086,1.81-2.963,1.994-5.027,1.366l0.589,4.797c0.043,0.373,0.178,0.588,0.415,0.732
		l-0.142,0.234l-4.497-2.703l0.142-0.236c0.314,0.164,0.547,0.169,0.688-0.067c0.106-0.177-0.557-4.266-0.589-4.849L145.527,37.065
		L145.527,37.065z M98.978,166.057c4.18,0.967,7.185,3.874,6.282,7.783c-0.903,3.912-4.878,5.205-9.056,4.238
		c-4.18-0.963-7.185-3.872-6.282-7.782C90.824,166.385,94.799,165.092,98.978,166.057L98.978,166.057z M98.349,168.783
		c-2.14-0.493-4.304,0.254-4.79,2.354c-0.484,2.101,1.133,3.722,3.273,4.217c2.139,0.495,4.305-0.254,4.791-2.354
		C102.105,170.899,100.488,169.278,98.349,168.783L98.349,168.783z M136.714,174.887l-5.121,1.863l-0.094-0.26
		c0.244-0.138,0.443-0.259,0.34-0.539c-0.055-0.148-7.157-8.523-7.418-8.869c-0.11-0.154-0.252-0.178-0.323-0.149l-0.096-0.259
		l4.339-1.579l0.094,0.259c-0.27,0.146-0.466,0.267-0.381,0.504c0.087,0.238,3.523,4.284,4.751,5.813l0.046-0.018
		c-0.02-1.822-0.143-7.245-0.22-7.459c-0.087-0.238-0.41-0.169-0.616-0.143l-0.094-0.259l5.641-2.053l0.095,0.258
		c-0.19,0.142-0.364,0.255-0.286,0.472c0.048,0.128,3.569,4.63,4.417,5.934l0.048-0.018c-0.092-1.138,0.015-7.183-0.087-7.459
		c-0.094-0.26-0.37-0.21-0.631-0.188l-0.095-0.259l3.984-1.447l0.093,0.259c-0.229,0.106-0.286,0.322-0.254,0.555
		c0.062,0.393-0.135,11.202-0.041,11.462c0.096,0.259,0.363,0.185,0.585,0.129l0.095,0.259l-4.93,1.794l-0.096-0.259
		c0.315-0.164,0.427-0.302,0.365-0.476c-0.252-0.688-3.094-4.144-5.023-6.713l-0.048,0.018c0.129,2.784,0.094,8.068,0.235,8.455
		c0.063,0.174,0.321,0.225,0.632,0.113L136.714,174.887L136.714,174.887z M162.827,143.748l6.572,5.513l5.577-6.648
		c0.179-0.213,0.155-0.361-0.199-0.759l0.193-0.234l3.094,2.597l-0.195,0.231c-0.417-0.252-0.571-0.249-0.747-0.036l-8.465,10.09
		l-0.213-0.177c0.373-0.515,0.298-0.675,0.141-0.81l-8.192-6.868c-0.157-0.131-0.33-0.178-0.77,0.276l-0.211-0.177l3.34-3.98
		l0.211,0.175C162.592,143.453,162.667,143.615,162.827,143.748L162.827,143.748z M62.993,156.654l-1.731,2.138l3.331,2.7
		c1.373,1.112,2.152,1.271,2.787,0.488c0.637-0.784,0.317-1.516-1.056-2.626L62.993,156.654L62.993,156.654z M57.223,157.766
		l6.727-8.306c0.129-0.163,0.17-0.334-0.289-0.767l0.172-0.213l7.47,6.051c2.118,1.714,3.088,3.683,1.659,5.448
		c-0.864,1.067-2.182,1.093-3.454,0.418l-0.028,0.036c1.052,1.383,1.494,2.803,0.426,4.122c-1.155,1.427-3.312,1.686-6.095-0.571
		l-7.567-6.131l0.174-0.213C56.933,158.003,57.093,157.925,57.223,157.766L57.223,157.766z M65.792,153.195l-1.329,1.642
		l2.667,2.158c1.687,1.366,2.203,1.609,2.781,0.896c0.577-0.712,0.232-1.169-1.453-2.535L65.792,153.195L65.792,153.195z
		 M194.791,116.269l-22.779,5.488c0,0-2.923,11.089-15.452,23.647c-12.529,12.563-27.682,18.839-45.422,18.816
		c-17.743,0.022-32.896-6.253-45.424-18.816c-2.304-2.299-4.102-4.429-5.983-6.907l-12.077-0.341c0,0-12.785-0.244-12.762-0.205
		c13.338,23.315,33.073,39.329,57.248,44.833c6.264,1.427,12.164,1.772,19.11,1.799c23.248,0.089,42.852-8.937,58.153-23.564
		C181.677,149.279,191.686,134.032,194.791,116.269L194.791,116.269z M136.828,38.033c0.304,0.1-6.938-3.835-7.039-3.86
		l-5.068,2.773c-4.314-0.82-8.834-1.208-13.584-1.202c-17.743-0.023-32.896,6.253-45.424,18.814
		c-6.216,6.202-10.624,12.135-13.76,19.617c-0.078,0.19-5.56,0.063-10.532-0.086c-5.648-0.167-10.908-0.126-10.908-0.126
		c5.686-17.512,12.182-24.64,21.782-34.121C67.3,25.026,87.439,15.606,110.668,15.606c38.095,0,59.166,20.551,73.815,40.645
		l-3.206,0.808c0,0-5.369-3.509-6.916-4.231c-1.551-0.723-6.194-2.477-7.124-2.685c-0.926-0.207-5.68-1.592-8.979-1.755
		c-4.646-0.227-7.947,0.393-7.947,0.393c-4.863-3.903-9.988-6.861-15.452-8.964c-0.124-0.049-0.211-0.097-0.573-0.248
		L136.828,38.033L136.828,38.033z M181.66,72.352l0.039,41.523c8.845-2.149,16.525-3.555,16.525-3.555l0.013-51.482
		c0,0-5.095,1.163-11.734,2.622c3.45,3.735,5.575,7.912,6.644,13.025C188.951,73.876,185.292,73.23,181.66,72.352L181.66,72.352z
		 M58.53,91.813l1.588-2.509l8.651,15.137l-8.649,16.373l-9.575-16.373L58.53,91.813L58.53,91.813z M147.99,69.324l-28.963,4.854
		l-3.796,26.716l-6.434-25.403l-27.49,3.328l-4.992,10.31l-4.86-9.7l-24.196,0.773l-3.941,9.222
		c-0.239-0.24-4.582-9.079-4.582-9.079L19.783,79.39c0,0,14.216,24.729,14.216,24.848L17.425,132.2l18.829,0.947l7.189-11.995
		l6.588,12l19.507-0.697l6.81-10.924l6.045,10.14l18.232-2.199l-13.993-24.865l7.812-13.988l9.425,38.209l24.979-3.713l7.407-42.261
		v40.891l16.725-3.366V72.457c-0.94-0.511-1.893-1.069-2.868-1.683C149.38,70.314,148.672,69.831,147.99,69.324L147.99,69.324z
		 M159.19,75.246l-0.017,43.973c6.809-1.314,16.762-3.986,16.762-3.986l-0.016-44.473c-1.389-0.435-2.812-0.917-4.295-1.453
		c-1.6-0.561-3.177-1.226-4.71-1.995c1.4,3.28,2.144,6.703,2.312,10.528C165.508,77.138,162.291,76.361,159.19,75.246L159.19,75.246
		z M186.937,155.278l-1.769,11.637l-11.389,2.975l-4.148,11.015l-11.758,0.539l-6.347,9.912l-11.614-1.915l-8.271,8.376
		l-10.961-4.289L110.851,200l-9.831-6.473l-10.961,4.287l-8.27-8.376l-11.615,1.914l-6.345-9.913l-11.759-0.541l-4.146-11.014
		l-11.39-2.977l-1.765-11.637l-10.523-5.279l0.625-10.603c-2.413-0.104-4.453-0.206-6.865-0.339
		C8.76,139.682-0.034,131.998,0,122.465c2.246-14.007,2.629-26.1,1.277-40.223l-0.009-0.188c0.048-4.868-0.123-8.983-0.58-13.83
		c-0.181-2.095-0.333-3.864-0.511-5.958l0.3-0.342c0.397-4.169,2.503-7.562,6.063-9.767c6.299-3.833,12.979-4.961,20.187-3.409
		l8.05-4.037l1.769-11.637l11.387-2.973l4.151-11.015l11.757-0.541l6.351-9.912l11.614,1.917l8.268-8.375l10.964,4.288L110.856,0
		l9.829,6.473l10.962-4.288l8.269,8.375l11.613-1.916l6.348,9.911l11.757,0.543l4.147,11.015l11.389,2.973l1.769,11.637L197.459,50
		l-0.106,1.784c1.066-0.252,1.966-0.467,3.032-0.724c5.813-1.618,12.326-0.485,16.651,3.924c2.286,2.295,3.498,4.99,3.702,8.223
		c0.213,6.568-0.009,12.128-0.747,18.659c-0.048,1.488-0.085,2.745-0.115,4.233c17.526,9.583,31.927,24.986,41.693,42.241
		c-7.606,12.228-18.748,19.779-32.927,22.313c-0.111,11.427-2.16,21.093-6.696,31.578l-0.02,0.043
		c-3.793,7.963-8.502,12.474-15.567,17.551l-1.073-5.645c-1.72-9.373-4.151-17.121-8.097-25.796
		c-2.396-5.32-5.299-9.438-9.508-13.479L186.937,155.278L186.937,155.278z M173.966,37.428c3.003,2.842,5.384,5.406,7.998,8.61
		l-1.35-8.884l-9.302-2.429C172.267,35.654,173.054,36.456,173.966,37.428L173.966,37.428z M184.384,49.138
		c1.206,1.617,2.184,3.015,3.285,4.705l4.252-0.923L184.384,49.138L184.384,49.138z M111.403,11.513
		c2.764-0.09,5.1-0.053,7.86,0.122l-8.426-5.548l-8.561,5.638C105.479,11.472,108.195,11.409,111.403,11.513L111.403,11.513z
		 M121.078,11.77c5.621,0.483,10.331,1.356,15.75,2.919l-6.467-6.55L121.078,11.77L121.078,11.77z M140.036,15.687
		c5.048,1.685,9.185,3.502,13.838,6.083l-4.845-7.564L140.036,15.687L140.036,15.687z M157.017,23.604
		c4.639,2.848,8.332,5.626,12.354,9.293l-3.342-8.879L157.017,23.604L157.017,23.604z M48.841,37.43
		c5.306-5.662,10.443-9.844,17.062-13.894l-10.25,0.472L51.757,34.35l-10.693,2.792l-1.637,10.77
		C42.448,43.979,45.254,40.853,48.841,37.43L48.841,37.43z M67.149,22.789c5.098-2.998,9.671-5.087,15.273-6.983l-9.767-1.612
		L67.149,22.789L67.149,22.789z M84.37,15.172c5.65-1.756,10.578-2.75,16.467-3.321l-9.51-3.722L84.37,15.172L84.37,15.172z
		 M39.248,48.147l-9.725,4.876l0.6,10.207C32.617,57.704,35.576,52.962,39.248,48.147L39.248,48.147z M26.75,72.286
		c0.823-2.768,1.653-5.067,2.789-7.724l-7.915,6.324l0.45,1.182L26.75,72.286L26.75,72.286z M173.962,162.541
		c3.032-2.842,5.42-5.431,8.012-8.679l-1.361,8.95l-9.3,2.428C172.265,164.311,173.053,163.511,173.962,162.541L173.962,162.541z
		 M184.217,150.911c2.995-4.126,5.218-7.837,7.438-12.428l0.495,8.447L184.217,150.911L184.217,150.911z M193.552,134.261
		c1.926-4.626,3.209-8.674,4.303-13.563l2.283,8.302L193.552,134.261L193.552,134.261z M111.403,188.454
		c2.764,0.088,5.098,0.053,7.853-0.123l-8.423,5.547l-8.561-5.637C105.476,188.493,108.192,188.557,111.403,188.454L111.403,188.454
		z M121.074,188.194c5.62-0.482,10.33-1.354,15.749-2.92l-6.468,6.554L121.074,188.194L121.074,188.194z M140.034,184.278
		c5.047-1.684,9.182-3.502,13.834-6.081l-4.843,7.563L140.034,184.278L140.034,184.278z M157.015,176.361
		c4.639-2.848,8.33-5.624,12.354-9.29l-3.343,8.876L157.015,176.361L157.015,176.361z M48.85,162.544
		c5.297,5.65,10.423,9.826,17.028,13.87L55.64,175.94l-3.894-10.342l-10.693-2.792l-1.628-10.729
		C42.396,156.048,45.211,159.176,48.85,162.544L48.85,162.544z M67.146,177.172c5.089,2.994,9.654,5.08,15.249,6.977l-9.753,1.609
		L67.146,177.172L67.146,177.172z M84.367,184.791c5.639,1.754,10.56,2.747,16.44,3.32l-9.496,3.713L84.367,184.791L84.367,184.791z
		 M31.671,139.34c2.231,4.608,4.482,8.328,7.534,12.443l-9.686-4.858l0.474-7.58L31.671,139.34L31.671,139.34z M188.09,153.416
		c-0.063-0.054-0.117-0.1-0.182-0.149l-2.215,1.11l-1.738,11.445l-11.203,2.927l-4.081,10.835l-11.564,0.532l-6.246,9.749
		l-11.422-1.884l-8.135,8.238L120.521,192l-9.669,6.368L101.18,192l-10.784,4.218l-8.133-8.239l-11.424,1.884l-6.242-9.751
		l-11.568-0.534l-4.08-10.835l-11.203-2.927l-1.736-11.447l-10.349-5.192l0.653-11.09c-2.925-0.119-5.393-0.238-8.316-0.401
		c-4.259,0.373-8.036-0.904-11.195-3.783c-3.124-2.922-4.894-6.365-5.455-10.603l-0.003-0.609
		c1.002-7.095,1.579-13.128,1.937-20.284c0.326-7.136,0.131-13.186-0.647-20.287l-0.002-0.05c0.05-4.918-0.126-9.074-0.585-13.971
		c-0.17-1.888-0.309-3.479-0.463-5.37L1.8,62.483c0.193-3.902,2.125-7.145,5.464-9.172c6.154-3.666,12.651-4.7,19.639-3.126
		l9.114-4.571l1.74-11.448l11.204-2.924l4.08-10.835l11.567-0.532l6.246-9.75l11.424,1.885l8.137-8.237l10.782,4.219l9.659-6.36
		L120.524,8l10.783-4.219l8.134,8.239l11.426-1.885l6.242,9.75l11.565,0.533l4.082,10.833l11.2,2.927l1.74,11.446l10.35,5.191
		l-0.16,2.714c1.703-0.401,3.142-0.742,4.841-1.151c2.817-0.788,5.37-0.878,8.233-0.29c2.829,0.568,5.087,1.791,7.107,3.852
		c2.046,2.052,3.129,4.459,3.311,7.35c0.146,4.542-0.373,13.957-0.749,18.478c-0.059,1.804-0.1,3.328-0.135,5.132
		c2.566,1.369,4.674,2.64,7.083,4.272c14.924,9.993,25.576,21.488,34.408,37.131c-3.824,5.754-8.515,10.529-14.277,14.357
		c-5.812,3.858-11.513,5.975-18.432,6.848c-0.155,11.085-1.972,22.042-6.584,32.188l0,0c-3.217,6.611-7.389,11.528-13.394,15.775
		l-0.672-3.537c-1.772-9.483-4.232-17.324-8.197-26.119C195.873,162.087,192.703,157.673,188.09,153.416L188.09,153.416z"/>
	<path fill-rule="evenodd" clip-rule="evenodd" fill="#261751" d="M186.937,155.278l0.745-0.373
		c4.209,4.041,7.111,8.158,9.508,13.479c3.945,8.675,6.377,16.423,8.097,25.796l1.073,5.645c7.065-5.077,11.774-9.588,15.567-17.551
		l0.02-0.043c4.536-10.485,6.585-20.151,6.696-31.578c14.179-2.533,25.32-10.085,32.927-22.313
		c-9.767-17.255-24.167-32.658-41.693-42.241c0.03-1.488,0.067-2.745,0.115-4.233c0.738-6.53,0.96-12.091,0.747-18.659
		c-0.204-3.233-1.416-5.927-3.702-8.223c-4.325-4.409-10.839-5.542-16.651-3.924c-1.066,0.256-1.966,0.472-3.032,0.724L197.459,50
		l-10.521-5.276l-1.769-11.637l-11.389-2.973l-4.147-11.015l-11.757-0.543l-6.348-9.911l-11.613,1.916l-8.269-8.375l-10.962,4.288
		L110.856,0l-9.819,6.465L90.073,2.177l-8.268,8.375L70.191,8.634l-6.351,9.912l-11.757,0.541l-4.151,11.015l-11.387,2.973
		l-1.769,11.637l-8.05,4.037c-7.208-1.552-13.888-0.425-20.187,3.409c-3.561,2.206-5.666,5.598-6.063,9.767l-0.3,0.342
		c0.178,2.094,0.33,3.864,0.511,5.958c0.458,4.847,0.628,8.962,0.58,13.83l0.009,0.188C2.629,96.365,2.246,108.458,0,122.465
		c-0.034,9.533,8.76,17.217,18.005,16.586c2.413,0.133,4.453,0.234,6.865,0.339l-0.625,10.603l10.523,5.279l1.765,11.637
		l11.39,2.977l4.146,11.014l11.759,0.541l6.345,9.913l11.615-1.914l8.27,8.376l10.961-4.287l9.831,6.473l9.829-6.473l10.961,4.289
		l8.271-8.376l11.614,1.915l6.347-9.912l11.758-0.539l4.148-11.015l11.389-2.975L186.937,155.278L186.937,155.278z M188.09,153.416
		c-0.063-0.054-0.117-0.1-0.182-0.149l-2.215,1.11l-1.738,11.445l-11.203,2.927l-4.081,10.835l-11.564,0.532l-6.246,9.749
		l-11.422-1.884l-8.135,8.238L120.521,192l-9.669,6.368L101.18,192l-10.784,4.218l-8.133-8.239l-11.424,1.884l-6.242-9.751
		l-11.568-0.534l-4.08-10.835l-11.203-2.927l-1.736-11.447l-10.349-5.192l0.653-11.09c-2.925-0.119-5.393-0.238-8.316-0.401
		c-4.259,0.373-8.036-0.904-11.195-3.783c-3.124-2.922-4.894-6.365-5.455-10.603l-0.003-0.609
		c1.002-7.095,1.579-13.128,1.937-20.284c0.326-7.136,0.131-13.186-0.647-20.287l-0.002-0.05c0.05-4.918-0.126-9.074-0.585-13.971
		c-0.17-1.888-0.309-3.479-0.463-5.37L1.8,62.483c0.193-3.902,2.125-7.145,5.464-9.172c6.154-3.666,12.651-4.7,19.639-3.126
		l9.114-4.571l1.74-11.448l11.204-2.924l4.08-10.835l11.567-0.532l6.246-9.75l11.424,1.885l8.137-8.237l10.782,4.219l9.659-6.36
		L120.524,8l10.783-4.219l8.134,8.239l11.426-1.885l6.242,9.75l11.565,0.533l4.082,10.833l11.2,2.927l1.74,11.446l10.35,5.191
		l-0.16,2.714c1.703-0.401,3.142-0.742,4.841-1.151c2.817-0.788,5.37-0.878,8.233-0.29c2.829,0.568,5.087,1.791,7.107,3.852
		c2.046,2.052,3.129,4.459,3.311,7.35c0.146,4.542-0.373,13.957-0.749,18.478c-0.059,1.804-0.1,3.328-0.135,5.132
		c2.566,1.369,4.674,2.64,7.083,4.272c14.924,9.993,25.576,21.488,34.408,37.131c-3.824,5.754-8.515,10.529-14.277,14.357
		c-5.812,3.858-11.513,5.975-18.432,6.848c-0.155,11.085-1.972,22.042-6.584,32.188l0,0c-3.217,6.611-7.389,11.528-13.394,15.775
		l-0.672-3.537c-1.772-9.483-4.232-17.324-8.197-26.119C195.873,162.087,192.703,157.673,188.09,153.416L188.09,153.416z
		 M147.99,69.324l-28.963,4.854l-3.796,26.716l-6.434-25.403l-27.49,3.328l-4.992,10.31l-4.86-9.7l-24.196,0.773l-3.941,9.222
		c-0.239-0.24-4.582-9.079-4.582-9.079L19.783,79.39c0,0,14.216,24.729,14.216,24.848L17.425,132.2l18.829,0.947l7.189-11.995
		l6.588,12l19.507-0.697l6.81-10.924l6.045,10.14l18.232-2.199l-13.993-24.865l7.812-13.988l9.425,38.209l24.979-3.713l7.407-42.261
		v40.891l16.725-3.366V72.457c-0.94-0.511-1.893-1.069-2.868-1.683C149.38,70.314,148.672,69.831,147.99,69.324L147.99,69.324z
		 M58.53,91.813l1.588-2.509l8.651,15.137l-8.649,16.373l-9.575-16.373L58.53,91.813L58.53,91.813z M181.66,72.352l0.039,41.523
		c8.845-2.149,16.525-3.555,16.525-3.555l0.013-51.482c0,0-5.095,1.163-11.734,2.622c3.45,3.735,5.575,7.912,6.644,13.025
		C188.951,73.876,185.292,73.23,181.66,72.352L181.66,72.352z M136.828,38.033l-2.542,1.535c0.362,0.151,0.449,0.199,0.573,0.248
		c5.464,2.103,10.589,5.061,15.452,8.964c0,0,3.302-0.619,7.947-0.393c3.3,0.163,8.054,1.548,8.979,1.755
		c0.93,0.208,5.573,1.962,7.124,2.685c1.547,0.722,6.916,4.231,6.916,4.231l3.206-0.808c-14.649-20.094-35.721-40.645-73.815-40.645
		c-23.229,0-43.369,9.42-58.374,24.238c-9.6,9.48-16.096,16.609-21.782,34.121c0,0,5.26-0.042,10.908,0.126
		c4.972,0.148,10.454,0.276,10.532,0.086c3.136-7.482,7.544-13.416,13.76-19.617c12.529-12.561,27.682-18.837,45.424-18.814
		c4.75-0.006,9.27,0.381,13.584,1.202l5.068-2.773C129.89,34.198,137.131,38.133,136.828,38.033L136.828,38.033z M145.527,37.065
		l-1.983,3.304c-0.107,0.176-0.124,0.353,0.393,0.717l-0.142,0.235l-4.455-2.677l0.143-0.235c0.563,0.285,0.709,0.186,0.819,0.009
		l5.503-9.161c0.104-0.177,0.124-0.353-0.395-0.718l0.143-0.236l7.915,4.758c3.2,1.924,3.948,3.765,2.601,6.004
		c-1.086,1.81-2.963,1.994-5.027,1.366l0.589,4.797c0.043,0.373,0.178,0.588,0.415,0.732l-0.142,0.234l-4.497-2.703l0.142-0.236
		c0.314,0.164,0.547,0.169,0.688-0.067c0.106-0.177-0.557-4.266-0.589-4.849L145.527,37.065L145.527,37.065z M148.078,32.82
		l-1.298,2.163l3.633,2.185c1.275,0.767,1.973,0.488,2.313-0.081c0.344-0.57,0.261-1.316-1.014-2.082L148.078,32.82L148.078,32.82z
		 M94.93,30.048l0.907,3.628c0.048,0.2,0.161,0.338,0.786,0.229l0.064,0.268l-5.04,1.256l-0.069-0.267
		c0.601-0.197,0.635-0.371,0.585-0.572L89.577,24.22c-0.05-0.199-0.163-0.338-0.786-0.229l-0.065-0.269l8.765-2.184
		c3.083-0.769,5.107,0.572,5.602,2.551c0.493,1.981-0.67,4.092-3.753,4.86L94.93,30.048L94.93,30.048z M93.705,25.128l0.639,2.562
		l3.72-0.928c1.321-0.329,1.882-0.895,1.649-1.829c-0.216-0.867-0.965-1.059-2.288-0.729L93.705,25.128L93.705,25.128z
		 M54.033,63.005l-2.274-3.871l0.238-0.141c0.065,0.107,0.197,0.199,0.367,0.317c0.507,0.354,2.9-1.265,4.405-3.415
		c1.447-2.066,1.648-3.313,0.821-3.891c-1.391-0.973-5.813,8.62-9.439,6.081c-1.88-1.315-1.787-4.207,0.34-7.245
		c1.981-2.83,4.204-4.323,4.595-4.883c0.188-0.269,0.158-0.505,0.108-0.755l0.236-0.175l1.614,3.255l-0.287,0.169l-0.206-0.145
		c-0.47-0.328-2.646,1.659-4.007,3.601c-1.26,1.798-1.24,2.732-0.809,3.035c1.673,1.171,5.614-8.818,9.936-5.792
		c1.618,1.131,2.462,3.725-0.678,8.209c-2.416,3.45-4.351,4.374-4.685,4.85c-0.115,0.166-0.071,0.381-0.044,0.584L54.033,63.005
		L54.033,63.005z M76.524,36.846l-2.98-5.376c-0.099-0.181-0.245-0.285-0.819-0.019l-0.133-0.241l4.545-2.519l0.135,0.24
		c-0.528,0.346-0.518,0.524-0.418,0.704l2.982,5.377c1.957,3.529-0.112,6.197-3.488,8.068c-3.375,1.872-6.733,2.212-8.694-1.319
		l-2.978-5.376c-0.101-0.18-0.245-0.284-0.82-0.019l-0.133-0.24l4.544-2.52l0.133,0.241c-0.529,0.346-0.516,0.522-0.417,0.703
		l2.982,5.376c0.855,1.544,2.216,1.604,3.98,0.625C76.71,39.574,77.381,38.39,76.524,36.846L76.524,36.846z M124.638,26.003
		l-0.499,3.543l-0.3-0.043c-0.034-0.305-0.175-0.556-0.678-0.626l-4.644-0.654l-0.296,2.111l8.018,1.128
		c0.275,0.039,0.39-0.061,0.546-0.618l0.298,0.043l-0.555,3.951l-0.3-0.042c-0.02-0.397-0.103-0.524-0.378-0.563l-12.467-1.754
		l0.037-0.271c0.633,0.042,0.729-0.107,0.757-0.312l1.488-10.583c0.027-0.204-0.025-0.374-0.642-0.506l0.037-0.273l12.465,1.753
		c0.277,0.039,0.39-0.06,0.54-0.572l0.301,0.042l-0.555,3.951l-0.302-0.042c0-0.533-0.085-0.661-0.358-0.699l-8.022-1.129
		l-0.262,1.885l4.646,0.655c0.5,0.07,0.705-0.131,0.823-0.417L124.638,26.003L124.638,26.003z M194.791,116.269l-22.779,5.488
		c0,0-2.923,11.089-15.452,23.647c-12.529,12.563-27.682,18.839-45.422,18.816c-17.743,0.022-32.896-6.253-45.424-18.816
		c-2.304-2.299-4.102-4.429-5.983-6.907l-12.077-0.341c0,0-12.785-0.244-12.762-0.205c13.338,23.315,33.073,39.329,57.248,44.833
		c6.264,1.427,12.164,1.772,19.11,1.799c23.248,0.089,42.852-8.937,58.153-23.564C181.677,149.279,191.686,134.032,194.791,116.269
		L194.791,116.269z M57.223,157.766l6.727-8.306c0.129-0.163,0.17-0.334-0.289-0.767l0.172-0.213l7.47,6.051
		c2.118,1.714,3.088,3.683,1.659,5.448c-0.864,1.067-2.182,1.093-3.454,0.418l-0.028,0.036c1.052,1.383,1.494,2.803,0.426,4.122
		c-1.155,1.427-3.312,1.686-6.095-0.571l-7.567-6.131l0.174-0.213C56.933,158.003,57.093,157.925,57.223,157.766L57.223,157.766z
		 M62.993,156.654l-1.731,2.138l3.331,2.7c1.373,1.112,2.152,1.271,2.787,0.488c0.637-0.784,0.317-1.516-1.056-2.626L62.993,156.654
		L62.993,156.654z M65.792,153.195l-1.329,1.642l2.667,2.158c1.687,1.366,2.203,1.609,2.781,0.896
		c0.577-0.712,0.232-1.169-1.453-2.535L65.792,153.195L65.792,153.195z M98.978,166.057c4.18,0.967,7.185,3.874,6.282,7.783
		c-0.903,3.912-4.878,5.205-9.056,4.238c-4.18-0.963-7.185-3.872-6.282-7.782C90.824,166.385,94.799,165.092,98.978,166.057
		L98.978,166.057z M98.349,168.783c-2.14-0.493-4.304,0.254-4.79,2.354c-0.484,2.101,1.133,3.722,3.273,4.217
		c2.139,0.495,4.305-0.254,4.791-2.354C102.105,170.899,100.488,169.278,98.349,168.783L98.349,168.783z M136.714,174.887
		l-5.121,1.863l-0.094-0.26c0.244-0.138,0.443-0.259,0.34-0.539c-0.055-0.148-7.157-8.523-7.418-8.869
		c-0.11-0.154-0.252-0.178-0.323-0.149l-0.096-0.259l4.339-1.579l0.094,0.259c-0.27,0.146-0.466,0.267-0.381,0.504
		c0.087,0.238,3.523,4.284,4.751,5.813l0.046-0.018c-0.02-1.822-0.143-7.245-0.22-7.459c-0.087-0.238-0.41-0.169-0.616-0.143
		l-0.094-0.259l5.641-2.053l0.095,0.258c-0.19,0.142-0.364,0.255-0.286,0.472c0.048,0.128,3.569,4.63,4.417,5.934l0.048-0.018
		c-0.092-1.138,0.015-7.183-0.087-7.459c-0.094-0.26-0.37-0.21-0.631-0.188l-0.095-0.259l3.984-1.447l0.093,0.259
		c-0.229,0.106-0.286,0.322-0.254,0.555c0.062,0.393-0.135,11.202-0.041,11.462c0.096,0.259,0.363,0.185,0.585,0.129l0.095,0.259
		l-4.93,1.794l-0.096-0.259c0.315-0.164,0.427-0.302,0.365-0.476c-0.252-0.688-3.094-4.144-5.023-6.713l-0.048,0.018
		c0.129,2.784,0.094,8.068,0.235,8.455c0.063,0.174,0.321,0.225,0.632,0.113L136.714,174.887L136.714,174.887z M162.827,143.748
		l6.572,5.513l5.577-6.648c0.179-0.213,0.155-0.361-0.199-0.759l0.193-0.234l3.094,2.597l-0.195,0.231
		c-0.417-0.252-0.571-0.249-0.747-0.036l-8.465,10.09l-0.213-0.177c0.373-0.515,0.298-0.675,0.141-0.81l-8.192-6.868
		c-0.157-0.131-0.33-0.178-0.77,0.276l-0.211-0.177l3.34-3.98l0.211,0.175C162.592,143.453,162.667,143.615,162.827,143.748
		L162.827,143.748z M159.19,75.246l-0.017,43.973c6.809-1.314,16.762-3.986,16.762-3.986l-0.016-44.473
		c-1.389-0.435-2.812-0.917-4.295-1.453c-1.6-0.561-3.177-1.226-4.71-1.995c1.4,3.28,2.144,6.703,2.312,10.528
		C165.508,77.138,162.291,76.361,159.19,75.246L159.19,75.246z M173.966,37.428c3.003,2.842,5.384,5.406,7.998,8.61l-1.35-8.884
		l-9.302-2.429C172.267,35.654,173.054,36.456,173.966,37.428L173.966,37.428z M184.384,49.138c1.206,1.617,2.184,3.015,3.285,4.705
		l4.252-0.923L184.384,49.138L184.384,49.138z M111.403,11.513c2.764-0.09,5.1-0.053,7.86,0.122l-8.426-5.548l-8.561,5.638
		C105.479,11.472,108.195,11.409,111.403,11.513L111.403,11.513z M121.078,11.77c5.621,0.483,10.331,1.356,15.75,2.919l-6.467-6.55
		L121.078,11.77L121.078,11.77z M140.036,15.687c5.048,1.685,9.185,3.502,13.838,6.083l-4.845-7.564L140.036,15.687L140.036,15.687z
		 M157.017,23.604c4.639,2.848,8.332,5.626,12.354,9.293l-3.342-8.879L157.017,23.604L157.017,23.604z M48.841,37.43
		c5.306-5.662,10.443-9.844,17.062-13.894l-10.25,0.472L51.757,34.35l-10.693,2.792l-1.637,10.77
		C42.448,43.979,45.254,40.853,48.841,37.43L48.841,37.43z M67.149,22.789c5.098-2.998,9.671-5.087,15.273-6.983l-9.767-1.612
		L67.149,22.789L67.149,22.789z M84.37,15.172c5.65-1.756,10.578-2.75,16.467-3.321l-9.51-3.722L84.37,15.172L84.37,15.172z
		 M39.248,48.147l-9.725,4.876l0.6,10.207C32.617,57.704,35.576,52.962,39.248,48.147L39.248,48.147z M26.75,72.286
		c0.823-2.768,1.653-5.067,2.789-7.724l-7.915,6.324l0.45,1.182L26.75,72.286L26.75,72.286z M173.962,162.541
		c-0.909,0.97-1.697,1.77-2.649,2.699l9.3-2.428l1.361-8.95C179.382,157.11,176.995,159.699,173.962,162.541L173.962,162.541z
		 M184.217,150.911l7.934-3.98l-0.495-8.447C189.435,143.074,187.212,146.785,184.217,150.911L184.217,150.911z M193.552,134.261
		l6.586-5.261l-2.283-8.302C196.761,125.587,195.478,129.635,193.552,134.261L193.552,134.261z M111.403,188.454
		c-3.211,0.103-5.927,0.039-9.13-0.213l8.561,5.637l8.423-5.547C116.501,188.507,114.167,188.542,111.403,188.454L111.403,188.454z
		 M121.074,188.194l9.281,3.634l6.468-6.554C131.404,186.84,126.694,187.712,121.074,188.194L121.074,188.194z M140.034,184.278
		l8.991,1.482l4.843-7.563C149.215,180.776,145.081,182.595,140.034,184.278L140.034,184.278z M157.015,176.361l9.011-0.414
		l3.343-8.876C165.345,170.737,161.654,173.514,157.015,176.361L157.015,176.361z M48.85,162.544
		c-3.638-3.368-6.454-6.496-9.425-10.466l1.628,10.729l10.693,2.792l3.894,10.342l10.237,0.474
		C59.273,172.37,54.146,168.194,48.85,162.544L48.85,162.544z M67.146,177.172l5.496,8.586l9.753-1.609
		C76.799,182.252,72.235,180.166,67.146,177.172L67.146,177.172z M84.367,184.791l6.945,7.033l9.496-3.713
		C94.927,187.538,90.006,186.545,84.367,184.791L31.671,139.34l-1.678,0.005l-0.474,7.58l9.686,4.858
		c-3.051-4.115-5.302-7.835-7.534-12.443L84.367,184.791L84.367,184.791z"/>
	<g>
		<path fill-rule="evenodd" clip-rule="evenodd" fill="none" d="M129.881,45.878c-23.038-0.726-40.8,13.269-48.63,26.15
			c-0.344,0.566-0.209,0.375-0.534,0.968c0,0,39.287-3.452,61.898-8.462c-3.664-3.886-5.445-7.731-7.338-12.933
			c-0.713-1.966-1.44-3.918-2.046-5.524C131.789,45.995,130.93,45.912,129.881,45.878L129.881,45.878z M128.673,155.385
			c13.718-4.438,27.106-13.301,35.351-31.912c0,0,1.263-0.288,0.067,0c-39.014,9.401-62.383,11.735-77.328,13.038
			c1.045,1.193,1.597,1.665,2.767,2.803C100.137,149.655,114.055,155.313,128.673,155.385L128.673,155.385z M121.634,157.196
			c-13.073-1.416-24.496-6.823-34.396-16.272c-1.645-1.556-2.7-2.479-4.112-4.141c-7.344,0.552-3.768,0.348-7.409,0.618
			c-0.199,0.014-8.579,0.411-8.579,0.411c11.092,13.918,26.6,20.401,44.067,20.401C114.486,158.214,118.003,157.893,121.634,157.196
			L121.634,157.196z M111.02,44.164c1.332-0.792,2.625-1.557,3.896-2.302c-1.235-0.092-2.473-0.139-3.709-0.139
			c-17.716,0-39.109,7.528-52.328,32.574l3.784-0.15c5.126-0.185,14.063-0.834,14.072-0.851c1.483-3.091,6.177-8.894,10.234-12.798
			c10.638-10.235,22.133-13.75,21.155-13.254l0.112-0.074l-2.228-0.021L111.02,44.164L111.02,44.164z"/>
		<path fill-rule="evenodd" clip-rule="evenodd" fill="none" d="M129.881,45.878c-23.038-0.726-40.8,13.269-48.63,26.15
			c-0.344,0.566-0.209,0.375-0.534,0.968c0,0,39.287-3.452,61.898-8.462c-3.664-3.886-5.445-7.731-7.338-12.933
			c-0.713-1.966-1.44-3.918-2.046-5.524C131.789,45.995,130.93,45.912,129.881,45.878L129.881,45.878z M128.673,155.385
			c13.718-4.438,27.106-13.301,35.351-31.912c0,0,1.263-0.288,0.067,0c-39.014,9.401-62.383,11.735-77.328,13.038
			c1.045,1.193,1.597,1.665,2.767,2.803C100.137,149.655,114.055,155.313,128.673,155.385L128.673,155.385z M121.634,157.196
			c-13.073-1.416-24.496-6.823-34.396-16.272c-1.645-1.556-2.7-2.479-4.112-4.141c-7.344,0.552-3.768,0.348-7.409,0.618
			c-0.199,0.014-8.579,0.411-8.579,0.411c11.092,13.918,26.6,20.401,44.067,20.401C114.486,158.214,118.003,157.893,121.634,157.196
			L121.634,157.196z M111.02,44.164c1.332-0.792,2.625-1.557,3.896-2.302c-1.235-0.092-2.473-0.139-3.709-0.139
			c-17.716,0-39.109,7.528-52.328,32.574l3.784-0.15c5.126-0.185,14.063-0.834,14.072-0.851c1.483-3.091,6.177-8.894,10.234-12.798
			c10.638-10.235,22.133-13.75,21.155-13.254l0.112-0.074l-2.228-0.021L111.02,44.164L111.02,44.164z"/>
	</g>
	<path fill-rule="evenodd" clip-rule="evenodd" fill="#F2B043" d="M128.673,155.385c13.718-4.438,27.106-13.301,35.351-31.912
		c0,0,1.263-0.288,0.067,0c-39.014,9.401-62.383,11.735-77.328,13.038c1.045,1.193,1.597,1.665,2.767,2.803
		C100.137,149.655,114.055,155.313,128.673,155.385L128.673,155.385z M121.634,157.196c-13.073-1.416-24.496-6.823-34.396-16.272
		c-1.645-1.556-2.7-2.479-4.112-4.141c-7.344,0.552-3.768,0.348-7.409,0.618c-0.199,0.014-8.579,0.411-8.579,0.411
		c11.092,13.918,26.6,20.401,44.067,20.401C114.486,158.214,118.003,157.893,121.634,157.196L121.634,157.196z M129.881,45.878
		c-23.038-0.726-40.8,13.269-48.63,26.15c-0.344,0.566-0.209,0.375-0.534,0.968c0,0,39.287-3.452,61.898-8.462
		c-3.664-3.886-5.445-7.731-7.338-12.933c-0.713-1.966-1.44-3.918-2.046-5.524C131.789,45.995,130.93,45.912,129.881,45.878
		l-18.862-1.714c1.332-0.792,2.625-1.557,3.896-2.302c-1.235-0.092-2.473-0.139-3.709-0.139c-17.716,0-39.109,7.528-52.328,32.574
		l3.784-0.15c5.126-0.185,14.063-0.834,14.072-0.851c1.483-3.091,6.177-8.894,10.234-12.798
		c10.638-10.235,22.133-13.75,21.155-13.254l0.112-0.074l-2.228-0.021l5.013-2.985L129.881,45.878L129.881,45.878z"/>
	<g>
		<path fill-rule="evenodd" clip-rule="evenodd" fill="none" d="M196.975,149.306l-0.626-10.016
			c22.701,2.299,25.276-7.005,24.099-18.776l-2.164-26.961c13.283,7.529,24.59,19.375,34.33,34.822
			c-15.956,17.259-30.986,15.958-30.986,15.958s-0.371,30.986-10.39,41.566c-5.006-18.811-10.535-28.594-17.557-35.188
			L196.975,149.306L196.975,149.306z M88.292,104.623l14.509,25.785L93.944,94.5L88.292,104.623L88.292,104.623z M60.057,92.787
			l6.691,11.708l-6.691,12.662l-7.406-12.662L60.057,92.787L60.057,92.787z M133.392,40.414c0,0,1.554,0.69,2.245,0.864
			c0.692,0.172,3.11,1.9,3.11,1.9s-3.802-1.037-4.492-0.863C133.564,42.487,133.392,40.414,133.392,40.414L133.392,40.414z
			 M194.597,137.497l9.096-7.346l-3.088-10.767l2.081-3.955c4.676,0.667,13.052,2.938,14.78,10.679
			C219.891,136.974,206.995,138.097,194.597,137.497L194.597,137.497z M66.096,138.114l-5.105,0.183
			c1.696,2.16,3.59,4.465,5.499,6.37c12.318,12.35,27.219,18.521,44.665,18.5c17.446,0.021,32.345-6.15,44.665-18.5
			c3.149-3.144,5.898-6.452,8.242-9.927l0.814-1.242c1.951-3.044,3.599-6.219,4.947-9.515l0.113-0.28l0.063-0.158l0.516-1.684
			l-4.699,1.223l0.027,0.159l-0.102,0.232l-0.15,0.341c-2.947,6.627-7.19,12.708-12.566,18.083
			c-11.219,11.58-25.88,17.335-41.891,17.335c-16.375,0.259-30.449-5.57-41.846-17.331C68.229,140.83,67.147,139.392,66.096,138.114
			L66.096,138.114z M218.092,90.82l-0.073-1.673c15.806,8.557,29.472,22.571,39.42,39.043
			c-12.804,18.741-32.285,19.299-32.285,19.299s1.112,32.842-16.329,46.017c-3.972-18.587-8.669-29.365-14.707-36.89
			c-0.259-0.327-0.521-0.643-0.787-0.957c-0.228-0.268-0.456-0.531-0.688-0.792c-0.639-0.721-1.158-1.257-2.235-2.604l1.208-0.798
			c1.432,1.721,1.777,2.091,2.114,2.465c0.295,0.33,0.584,0.658,0.868,0.992c2.999,3.518,5.33,7.261,7.351,11.746
			c3.646,8.171,5.983,15.408,7.807,24.164c6.982-6.421,10.661-16.428,12.37-25.531c0.813-4.371,1.261-8.108,1.504-12.549l0.12-6.594
			c12.816-0.739,24.578-7.642,31.993-18.035C246.624,112.729,234.089,99.326,218.092,90.82L218.092,90.82z M3.033,124.306
			l-0.291,1.721c0.86,2.783,2.364,5.177,4.587,7.317l0.142,0.119c3.193,2.359,6.578,3.468,10.548,3.452l41.224,0.598l4.926-0.209
			c36.64-2.12,67.44-6.718,103.101-15.395c7.253-1.685,13.368-3.155,20.595-4.95c5.799-1.492,12.453-2.811,18.472-2.335
			c4.061,0.426,7.358,2.39,9.666,5.758l3.031,4.425l-0.926-2.617l-1.517-2.212c-2.432-3.548-5.911-5.619-10.188-6.066
			c-6.12-0.484-12.821,0.837-18.717,2.354c-7.223,1.796-13.334,3.266-20.586,4.951c-35.618,8.664-66.379,13.258-102.975,15.374
			l-4.916,0.21l-41.195-0.6c-3.809,0.016-7.057-1.047-10.118-3.313l-0.071-0.059C5.304,130.397,3.745,127.632,3.033,124.306
			L3.033,124.306z M217.043,58.64l0.059,1.639c-0.758-1.677-1.962-3.226-3.248-4.274c-3.518-2.897-8.486-3.34-12.758-2.188
			c-6.82,1.646-11.5,2.893-18.359,4.358c0,0-0.821-0.667-1.027-0.719c-0.204-0.05,14.709-3.123,19.209-4.333
			c4.501-1.209,9.691-0.716,13.388,2.329C215.337,56.29,216.293,57.398,217.043,58.64L217.043,58.64z M57.625,74.298l-4.406,0.101
			c3.069-6.832,7.534-13.342,13.271-19.063c12.318-12.351,27.219-18.523,44.665-18.5c0.853-0.002,1.699,0.013,2.542,0.04
			c1.192,0.041,2.372,0.112,3.539,0.211c0.89,0.076,1.774,0.17,2.65,0.28c0.74,0.095,1.473,0.201,2.202,0.318l-5.733,3.227
			c0,0-1.066-0.069-1.673-0.098c-0.608-0.027-1.218-0.043-1.831-0.052c-0.557-0.005-1.116-0.005-1.676,0.004
			c-0.625,0-1.245,0.009-1.866,0.026c-15.282,0.431-29.243,6.18-40.022,17.308C64.511,62.867,60.499,68.539,57.625,74.298
			L57.625,74.298z M51.78,75.859c0.069,0.02,5.925-0.16,5.925-0.16c28.707-1.183,57.698-4.708,85.963-9.864l-0.319-0.746
			l-4.618,0.878c-27.821,5.073-51.618,7.746-79.873,8.969l-5.769,0.2c0,0-26.119-0.641-30.215-0.757
			c-4.096-0.116-7.55-0.447-11.592-1.109c-1.855-0.439-3.894-1.423-5.002-3.035c-0.502-0.728-1.398-2.067-2.23-3.317l0.027,1.256
			c0.537,0.799,1.05,1.584,1.609,2.459c1.217,1.772,3.39,2.849,5.43,3.331c3.828,0.917,7.802,0.906,11.708,1.126
			C26.733,75.312,51.709,75.84,51.78,75.859L51.78,75.859z M203.406,113.021c4.54-0.024,9.964,1.106,13.776,6.553
			c-0.917-12.128-1.149-21.832-1.045-29.615l0.032-1.79c0.266-12.799,1.36-20.147,1.013-24.851
			c-0.248-3.368-4.018-10.565-13.933-9.181h0.156V113.021L203.406,113.021z M201.574,113.092V54.443
			c-0.1,0.021-0.201,0.043-0.304,0.066c-11.397,2.697-18.001,4.114-18.001,4.114s1.86,1.451,1.738,1.341l15.035-3.334l-0.014,55.198
			c-7.115,1.284-13.087,2.576-20.097,4.35l-0.043-44.259l-2.164-0.6l0.016,45.302c-5.271,1.427-9.964,2.583-14.98,3.683l-1.758,0.38
			c-1.174,0.25-2.368,0.498-3.598,0.749l0.015-46.854l-2.991-0.58v47.569l-19.584,3.941V99.31l-4.747,27.085l-27.273,4.054
			l0.115,0.204l-21.278,2.564l-5.322-8.924l-5.975,9.58L49.22,134.63l-5.813-10.59l-6.351,10.597l-22.049-1.11l17.363-29.298
			c-5.355-9.533-9.622-16.938-15.135-26.381l22.429,1.132c1.231,2.508,2.283,4.617,3.549,7.109l3.106-7.267l26.021-0.831
			l3.968,7.922l4.067-8.401l29.514-3.572l4.963,19.59l2.923-20.569l22.823-3.826l1.261-0.212l0.823-0.139l1.423-0.238l2.264-0.38
			l-1.955-1.749c0,0-1.449,0.259-2.017,0.36s-1.132,0.2-1.694,0.299l-1.008,0.175l-0.711,0.123
			c-35.973,6.222-62.627,8.468-81.816,9.069l-5.354,0.131c-18.429,0.316-29.009-0.896-33.805-1.039
			c-1.998-0.058-3.679-0.223-5.104-0.461l15.612,29.181l-16.891,29.98c1.781,0.687,3.888,1.075,6.382,1.251
			c8.508,0.592,41.168,0.6,41.168,0.6l4.905-0.21c41.236-1.982,78.078-9.566,102.846-15.354l4.526-1.069
			c12.67-3.021,21.615-5.372,25.552-5.846C198.178,113.468,199.766,113.212,201.574,113.092L201.574,113.092z M9.998,133.472
			l16.462-29.218L10.569,74.555c-4.963-1.408-5.581-3.929-6.503-5.104c1.707,21.594,2.583,32.223-0.543,53.531
			C4.738,128.372,6.706,131.621,9.998,133.472L9.998,133.472z M186.046,55.838l-0.938,0.245c-4-6.124-8.02-11.121-13.464-16.272
			c-17.325-17.422-35.755-24.972-60.3-24.972c-23.958-0.79-43.452,8.405-60.203,24.992c-10.113,9.284-16.776,20.126-21.005,32.932
			l-0.101,0.309l-0.129,0.401l-0.126,0.392l-0.953,0.022l0.158-0.51l0.11-0.348l0.119-0.372
			c4.181-12.94,11.222-24.211,21.324-33.485c16.911-16.746,36.652-26.022,60.837-25.227c24.743,0,43.415,7.651,60.884,25.217
			C177.665,44.28,182.042,49.64,186.046,55.838L186.046,55.838z M34.321,138.002l-1.043-0.076
			c4.626,8.696,9.982,16.391,17.15,23.021c17.024,16.924,37.046,26.002,60.994,25.215c23.685,0,44.374-7.777,60.8-25.321
			c12.681-12.68,20.718-26.131,23.923-43.968l0.263-0.844l-0.986,0.177l-0.154,0.511c-3.177,17.674-11.135,30.948-23.697,43.515
			c-16.271,17.377-36.824,25.097-60.277,25.097c-23.894,0.786-43.609-8.365-60.293-24.95
			C43.906,153.816,38.936,146.466,34.321,138.002L34.321,138.002z M6.017,57.153l1.502-0.491c6.807-2.869,12.345-2.163,17.429-2.076
			l1.16,0.021l-0.167-2.268C19.35,50.574,10.026,52.232,6.017,57.153L6.017,57.153z M25.97,55.529l-1.228-0.045
			c-4.869-0.176-9.701-1.181-18.803,2.46l-0.628,0.201c-0.683,1.11-1.114,2.361-1.22,3.751C3.459,70.106,9.845,72.857,18.516,73.5
			l-1.203-3.452l9.384-7.416L25.97,55.529L25.97,55.529z"/>
		<path fill-rule="evenodd" clip-rule="evenodd" fill="none" d="M196.975,149.306l-0.626-10.016
			c22.701,2.299,25.276-7.005,24.099-18.776l-2.164-26.961c13.283,7.529,24.59,19.375,34.33,34.822
			c-15.956,17.259-30.986,15.958-30.986,15.958s-0.371,30.986-10.39,41.566c-5.006-18.811-10.535-28.594-17.557-35.188
			L196.975,149.306L196.975,149.306z M88.292,104.623l14.509,25.785L93.944,94.5L88.292,104.623L88.292,104.623z M60.057,92.787
			l6.691,11.708l-6.691,12.662l-7.406-12.662L60.057,92.787L60.057,92.787z M133.392,40.414c0,0,1.554,0.69,2.245,0.864
			c0.692,0.172,3.11,1.9,3.11,1.9s-3.802-1.037-4.492-0.863C133.564,42.487,133.392,40.414,133.392,40.414L133.392,40.414z
			 M194.597,137.497l9.096-7.346l-3.088-10.767l2.081-3.955c4.676,0.667,13.052,2.938,14.78,10.679
			C219.891,136.974,206.995,138.097,194.597,137.497L194.597,137.497z M66.096,138.114l-5.105,0.183
			c1.696,2.16,3.59,4.465,5.499,6.37c12.318,12.35,27.219,18.521,44.665,18.5c17.446,0.021,32.345-6.15,44.665-18.5
			c3.149-3.144,5.898-6.452,8.242-9.927l0.814-1.242c1.951-3.044,3.599-6.219,4.947-9.515l0.113-0.28l0.063-0.158l0.516-1.684
			l-4.699,1.223l0.027,0.159l-0.102,0.232l-0.15,0.341c-2.947,6.627-7.19,12.708-12.566,18.083
			c-11.219,11.58-25.88,17.335-41.891,17.335c-16.375,0.259-30.449-5.57-41.846-17.331C68.229,140.83,67.147,139.392,66.096,138.114
			L66.096,138.114z M218.092,90.82l-0.073-1.673c15.806,8.557,29.472,22.571,39.42,39.043
			c-12.804,18.741-32.285,19.299-32.285,19.299s1.112,32.842-16.329,46.017c-3.972-18.587-8.669-29.365-14.707-36.89
			c-0.259-0.327-0.521-0.643-0.787-0.957c-0.228-0.268-0.456-0.531-0.688-0.792c-0.639-0.721-1.158-1.257-2.235-2.604l1.208-0.798
			c1.432,1.721,1.777,2.091,2.114,2.465c0.295,0.33,0.584,0.658,0.868,0.992c2.999,3.518,5.33,7.261,7.351,11.746
			c3.646,8.171,5.983,15.408,7.807,24.164c6.982-6.421,10.661-16.428,12.37-25.531c0.813-4.371,1.261-8.108,1.504-12.549l0.12-6.594
			c12.816-0.739,24.578-7.642,31.993-18.035C246.624,112.729,234.089,99.326,218.092,90.82L218.092,90.82z M3.033,124.306
			l-0.291,1.721c0.86,2.783,2.364,5.177,4.587,7.317l0.142,0.119c3.193,2.359,6.578,3.468,10.548,3.452l41.224,0.598l4.926-0.209
			c36.64-2.12,67.44-6.718,103.101-15.395c7.253-1.685,13.368-3.155,20.595-4.95c5.799-1.492,12.453-2.811,18.472-2.335
			c4.061,0.426,7.358,2.39,9.666,5.758l3.031,4.425l-0.926-2.617l-1.517-2.212c-2.432-3.548-5.911-5.619-10.188-6.066
			c-6.12-0.484-12.821,0.837-18.717,2.354c-7.223,1.796-13.334,3.266-20.586,4.951c-35.618,8.664-66.379,13.258-102.975,15.374
			l-4.916,0.21l-41.195-0.6c-3.809,0.016-7.057-1.047-10.118-3.313l-0.071-0.059C5.304,130.397,3.745,127.632,3.033,124.306
			L3.033,124.306z M217.043,58.64l0.059,1.639c-0.758-1.677-1.962-3.226-3.248-4.274c-3.518-2.897-8.486-3.34-12.758-2.188
			c-6.82,1.646-11.5,2.893-18.359,4.358c0,0-0.821-0.667-1.027-0.719c-0.204-0.05,14.709-3.123,19.209-4.333
			c4.501-1.209,9.691-0.716,13.388,2.329C215.337,56.29,216.293,57.398,217.043,58.64L217.043,58.64z M57.625,74.298l-4.406,0.101
			c3.069-6.832,7.534-13.342,13.271-19.063c12.318-12.351,27.219-18.523,44.665-18.5c0.853-0.002,1.699,0.013,2.542,0.04
			c1.192,0.041,2.372,0.112,3.539,0.211c0.89,0.076,1.774,0.17,2.65,0.28c0.74,0.095,1.473,0.201,2.202,0.318l-5.733,3.227
			c0,0-1.066-0.069-1.673-0.098c-0.608-0.027-1.218-0.043-1.831-0.052c-0.557-0.005-1.116-0.005-1.676,0.004
			c-0.625,0-1.245,0.009-1.866,0.026c-15.282,0.431-29.243,6.18-40.022,17.308C64.511,62.867,60.499,68.539,57.625,74.298
			L57.625,74.298z M51.78,75.859c0.069,0.02,5.925-0.16,5.925-0.16c28.707-1.183,57.698-4.708,85.963-9.864l-0.319-0.746
			l-4.618,0.878c-27.821,5.073-51.618,7.746-79.873,8.969l-5.769,0.2c0,0-26.119-0.641-30.215-0.757
			c-4.096-0.116-7.55-0.447-11.592-1.109c-1.855-0.439-3.894-1.423-5.002-3.035c-0.502-0.728-1.398-2.067-2.23-3.317l0.027,1.256
			c0.537,0.799,1.05,1.584,1.609,2.459c1.217,1.772,3.39,2.849,5.43,3.331c3.828,0.917,7.802,0.906,11.708,1.126
			C26.733,75.312,51.709,75.84,51.78,75.859L51.78,75.859z M203.406,113.021c4.54-0.024,9.964,1.106,13.776,6.553
			c-0.917-12.128-1.149-21.832-1.045-29.615l0.032-1.79c0.266-12.799,1.36-20.147,1.013-24.851
			c-0.248-3.368-4.018-10.565-13.933-9.181h0.156V113.021L203.406,113.021z M201.574,113.092V54.443
			c-0.1,0.021-0.201,0.043-0.304,0.066c-11.397,2.697-18.001,4.114-18.001,4.114s1.86,1.451,1.738,1.341l15.035-3.334l-0.014,55.198
			c-7.115,1.284-13.087,2.576-20.097,4.35l-0.043-44.259l-2.164-0.6l0.016,45.302c-5.271,1.427-9.964,2.583-14.98,3.683l-1.758,0.38
			c-1.174,0.25-2.368,0.498-3.598,0.749l0.015-46.854l-2.991-0.58v47.569l-19.584,3.941V99.31l-4.747,27.085l-27.273,4.054
			l0.115,0.204l-21.278,2.564l-5.322-8.924l-5.975,9.58L49.22,134.63l-5.813-10.59l-6.351,10.597l-22.049-1.11l17.363-29.298
			c-5.355-9.533-9.622-16.938-15.135-26.381l22.429,1.132c1.231,2.508,2.283,4.617,3.549,7.109l3.106-7.267l26.021-0.831
			l3.968,7.922l4.067-8.401l29.514-3.572l4.963,19.59l2.923-20.569l22.823-3.826l1.261-0.212l0.823-0.139l1.423-0.238l2.264-0.38
			l-1.955-1.749c0,0-1.449,0.259-2.017,0.36s-1.132,0.2-1.694,0.299l-1.008,0.175l-0.711,0.123
			c-35.973,6.222-62.627,8.468-81.816,9.069l-5.354,0.131c-18.429,0.316-29.009-0.896-33.805-1.039
			c-1.998-0.058-3.679-0.223-5.104-0.461l15.612,29.181l-16.891,29.98c1.781,0.687,3.888,1.075,6.382,1.251
			c8.508,0.592,41.168,0.6,41.168,0.6l4.905-0.21c41.236-1.982,78.078-9.566,102.846-15.354l4.526-1.069
			c12.67-3.021,21.615-5.372,25.552-5.846C198.178,113.468,199.766,113.212,201.574,113.092L201.574,113.092z M9.998,133.472
			l16.462-29.218L10.569,74.555c-4.963-1.408-5.581-3.929-6.503-5.104c1.707,21.594,2.583,32.223-0.543,53.531
			C4.738,128.372,6.706,131.621,9.998,133.472L9.998,133.472z M186.046,55.838l-0.938,0.245c-4-6.124-8.02-11.121-13.464-16.272
			c-17.325-17.422-35.755-24.972-60.3-24.972c-23.958-0.79-43.452,8.405-60.203,24.992c-10.113,9.284-16.776,20.126-21.005,32.932
			l-0.101,0.309l-0.129,0.401l-0.126,0.392l-0.953,0.022l0.158-0.51l0.11-0.348l0.119-0.372
			c4.181-12.94,11.222-24.211,21.324-33.485c16.911-16.746,36.652-26.022,60.837-25.227c24.743,0,43.415,7.651,60.884,25.217
			C177.665,44.28,182.042,49.64,186.046,55.838L186.046,55.838z M34.321,138.002l-1.043-0.076
			c4.626,8.696,9.982,16.391,17.15,23.021c17.024,16.924,37.046,26.002,60.994,25.215c23.685,0,44.374-7.777,60.8-25.321
			c12.681-12.68,20.718-26.131,23.923-43.968l0.263-0.844l-0.986,0.177l-0.154,0.511c-3.177,17.674-11.135,30.948-23.697,43.515
			c-16.271,17.377-36.824,25.097-60.277,25.097c-23.894,0.786-43.609-8.365-60.293-24.95
			C43.906,153.816,38.936,146.466,34.321,138.002L34.321,138.002z M6.017,57.153l1.502-0.491c6.807-2.869,12.345-2.163,17.429-2.076
			l1.16,0.021l-0.167-2.268C19.35,50.574,10.026,52.232,6.017,57.153L6.017,57.153z M25.97,55.529l-1.228-0.045
			c-4.869-0.176-9.701-1.181-18.803,2.46l-0.628,0.201c-0.683,1.11-1.114,2.361-1.22,3.751C3.459,70.106,9.845,72.857,18.516,73.5
			l-1.203-3.452l9.384-7.416L25.97,55.529L25.97,55.529z"/>
	</g>
	<path fill-rule="evenodd" clip-rule="evenodd" fill="#048CBA" d="M203.406,113.021c4.54-0.024,9.964,1.106,13.776,6.553
		c-0.917-12.128-1.149-21.832-1.045-29.615l0.032-1.79c0.266-12.799,1.36-20.147,1.013-24.851
		c-0.248-3.368-4.018-10.565-13.933-9.181h0.156V113.021L203.406,113.021z M133.392,40.414c0,0,0.172,2.073,0.863,1.9
		c0.69-0.174,4.492,0.863,4.492,0.863s-2.418-1.728-3.11-1.9C134.946,41.104,133.392,40.414,133.392,40.414L133.392,40.414z
		 M57.625,74.298c2.874-5.759,6.886-11.431,11.66-16.197c10.78-11.128,24.74-16.877,40.022-17.308
		c0.621-0.018,1.242-0.026,1.866-0.026c0.561-0.009,1.119-0.009,1.676-0.004c0.612,0.008,1.222,0.025,1.831,0.052
		c0.607,0.028,1.673,0.098,1.673,0.098l5.733-3.227c-0.729-0.118-1.462-0.223-2.202-0.318c-0.876-0.11-1.76-0.204-2.65-0.28
		c-1.167-0.099-2.347-0.17-3.539-0.211c-0.843-0.027-1.689-0.042-2.542-0.04c-17.446-0.023-32.347,6.149-44.665,18.5
		c-5.737,5.722-10.202,12.232-13.271,19.063L57.625,74.298L57.625,74.298z M217.043,58.64c-0.75-1.242-1.706-2.35-2.737-3.188
		c-3.696-3.045-8.887-3.538-13.388-2.329c-4.5,1.21-19.413,4.282-19.209,4.333c0.206,0.052,1.027,0.719,1.027,0.719
		c6.859-1.466,11.539-2.712,18.359-4.358c4.271-1.152,9.24-0.708,12.758,2.188c1.286,1.048,2.49,2.597,3.248,4.274L217.043,58.64
		L217.043,58.64z M186.046,55.838c-4.005-6.198-8.382-11.558-13.786-16.676c-17.47-17.566-36.142-25.217-60.884-25.217
		c-24.185-0.796-43.927,8.481-60.837,25.227c-10.103,9.274-17.143,20.544-21.324,33.485l-0.119,0.372l-0.11,0.348l-0.158,0.51
		l0.953-0.022l0.126-0.392l0.129-0.401l0.101-0.309c4.229-12.806,10.892-23.648,21.005-32.932
		c16.751-16.586,36.244-25.781,60.203-24.992c24.545,0,42.975,7.55,60.3,24.972c5.444,5.152,9.464,10.148,13.464,16.272
		L186.046,55.838L186.046,55.838z M60.057,92.787l-7.406,11.708l7.406,12.662l6.691-12.662L60.057,92.787L60.057,92.787z
		 M88.292,104.623l14.509,25.785L93.944,94.5L88.292,104.623L88.292,104.623z M66.096,138.114l-5.105,0.183
		c1.696,2.16,3.59,4.465,5.499,6.37c12.318,12.35,27.219,18.521,44.665,18.5c17.446,0.021,32.345-6.15,44.665-18.5
		c3.149-3.144,5.898-6.452,8.242-9.927l0.814-1.242c1.951-3.044,3.599-6.219,4.947-9.515l0.113-0.28l0.063-0.158l0.516-1.684
		l-4.699,1.223l0.027,0.159l-0.102,0.232l-0.15,0.341c-2.947,6.627-7.19,12.708-12.566,18.083
		c-11.219,11.58-25.88,17.335-41.891,17.335c-16.375,0.259-30.449-5.57-41.846-17.331C68.229,140.83,67.147,139.392,66.096,138.114
		L66.096,138.114z M196.975,149.306l-3.294,1.406c7.021,6.594,12.551,16.377,17.557,35.188c10.019-10.58,10.39-41.566,10.39-41.566
		s15.03,1.301,30.986-15.958c-9.74-15.447-21.047-27.293-34.33-34.822l2.164,26.961c1.178,11.771-1.397,21.075-24.099,18.776
		L196.975,149.306L196.975,149.306z M194.597,137.497c12.397,0.6,25.294-0.523,22.869-11.389
		c-1.729-7.741-10.104-10.012-14.78-10.679l-2.081,3.955l3.088,10.767L194.597,137.497L194.597,137.497z M218.092,90.82
		c15.997,8.506,28.531,21.909,37.649,37.303c-7.415,10.394-19.177,17.296-31.993,18.035l-0.12,6.594
		c-0.243,4.44-0.69,8.178-1.504,12.549c-1.709,9.104-5.388,19.11-12.37,25.531c-1.823-8.756-4.161-15.993-7.807-24.164
		c-2.021-4.485-4.352-8.229-7.351-11.746c-0.284-0.334-0.573-0.662-0.868-0.992c-0.337-0.374-0.683-0.744-2.114-2.465l-1.208,0.798
		c1.077,1.348,1.597,1.884,2.235,2.604c0.232,0.261,0.461,0.524,0.688,0.792c0.266,0.314,0.528,0.63,0.787,0.957
		c6.038,7.524,10.735,18.303,14.707,36.89c17.441-13.175,16.329-46.017,16.329-46.017s19.481-0.558,32.285-19.299
		c-9.948-16.472-23.614-30.486-39.42-39.043L218.092,90.82L218.092,90.82z M3.033,124.306l-0.291,1.721
		c0.86,2.783,2.364,5.177,4.587,7.317l0.142,0.119c3.193,2.359,6.578,3.468,10.548,3.452l41.224,0.598l4.926-0.209
		c36.64-2.12,67.44-6.718,103.101-15.395c7.253-1.685,13.368-3.155,20.595-4.95c5.799-1.492,12.453-2.811,18.472-2.335
		c4.061,0.426,7.358,2.39,9.666,5.758l3.031,4.425l-0.926-2.617l-1.517-2.212c-2.432-3.548-5.911-5.619-10.188-6.066
		c-6.12-0.484-12.821,0.837-18.717,2.354c-7.223,1.796-13.334,3.266-20.586,4.951c-35.618,8.664-66.379,13.258-102.975,15.374
		l-4.916,0.21l-41.195-0.6c-3.809,0.016-7.057-1.047-10.118-3.313l-0.071-0.059C5.304,130.397,3.745,127.632,3.033,124.306
		L3.033,124.306z M34.321,138.002l-1.043-0.076c4.626,8.696,9.982,16.391,17.15,23.021c17.024,16.924,37.046,26.002,60.994,25.215
		c23.685,0,44.374-7.777,60.8-25.321c12.681-12.68,20.718-26.131,23.923-43.968l0.263-0.844l-0.986,0.177l-0.154,0.511
		c-3.177,17.674-11.135,30.948-23.697,43.515c-16.271,17.377-36.824,25.097-60.277,25.097c-23.894,0.786-43.609-8.365-60.293-24.95
		C43.906,153.816,38.936,146.466,34.321,138.002L34.321,138.002z M9.998,133.472l16.462-29.218L10.569,74.555
		c-4.963-1.408-5.581-3.929-6.503-5.104c1.707,21.594,2.583,32.223-0.543,53.531C4.738,128.372,6.706,131.621,9.998,133.472
		L9.998,133.472z M51.78,75.859c0.069,0.02,5.925-0.16,5.925-0.16c28.707-1.183,57.698-4.708,85.963-9.864l-0.319-0.746
		l-4.618,0.878c-27.821,5.073-51.618,7.746-79.873,8.969l-5.769,0.2c0,0-26.119-0.641-30.215-0.757
		c-4.096-0.116-7.55-0.447-11.592-1.109c-1.855-0.439-3.894-1.423-5.002-3.035c-0.502-0.728-1.398-2.067-2.23-3.317l0.027,1.256
		c0.537,0.799,1.05,1.584,1.609,2.459c1.217,1.772,3.39,2.849,5.43,3.331c3.828,0.917,7.802,0.906,11.708,1.126
		C26.733,75.312,51.709,75.84,51.78,75.859L51.78,75.859z M201.574,113.092V54.443c-0.1,0.021-0.201,0.043-0.304,0.066
		c-11.397,2.697-18.001,4.114-18.001,4.114s1.86,1.451,1.738,1.341l15.035-3.334l-0.014,55.198
		c-7.115,1.284-13.087,2.576-20.097,4.35l-0.043-44.259l-2.164-0.6l0.016,45.302c-5.271,1.427-9.964,2.583-14.98,3.683l-1.758,0.38
		c-1.174,0.25-2.368,0.498-3.598,0.749l0.015-46.854l-2.991-0.58v47.569l-19.584,3.941V99.31l-4.747,27.085l-27.273,4.054
		l0.115,0.204l-21.278,2.564l-5.322-8.924l-5.975,9.58L49.22,134.63l-5.813-10.59l-6.351,10.597l-22.049-1.11l17.363-29.298
		c-5.355-9.533-9.622-16.938-15.135-26.381l22.429,1.132c1.231,2.508,2.283,4.617,3.549,7.109l3.106-7.267l26.021-0.831l3.968,7.922
		l4.067-8.401l29.514-3.572l4.963,19.59l2.923-20.569l22.823-3.826l1.261-0.212l0.823-0.139l1.423-0.238l2.264-0.38l-1.955-1.749
		c0,0-1.449,0.259-2.017,0.36s-1.132,0.2-1.694,0.299l-1.008,0.175l-0.711,0.123c-35.973,6.222-62.627,8.468-81.816,9.069
		l-5.354,0.131c-18.429,0.316-29.009-0.896-33.805-1.039c-1.998-0.058-3.679-0.223-5.104-0.461l15.612,29.181l-16.891,29.98
		c1.781,0.687,3.888,1.075,6.382,1.251c8.508,0.592,41.168,0.6,41.168,0.6l4.905-0.21c41.236-1.982,78.078-9.566,102.846-15.354
		l4.526-1.069c12.67-3.021,21.615-5.372,25.552-5.846C198.178,113.468,199.766,113.212,201.574,113.092L201.574,113.092z
		 M6.017,57.153l1.502-0.491c6.807-2.869,12.345-2.163,17.429-2.076l1.16,0.021l-0.167-2.268
		C19.35,50.574,10.026,52.232,6.017,57.153l19.953-1.624l-1.228-0.045c-4.869-0.176-9.701-1.181-18.803,2.46l-0.628,0.201
		c-0.683,1.11-1.114,2.361-1.22,3.751C3.459,70.106,9.845,72.857,18.516,73.5l-1.203-3.452l9.384-7.416l-0.728-7.104L6.017,57.153
		L6.017,57.153z"/>
	<g>
		<polygon fill-rule="evenodd" clip-rule="evenodd" fill="none" points="132.088,41.227 127.4,43.712 133.651,44.849 
			132.088,41.227 		"/>
		<polygon fill-rule="evenodd" clip-rule="evenodd" fill="none" points="132.088,41.227 127.4,43.712 133.651,44.849 
			132.088,41.227 		"/>
	</g>
	<polygon fill-rule="evenodd" clip-rule="evenodd" fill="#4E574A" points="132.088,41.227 127.4,43.712 133.651,44.849 
		132.088,41.227 	"/>
	<g>
		<path fill-rule="evenodd" clip-rule="evenodd" fill="none" d="M154.122,51.447c4.121,3.271,7.185,6.573,10.138,10.926
			l-0.011-0.016c0.597,0.909,1.132,1.818,1.616,2.734c5.401,3.012,13.303,5.745,25.397,7.69
			c-3.352-14.884-23.957-23.664-37.126-23.418c-0.879,0.015,17.314,4.024,26.457,11.339l-0.606,0.731
			c-7.561-6.219-27.44-11.708-27.896-11.561C152.803,50.398,153.485,50.927,154.122,51.447L154.122,51.447z"/>
		<path fill-rule="evenodd" clip-rule="evenodd" fill="none" d="M154.122,51.447c4.121,3.271,7.185,6.573,10.138,10.926
			l-0.011-0.016c0.597,0.909,1.132,1.818,1.616,2.734c5.401,3.012,13.303,5.745,25.397,7.69
			c-3.352-14.884-23.957-23.664-37.126-23.418c-0.879,0.015,17.314,4.024,26.457,11.339l-0.606,0.731
			c-7.561-6.219-27.44-11.708-27.896-11.561C152.803,50.398,153.485,50.927,154.122,51.447L154.122,51.447z"/>
	</g>
	<path fill-rule="evenodd" clip-rule="evenodd" fill="#4E574A" d="M154.122,51.447c4.121,3.271,7.185,6.573,10.138,10.926
		l-0.011-0.016c0.597,0.909,1.132,1.818,1.616,2.734c5.401,3.012,13.303,5.745,25.397,7.69
		c-3.352-14.884-23.957-23.664-37.126-23.418c-0.879,0.015,17.314,4.024,26.457,11.339l-0.606,0.731
		c-7.561-6.219-27.44-11.708-27.896-11.561C152.803,50.398,153.485,50.927,154.122,51.447L154.122,51.447z"/>
	<g>
		<path fill-rule="evenodd" clip-rule="evenodd" fill="none" d="M133.871,43.718c3.47,7.521,5.398,26.422,33.809,32.389
			c-0.77-16.418-22.702-31.055-32.194-32.635c-0.356-0.06,16.192,9.938,23.116,18.313l-0.447,0.894
			C150.895,54.973,134.25,43.644,133.871,43.718L133.871,43.718z"/>
		<path fill-rule="evenodd" clip-rule="evenodd" fill="none" d="M133.871,43.718c3.47,7.521,5.398,26.422,33.809,32.389
			c-0.77-16.418-22.702-31.055-32.194-32.635c-0.356-0.06,16.192,9.938,23.116,18.313l-0.447,0.894
			C150.895,54.973,134.25,43.644,133.871,43.718L133.871,43.718z"/>
	</g>
	<path fill-rule="evenodd" clip-rule="evenodd" fill="#4E574A" d="M133.871,43.718c3.47,7.521,5.398,26.422,33.809,32.389
		c-0.77-16.418-22.702-31.055-32.194-32.635c-0.356-0.06,16.192,9.938,23.116,18.313l-0.447,0.894
		C150.895,54.973,134.25,43.644,133.871,43.718L133.871,43.718z"/>
	<g>
		<path fill-rule="evenodd" clip-rule="evenodd" fill="none" d="M111.75,45.393c5.506-0.613,7.101-0.222,12.373-1.031l11.514-6.333
			l-5.681-3.125C129.956,34.905,117.707,41.728,111.75,45.393L111.75,45.393z"/>
		<path fill-rule="evenodd" clip-rule="evenodd" fill="none" d="M111.75,45.393c5.506-0.613,7.101-0.222,12.373-1.031l11.514-6.333
			l-5.681-3.125C129.956,34.905,117.707,41.728,111.75,45.393L111.75,45.393z"/>
	</g>
	<path fill-rule="evenodd" clip-rule="evenodd" fill="#4E574A" d="M111.75,45.393c5.506-0.613,7.101-0.222,12.373-1.031
		l11.514-6.333l-5.681-3.125C129.956,34.905,117.707,41.728,111.75,45.393L111.75,45.393z"/>
</g>
</svg>
