<?xml version="1.0" encoding="UTF-8" standalone="no"?>
<!-- Created with Inkscape (http://www.inkscape.org/) -->
<svg
   xmlns:dc="http://purl.org/dc/elements/1.1/"
   xmlns:cc="http://creativecommons.org/ns#"
   xmlns:rdf="http://www.w3.org/1999/02/22-rdf-syntax-ns#"
   xmlns:svg="http://www.w3.org/2000/svg"
   xmlns="http://www.w3.org/2000/svg"
   xmlns:sodipodi="http://sodipodi.sourceforge.net/DTD/sodipodi-0.dtd"
   xmlns:inkscape="http://www.inkscape.org/namespaces/inkscape"
   width="313.18747"
   height="156.62314"
   id="svg2"
   sodipodi:version="0.32"
   inkscape:version="0.46"
   version="1.0"
   sodipodi:docname="Super Bowl XLIV logo.svg"
   inkscape:output_extension="org.inkscape.output.svg.inkscape">
  <defs
     id="defs4">
    <inkscape:perspective
       sodipodi:type="inkscape:persp3d"
       inkscape:vp_x="0 : 526.18109 : 1"
       inkscape:vp_y="0 : 1000 : 0"
       inkscape:vp_z="744.09448 : 526.18109 : 1"
       inkscape:persp3d-origin="372.04724 : 350.78739 : 1"
       id="perspective10" />
    <inkscape:perspective
       id="perspective2390"
       inkscape:persp3d-origin="372.04724 : 350.78739 : 1"
       inkscape:vp_z="744.09448 : 526.18109 : 1"
       inkscape:vp_y="0 : 1000 : 0"
       inkscape:vp_x="0 : 526.18109 : 1"
       sodipodi:type="inkscape:persp3d" />
    <inkscape:perspective
       id="perspective2593"
       inkscape:persp3d-origin="372.04724 : 350.78739 : 1"
       inkscape:vp_z="744.09448 : 526.18109 : 1"
       inkscape:vp_y="0 : 1000 : 0"
       inkscape:vp_x="0 : 526.18109 : 1"
       sodipodi:type="inkscape:persp3d" />
  </defs>
  <sodipodi:namedview
     id="base"
     pagecolor="#ffffff"
     bordercolor="#666666"
     borderopacity="1.0"
     gridtolerance="10000"
     guidetolerance="10"
     objecttolerance="10"
     inkscape:pageopacity="0.0"
     inkscape:pageshadow="2"
     inkscape:zoom="1.0476075"
     inkscape:cx="156.59373"
     inkscape:cy="78.311569"
     inkscape:document-units="px"
     inkscape:current-layer="g3408"
     showgrid="false"
     showguides="true"
     inkscape:guide-bbox="true"
     inkscape:window-width="1024"
     inkscape:window-height="721"
     inkscape:window-x="-4"
     inkscape:window-y="-4" />
  <metadata
     id="metadata7">
    <rdf:RDF>
      <cc:Work
         rdf:about="">
        <dc:format>image/svg+xml</dc:format>
        <dc:type
           rdf:resource="http://purl.org/dc/dcmitype/StillImage" />
      </cc:Work>
    </rdf:RDF>
  </metadata>
  <g
     inkscape:label="Layer 1"
     inkscape:groupmode="layer"
     id="layer1"
     transform="translate(-217.9079,-453.79672)">
    <g
       id="g3408"
       transform="matrix(0.6652355,0,0,0.6652355,125.57049,178.18861)">
      <g
         id="g2704"
         transform="matrix(1.1224762,0,0,1.1252781,368.15949,87.133305)">
        <path
           style="fill:#d62128;fill-opacity:1;fill-rule:nonzero;stroke:none;stroke-width:0;marker:none;marker-start:none;marker-mid:none;marker-end:none;stroke-miterlimit:4;stroke-opacity:1;visibility:visible;display:inline;overflow:visible;enable-background:accumulate"
           d="M 44.920601,312.45486 L 53.004025,313.73306 L 53.004025,375.39803 L 44.920601,375.62901 L 43.522769,370.30129 L 43.303917,329.43797 L 44.920601,312.45486 z"
           id="rect3388"
           sodipodi:nodetypes="ccccccc" />
        <path
           style="fill:#192e59;fill-opacity:1;fill-rule:nonzero;stroke:none;stroke-width:0;marker:none;marker-start:none;marker-mid:none;marker-end:none;stroke-miterlimit:4;stroke-opacity:1;visibility:visible;display:inline;overflow:visible;enable-background:accumulate"
           d="M 25.080238,436.49723 L 49.24184,437.12066 L 44.515983,472.78263 L 27.072055,475.68093 L 25.080238,436.49723 z"
           id="rect3379"
           sodipodi:nodetypes="ccccc" />
        <path
           style="fill:#f04f25;fill-opacity:1;fill-rule:evenodd;stroke:#000000;stroke-width:0;stroke-linecap:butt;stroke-linejoin:miter;stroke-miterlimit:4;stroke-dasharray:none;stroke-opacity:1"
           d="M -71.88817,466.72099 L -71.914122,436.265 L -32.733905,447.49151 L 4.7948713,459.79012 L 5.8153324,481.17985 L -71.88817,466.72099 z"
           id="path3326"
           sodipodi:nodetypes="cccccc" />
        <path
           style="fill:#d62128;fill-opacity:1;fill-rule:evenodd;stroke:#000000;stroke-width:0;stroke-linecap:butt;stroke-linejoin:miter;stroke-miterlimit:4;stroke-dasharray:none;stroke-opacity:1"
           d="M -72.142931,438.60742 L -72.142931,402.46775 L -38.643057,405.51242 L -38.567088,438.11287 L 2.8702688,438.11287 L 3.0820982,484.7715 L -1.9623264,484.7715 L -2.1741558,459.42962 L -72.142931,438.60742 z"
           id="path3314"
           sodipodi:nodetypes="ccccccccc" />
        <path
           style="fill:#192e59;fill-opacity:1;fill-rule:nonzero;stroke:none;stroke-width:0;marker:none;marker-start:none;marker-mid:none;marker-end:none;stroke-miterlimit:4;stroke-opacity:1;visibility:visible;display:inline;overflow:visible;enable-background:accumulate"
           d="M -85.820435,432.1579 L -117.79698,401.23843 L -71.348697,404.47198 L -71.808541,466.72324 L -83.637004,464.22651 L -85.820435,432.1579 z"
           id="path3328"
           sodipodi:nodetypes="cccccc" />
        <path
           style="fill:#192e59;fill-opacity:1;fill-rule:evenodd;stroke:#000000;stroke-width:0;stroke-linecap:butt;stroke-linejoin:miter;stroke-miterlimit:4;stroke-dasharray:none;stroke-opacity:1"
           d="M -82.661312,320.65158 L -70.61371,326.36437 L -70.764621,371.35067 L -105.11224,373.14395 L -82.607294,349.31593 L -82.661312,320.65158 z"
           id="path3369"
           sodipodi:nodetypes="cccccc" />
        <path
           style="fill:#f04f25;fill-opacity:1;fill-rule:evenodd;stroke:#000000;stroke-width:0;stroke-linecap:butt;stroke-linejoin:miter;stroke-miterlimit:4;stroke-dasharray:none;stroke-opacity:1"
           d="M -167.76387,402.57568 L -158.7154,392.90276 L -187.2855,361.68552 L -187.03131,341.59945 L -153.24011,334.38145 L -153.24011,357.09785 L -141.02082,370.65436 L -124.65036,354.20446 L -124.7865,328.87029 L -91.807434,322.87701 L -89.900802,350.05449 L -112.69799,373.33707 L -72.275596,371.32003 L -72.071767,318.9651 L -39.533294,312.90733 L -39.787543,369.108 L -35.197043,369.13185 L -35.361389,406.13472 L -167.76387,402.57568 z"
           id="path3361"
           sodipodi:nodetypes="ccccccccccccccccccc" />
        <path
           style="fill:#d62128;fill-opacity:1;fill-rule:nonzero;stroke:none;stroke-width:0;marker:none;marker-start:none;marker-mid:none;marker-end:none;stroke-miterlimit:4;stroke-opacity:1;visibility:visible;display:inline;overflow:visible;enable-background:accumulate"
           d="M -46.260163,313.80992 L -37.258553,311.93675 L -37.409572,369.19688 L -45.847771,369.19688 L -46.260163,313.80992 z"
           id="rect3371"
           sodipodi:nodetypes="ccccc" />
        <path
           style="fill:#192e59;fill-opacity:1;fill-rule:evenodd;stroke:#000000;stroke-width:0;stroke-linecap:butt;stroke-linejoin:miter;stroke-miterlimit:4;stroke-dasharray:none;stroke-opacity:1"
           d="M 130.92403,342.34399 L 159.38597,334.57712 L 168.43556,351.73118 L 152.3775,379.39999 L 134.19139,376.46899 L 129.33941,356.17951 L 130.92403,342.34399 z"
           id="path3406"
           sodipodi:nodetypes="ccccccc" />
        <path
           style="fill:#d62128;fill-opacity:1;fill-rule:nonzero;stroke:none;stroke-width:0;marker:none;marker-start:none;marker-mid:none;marker-end:none;stroke-miterlimit:4;stroke-opacity:1;visibility:visible;display:inline;overflow:visible;enable-background:accumulate"
           d="M 159.32052,334.61572 L 168.68881,336.40627 L 169.88588,360.31129 L 163.14044,380.83309 L 151.65172,377.07704 L 159.21156,358.01274 L 159.32052,334.61572 z"
           id="rect3403"
           sodipodi:nodetypes="ccccccc" />
        <path
           style="fill:#192e59;fill-opacity:1;fill-rule:nonzero;stroke:none;stroke-width:0;marker:none;marker-start:none;marker-mid:none;marker-end:none;stroke-miterlimit:4;stroke-opacity:1;visibility:visible;display:inline;overflow:visible;enable-background:accumulate"
           d="M 78.063298,326.40842 L 88.438114,321.00258 L 98.012487,374.86654 L 78.063298,374.71518 L 78.063298,326.40842 z"
           id="rect3400"
           sodipodi:nodetypes="ccccc" />
        <path
           style="fill:#d62128;fill-opacity:1;fill-rule:evenodd;stroke:#000000;stroke-width:0;stroke-linecap:butt;stroke-linejoin:miter;stroke-miterlimit:4;stroke-dasharray:none;stroke-opacity:1"
           d="M 96.805972,374.57709 L 88.56383,349.78582 L 88.422245,320.95399 L 98.904053,322.74923 L 107.23524,375.01571 L 96.805972,374.57709 z"
           id="path3398"
           sodipodi:nodetypes="cccccc" />
        <path
           style="fill:#f04f25;fill-opacity:1;fill-rule:evenodd;stroke:#000000;stroke-width:0;stroke-linecap:butt;stroke-linejoin:miter;stroke-miterlimit:4;stroke-dasharray:none;stroke-opacity:1"
           d="M 122.43041,425.51376 L 173.22299,409.32552 L 153.64639,453.19524 L 133.24237,456.56755 L 122.43041,425.51376 z"
           id="path3396"
           sodipodi:nodetypes="ccccc" />
        <path
           style="fill:#d62128;fill-opacity:1;fill-rule:evenodd;stroke:#000000;stroke-width:0;stroke-linecap:butt;stroke-linejoin:miter;stroke-miterlimit:4;stroke-dasharray:none;stroke-opacity:1"
           d="M 104.98064,403.47301 L 201.51606,401.41839 L 123.41297,425.86678 L 133.58449,456.49686 L 124.64599,458.11453 L 104.98064,403.47301 z"
           id="path3394"
           sodipodi:nodetypes="cccccc" />
        <path
           style="fill:#f04f25;fill-opacity:1;fill-rule:evenodd;stroke:#000000;stroke-width:0;stroke-linecap:butt;stroke-linejoin:miter;stroke-miterlimit:4;stroke-dasharray:none;stroke-opacity:1"
           d="M 79.750066,466.07404 L 81.383052,435.58245 L 50.362389,444.46615 L 52.013661,471.20516 L 79.750066,466.07404 z"
           id="path3384"
           sodipodi:nodetypes="ccccc" />
        <path
           style="fill:#d62128;fill-opacity:1;fill-rule:evenodd;stroke:#000000;stroke-width:0;stroke-linecap:butt;stroke-linejoin:miter;stroke-miterlimit:4;stroke-dasharray:none;stroke-opacity:1"
           d="M 52.209675,471.17204 L 51.875872,446.55654 L 77.911236,438.40808 L 77.911236,404.92473 L 51.8729,404.98507 L 45.017405,404.16181 L 44.499368,472.69763 L 52.209675,471.17204 z"
           id="path3382"
           sodipodi:nodetypes="cccccccc" />
        <path
           style="fill:#f04f25;fill-opacity:1;fill-rule:nonzero;stroke:none;stroke-width:0;marker:none;marker-start:none;marker-mid:none;marker-end:none;stroke-miterlimit:4;stroke-opacity:1;visibility:visible;display:inline;overflow:visible;enable-background:accumulate"
           d="M 7.1579912,457.44979 L 26.976219,452.12846 L 26.976219,475.79367 L 8.2783729,479.23595 L 7.1579912,457.44979 z"
           id="path3377"
           sodipodi:nodetypes="ccccc" />
        <path
           style="fill:#d62128;fill-opacity:1;fill-rule:nonzero;stroke:none;stroke-width:0;marker:none;marker-start:none;marker-mid:none;marker-end:none;stroke-miterlimit:4;stroke-opacity:1;visibility:visible;display:inline;overflow:visible;enable-background:accumulate"
           d="M 8.1183184,437.47618 L 26.976219,436.33278 L 26.976219,454.06281 L 8.1183184,459.51476 L 8.1183184,437.47618 z"
           id="rect3374"
           sodipodi:nodetypes="ccccc" />
        <path
           style="fill:#d62128;fill-opacity:1;fill-rule:evenodd;stroke:#000000;stroke-width:0;stroke-linecap:butt;stroke-linejoin:miter;stroke-miterlimit:4;stroke-dasharray:none;stroke-opacity:1"
           d="M -113.60195,373.66261 L -91.904604,349.33934 L -91.885653,322.88671 L -82.658074,320.61086 L -82.481774,349.51871 L -103.69055,373.06408 L -113.60195,373.66261 z"
           id="path3367"
           sodipodi:nodetypes="ccccccc" />
        <path
           style="fill:#192e59;fill-opacity:1;fill-rule:evenodd;stroke:#000000;stroke-width:0;stroke-linecap:butt;stroke-linejoin:miter;stroke-miterlimit:4;stroke-dasharray:none;stroke-opacity:1"
           d="M -153.09117,334.69168 L -124.78184,342.49121 L -124.79168,354.54209 L -139.60065,371.25069 L -153.84957,358.9016 L -153.09117,334.69168 z"
           id="path3365"
           sodipodi:nodetypes="cccccc" />
        <path
           style="fill:#d62128;fill-opacity:1;fill-rule:evenodd;stroke:#000000;stroke-width:0;stroke-linecap:butt;stroke-linejoin:miter;stroke-miterlimit:4;stroke-dasharray:none;stroke-opacity:1"
           d="M -162.57512,336.54912 L -153.01312,334.69218 L -153.01312,357.77171 L -139.42998,371.07715 L -143.81482,376.51158 L -145.99347,376.45469 L -162.66311,358.68294 L -162.57512,336.54912 z"
           id="path3363"
           sodipodi:nodetypes="cccccccc" />
        <path
           style="fill:#192e59;fill-opacity:1;fill-rule:nonzero;stroke:none;stroke-width:0;marker:none;marker-start:none;marker-mid:none;marker-end:none;stroke-miterlimit:4;stroke-opacity:1;visibility:visible;display:inline;overflow:visible;enable-background:accumulate"
           d="M -29.261275,313.11926 L 3.2991813,325.29459 L 35.545204,312.78789 L 38.353903,431.44619 L -31.88983,431.44619 L -29.261275,313.11926 z"
           id="rect3334"
           sodipodi:nodetypes="cccccc" />
        <path
           style="fill:#d62128;fill-opacity:1;fill-rule:nonzero;stroke:none;stroke-width:0;marker:none;marker-start:none;marker-mid:none;marker-end:none;stroke-miterlimit:4;stroke-opacity:1;visibility:visible;display:inline;overflow:visible;enable-background:accumulate"
           d="M -34.505072,308.90022 L -29.172766,308.90022 L -29.172766,429.16152 L 35.43802,428.87181 L 35.440558,308.88954 L 42.296345,308.88739 L 42.851774,434.79307 L -34.505072,434.79307 L -34.505072,308.90022 z"
           id="rect3332"
           sodipodi:nodetypes="ccccccccc" />
        <path
           style="fill:#f04f25;fill-opacity:1;fill-rule:evenodd;stroke:#000000;stroke-width:0;stroke-linecap:butt;stroke-linejoin:miter;stroke-miterlimit:4;stroke-dasharray:none;stroke-opacity:1"
           d="M -186.54053,446.14449 L -186.79892,424.82646 L -170.72138,406.10113 L -144.25577,411.96429 L -157.80163,438.10251 L -162.31359,450.23421 L -186.54053,446.14449 z"
           id="path3312"
           sodipodi:nodetypes="ccccccc" />
        <path
           style="fill:#192e59;fill-opacity:1;fill-rule:nonzero;stroke:none;stroke-width:0;marker:none;marker-start:none;marker-mid:none;marker-end:none;stroke-miterlimit:4;stroke-opacity:1;visibility:visible;display:inline;overflow:visible;enable-background:accumulate"
           d="M -156.67399,431.82609 L -142.09931,409.99726 L -119.29012,430.35799 L -124.16751,457.02675 L -153.51635,451.82281 L -156.67399,431.82609 z"
           id="path3310"
           sodipodi:nodetypes="cccccc" />
        <path
           style="fill:#f04f25;fill-opacity:1;fill-rule:nonzero;stroke:none;stroke-width:0;marker:none;marker-start:none;marker-mid:none;marker-end:none;stroke-miterlimit:4;stroke-opacity:1;visibility:visible;display:inline;overflow:visible;enable-background:accumulate"
           d="M -125.2012,430.22837 L -135.72497,418.36858 L -90.112717,429.95596 L -90.27258,462.82102 L -124.71473,456.94037 L -125.2012,430.22837 z"
           id="path3308"
           sodipodi:nodetypes="cccccc" />
        <path
           style="fill:#f04f25;fill-opacity:1;fill-rule:evenodd;stroke:#000000;stroke-width:0;stroke-linecap:butt;stroke-linejoin:miter;stroke-miterlimit:4;stroke-dasharray:none;stroke-opacity:1"
           d="M -8.4486431,413.79052 C -13.988028,408.74004 -15.615333,391.60129 -12.140707,380.82442 C -9.8103541,373.12303 5.2243114,358.66627 15.594413,361.12933 C 21.696264,362.57863 23.410221,382.4281 21.356383,387.17277 C 16.937366,406.85956 -2.5310003,414.47446 -7.2173751,414.3525 C -7.6071441,414.2385 -7.9569911,414.26621 -8.4486431,413.79052 z"
           id="path3299"
           sodipodi:nodetypes="ccsccc" />
        <path
           style="fill:#ffffff;fill-rule:evenodd;stroke:#000000;stroke-width:0;stroke-linecap:butt;stroke-linejoin:miter;stroke-miterlimit:4;stroke-dasharray:none;stroke-opacity:1"
           d="M -7.0309938,386.46839 C -2.5179516,386.3368 -0.38653009,387.63421 1.8553047,388.86533 L 3.0014337,386.56466 C 0.6975552,384.92169 -2.2446273,383.27726 -6.175923,383.96938 L -7.0309938,386.46839 z"
           id="path3291"
           sodipodi:nodetypes="ccccc" />
        <path
           style="fill:#ffffff;fill-rule:evenodd;stroke:#000000;stroke-width:0;stroke-linecap:butt;stroke-linejoin:miter;stroke-miterlimit:4;stroke-dasharray:none;stroke-opacity:1"
           d="M -4.7824537,380.72298 C -0.27936961,380.39565 1.8844884,382.35702 4.1776466,383.48971 L 5.476527,380.86808 C 3.1035178,379.32663 0.062556845,377.87831 -3.7676005,378.41163 L -4.7824537,380.72298 z"
           id="path3293"
           sodipodi:nodetypes="ccccc" />
        <path
           style="fill:#ffffff;fill-rule:evenodd;stroke:#000000;stroke-width:0;stroke-linecap:butt;stroke-linejoin:miter;stroke-miterlimit:4;stroke-dasharray:none;stroke-opacity:1"
           d="M -1.6120021,375.40518 C 3.1377764,375.75457 4.7710536,376.72179 6.9283241,377.96329 L 8.413133,375.77152 C 6.040112,374.23008 3.4193286,372.82761 -0.41082941,373.36091 L -1.6120021,375.40518 z"
           id="path3295"
           sodipodi:nodetypes="ccccc" />
        <path
           sodipodi:type="star"
           style="opacity:1;fill:#d62128;fill-opacity:1;fill-rule:nonzero;stroke:none;stroke-width:0;marker:none;marker-start:none;marker-mid:none;marker-end:none;stroke-miterlimit:4;stroke-dasharray:none;stroke-opacity:1;visibility:visible;display:inline;overflow:visible;enable-background:accumulate"
           id="path3301"
           sodipodi:sides="5"
           sodipodi:cx="147.35715"
           sodipodi:cy="516.3653"
           sodipodi:r1="23.148333"
           sodipodi:r2="9.078373"
           sodipodi:arg1="0.78539816"
           sodipodi:arg2="1.4137167"
           inkscape:flatsided="false"
           inkscape:rounded="0"
           inkscape:randomized="0"
           d="M 163.72549,532.73364 L 148.77732,525.3319 L 136.84802,536.99061 L 139.26826,520.48679 L 124.49381,512.7441 L 140.93777,509.94592 L 143.73595,493.50196 L 151.47864,508.27641 L 167.98246,505.85617 L 156.32375,517.78547 L 163.72549,532.73364 z"
           transform="matrix(0.3734889,5.7521688e-2,-5.7521688e-2,0.3734889,-207.41476,189.13717)" />
        <path
           style="fill:#d62128;fill-opacity:1;fill-rule:nonzero;stroke:none;stroke-width:0;marker:none;marker-start:none;marker-mid:none;marker-end:none;stroke-miterlimit:4;stroke-opacity:1;visibility:visible;display:inline;overflow:visible;enable-background:accumulate"
           d="M -91.748528,432.51352 L -134.84276,419.42245 L -140.45228,413.70419 L -152.95343,429.22484 L -152.97619,451.93956 L -162.68606,450.16567 L -162.49698,426.69152 L -151.88277,413.60073 L -192.15024,401.34758 L -110.18052,404.0855 L -82.274033,434.42379 L -82.331677,464.50599 L -91.748528,462.57466 L -91.748528,432.51352 z"
           id="rect3305"
           sodipodi:nodetypes="cccccccccccccc" />
        <path
           style="fill:#192e59;fill-opacity:1;fill-rule:evenodd;stroke:#000000;stroke-width:0;stroke-linecap:butt;stroke-linejoin:miter;stroke-miterlimit:4;stroke-dasharray:none;stroke-opacity:1"
           d="M 77.699568,466.44123 L 124.91964,458.05446 L 107.23571,403.89336 L 77.837335,404.40976 L 77.699568,466.44123 z"
           id="path3386"
           sodipodi:nodetypes="ccccc" />
        <path
           style="fill:#f04f25;fill-opacity:1;fill-rule:nonzero;stroke:none;stroke-width:0;marker:none;marker-start:none;marker-mid:none;marker-end:none;stroke-miterlimit:4;stroke-opacity:1;visibility:visible;display:inline;overflow:visible;enable-background:accumulate"
           d="M 44.606594,369.07048 L 52.343724,369.70395 L 52.338877,313.56171 L 78.226628,318.85604 L 78.153054,371.47188 L 106.16796,373.25551 L 98.040914,351.07047 L 98.174539,322.60723 L 130.96937,329.06405 L 131.0442,354.99653 L 135.61593,374.73311 L 161.81047,376.42108 L 168.42432,359.45137 L 168.26826,336.32487 L 193.69169,341.3192 L 193.69169,362.36834 L 176.6787,402.19603 L 44.606594,406.61715 L 44.606594,369.07048 z"
           id="rect3391"
           sodipodi:nodetypes="ccccccccccccccccccc" />
        <path
           style="fill:#ffffff;fill-opacity:1;fill-rule:evenodd;stroke:#000000;stroke-width:0;stroke-linecap:butt;stroke-linejoin:miter;stroke-miterlimit:4;stroke-dasharray:none;stroke-opacity:1"
           d="M -91.19634,76.317348 C -89.5189,76.483933 -87.841461,77.02166 -86.164022,78.007592 C -85.808606,77.504919 -85.532796,77.081853 -85.222864,76.624664 C -85.607137,76.288552 -86.254835,75.949355 -87.047559,75.664299 C -86.672191,74.49891 -85.814215,73.296561 -85.299693,72.206982 C -86.428704,72.877752 -87.627355,73.895249 -88.488108,75.222531 L -90.082315,75.126494 C -90.600428,75.406028 -90.93307,75.833939 -91.19634,76.317348 z"
           id="path2746"
           transform="matrix(1.478561,0,0,1.4748794,137.36548,257.88362)"
           sodipodi:nodetypes="cccccccc" />
        <path
           style="fill:#d62128;fill-opacity:1;fill-rule:evenodd;stroke:#000000;stroke-width:0;stroke-linecap:butt;stroke-linejoin:miter;stroke-miterlimit:4;stroke-dasharray:none;stroke-opacity:1"
           d="M -8.4486421,413.79052 C -13.988027,408.74004 -16.25082,393.0804 -12.140706,380.82442 C -14.4706,397.84536 -13.400844,402.06226 -5.1648679,404.01844 C 3.0711084,405.97462 17.626611,395.46476 21.958513,375.76246 C 24.760594,407.49347 -1.946638,414.47446 -7.2173741,414.3525 C -7.6071431,414.2385 -7.9569901,414.26621 -8.4486421,413.79052 z"
           id="path3520"
           sodipodi:nodetypes="cczccc" />
        <path
           style="fill:#ffffff;fill-opacity:1;fill-rule:evenodd;stroke:#000000;stroke-width:0;stroke-linecap:butt;stroke-linejoin:miter;stroke-miterlimit:4;stroke-dasharray:none;stroke-opacity:1"
           d="M -98.382884,89.326663 C -96.449493,89.447764 -94.493088,89.669075 -92.785608,90.919733 L -92.957832,92.469748 C -93.856675,91.972761 -94.470056,91.718179 -95.024518,91.565573 C -96.351003,94.36464 -97.134561,97.587547 -97.909268,100.60733 C -98.334402,98.612399 -97.710381,94.077171 -96.875925,90.919733 C -97.333886,90.83297 -97.87799,90.681638 -98.555108,90.704454 L -98.382884,89.326663 z"
           id="path3518"
           transform="matrix(1.478561,0,0,1.4748794,137.36548,257.88362)"
           sodipodi:nodetypes="cccccccc" />
        <path
           style="fill:#f04f25;fill-opacity:1;fill-rule:evenodd;stroke:#000000;stroke-width:0;stroke-linecap:butt;stroke-linejoin:miter;stroke-miterlimit:4;stroke-dasharray:none;stroke-opacity:1"
           d="M 2.7153397,438.55689 L -38.881832,438.28519 L -38.959661,393.39096 L -38.071999,308.88821 L -33.821358,308.89437 L -33.821334,433.74708 L 39.897575,433.42851 L 39.990205,308.92867 L 45.274248,308.92663 L 44.96908,438.45644 L 8.5876535,438.45644 L 8.5876535,484.7715 L 2.7684444,484.7715 L 2.7153397,438.55689 z"
           id="path3330"
           sodipodi:nodetypes="cccccccccccccc" />
        <path
           sodipodi:type="star"
           style="opacity:1;fill:#192e59;fill-opacity:1;fill-rule:nonzero;stroke:none;stroke-width:0;marker:none;marker-start:none;marker-mid:none;marker-end:none;stroke-miterlimit:4;stroke-dasharray:none;stroke-opacity:1;visibility:visible;display:inline;overflow:visible;enable-background:accumulate"
           id="path3522"
           sodipodi:sides="5"
           sodipodi:cx="147.35715"
           sodipodi:cy="516.3653"
           sodipodi:r1="23.148333"
           sodipodi:r2="9.078373"
           sodipodi:arg1="0.78539816"
           sodipodi:arg2="1.4137167"
           inkscape:flatsided="false"
           inkscape:rounded="0"
           inkscape:randomized="0"
           d="M 163.72549,532.73364 L 148.77732,525.3319 L 136.84802,536.99061 L 139.26826,520.48679 L 124.49381,512.7441 L 140.93777,509.94592 L 143.73595,493.50196 L 151.47864,508.27641 L 167.98246,505.85617 L 156.32375,517.78547 L 163.72549,532.73364 z"
           transform="matrix(0.3734889,5.7521688e-2,-5.7521689e-2,0.3734889,168.3055,189.13717)" />
      </g>
      <g
         id="g2644"
         transform="matrix(1.1040578,0,0,1.1040578,369.10124,-80.08878)"
         style="fill:#ffffff">
        <path
           transform="matrix(0.9912755,1.3399452e-2,0,1.0088013,0,0)"
           sodipodi:nodetypes="cccccccssscsssccccssscccccsssccc"
           id="text2599"
           d="M 57.582989,552.60541 L 57.582989,548.72085 L 59.642422,548.73104 L 59.642422,533.50688 L 57.582989,533.49669 L 57.582989,529.46136 L 68.079562,529.46136 C 70.404773,529.46138 72.134916,529.59637 73.269994,529.86634 C 74.405038,530.13636 75.38582,530.94282 76.21234,531.98419 C 77.038822,533.0256 77.452072,534.24607 77.452093,535.64559 C 77.452072,537.88267 76.678992,539.45996 74.519087,540.38563 C 77.274073,541.4105 78.344693,543.24942 78.344715,545.89421 C 78.344693,547.41498 77.917668,548.7181 77.063637,549.80357 C 76.209566,550.88904 75.107564,551.62738 73.75763,552.01859 C 72.407661,552.4098 70.514974,552.60541 68.079562,552.60541 L 57.582989,552.60541 z M 64.862622,538.70745 L 68.079562,538.68712 C 69.247672,538.68713 70.107233,538.48877 70.658248,538.09204 C 71.209234,537.69533 71.484735,536.99556 71.48475,535.99272 C 71.484735,535.07808 71.217499,534.43341 70.683043,534.05871 C 70.148558,533.68404 69.214612,533.4967 67.881202,533.49669 L 64.862622,533.51702 L 64.862622,538.70745 z M 64.862622,548.59041 L 68.079562,548.57008 C 69.611332,548.57008 70.680274,548.57584 71.286389,548.13504 C 71.892475,547.69424 72.195526,546.84194 72.195541,545.72891 C 72.195526,544.5608 71.86768,543.74256 71.212004,543.2742 C 70.556299,542.80586 69.512152,542.72246 68.079562,542.72245 L 64.862622,542.74278 L 64.862622,548.59041 z"
           style="font-size:732.809021px;font-style:normal;font-weight:normal;text-align:start;line-height:125%;text-anchor:start;fill:#ffffff;fill-opacity:1;stroke:none;stroke-width:1px;stroke-linecap:butt;stroke-linejoin:miter;stroke-opacity:1;font-family:Bitstream Vera Sans" />
        <path
           transform="scale(0.9921602,1.0079018)"
           sodipodi:nodetypes="ccssscccccccc"
           id="text2604"
           d="M 87.059411,542.80462 C 86.794671,535.18282 90.510969,531.64127 97.644993,532.11569 C 101.2032,532.11571 103.83618,533.00527 105.54395,534.78436 C 107.25169,536.56348 108.10556,539.30825 108.10558,543.01868 C 108.10556,546.72913 107.25169,549.47866 105.54395,551.26728 C 103.83618,553.0559 101.2032,553.95021 97.644993,553.95021 C 89.19384,554.60812 86.66579,549.83261 87.059411,542.80462 L 87.059411,542.80462 z M 92.436588,542.83316 C 92.308301,547.31226 93.265051,549.79506 97.644993,549.99843 C 102.44703,550.0806 102.66269,546.94242 102.64623,543.01868 C 102.78618,538.93381 101.95604,536.46379 97.644993,536.25693 C 92.597286,536.0209 92.42953,539.01788 92.436588,542.83316 z"
           style="font-size:632.65826416px;font-style:normal;font-weight:normal;text-align:start;line-height:125%;text-anchor:start;fill:#ffffff;fill-opacity:1;stroke:none;stroke-width:1px;stroke-linecap:butt;stroke-linejoin:miter;stroke-opacity:1;font-family:Bitstream Vera Sans" />
        <path
           sodipodi:nodetypes="cccccccccccccccccccccc"
           id="text2609"
           d="M 119.99973,558.02809 L 116.34884,540.68617 L 114.34623,540.68617 L 114.34623,537.05345 L 123.33542,537.35305 L 123.33542,540.68617 L 121.46298,540.68617 L 123.25269,549.51952 L 127.04603,537.56774 L 132.11471,537.76747 L 135.53058,549.78316 L 137.40137,541.34137 L 135.41876,541.17339 L 135.31889,537.70864 L 144.27511,538.05211 L 144.27511,541.55321 L 142.55605,541.49722 L 138.55672,557.65286 L 133.16344,557.75273 L 129.58281,545.71834 L 125.4829,557.92822 L 119.99973,558.02809 z"
           style="font-size:441.8336792px;font-style:normal;font-weight:normal;text-align:start;line-height:125%;text-anchor:start;fill:#ffffff;fill-opacity:1;stroke:none;stroke-width:1px;stroke-linecap:butt;stroke-linejoin:miter;stroke-opacity:1;font-family:Bitstream Vera Sans" />
        <path
           sodipodi:nodetypes="ccccccccccccccc"
           id="text2614"
           d="M 152.37737,557.65558 L 152.37737,554.19517 L 154.62024,554.19517 L 154.62024,541.9787 L 152.37737,541.9787 L 152.37737,538.79179 L 161.37071,538.79179 L 161.37071,541.9787 L 159.16476,541.9787 L 159.16476,554.19517 L 165.01196,554.19517 L 165.01196,551.91931 L 168.86941,551.91931 L 168.86941,557.65558 L 152.37737,557.65558 z"
           style="font-size:399.93942261px;font-style:normal;font-weight:normal;text-align:start;line-height:125%;text-anchor:start;fill:#ffffff;fill-opacity:1;stroke:none;stroke-width:1px;stroke-linecap:butt;stroke-linejoin:miter;stroke-opacity:1;font-family:Bitstream Vera Sans" />
        <path
           transform="scale(1.1663845,0.8573502)"
           sodipodi:nodetypes="cccsssccccczssssccc"
           id="text2619"
           d="M -136.99672,648.27493 L -136.99672,643.42812 L -133.68307,643.42812 C -133.29186,646.52445 -130.83755,646.31959 -129.36009,646.31832 C -127.8931,646.31706 -126.39884,645.5767 -126.39884,644.03082 C -126.39884,640.70149 -128.75539,641.15413 -130.19747,640.91173 C -133.01818,640.4376 -136.94195,639.97728 -136.94195,634.39164 C -136.5058,629.21532 -132.83854,628.2044 -129.54712,628.03267 C -127.13516,627.86447 -125.09254,627.96901 -123.05623,629.15173 L -123.05623,635.0778 L -125.92078,635.0778 C -125.92078,632.06292 -127.32538,631.8825 -129.21311,631.8825 C -131.20446,631.8825 -132.72713,632.6361 -132.72713,634.3341 C -132.72713,636.3736 -129.50605,635.95599 -127.89264,636.47903 C -124.82414,637.47378 -121.99404,637.3234 -121.99404,643.9445 C -121.99404,646.0258 -122.65825,647.68987 -123.98661,648.93673 C -125.31501,650.18359 -127.10617,650.66599 -129.36009,650.66599 C -132.02644,650.74868 -135.22224,650.33689 -136.99672,648.27493 L -136.99672,648.27493 z"
           style="font-size:637.79656982px;font-style:normal;font-weight:normal;text-align:start;line-height:125%;text-anchor:start;fill:#ffffff;fill-opacity:1;stroke:none;stroke-width:1px;stroke-linecap:butt;stroke-linejoin:miter;stroke-opacity:1;font-family:Bitstream Vera Sans" />
        <path
           transform="scale(1.1028056,0.9067782)"
           sodipodi:nodetypes="cccccsscccccccccccc"
           id="text2624"
           d="M -125.15185,597.22034 L -125.15185,593.65066 L -117.20802,593.55045 L -117.20802,597.01991 L -119.20667,597.22034 L -119.20667,606.77495 C -119.20667,609.71807 -117.73169,610.81628 -115.40123,610.96763 C -112.72455,611.14146 -111.91881,609.38515 -111.82552,606.50152 L -111.82552,596.9197 L -113.54658,596.81948 L -113.54658,593.14959 L -105.87285,592.94916 L -105.87285,596.81948 L -107.46637,596.81948 L -107.46637,607.79269 C -107.24069,613.30067 -110.94486,615.19028 -114.94408,615.43924 C -120.50929,615.43924 -123.38709,614.00552 -123.38709,606.77495 L -123.38709,597.22034 L -125.15185,597.22034 z"
           style="font-size:1012.28662109px;font-style:normal;font-weight:normal;text-align:start;line-height:125%;text-anchor:start;fill:#ffffff;fill-opacity:1;stroke:none;stroke-width:1px;stroke-linecap:butt;stroke-linejoin:miter;stroke-opacity:1;font-family:Bitstream Vera Sans" />
        <path
           transform="scale(0.9737585,1.0269487)"
           sodipodi:nodetypes="cccccccccccccccscc"
           id="text2629"
           d="M -105.74695,539.93498 L -105.74695,543.37366 L -114.58119,543.37366 L -114.58119,539.93498 L -112.83187,539.93498 L -112.83187,526.4583 L -114.58119,526.4583 L -114.58119,523.01962 L -103.85544,522.68748 C -99.155928,522.76003 -96.026966,523.36372 -96.026966,529.50189 C -96.026966,533.29385 -97.519587,535.12548 -101.14108,536.0456 C -102.63477,536.27136 -105.32753,536.44091 -107.74502,536.3163 L -107.74502,539.93498 L -105.74695,539.93498 z M -107.67496,531.99153 C -103.32218,531.99153 -101.40647,532.29045 -101.40647,529.50189 C -101.40647,526.55986 -102.65094,526.92329 -107.67496,526.92329 L -107.67496,531.99153 z"
           style="font-size:431.53482056px;font-style:normal;font-weight:normal;text-align:start;line-height:125%;text-anchor:start;fill:#ffffff;fill-opacity:1;stroke:none;stroke-width:1px;stroke-linecap:butt;stroke-linejoin:miter;stroke-opacity:1;font-family:Bitstream Vera Sans" />
        <path
           sodipodi:nodetypes="ccccccccccccccccccccccccc"
           id="text2634"
           d="M -89.469629,558.36334 L -89.469629,554.40738 L -87.350901,554.40738 L -87.350901,539.95913 L -89.469629,539.95913 L -89.469629,535.92093 L -71.334048,535.50975 L -71.334048,542.29591 L -75.050044,542.29591 L -75.378988,539.95913 L -82.332748,539.95913 L -82.332748,545.13815 L -78.792468,545.13815 L -78.463524,543.41119 L -75.320098,543.41119 L -75.320098,550.9033 L -78.463524,550.82107 L -78.792468,549.09411 L -82.332748,549.09411 L -82.332748,554.24291 L -75.707932,554.16067 L -75.378988,551.62715 L -71.08734,551.54491 L -71.08734,558.52781 L -89.469629,558.36334 z"
           style="font-size:475.81143188px;font-style:normal;font-weight:normal;text-align:start;line-height:125%;text-anchor:start;fill:#ffffff;fill-opacity:1;stroke:none;stroke-width:1px;stroke-linecap:butt;stroke-linejoin:miter;stroke-opacity:1;font-family:Bitstream Vera Sans" />
        <path
           transform="scale(0.9439832,1.0593409)"
           sodipodi:nodetypes="ccccccccccccccccssccccscc"
           id="text2639"
           d="M -46.986773,523.71222 L -46.986773,527.34204 L -56.269007,527.26784 L -56.354824,523.68301 L -55.158668,523.58067 L -58.085791,518.39734 L -61.35846,518.39734 L -61.35846,523.41542 L -59.255441,523.71222 L -59.255441,527.41624 L -68.758585,527.56464 L -68.758585,523.71222 L -66.738113,523.43506 L -66.738113,508.89118 L -68.758585,508.61402 L -68.758585,504.76161 L -55.004637,504.46481 C -50.120977,504.35942 -48.023057,506.26906 -47.859777,511.15498 C -47.773277,513.74337 -48.843653,517.04562 -52.310158,517.71745 L -48.938351,523.48962 L -46.986773,523.71222 z M -61.524995,514.09023 C -56.060214,514.09023 -53.272857,514.77003 -53.39029,511.25334 C -53.50049,507.95325 -56.185527,508.68822 -61.524995,508.68822 L -61.524995,514.09023 z"
           style="font-size:483.45700073px;font-style:normal;font-weight:normal;text-align:start;line-height:125%;text-anchor:start;fill:#ffffff;fill-opacity:1;stroke:none;stroke-width:1px;stroke-linecap:butt;stroke-linejoin:miter;stroke-opacity:1;font-family:Bitstream Vera Sans" />
      </g>
    </g>
  </g>
</svg>
