<?xml version="1.0" encoding="utf-8"?>
<!-- Generator: Adobe Illustrator 12.0.0, SVG Export Plug-In . SVG Version: 6.00 Build 51448)  -->
<!DOCTYPE svg PUBLIC "-//W3C//DTD SVG 1.1//EN" "http://www.w3.org/Graphics/SVG/1.1/DTD/svg11.dtd" [
	<!ENTITY ns_svg "http://www.w3.org/2000/svg">
	<!ENTITY ns_xlink "http://www.w3.org/1999/xlink">
]>
<svg  version="1.1" id="Layer_1" xmlns="&ns_svg;" xmlns:xlink="&ns_xlink;" width="390.853" height="200"
	 viewBox="0 0 390.853 200" overflow="visible" enable-background="new 0 0 390.853 200" xml:space="preserve">
<g>
	<path fill-rule="evenodd" clip-rule="evenodd" fill="none" d="M358.786,99.999L390.853,62.8h-47.341l20.604-24.643h-58.471
		l14.292-16.985h-44.52V0H115.434v21.172H70.915l14.292,16.985H26.736L47.339,62.8H0l32.065,37.199L0,137.198h47.339l-20.603,24.641
		h58.472l-14.292,16.988h44.519V200h159.983v-21.173h44.52l-14.292-16.988h58.471c0,0-16.068-19.217-20.604-24.641h47.341
		L358.786,99.999L358.786,99.999z M355.321,140.573h-1.206v-0.464h2.932v0.464h-1.203v3.36h-0.522V140.573L355.321,140.573z
		 M357.99,143.933h-0.479v-3.824h0.745l0.943,2.924c0.045,0.129,0.074,0.23,0.09,0.314c0.026-0.116,0.054-0.217,0.088-0.314
		l0.983-2.924h0.742v3.824h-0.504v-3.26c-0.026,0.127-0.059,0.238-0.09,0.334l-0.983,2.926h-0.49l-0.96-2.926
		c-0.037-0.106-0.063-0.218-0.085-0.334V143.933L357.99,143.933z M384.92,140.109h2.568v0.479h-2.049v1.147h1.786v0.467h-1.786v1.73
		h-0.52V140.109L384.92,140.109z M388.022,140.109h0.53v3.34h1.9v0.484h-2.431V140.109L388.022,140.109z M362.791,140.008h0.328
		l-1.291,4.418h-0.317L362.791,140.008L362.791,140.008z M366.687,140.689c0.357,0.355,0.559,0.841,0.559,1.354
		c0,0.522-0.195,0.989-0.554,1.339c-0.379,0.368-0.861,0.575-1.365,0.575c-0.506,0-0.98-0.202-1.347-0.567
		c-0.365-0.366-0.562-0.84-0.562-1.347c0-0.504,0.196-0.983,0.567-1.359c0.355-0.358,0.824-0.555,1.341-0.555
		C365.846,140.129,366.318,140.321,366.687,140.689L366.687,140.689z M366.509,140.87c-0.318-0.318-0.727-0.49-1.177-0.49
		c-0.453,0-0.859,0.172-1.167,0.479c-0.323,0.323-0.498,0.75-0.498,1.185c0,0.438,0.175,0.851,0.493,1.172
		c0.318,0.317,0.731,0.487,1.172,0.487c0.435,0,0.848-0.175,1.177-0.493c0.31-0.305,0.479-0.707,0.479-1.166
		C366.989,141.593,366.819,141.177,366.509,140.87L366.509,140.87z M365.316,141.161c-0.353,0-0.585,0.313-0.585,0.883
		c0,0.554,0.232,0.861,0.612,0.861c0.28,0,0.482-0.169,0.529-0.456h0.377c-0.029,0.451-0.403,0.761-0.923,0.761
		c-0.623,0-1.013-0.432-1.013-1.182c0-0.7,0.422-1.153,1.029-1.153c0.492,0,0.848,0.286,0.885,0.702h-0.382
		C365.804,141.312,365.613,141.161,365.316,141.161L365.316,141.161z M368.908,141.307h-0.861v-0.38
		c0.615-0.005,0.923-0.217,0.983-0.713h0.363v3.719h-0.485V141.307L368.908,141.307z M371.134,143.016
		c0.017,0.374,0.266,0.591,0.671,0.591c0.541,0,0.821-0.442,0.869-1.341c-0.207,0.268-0.509,0.411-0.88,0.411
		c-0.697,0-1.177-0.479-1.177-1.222c0-0.734,0.496-1.241,1.251-1.241c0.854,0,1.339,0.607,1.339,1.744
		c0,1.352-0.518,2.081-1.408,2.081c-0.707,0-1.145-0.4-1.149-1.023H371.134L371.134,143.016z M371.853,142.237
		c0.482,0,0.773-0.299,0.773-0.792c0-0.496-0.291-0.809-0.753-0.809c-0.442,0-0.739,0.318-0.739,0.811
		C371.134,141.938,371.426,142.237,371.853,142.237L371.853,142.237z M374.053,143.016c0.016,0.374,0.265,0.591,0.668,0.591
		c0.543,0,0.824-0.442,0.874-1.341c-0.206,0.268-0.512,0.411-0.885,0.411c-0.694,0-1.172-0.479-1.172-1.222
		c0-0.734,0.493-1.241,1.246-1.241c0.858,0,1.341,0.607,1.341,1.744c0,1.352-0.514,2.081-1.41,2.081c-0.705,0-1.143-0.4-1.145-1.023
		H374.053L374.053,143.016z M374.768,142.237c0.485,0,0.777-0.299,0.777-0.792c0-0.496-0.292-0.809-0.756-0.809
		c-0.439,0-0.736,0.318-0.736,0.811C374.053,141.938,374.344,142.237,374.768,142.237L374.768,142.237z M376.934,142.968
		c0.059,0.385,0.334,0.612,0.739,0.612c0.493,0,0.822-0.331,0.822-0.818c0-0.507-0.313-0.824-0.816-0.824
		c-0.289,0-0.527,0.119-0.703,0.342h-0.427l0.292-1.959h1.97v0.438h-1.617l-0.148,0.994c0.181-0.154,0.427-0.239,0.713-0.239
		c0.758,0,1.254,0.488,1.254,1.223c0,0.776-0.533,1.304-1.32,1.304c-0.699,0-1.189-0.427-1.248-1.071H376.934L376.934,142.968z
		 M381.083,140.109h0.567l1.786,2.775c0.069,0.105,0.133,0.22,0.175,0.325v-3.101h0.496v3.824h-0.564l-1.824-2.82
		c-0.053-0.079-0.101-0.169-0.143-0.28v3.101h-0.493V140.109L381.083,140.109z"/>
	<path fill-rule="evenodd" clip-rule="evenodd" fill="#FFFFFF" d="M374.053,143.016h-0.482c0.002,0.623,0.439,1.023,1.145,1.023
		c0.896,0,1.41-0.729,1.41-2.081c0-1.137-0.482-1.744-1.341-1.744c-0.753,0-1.246,0.507-1.246,1.241
		c0,0.742,0.478,1.222,1.172,1.222c0.373,0,0.679-0.144,0.885-0.411c-0.05,0.898-0.331,1.341-0.874,1.341
		C374.318,143.607,374.069,143.39,374.053,143.016L374.053,143.016z M374.768,142.237c-0.424,0-0.715-0.299-0.715-0.79
		c0-0.492,0.297-0.811,0.736-0.811c0.464,0,0.756,0.313,0.756,0.809C375.545,141.938,375.253,142.237,374.768,142.237
		L374.768,142.237z M371.134,143.016h-0.484c0.005,0.623,0.442,1.023,1.149,1.023c0.891,0,1.408-0.729,1.408-2.081
		c0-1.137-0.485-1.744-1.339-1.744c-0.755,0-1.251,0.507-1.251,1.241c0,0.742,0.479,1.222,1.177,1.222
		c0.371,0,0.673-0.144,0.88-0.411c-0.048,0.898-0.328,1.341-0.869,1.341C371.4,143.607,371.151,143.39,371.134,143.016
		L371.134,143.016z M371.853,142.237c-0.427,0-0.719-0.299-0.719-0.79c0-0.492,0.297-0.811,0.739-0.811
		c0.462,0,0.753,0.313,0.753,0.809C372.626,141.938,372.335,142.237,371.853,142.237L371.853,142.237z M366.687,140.689
		c-0.369-0.368-0.841-0.56-1.36-0.56c-0.517,0-0.985,0.196-1.341,0.555c-0.371,0.376-0.567,0.855-0.567,1.359
		c0,0.507,0.196,0.98,0.562,1.347c0.366,0.365,0.841,0.567,1.347,0.567c0.504,0,0.986-0.207,1.365-0.575
		c0.358-0.35,0.554-0.816,0.554-1.339C367.246,141.53,367.044,141.044,366.687,140.689L366.687,140.689z M366.509,140.87
		c0.31,0.308,0.479,0.724,0.479,1.174c0,0.459-0.17,0.861-0.479,1.166c-0.329,0.318-0.742,0.493-1.177,0.493
		c-0.44,0-0.854-0.17-1.172-0.487c-0.318-0.321-0.493-0.734-0.493-1.172c0-0.435,0.175-0.861,0.498-1.185
		c0.308-0.308,0.714-0.479,1.167-0.479C365.783,140.379,366.191,140.551,366.509,140.87L366.509,140.87z M365.316,141.161
		c0.297,0,0.488,0.151,0.53,0.416h0.382c-0.037-0.416-0.393-0.702-0.885-0.702c-0.607,0-1.029,0.453-1.029,1.153
		c0,0.75,0.39,1.182,1.013,1.182c0.52,0,0.894-0.31,0.923-0.761h-0.377c-0.047,0.287-0.249,0.456-0.529,0.456
		c-0.38,0-0.612-0.308-0.612-0.861C364.731,141.474,364.963,141.161,365.316,141.161L365.316,141.161z M355.321,140.573v3.36h0.522
		v-3.36h1.203v-0.464h-2.932v0.464H355.321L355.321,140.573z M357.99,143.933v-3.26c0.021,0.116,0.048,0.228,0.085,0.334l0.96,2.926
		h0.49l0.983-2.926c0.031-0.096,0.063-0.207,0.09-0.334v3.26h0.504v-3.824h-0.742l-0.983,2.924
		c-0.034,0.098-0.062,0.198-0.088,0.314c-0.016-0.084-0.045-0.186-0.09-0.314l-0.943-2.924h-0.745v3.824H357.99L357.99,143.933z
		 M384.92,140.109v3.824h0.52v-1.73h1.786v-0.467h-1.786v-1.147h2.049v-0.479H384.92L384.92,140.109z M388.022,140.109v3.824h2.431
		v-0.484h-1.9v-3.34H388.022L388.022,140.109z M362.791,140.008l-1.28,4.418h0.317l1.291-4.418H362.791L362.791,140.008z
		 M368.908,141.307v2.626h0.485v-3.719h-0.363c-0.061,0.496-0.368,0.708-0.983,0.713v0.38H368.908L368.908,141.307z
		 M376.934,142.968h-0.49c0.059,0.645,0.549,1.071,1.248,1.071c0.787,0,1.32-0.527,1.32-1.304c0-0.734-0.496-1.223-1.254-1.223
		c-0.286,0-0.532,0.085-0.713,0.239l0.148-0.994h1.617v-0.438h-1.97l-0.292,1.959h0.427c0.176-0.223,0.414-0.342,0.703-0.342
		c0.503,0,0.816,0.317,0.816,0.824c0,0.487-0.329,0.818-0.822,0.818C377.268,143.581,376.993,143.353,376.934,142.968
		L376.934,142.968z M358.786,99.999L390.853,62.8h-47.341l20.604-24.643h-58.471l14.292-16.985h-44.52V0H115.434v21.172H70.915
		l14.292,16.985H26.736L47.339,62.8H0l32.065,37.199L0,137.198h47.339l-20.603,24.641h58.472l-14.292,16.988h44.519V200h159.983
		v-21.173h44.52l-14.292-16.988h58.471c0,0-16.068-19.217-20.604-24.641h47.341L358.786,99.999l22.297,40.11v3.824h0.493v-3.101
		c0.042,0.111,0.09,0.201,0.143,0.28l1.824,2.82h0.564v-3.824h-0.496v3.101c-0.042-0.105-0.105-0.22-0.175-0.325l-1.786-2.775
		h-0.567L358.786,99.999L358.786,99.999z"/>
	<g>
		<path fill-rule="evenodd" clip-rule="evenodd" fill="none" d="M72.642,74.802H25.731l22.619,25.16l-22.619,25.163h46.911
			l-20.643,24.418h58.429l-14.699,17.635h90.936l8.804-12.636l8.806,12.636h90.933l-14.697-17.635h58.428l-20.643-24.418h46.892
			l-22.62-25.163l22.62-25.16h-46.892l20.643-24.418h-58.428l14.697-17.635h-89.861h-1.071l-0.615,0.88l-8.19,11.753l-8.191-11.753
			l-0.612-0.88h-1.072H95.729l14.699,17.635H51.999L72.642,74.802L72.642,74.802z M132.706,65.066
			c0.074,0.308,0.108,0.575,0.117,0.893c0.004,1.275-0.618,2.643-1.288,3.7c-1.664,2.622-4.608,5.736-6.875,8.177
			c-1.775,1.954-3.259,3.618-4.999,5.604c-0.037,0.042-0.072,0.074-0.114,0.111c-0.51,0.448-1.286,0.398-1.732-0.111
			c-1.74-1.988-3.226-3.65-5-5.604c-1.506-1.596-2.748-2.968-4.183-4.625c-1.249-1.439-2.41-2.926-3.279-4.623
			c-0.539-1.055-0.858-2.351-0.612-3.52H82.324l26.178,34.954l-27.943,34.846h21.184c-0.035-0.955,0.186-1.779,0.694-2.588
			c0.351-0.614,0.67-1.118,1.076-1.698c0.823-1.186,1.539-2.169,2.412-3.316c3.032-3.909,5.585-7.215,8.599-11.138
			c0.642-0.813,1.157-1.524,1.731-2.386l2.483-4.141l2.479,4.133c0.908,1.328,1.716,2.42,2.721,3.677l6.867,8.868
			c1.393,1.776,2.51,3.321,3.757,5.206c0.248,0.385,0.441,0.719,0.652,1.124c0.376,0.694,0.593,1.455,0.513,2.259h15.429
			l-13.012,16.206h34.536c-0.572-1.161-0.55-2.407,0.066-3.547c0.688-1.381,1.377-2.494,2.305-3.727
			c1.17-1.641,2.18-3.009,3.406-4.604l12.011-15.435c0.936-1.177,1.685-2.208,2.517-3.462l2.483-4.141l2.486,4.144
			c0.658,1.004,1.252,1.829,1.994,2.775l11.503,14.774c1.215,1.577,2.227,2.918,3.409,4.521c1.103,1.453,1.961,2.73,2.892,4.3
			c0.851,1.46,1.265,2.868,0.507,4.4h34.532l-13.01-16.206h15.422c-0.034-0.955,0.186-1.776,0.694-2.585
			c0.35-0.617,0.671-1.121,1.076-1.701c0.821-1.186,1.537-2.169,2.412-3.316c3.032-3.909,5.582-7.215,8.599-11.138
			c0.642-0.813,1.155-1.524,1.73-2.386l2.484-4.141l2.48,4.133c0.906,1.328,1.713,2.42,2.72,3.677l6.865,8.866
			c1.395,1.775,2.51,3.323,3.759,5.208c0.246,0.385,0.439,0.719,0.652,1.124c0.376,0.694,0.591,1.455,0.511,2.259h21.192
			l-27.943-34.846l26.178-34.954h-22.438c0.071,0.31,0.104,0.578,0.108,0.896c-0.008,1.28-0.62,2.629-1.293,3.692
			c-1.67,2.629-4.602,5.736-6.868,8.18c-1.778,1.954-3.26,3.616-5.002,5.604c-0.037,0.042-0.071,0.074-0.113,0.111
			c-0.51,0.448-1.286,0.398-1.731-0.111c-1.741-1.988-3.229-3.65-5.002-5.604c-1.505-1.596-2.746-2.968-4.183-4.625
			c-1.248-1.439-2.409-2.926-3.278-4.623c-0.541-1.055-0.859-2.354-0.612-3.522l-20.19-0.029l11.79-15.742
			c0.133-0.156,0.249-0.284,0.393-0.429h-36.441c1.013,1.574,0.846,3.496,0.13,5.124c-0.357,0.833-0.724,1.508-1.222,2.264
			c-0.965,1.455-1.86,2.635-3,3.958c-2.206,2.561-4.122,4.676-6.457,7.12c-2.423,2.64-4.445,4.885-6.817,7.57
			c-0.032,0.04-0.064,0.071-0.106,0.108c-0.509,0.448-1.283,0.4-1.731-0.108c-2.372-2.685-4.395-4.933-6.817-7.57
			c-2.057-2.168-3.759-4.029-5.73-6.274c-1.703-1.935-3.327-3.958-4.555-6.229c-0.618-1.113-0.922-2.181-0.986-3.451
			c-0.015-0.931,0.213-1.729,0.72-2.51h-36.434c0.121,0.122,0.22,0.228,0.333,0.355l11.844,15.816L132.706,65.066L132.706,65.066z
			 M135.418,21.039l0.342,0.141c-0.067,0.143-0.067,0.342-0.067,0.599c0,0.769,3.659,2.052,7.216,2.052
			c3.419,0,4.959-0.684,4.959-1.938c0-2.111-14.091,0.228-14.091-5.273c0-2.851,3.283-4.817,8.311-4.817
			c4.685,0,8.071,1.197,8.995,1.197c0.445,0,0.684-0.199,0.924-0.427l0.376,0.113l-2.36,3.962l-0.411-0.171v-0.313
			c0-0.712-3.899-1.512-7.114-1.512c-2.976,0-4.001,0.685-4.001,1.341c0,2.537,14.16-0.571,14.16,5.985
			c0,2.452-2.223,5.161-9.644,5.161c-5.712,0-8.244-1.312-9.031-1.312c-0.273,0-0.479,0.199-0.684,0.371l-0.41-0.087L135.418,21.039
			L135.418,21.039z M173.908,12.828c0-0.256-0.102-0.456-0.958-0.513v-0.342h7.045v0.342c-0.855,0.057-0.957,0.257-0.957,0.513
			v7.639c0,5.018-4.207,6.671-9.44,6.671c-5.232,0-9.44-1.654-9.44-6.671v-7.639c0-0.256-0.102-0.456-0.957-0.513v-0.342h7.045
			v0.342c-0.854,0.057-0.958,0.257-0.958,0.513v7.639c0,2.195,1.574,3.077,4.31,3.077c2.737,0,4.31-0.882,4.31-3.077V12.828
			L173.908,12.828z M193.289,18.443h5.199c1.848,0,2.77-0.513,2.77-1.709c0-1.112-0.922-1.568-2.77-1.568h-5.199V18.443
			L193.289,18.443z M193.289,26.11c0,0.257,0.102,0.456,0.958,0.514v0.342h-7.045v-0.342c0.855-0.058,0.957-0.257,0.957-0.514
			V12.828c0-0.256-0.102-0.456-0.957-0.513v-0.342h12.244c4.31,0,6.533,2.224,6.533,4.761c0,2.538-2.224,4.73-6.533,4.73h-6.156
			V26.11L193.289,26.11z M226.481,21.493h-0.41c-0.104-0.371-0.343-0.655-1.026-0.655h-6.361v2.65h10.979
			c0.377,0,0.515-0.143,0.615-0.856h0.413v4.962h-0.413c-0.101-0.488-0.238-0.628-0.615-0.628h-17.067v-0.342
			c0.856-0.058,0.957-0.257,0.957-0.514V12.828c0-0.256-0.101-0.456-0.957-0.513v-0.342h17.067c0.377,0,0.515-0.142,0.615-0.798
			h0.413v4.959h-0.413c-0.101-0.655-0.238-0.798-0.615-0.798h-10.979v2.366h6.361c0.684,0,0.923-0.285,1.026-0.655h0.41V21.493
			L226.481,21.493z M243.615,18.3h5.747c2.014,0,2.632-0.74,2.632-1.566c0-0.826-0.618-1.568-2.632-1.568h-5.747V18.3L243.615,18.3z
			 M243.615,26.11c0,0.257,0.101,0.456,0.957,0.514v0.342h-7.045v-0.342c0.853-0.058,0.956-0.257,0.956-0.514V12.828
			c0-0.256-0.104-0.456-0.956-0.513v-0.342h12.519c5.063,0,7.215,1.482,7.215,4.733c0,2.621-2.052,4.018-4.891,4.673l4.037,4.731
			c0.308,0.371,0.615,0.514,0.991,0.514v0.342h-7.114v-0.342c0.478-0.029,0.753-0.172,0.753-0.514c0-0.254-3.626-4.188-4.071-4.787
			h-3.351V26.11L243.615,26.11z M138.795,178.561h4.652c2.941,0,3.694-0.169,3.694-1.309c0-1.143-0.753-1.313-3.694-1.313h-4.652
			V178.561L138.795,178.561z M138.795,184.891h5.814c2.394,0,3.352-0.456,3.352-1.712c0-1.254-0.958-1.71-3.352-1.71h-5.814V184.891
			L138.795,184.891z M133.664,173.774c0-0.257-0.102-0.458-0.957-0.514v-0.342h13.032c3.694,0,6.395,1.14,6.395,3.963
			c0,1.709-1.368,2.765-3.283,3.106v0.056c2.292,0.514,3.968,1.54,3.968,3.649c0,2.279-2.053,4.218-6.909,4.218h-13.203v-0.343
			c0.854-0.056,0.957-0.254,0.957-0.511V173.774L133.664,173.774z M169.034,180.417c0,2.678,2.635,4.188,5.609,4.188
			c2.977,0,5.61-1.511,5.61-4.188c0-2.682-2.634-4.193-5.61-4.193C171.668,176.223,169.034,177.735,169.034,180.417L169.034,180.417
			z M185.314,180.417c0,4.986-4.856,7.666-10.671,7.666c-5.814,0-10.67-2.68-10.67-7.666c0-4.991,4.856-7.668,10.67-7.668
			C180.458,172.749,185.314,175.425,185.314,180.417L185.314,180.417z M199.821,187.911v-0.343c0.377-0.056,0.685-0.113,0.685-0.484
			c0-0.199-5.167-12.996-5.337-13.511c-0.068-0.228-0.239-0.313-0.341-0.313v-0.342h6.258v0.342
			c-0.411,0.056-0.719,0.114-0.719,0.427s2.497,6.499,3.351,8.808h0.069c0.821-2.136,3.181-8.521,3.181-8.808
			c0-0.313-0.445-0.371-0.716-0.427v-0.342h8.14v0.342c-0.31,0.085-0.58,0.143-0.58,0.427c0,0.172,2.391,6.929,2.873,8.808h0.066
			c0.411-1.367,3.354-8.378,3.354-8.749c0-0.343-0.377-0.4-0.722-0.485v-0.342h5.747v0.342c-0.339,0.029-0.512,0.257-0.58,0.541
			c-0.104,0.484-5.371,13.027-5.371,13.369s0.377,0.371,0.687,0.397v0.343h-7.114v-0.343c0.478-0.056,0.685-0.169,0.685-0.397
			c0-0.911-2.021-6.157-3.287-9.977h-0.066c-1.129,3.306-3.626,9.463-3.626,9.977c0,0.229,0.308,0.397,0.753,0.397v0.343H199.821
			L199.821,187.911z M244.558,184.435h11.77c0.373,0,0.512-0.143,0.614-0.798h0.408v5.016h-0.408
			c-0.103-0.6-0.241-0.742-0.614-0.742h-17.854v-0.343c0.854-0.056,0.956-0.254,0.956-0.511v-13.283
			c0-0.257-0.103-0.458-0.956-0.514v-0.342h7.045v0.342c-0.856,0.056-0.96,0.257-0.96,0.514V184.435L244.558,184.435z M65.52,99.962
			l-13.851,13.759h27.307l11.006-13.759L78.976,86.205H51.669L65.52,99.962L65.52,99.962z M325.398,99.962l13.852,13.759h-27.31
			l-11.005-13.759l11.005-13.757h27.31L325.398,99.962L325.398,99.962z M153.946,67.762l-24.202,32.102l24.707,30.586l24.201-30.586
			L153.946,67.762L153.946,67.762z M236.803,67.762l-24.201,32.271l24.031,30.249l24.37-30.249L236.803,67.762L236.803,67.762z
			 M150.408,79.695l17.057,20.317l-16.449,19.589l-1.883-2.33l14.503-17.293l-15.179-17.664L150.408,79.695L150.408,79.695z
			 M240.66,79.624l-17.094,20.389l16.577,19.734l1.882-2.33l-14.813-17.438l15.379-17.831L240.66,79.624L240.66,79.624z
			 M134.621,60.377l-4.888,0.002l-17.852-21.208h69.653l3.826,5.094h-4.463c0,0-1.269-1.582-1.275-1.55
			c-0.007,0.034-60.758,0.207-60.36-0.13C119.659,42.25,134.621,60.377,134.621,60.377L134.621,60.377z M256.333,60.377l4.888,0.002
			l17.853-21.208h-69.653l-3.825,5.094h4.464c0,0,1.267-1.582,1.274-1.55c0.008,0.034,60.758,0.207,60.358-0.13
			C271.292,42.25,256.333,60.377,256.333,60.377L256.333,60.377z M186.327,50.83l0.058,0.083l9.102,12.158l9.164-12.177
			c-0.014,0.305,0-4.883,0-4.883l-9.177,11.994l-9.155-12.031L186.327,50.83L186.327,50.83z M130.353,139.531l-17.57,20.924h68.606
			l14.095-18.702l13.995,18.716h68.773l-17.712-20.938h-3.687c0,0,15.17,18.117,15.17,18.027c0-0.093-60.954-0.029-60.954-0.029
			l-15.614-20.596l-15.503,20.656h-61.007l15.139-18.059H130.353L130.353,139.531z"/>
		<path fill-rule="evenodd" clip-rule="evenodd" fill="none" d="M72.642,74.802H25.731l22.619,25.16l-22.619,25.163h46.911
			l-20.643,24.418h58.429l-14.699,17.635h90.936l8.804-12.636l8.806,12.636h90.933l-14.697-17.635h58.428l-20.643-24.418h46.892
			l-22.62-25.163l22.62-25.16h-46.892l20.643-24.418h-58.428l14.697-17.635h-89.861h-1.071l-0.615,0.88l-8.19,11.753l-8.191-11.753
			l-0.612-0.88h-1.072H95.729l14.699,17.635H51.999L72.642,74.802L72.642,74.802z M132.706,65.066
			c0.074,0.308,0.108,0.575,0.117,0.893c0.004,1.275-0.618,2.643-1.288,3.7c-1.664,2.622-4.608,5.736-6.875,8.177
			c-1.775,1.954-3.259,3.618-4.999,5.604c-0.037,0.042-0.072,0.074-0.114,0.111c-0.51,0.448-1.286,0.398-1.732-0.111
			c-1.74-1.988-3.226-3.65-5-5.604c-1.506-1.596-2.748-2.968-4.183-4.625c-1.249-1.439-2.41-2.926-3.279-4.623
			c-0.539-1.055-0.858-2.351-0.612-3.52H82.324l26.178,34.954l-27.943,34.846h21.184c-0.035-0.955,0.186-1.779,0.694-2.588
			c0.351-0.614,0.67-1.118,1.076-1.698c0.823-1.186,1.539-2.169,2.412-3.316c3.032-3.909,5.585-7.215,8.599-11.138
			c0.642-0.813,1.157-1.524,1.731-2.386l2.483-4.141l2.479,4.133c0.908,1.328,1.716,2.42,2.721,3.677l6.867,8.868
			c1.393,1.776,2.51,3.321,3.757,5.206c0.248,0.385,0.441,0.719,0.652,1.124c0.376,0.694,0.593,1.455,0.513,2.259h15.429
			l-13.012,16.206h34.536c-0.572-1.161-0.55-2.407,0.066-3.547c0.688-1.381,1.377-2.494,2.305-3.727
			c1.17-1.641,2.18-3.009,3.406-4.604l12.011-15.435c0.936-1.177,1.685-2.208,2.517-3.462l2.483-4.141l2.486,4.144
			c0.658,1.004,1.252,1.829,1.994,2.775l11.503,14.774c1.215,1.577,2.227,2.918,3.409,4.521c1.103,1.453,1.961,2.73,2.892,4.3
			c0.851,1.46,1.265,2.868,0.507,4.4h34.532l-13.01-16.206h15.422c-0.034-0.955,0.186-1.776,0.694-2.585
			c0.35-0.617,0.671-1.121,1.076-1.701c0.821-1.186,1.537-2.169,2.412-3.316c3.032-3.909,5.582-7.215,8.599-11.138
			c0.642-0.813,1.155-1.524,1.73-2.386l2.484-4.141l2.48,4.133c0.906,1.328,1.713,2.42,2.72,3.677l6.865,8.866
			c1.395,1.775,2.51,3.323,3.759,5.208c0.246,0.385,0.439,0.719,0.652,1.124c0.376,0.694,0.591,1.455,0.511,2.259h21.192
			l-27.943-34.846l26.178-34.954h-22.438c0.071,0.31,0.104,0.578,0.108,0.896c-0.008,1.28-0.62,2.629-1.293,3.692
			c-1.67,2.629-4.602,5.736-6.868,8.18c-1.778,1.954-3.26,3.616-5.002,5.604c-0.037,0.042-0.071,0.074-0.113,0.111
			c-0.51,0.448-1.286,0.398-1.731-0.111c-1.741-1.988-3.229-3.65-5.002-5.604c-1.505-1.596-2.746-2.968-4.183-4.625
			c-1.248-1.439-2.409-2.926-3.278-4.623c-0.541-1.055-0.859-2.354-0.612-3.522l-20.19-0.029l11.79-15.742
			c0.133-0.156,0.249-0.284,0.393-0.429h-36.441c1.013,1.574,0.846,3.496,0.13,5.124c-0.357,0.833-0.724,1.508-1.222,2.264
			c-0.965,1.455-1.86,2.635-3,3.958c-2.206,2.561-4.122,4.676-6.457,7.12c-2.423,2.64-4.445,4.885-6.817,7.57
			c-0.032,0.04-0.064,0.071-0.106,0.108c-0.509,0.448-1.283,0.4-1.731-0.108c-2.372-2.685-4.395-4.933-6.817-7.57
			c-2.057-2.168-3.759-4.029-5.73-6.274c-1.703-1.935-3.327-3.958-4.555-6.229c-0.618-1.113-0.922-2.181-0.986-3.451
			c-0.015-0.931,0.213-1.729,0.72-2.51h-36.434c0.121,0.122,0.22,0.228,0.333,0.355l11.844,15.816L132.706,65.066L132.706,65.066z
			 M135.418,21.039l0.342,0.141c-0.067,0.143-0.067,0.342-0.067,0.599c0,0.769,3.659,2.052,7.216,2.052
			c3.419,0,4.959-0.684,4.959-1.938c0-2.111-14.091,0.228-14.091-5.273c0-2.851,3.283-4.817,8.311-4.817
			c4.685,0,8.071,1.197,8.995,1.197c0.445,0,0.684-0.199,0.924-0.427l0.376,0.113l-2.36,3.962l-0.411-0.171v-0.313
			c0-0.712-3.899-1.512-7.114-1.512c-2.976,0-4.001,0.685-4.001,1.341c0,2.537,14.16-0.571,14.16,5.985
			c0,2.452-2.223,5.161-9.644,5.161c-5.712,0-8.244-1.312-9.031-1.312c-0.273,0-0.479,0.199-0.684,0.371l-0.41-0.087L135.418,21.039
			L135.418,21.039z M173.908,12.828c0-0.256-0.102-0.456-0.958-0.513v-0.342h7.045v0.342c-0.855,0.057-0.957,0.257-0.957,0.513
			v7.639c0,5.018-4.207,6.671-9.44,6.671c-5.232,0-9.44-1.654-9.44-6.671v-7.639c0-0.256-0.102-0.456-0.957-0.513v-0.342h7.045
			v0.342c-0.854,0.057-0.958,0.257-0.958,0.513v7.639c0,2.195,1.574,3.077,4.31,3.077c2.737,0,4.31-0.882,4.31-3.077V12.828
			L173.908,12.828z M193.289,18.443h5.199c1.848,0,2.77-0.513,2.77-1.709c0-1.112-0.922-1.568-2.77-1.568h-5.199V18.443
			L193.289,18.443z M193.289,26.11c0,0.257,0.102,0.456,0.958,0.514v0.342h-7.045v-0.342c0.855-0.058,0.957-0.257,0.957-0.514
			V12.828c0-0.256-0.102-0.456-0.957-0.513v-0.342h12.244c4.31,0,6.533,2.224,6.533,4.761c0,2.538-2.224,4.73-6.533,4.73h-6.156
			V26.11L193.289,26.11z M226.481,21.493h-0.41c-0.104-0.371-0.343-0.655-1.026-0.655h-6.361v2.65h10.979
			c0.377,0,0.515-0.143,0.615-0.856h0.413v4.962h-0.413c-0.101-0.488-0.238-0.628-0.615-0.628h-17.067v-0.342
			c0.856-0.058,0.957-0.257,0.957-0.514V12.828c0-0.256-0.101-0.456-0.957-0.513v-0.342h17.067c0.377,0,0.515-0.142,0.615-0.798
			h0.413v4.959h-0.413c-0.101-0.655-0.238-0.798-0.615-0.798h-10.979v2.366h6.361c0.684,0,0.923-0.285,1.026-0.655h0.41V21.493
			L226.481,21.493z M243.615,18.3h5.747c2.014,0,2.632-0.74,2.632-1.566c0-0.826-0.618-1.568-2.632-1.568h-5.747V18.3L243.615,18.3z
			 M243.615,26.11c0,0.257,0.101,0.456,0.957,0.514v0.342h-7.045v-0.342c0.853-0.058,0.956-0.257,0.956-0.514V12.828
			c0-0.256-0.104-0.456-0.956-0.513v-0.342h12.519c5.063,0,7.215,1.482,7.215,4.733c0,2.621-2.052,4.018-4.891,4.673l4.037,4.731
			c0.308,0.371,0.615,0.514,0.991,0.514v0.342h-7.114v-0.342c0.478-0.029,0.753-0.172,0.753-0.514c0-0.254-3.626-4.188-4.071-4.787
			h-3.351V26.11L243.615,26.11z M138.795,178.561h4.652c2.941,0,3.694-0.169,3.694-1.309c0-1.143-0.753-1.313-3.694-1.313h-4.652
			V178.561L138.795,178.561z M138.795,184.891h5.814c2.394,0,3.352-0.456,3.352-1.712c0-1.254-0.958-1.71-3.352-1.71h-5.814V184.891
			L138.795,184.891z M133.664,173.774c0-0.257-0.102-0.458-0.957-0.514v-0.342h13.032c3.694,0,6.395,1.14,6.395,3.963
			c0,1.709-1.368,2.765-3.283,3.106v0.056c2.292,0.514,3.968,1.54,3.968,3.649c0,2.279-2.053,4.218-6.909,4.218h-13.203v-0.343
			c0.854-0.056,0.957-0.254,0.957-0.511V173.774L133.664,173.774z M169.034,180.417c0,2.678,2.635,4.188,5.609,4.188
			c2.977,0,5.61-1.511,5.61-4.188c0-2.682-2.634-4.193-5.61-4.193C171.668,176.223,169.034,177.735,169.034,180.417L169.034,180.417
			z M185.314,180.417c0,4.986-4.856,7.666-10.671,7.666c-5.814,0-10.67-2.68-10.67-7.666c0-4.991,4.856-7.668,10.67-7.668
			C180.458,172.749,185.314,175.425,185.314,180.417L185.314,180.417z M199.821,187.911v-0.343c0.377-0.056,0.685-0.113,0.685-0.484
			c0-0.199-5.167-12.996-5.337-13.511c-0.068-0.228-0.239-0.313-0.341-0.313v-0.342h6.258v0.342
			c-0.411,0.056-0.719,0.114-0.719,0.427s2.497,6.499,3.351,8.808h0.069c0.821-2.136,3.181-8.521,3.181-8.808
			c0-0.313-0.445-0.371-0.716-0.427v-0.342h8.14v0.342c-0.31,0.085-0.58,0.143-0.58,0.427c0,0.172,2.391,6.929,2.873,8.808h0.066
			c0.411-1.367,3.354-8.378,3.354-8.749c0-0.343-0.377-0.4-0.722-0.485v-0.342h5.747v0.342c-0.339,0.029-0.512,0.257-0.58,0.541
			c-0.104,0.484-5.371,13.027-5.371,13.369s0.377,0.371,0.687,0.397v0.343h-7.114v-0.343c0.478-0.056,0.685-0.169,0.685-0.397
			c0-0.911-2.021-6.157-3.287-9.977h-0.066c-1.129,3.306-3.626,9.463-3.626,9.977c0,0.229,0.308,0.397,0.753,0.397v0.343H199.821
			L199.821,187.911z M244.558,184.435h11.77c0.373,0,0.512-0.143,0.614-0.798h0.408v5.016h-0.408
			c-0.103-0.6-0.241-0.742-0.614-0.742h-17.854v-0.343c0.854-0.056,0.956-0.254,0.956-0.511v-13.283
			c0-0.257-0.103-0.458-0.956-0.514v-0.342h7.045v0.342c-0.856,0.056-0.96,0.257-0.96,0.514V184.435L244.558,184.435z M65.52,99.962
			l-13.851,13.759h27.307l11.006-13.759L78.976,86.205H51.669L65.52,99.962L65.52,99.962z M325.398,99.962l13.852,13.759h-27.31
			l-11.005-13.759l11.005-13.757h27.31L325.398,99.962L325.398,99.962z M153.946,67.762l-24.202,32.102l24.707,30.586l24.201-30.586
			L153.946,67.762L153.946,67.762z M236.803,67.762l-24.201,32.271l24.031,30.249l24.37-30.249L236.803,67.762L236.803,67.762z
			 M150.408,79.695l17.057,20.317l-16.449,19.589l-1.883-2.33l14.503-17.293l-15.179-17.664L150.408,79.695L150.408,79.695z
			 M240.66,79.624l-17.094,20.389l16.577,19.734l1.882-2.33l-14.813-17.438l15.379-17.831L240.66,79.624L240.66,79.624z
			 M134.621,60.377l-4.888,0.002l-17.852-21.208h69.653l3.826,5.094h-4.463c0,0-1.269-1.582-1.275-1.55
			c-0.007,0.034-60.758,0.207-60.36-0.13C119.659,42.25,134.621,60.377,134.621,60.377L134.621,60.377z M256.333,60.377l4.888,0.002
			l17.853-21.208h-69.653l-3.825,5.094h4.464c0,0,1.267-1.582,1.274-1.55c0.008,0.034,60.758,0.207,60.358-0.13
			C271.292,42.25,256.333,60.377,256.333,60.377L256.333,60.377z M186.327,50.83l0.058,0.083l9.102,12.158l9.164-12.177
			c-0.014,0.305,0-4.883,0-4.883l-9.177,11.994l-9.155-12.031L186.327,50.83L186.327,50.83z M130.353,139.531l-17.57,20.924h68.606
			l14.095-18.702l13.995,18.716h68.773l-17.712-20.938h-3.687c0,0,15.17,18.117,15.17,18.027c0-0.093-60.954-0.029-60.954-0.029
			l-15.614-20.596l-15.503,20.656h-61.007l15.139-18.059H130.353L130.353,139.531z"/>
	</g>
	<path fill-rule="evenodd" clip-rule="evenodd" fill="#190F28" d="M72.642,74.802H25.731l22.619,25.16l-22.619,25.163h46.911
		l-20.643,24.418h58.429l-14.699,17.635h90.936l8.804-12.636l8.806,12.636h90.933l-14.697-17.635h58.428l-20.643-24.418h46.892
		l-22.62-25.163l22.62-25.16h-46.892l20.643-24.418h-58.428l14.697-17.635h-89.861h-1.071l-0.615,0.88l-8.19,11.753l-8.191-11.753
		l-0.612-0.88h-1.072H95.729l14.699,17.635H51.999L72.642,74.802L72.642,74.802z M132.706,65.066l20.216-0.029l-11.844-15.816
		c-0.113-0.127-0.212-0.233-0.333-0.355h36.434c-0.506,0.782-0.734,1.58-0.72,2.51c0.064,1.27,0.369,2.338,0.986,3.451
		c1.229,2.272,2.852,4.294,4.555,6.229c1.972,2.245,3.674,4.105,5.73,6.274c2.423,2.637,4.445,4.885,6.817,7.57
		c0.448,0.509,1.222,0.557,1.731,0.108c0.042-0.037,0.074-0.069,0.106-0.108c2.372-2.685,4.395-4.93,6.817-7.57
		c2.335-2.444,4.251-4.559,6.457-7.12c1.14-1.323,2.035-2.502,3-3.958c0.498-0.755,0.864-1.431,1.222-2.264
		c0.716-1.627,0.883-3.549-0.13-5.124h36.441c-0.144,0.146-0.26,0.273-0.393,0.429l-11.79,15.742l20.19,0.029
		c-0.247,1.169,0.071,2.468,0.612,3.522c0.869,1.697,2.03,3.184,3.278,4.623c1.437,1.657,2.678,3.029,4.183,4.625
		c1.773,1.954,3.261,3.616,5.002,5.604c0.445,0.509,1.222,0.56,1.731,0.111c0.042-0.037,0.076-0.069,0.113-0.111
		c1.742-1.988,3.224-3.65,5.002-5.604c2.267-2.444,5.198-5.55,6.868-8.18c0.673-1.063,1.285-2.412,1.293-3.692
		c-0.005-0.318-0.037-0.586-0.108-0.896h22.438l-26.178,34.954l27.943,34.846h-21.192c0.08-0.804-0.135-1.564-0.511-2.259
		c-0.213-0.405-0.406-0.739-0.652-1.124c-1.249-1.885-2.364-3.433-3.759-5.208l-6.865-8.866c-1.007-1.257-1.813-2.349-2.72-3.677
		l-2.48-4.133l-2.484,4.141c-0.575,0.861-1.089,1.572-1.73,2.386c-3.017,3.923-5.566,7.229-8.599,11.138
		c-0.875,1.147-1.591,2.131-2.412,3.316c-0.405,0.58-0.727,1.084-1.076,1.701c-0.509,0.809-0.729,1.63-0.694,2.585h-15.422
		l13.01,16.206h-34.532c0.758-1.532,0.344-2.94-0.507-4.4c-0.931-1.569-1.789-2.847-2.892-4.3c-1.183-1.604-2.194-2.944-3.409-4.521
		l-11.503-14.774c-0.742-0.946-1.336-1.771-1.994-2.775l-2.486-4.144l-2.483,4.141c-0.832,1.254-1.581,2.285-2.517,3.462
		l-12.011,15.435c-1.226,1.596-2.236,2.964-3.406,4.604c-0.928,1.232-1.617,2.346-2.305,3.727c-0.616,1.14-0.639,2.386-0.066,3.547
		h-34.536l13.012-16.206h-15.429c0.08-0.804-0.137-1.564-0.513-2.259c-0.21-0.405-0.404-0.739-0.652-1.124
		c-1.247-1.885-2.364-3.43-3.757-5.206l-6.867-8.868c-1.004-1.257-1.813-2.349-2.721-3.677l-2.479-4.133l-2.483,4.141
		c-0.574,0.861-1.089,1.572-1.731,2.386c-3.014,3.923-5.566,7.229-8.599,11.138c-0.874,1.147-1.589,2.131-2.412,3.316
		c-0.406,0.58-0.725,1.084-1.076,1.698c-0.509,0.809-0.729,1.633-0.694,2.588H80.558l27.943-34.846L82.324,65.069h22.416
		c-0.246,1.169,0.073,2.465,0.612,3.52c0.87,1.697,2.031,3.184,3.279,4.623c1.435,1.657,2.677,3.029,4.183,4.625
		c1.774,1.954,3.26,3.616,5,5.604c0.446,0.509,1.222,0.56,1.732,0.111c0.042-0.037,0.077-0.069,0.114-0.111
		c1.74-1.985,3.224-3.65,4.999-5.604c2.266-2.441,5.211-5.556,6.875-8.177c0.67-1.058,1.292-2.425,1.288-3.7
		C132.814,65.642,132.78,65.374,132.706,65.066L132.706,65.066z M153.946,67.762l-24.202,32.102l24.707,30.586l24.201-30.586
		L153.946,67.762L153.946,67.762z M150.408,79.695l17.057,20.317l-16.449,19.589l-1.883-2.33l14.503-17.293l-15.179-17.664
		L150.408,79.695L150.408,79.695z M236.803,67.762l-24.201,32.271l24.031,30.249l24.37-30.249L236.803,67.762L236.803,67.762z
		 M240.66,79.624l1.932,2.523l-15.379,17.831l14.813,17.438l-1.882,2.33l-16.577-19.734L240.66,79.624L240.66,79.624z M65.52,99.962
		L51.669,86.205h27.307l11.006,13.757l-11.006,13.759H51.669L65.52,99.962L65.52,99.962z M325.398,99.962l13.852,13.759h-27.31
		l-11.005-13.759l11.005-13.757h27.31L325.398,99.962L325.398,99.962z M134.621,60.377l-4.888,0.002l-17.852-21.208h69.653
		l3.826,5.094h-4.463c0,0-1.269-1.582-1.275-1.55c-0.007,0.034-60.758,0.207-60.36-0.13
		C119.659,42.25,134.621,60.377,134.621,60.377L134.621,60.377z M256.333,60.377c0,0,14.96-18.128,15.358-17.791
		c0.399,0.336-60.351,0.164-60.358,0.13c-0.008-0.032-1.274,1.55-1.274,1.55h-4.464l3.825-5.094h69.653L261.22,60.38L256.333,60.377
		L256.333,60.377z M186.327,50.83l-0.008-4.856l9.155,12.031l9.177-11.994c0,0-0.014,5.188,0,4.883l-9.164,12.177l-9.102-12.158
		L186.327,50.83L186.327,50.83z M130.353,139.531h3.732l-15.139,18.059h61.007l15.503-20.656l15.614,20.596
		c0,0,60.954-0.063,60.954,0.029c0,0.09-15.17-18.027-15.17-18.027h3.687l17.712,20.938H209.48l-13.995-18.716l-14.095,18.702
		h-68.606L130.353,139.531L130.353,139.531z M185.314,180.417c0-4.991-4.856-7.668-10.671-7.668c-5.814,0-10.67,2.677-10.67,7.668
		c0,4.986,4.856,7.666,10.67,7.666C180.458,188.083,185.314,185.403,185.314,180.417L185.314,180.417z M169.034,180.417
		c0-2.682,2.635-4.193,5.609-4.193c2.977,0,5.61,1.512,5.61,4.193c0,2.678-2.634,4.188-5.61,4.188
		C171.668,184.605,169.034,183.094,169.034,180.417L169.034,180.417z M133.664,173.774v13.283c0,0.257-0.102,0.455-0.957,0.511
		v0.343h13.203c4.856,0,6.909-1.938,6.909-4.218c0-2.109-1.677-3.136-3.968-3.649v-0.056c1.915-0.342,3.283-1.397,3.283-3.106
		c0-2.823-2.701-3.963-6.395-3.963h-13.032v0.342C133.562,173.316,133.664,173.517,133.664,173.774L133.664,173.774z
		 M138.795,178.561v-2.621h4.652c2.941,0,3.694,0.17,3.694,1.313c0,1.14-0.753,1.309-3.694,1.309H138.795L138.795,178.561z
		 M138.795,184.891v-3.422h5.814c2.394,0,3.352,0.456,3.352,1.71c0,1.256-0.958,1.712-3.352,1.712H138.795L138.795,184.891z
		 M243.615,26.11v-4.787h3.351c0.445,0.599,4.071,4.533,4.071,4.787c0,0.342-0.275,0.485-0.753,0.514v0.342h7.114v-0.342
		c-0.376,0-0.684-0.143-0.991-0.514l-4.037-4.731c2.839-0.655,4.891-2.052,4.891-4.673c0-3.251-2.152-4.733-7.215-4.733h-12.519
		v0.342c0.853,0.057,0.956,0.257,0.956,0.513V26.11c0,0.257-0.104,0.456-0.956,0.514v0.342h7.045v-0.342
		C243.715,26.566,243.615,26.367,243.615,26.11L243.615,26.11z M243.615,18.3v-3.134h5.747c2.014,0,2.632,0.742,2.632,1.568
		c0,0.827-0.618,1.566-2.632,1.566H243.615L243.615,18.3z M193.289,26.11v-4.646h6.156c4.31,0,6.533-2.192,6.533-4.73
		c0-2.537-2.224-4.761-6.533-4.761h-12.244v0.342c0.855,0.057,0.957,0.257,0.957,0.513V26.11c0,0.257-0.102,0.456-0.957,0.514v0.342
		h7.045v-0.342C193.391,26.566,193.289,26.367,193.289,26.11L193.289,26.11z M193.289,18.443v-3.277h5.199
		c1.848,0,2.77,0.456,2.77,1.568c0,1.197-0.922,1.709-2.77,1.709H193.289L193.289,18.443z M135.418,21.039l-2.53,5.071l0.41,0.087
		c0.206-0.172,0.411-0.371,0.684-0.371c0.787,0,3.318,1.312,9.031,1.312c7.421,0,9.644-2.709,9.644-5.161
		c0-6.556-14.16-3.448-14.16-5.985c0-0.656,1.026-1.341,4.001-1.341c3.215,0,7.114,0.8,7.114,1.512v0.313l0.411,0.171l2.36-3.962
		l-0.376-0.113c-0.24,0.228-0.479,0.427-0.924,0.427c-0.923,0-4.31-1.197-8.995-1.197c-5.028,0-8.311,1.967-8.311,4.817
		c0,5.501,14.091,3.163,14.091,5.273c0,1.254-1.54,1.938-4.959,1.938c-3.557,0-7.216-1.283-7.216-2.052c0-0.257,0-0.456,0.067-0.599
		L135.418,21.039L135.418,21.039z M173.908,12.828v7.639c0,2.195-1.573,3.077-4.31,3.077c-2.736,0-4.31-0.882-4.31-3.077v-7.639
		c0-0.256,0.104-0.456,0.958-0.513v-0.342h-7.045v0.342c0.855,0.057,0.957,0.257,0.957,0.513v7.639c0,5.018,4.208,6.671,9.44,6.671
		c5.233,0,9.44-1.654,9.44-6.671v-7.639c0-0.256,0.102-0.456,0.957-0.513v-0.342h-7.045v0.342
		C173.806,12.372,173.908,12.572,173.908,12.828L173.908,12.828z M226.481,21.493v-4.445h-0.41c-0.104,0.37-0.343,0.655-1.026,0.655
		h-6.361v-2.366h10.979c0.377,0,0.515,0.143,0.615,0.798h0.413v-4.959h-0.413c-0.101,0.656-0.238,0.798-0.615,0.798h-17.067v0.342
		c0.856,0.057,0.957,0.257,0.957,0.513V26.11c0,0.257-0.101,0.456-0.957,0.514v0.342h17.067c0.377,0,0.515,0.14,0.615,0.628h0.413
		v-4.962h-0.413c-0.101,0.713-0.238,0.856-0.615,0.856h-10.979v-2.65h6.361c0.684,0,0.923,0.284,1.026,0.655H226.481L226.481,21.493
		z M199.821,187.911h7.388v-0.343c-0.445,0-0.753-0.169-0.753-0.397c0-0.514,2.497-6.671,3.626-9.977h0.066
		c1.267,3.819,3.287,9.065,3.287,9.977c0,0.229-0.207,0.342-0.685,0.397v0.343h7.114v-0.343c-0.31-0.026-0.687-0.056-0.687-0.397
		s5.268-12.885,5.371-13.369c0.068-0.284,0.241-0.512,0.58-0.541v-0.342h-5.747v0.342c0.345,0.085,0.722,0.143,0.722,0.485
		c0,0.371-2.942,7.382-3.354,8.749h-0.066c-0.482-1.879-2.873-8.636-2.873-8.808c0-0.284,0.271-0.342,0.58-0.427v-0.342h-8.14v0.342
		c0.271,0.056,0.716,0.114,0.716,0.427c0,0.286-2.359,6.672-3.181,8.808h-0.069c-0.854-2.309-3.351-8.495-3.351-8.808
		s0.308-0.371,0.719-0.427v-0.342h-6.258v0.342c0.102,0,0.273,0.085,0.341,0.313c0.171,0.515,5.337,13.312,5.337,13.511
		c0,0.371-0.308,0.429-0.685,0.484V187.911l44.737-3.476v-10.661c0-0.257,0.104-0.458,0.96-0.514v-0.342h-7.045v0.342
		c0.854,0.056,0.956,0.257,0.956,0.514v13.283c0,0.257-0.103,0.455-0.956,0.511v0.343h17.854c0.373,0,0.512,0.143,0.614,0.742h0.408
		v-5.016h-0.408c-0.103,0.655-0.241,0.798-0.614,0.798h-11.77L199.821,187.911L199.821,187.911z"/>
	<g>
		<path fill-rule="evenodd" clip-rule="evenodd" fill="none" d="M76.941,74.665h6.821l-5.845-7.806
			c-0.815-1.196-4.694-0.955-4.694-0.955V60.47h39.98v5.434c0,0-2.851-0.159-3.904,0.287c0.504,2.009,9.438,11.292,9.438,11.292
			s6.032-6.306,8.462-9.643l-1.642-1.945c-0.722-0.014-1.287,0.01-1.287,0.01v-1.54l-8.938-10.608H59.264L76.941,74.665
			L76.941,74.665z M82.341,125.262h-5.399l-17.677,20.905h56.111l13.018-15.447c-1.777-2.386-4.04-5.288-5.694-7.409
			c-1.702-2.181-3.02-3.878-3.962-5.131c-0.94,1.253-2.26,2.95-3.961,5.131c-2.564,3.29-6.595,8.459-8.008,10.675
			c0.37,0.026,2.829,0.045,2.829,0.045v5.434H72.708v-5.434c0,0,2.152,0.119,2.776-0.229L82.341,125.262L82.341,125.262z
			 M313.995,125.262h-5.399l6.857,8.54c0.384,0.406,2.777,0.229,2.777,0.229v5.434h-36.889v-5.434c0,0,2.55-0.019,2.828-0.045
			c-1.41-2.216-5.444-7.385-8.01-10.675c-1.702-2.181-3.02-3.878-3.96-5.131c-0.941,1.253-2.262,2.95-3.963,5.131
			c-1.651,2.121-3.915,5.023-5.691,7.409l13.015,15.447h56.114L313.995,125.262L313.995,125.262z M307.172,74.665h6.822
			l17.68-20.909h-56.071l-8.938,10.608v1.54c0,0-0.554-0.032-1.274-0.026l-1.678,1.991c1.437,2.009,4.113,4.885,5.932,6.836
			c0.896,0.965,1.755,1.89,2.556,2.778c0.8-0.888,1.659-1.816,2.555-2.778c2.438-2.616,6.423-6.895,6.881-8.514
			c-0.843-0.445-3.901-0.287-3.901-0.287V60.47h39.979v5.434c0,0-3.835-0.199-4.694,0.955L307.172,74.665L307.172,74.665z
			 M348.59,154.549h-58.536l14.295,16.988H268.16v21.168H122.69v-21.168H86.502l14.293-16.988H42.26l20.604-24.646h-47.03
			l25.811-29.942L15.833,70.021h47.03L42.26,45.377h58.536L86.502,28.39h36.188V7.219h145.47V28.39h36.189l-14.295,16.988h58.536
			l-20.603,24.643h47.03l-25.813,29.941l25.813,29.942h-47.03L348.59,154.549L348.59,154.549z M353.659,99.962l28.717-33.313H335.2
			l20.606-24.643h-58.508l14.295-16.988h-40.062V3.847H119.318v21.171H79.259l14.293,16.988H35.047L55.65,66.649H8.476
			l28.718,33.313L8.476,133.278H55.65L35.047,157.92h58.506l-14.293,16.988h40.059v21.168h152.213v-21.168h40.062l-14.295-16.988
			h58.508L335.2,133.278h47.176L353.659,99.962L353.659,99.962z M78.386,87.433H54.646l12.616,12.529l-12.616,12.533h23.741
			l10.024-12.533L78.386,87.433L78.386,87.433z M81.797,116.311H45.82l15.121-16.349L45.82,83.616h35.977l12.978,16.346
			L81.797,116.311L81.797,116.311z M312.532,87.433h23.739l-12.614,12.529l12.614,12.533h-23.739l-10.025-12.533L312.532,87.433
			L312.532,87.433z M309.118,116.311h35.979l-15.124-16.349l15.124-16.346h-35.979L296.14,99.962L309.118,116.311L309.118,116.311z
			 M144.343,111.792l9.944-11.803l-10.355-12.291l-9.139,12.228L144.343,111.792L144.343,111.792z M247.005,87.697l-10.356,12.291
			l9.95,11.809l9.545-11.873L247.005,87.697L247.005,87.697z"/>
		<path fill-rule="evenodd" clip-rule="evenodd" fill="none" d="M76.941,74.665h6.821l-5.845-7.806
			c-0.815-1.196-4.694-0.955-4.694-0.955V60.47h39.98v5.434c0,0-2.851-0.159-3.904,0.287c0.504,2.009,9.438,11.292,9.438,11.292
			s6.032-6.306,8.462-9.643l-1.642-1.945c-0.722-0.014-1.287,0.01-1.287,0.01v-1.54l-8.938-10.608H59.264L76.941,74.665
			L76.941,74.665z M82.341,125.262h-5.399l-17.677,20.905h56.111l13.018-15.447c-1.777-2.386-4.04-5.288-5.694-7.409
			c-1.702-2.181-3.02-3.878-3.962-5.131c-0.94,1.253-2.26,2.95-3.961,5.131c-2.564,3.29-6.595,8.459-8.008,10.675
			c0.37,0.026,2.829,0.045,2.829,0.045v5.434H72.708v-5.434c0,0,2.152,0.119,2.776-0.229L82.341,125.262L82.341,125.262z
			 M313.995,125.262h-5.399l6.857,8.54c0.384,0.406,2.777,0.229,2.777,0.229v5.434h-36.889v-5.434c0,0,2.55-0.019,2.828-0.045
			c-1.41-2.216-5.444-7.385-8.01-10.675c-1.702-2.181-3.02-3.878-3.96-5.131c-0.941,1.253-2.262,2.95-3.963,5.131
			c-1.651,2.121-3.915,5.023-5.691,7.409l13.015,15.447h56.114L313.995,125.262L313.995,125.262z M307.172,74.665h6.822
			l17.68-20.909h-56.071l-8.938,10.608v1.54c0,0-0.554-0.032-1.274-0.026l-1.678,1.991c1.437,2.009,4.113,4.885,5.932,6.836
			c0.896,0.965,1.755,1.89,2.556,2.778c0.8-0.888,1.659-1.816,2.555-2.778c2.438-2.616,6.423-6.895,6.881-8.514
			c-0.843-0.445-3.901-0.287-3.901-0.287V60.47h39.979v5.434c0,0-3.835-0.199-4.694,0.955L307.172,74.665L307.172,74.665z
			 M348.59,154.549h-58.536l14.295,16.988H268.16v21.168H122.69v-21.168H86.502l14.293-16.988H42.26l20.604-24.646h-47.03
			l25.811-29.942L15.833,70.021h47.03L42.26,45.377h58.536L86.502,28.39h36.188V7.219h145.47V28.39h36.189l-14.295,16.988h58.536
			l-20.603,24.643h47.03l-25.813,29.941l25.813,29.942h-47.03L348.59,154.549L348.59,154.549z M353.659,99.962l28.717-33.313H335.2
			l20.606-24.643h-58.508l14.295-16.988h-40.062V3.847H119.318v21.171H79.259l14.293,16.988H35.047L55.65,66.649H8.476
			l28.718,33.313L8.476,133.278H55.65L35.047,157.92h58.506l-14.293,16.988h40.059v21.168h152.213v-21.168h40.062l-14.295-16.988
			h58.508L335.2,133.278h47.176L353.659,99.962L353.659,99.962z M78.386,87.433H54.646l12.616,12.529l-12.616,12.533h23.741
			l10.024-12.533L78.386,87.433L78.386,87.433z M81.797,116.311H45.82l15.121-16.349L45.82,83.616h35.977l12.978,16.346
			L81.797,116.311L81.797,116.311z M312.532,87.433h23.739l-12.614,12.529l12.614,12.533h-23.739l-10.025-12.533L312.532,87.433
			L312.532,87.433z M309.118,116.311h35.979l-15.124-16.349l15.124-16.346h-35.979L296.14,99.962L309.118,116.311L309.118,116.311z
			 M144.343,111.792l9.944-11.803l-10.355-12.291l-9.139,12.228L144.343,111.792L144.343,111.792z M247.005,87.697l-10.356,12.291
			l9.95,11.809l9.545-11.873L247.005,87.697L247.005,87.697z"/>
	</g>
	<path fill-rule="evenodd" clip-rule="evenodd" fill="#821C18" d="M353.659,99.962l28.717-33.313H335.2l20.606-24.643h-58.508
		l14.295-16.988h-40.062V3.847H119.318v21.171H79.259l14.293,16.988H35.047L55.65,66.649H8.476l28.718,33.313L8.476,133.278H55.65
		L35.047,157.92h58.506l-14.293,16.988h40.059v21.168h152.213v-21.168h40.062l-14.295-16.988h58.508L335.2,133.278h47.176
		L353.659,99.962L353.659,99.962z M348.59,154.549h-58.536l14.295,16.988H268.16v21.168H122.69v-21.168H86.502l14.293-16.988H42.26
		l20.604-24.646h-47.03l25.811-29.942L15.833,70.021h47.03L42.26,45.377h58.536L86.502,28.39h36.188V7.219h145.47V28.39h36.189
		l-14.295,16.988h58.536l-20.603,24.643h47.03l-25.813,29.941l25.813,29.942h-47.03L348.59,154.549L348.59,154.549z M76.941,74.665
		h6.821l-5.845-7.806c-0.815-1.196-4.694-0.955-4.694-0.955V60.47h39.98v5.434c0,0-2.851-0.159-3.904,0.287
		c0.504,2.009,9.438,11.292,9.438,11.292s6.032-6.306,8.462-9.643l-1.642-1.945c-0.722-0.014-1.287,0.01-1.287,0.01v-1.54
		l-8.938-10.608H59.264L76.941,74.665L76.941,74.665z M82.341,125.262h-5.399l-17.677,20.905h56.111l13.018-15.447
		c-1.777-2.386-4.04-5.288-5.694-7.409c-1.702-2.181-3.02-3.878-3.962-5.131c-0.94,1.253-2.26,2.95-3.961,5.131
		c-2.564,3.29-6.595,8.459-8.008,10.675c0.37,0.026,2.829,0.045,2.829,0.045v5.434H72.708v-5.434c0,0,2.152,0.119,2.776-0.229
		L82.341,125.262L82.341,125.262z M313.995,125.262h-5.399l6.857,8.54c0.384,0.406,2.777,0.229,2.777,0.229v5.434h-36.889v-5.434
		c0,0,2.55-0.019,2.828-0.045c-1.41-2.216-5.444-7.385-8.01-10.675c-1.702-2.181-3.02-3.878-3.96-5.131
		c-0.941,1.253-2.262,2.95-3.963,5.131c-1.651,2.121-3.915,5.023-5.691,7.409l13.015,15.447h56.114L313.995,125.262L313.995,125.262
		z M307.172,74.665h6.822l17.68-20.909h-56.071l-8.938,10.608v1.54c0,0-0.554-0.032-1.274-0.026l-1.678,1.991
		c1.437,2.009,4.113,4.885,5.932,6.836c0.896,0.965,1.755,1.89,2.556,2.778c0.8-0.888,1.659-1.816,2.555-2.778
		c2.438-2.616,6.423-6.895,6.881-8.514c-0.843-0.445-3.901-0.287-3.901-0.287V60.47h39.979v5.434c0,0-3.835-0.199-4.694,0.955
		L307.172,74.665L307.172,74.665z M81.797,116.311l12.978-16.349L81.797,83.616H45.82l15.121,16.346L45.82,116.311H81.797
		L81.797,116.311z M78.386,87.433l10.024,12.529l-10.024,12.533H54.646l12.616-12.533L54.646,87.433H78.386L78.386,87.433z
		 M309.118,116.311h35.979l-15.124-16.349l15.124-16.346h-35.979L296.14,99.962L309.118,116.311L309.118,116.311z M312.532,87.433
		h23.739l-12.614,12.529l12.614,12.533h-23.739l-10.025-12.533L312.532,87.433L312.532,87.433z M144.343,111.792l9.944-11.803
		l-10.355-12.291l-9.139,12.228L144.343,111.792l102.662-24.094l-10.356,12.291l9.95,11.809l9.545-11.873l-9.139-12.228
		L144.343,111.792L144.343,111.792z"/>
	<g>
		<path fill-rule="evenodd" clip-rule="evenodd" fill="none" d="M85.099,121.752l17.447-21.753L86.42,78.174H33.294l19.59,21.788
			l-19.59,21.791H85.099L85.099,121.752z M82.577,82.004l14.258,17.958l-14.258,17.96H42.132l16.613-17.96L42.132,82.004H82.577
			L82.577,82.004z M77.188,110.002l8.03-10.041l-8.03-10.035H60.69l10.107,10.035L60.69,110.002H77.188L77.188,110.002z
			 M305.685,121.752h51.937l-19.588-21.791l19.588-21.788H304.63l-16.395,21.825L305.685,121.752L305.685,121.752z M308.338,82.004
			h40.446l-16.612,17.958l16.612,17.96h-40.446l-14.255-17.96L308.338,82.004L308.338,82.004z M313.73,110.002h16.497
			l-10.106-10.041l10.106-10.035H313.73l-8.032,10.035L313.73,110.002L313.73,110.002z M186.287,50.517v0.069
			c0,0-3.975-0.196-5.229,0.763v0.005c0,2.147,6.034,8.575,10.027,12.829c1.557,1.657,3.048,3.247,4.382,4.742
			c1.336-1.495,2.826-3.085,4.385-4.742c3.991-4.254,10.024-10.682,10.024-12.829v-0.005c-1.081-0.917-5.227-0.763-5.227-0.763
			v-0.069l-8.175,10.846l-1.008,1.336l-1.007-1.336L186.287,50.517L186.287,50.517z M266.834,60.38l19.609-23.524h-80.028
			l-9.261,13.291l-1.687,2.417l-1.683-2.417l-9.264-13.291h-80.028l19.609,23.524h6.438l-17.42-20.678h67.545h0.63l0.377,0.504
			l3.06,4.061h1.554v2.063l9.181,12.182l9.183-12.182v-2.063h1.553l3.059-4.061l0.38-0.504h0.628h67.543l-17.42,20.678H266.834
			L266.834,60.38z M257.099,60.38l15.297-18.154h-61.495l-1.54,2.041h50.54v6.319c0,0-4.824-0.49-6.534,1.614l-6.126,8.18H257.099
			L257.099,60.38z M124.116,139.531l-19.623,23.54h80.028l10.947-15.707l10.947,15.707h80.028l-19.623-23.54h-6.48l17.473,20.741
			h-68.171l-14.174-18.807l-14.172,18.807h-68.175l17.477-20.741H124.116L124.116,139.531z M133.896,139.531l-15.354,18.223h61.496
			l15.43-20.476l15.433,20.476h61.495l-15.353-18.223h-7.624l7.406,9.222c0.801,0.854,3.812,0.602,3.812,0.602v6.319H209.39v-6.319
			c0,0,3.62,0.138,4.472-0.257c-1.354-2.516-7.966-10.937-12.039-16.121c-2.556-3.253-4.87-6.197-6.354-8.207
			c-1.485,2.01-3.799,4.954-6.353,8.207c-4.073,5.185-10.686,13.605-12.041,16.121c0.625,0.283,4.474,0.257,4.474,0.257v6.319
			h-51.251v-6.319c0,0,2.772,0.069,3.616-0.294l7.642-9.529H133.896L133.896,139.531z M148.723,81.956l15.192,18.032l-14.687,17.431
			l-3.333-4.016l11.202-13.442l-11.534-13.836L148.723,81.956L148.723,81.956z M154.341,74.598l18.969,25.33l-18.969,23.654
			l-3.478-4.19l16.348-19.403l-16.948-20.116L154.341,74.598L154.341,74.598z M133.839,60.38l-15.297-18.154h61.496l1.539,2.041
			h-50.543v6.319c0,0,4.872-0.363,6.536,1.614l6.077,8.116C143.634,60.38,133.839,60.38,133.839,60.38L133.839,60.38z
			 M241.86,117.602l-14.838-17.614l15.3-18.159l3.212,4.103l-11.694,14.03l11.36,13.632
			C245.091,113.634,241.86,117.602,241.86,117.602L241.86,117.602z M236.745,123.741l-19.119-23.813l18.997-25.37
			c0,0,4.13,4.623,4.108,5.246l-17.007,20.185l16.498,19.581C240.346,119.839,236.745,123.741,236.745,123.741L236.745,123.741z"/>
		<path fill-rule="evenodd" clip-rule="evenodd" fill="none" d="M85.099,121.752l17.447-21.753L86.42,78.174H33.294l19.59,21.788
			l-19.59,21.791H85.099L85.099,121.752z M82.577,82.004l14.258,17.958l-14.258,17.96H42.132l16.613-17.96L42.132,82.004H82.577
			L82.577,82.004z M77.188,110.002l8.03-10.041l-8.03-10.035H60.69l10.107,10.035L60.69,110.002H77.188L77.188,110.002z
			 M305.685,121.752h51.937l-19.588-21.791l19.588-21.788H304.63l-16.395,21.825L305.685,121.752L305.685,121.752z M308.338,82.004
			h40.446l-16.612,17.958l16.612,17.96h-40.446l-14.255-17.96L308.338,82.004L308.338,82.004z M313.73,110.002h16.497
			l-10.106-10.041l10.106-10.035H313.73l-8.032,10.035L313.73,110.002L313.73,110.002z M186.287,50.517v0.069
			c0,0-3.975-0.196-5.229,0.763v0.005c0,2.147,6.034,8.575,10.027,12.829c1.557,1.657,3.048,3.247,4.382,4.742
			c1.336-1.495,2.826-3.085,4.385-4.742c3.991-4.254,10.024-10.682,10.024-12.829v-0.005c-1.081-0.917-5.227-0.763-5.227-0.763
			v-0.069l-8.175,10.846l-1.008,1.336l-1.007-1.336L186.287,50.517L186.287,50.517z M266.834,60.38l19.609-23.524h-80.028
			l-9.261,13.291l-1.687,2.417l-1.683-2.417l-9.264-13.291h-80.028l19.609,23.524h6.438l-17.42-20.678h67.545h0.63l0.377,0.504
			l3.06,4.061h1.554v2.063l9.181,12.182l9.183-12.182v-2.063h1.553l3.059-4.061l0.38-0.504h0.628h67.543l-17.42,20.678H266.834
			L266.834,60.38z M257.099,60.38l15.297-18.154h-61.495l-1.54,2.041h50.54v6.319c0,0-4.824-0.49-6.534,1.614l-6.126,8.18H257.099
			L257.099,60.38z M124.116,139.531l-19.623,23.54h80.028l10.947-15.707l10.947,15.707h80.028l-19.623-23.54h-6.48l17.473,20.741
			h-68.171l-14.174-18.807l-14.172,18.807h-68.175l17.477-20.741H124.116L124.116,139.531z M133.896,139.531l-15.354,18.223h61.496
			l15.43-20.476l15.433,20.476h61.495l-15.353-18.223h-7.624l7.406,9.222c0.801,0.854,3.812,0.602,3.812,0.602v6.319H209.39v-6.319
			c0,0,3.62,0.138,4.472-0.257c-1.354-2.516-7.966-10.937-12.039-16.121c-2.556-3.253-4.87-6.197-6.354-8.207
			c-1.485,2.01-3.799,4.954-6.353,8.207c-4.073,5.185-10.686,13.605-12.041,16.121c0.625,0.283,4.474,0.257,4.474,0.257v6.319
			h-51.251v-6.319c0,0,2.772,0.069,3.616-0.294l7.642-9.529H133.896L133.896,139.531z M148.723,81.956l15.192,18.032l-14.687,17.431
			l-3.333-4.016l11.202-13.442l-11.534-13.836L148.723,81.956L148.723,81.956z M154.341,74.598l18.969,25.33l-18.969,23.654
			l-3.478-4.19l16.348-19.403l-16.948-20.116L154.341,74.598L154.341,74.598z M133.839,60.38l-15.297-18.154h61.496l1.539,2.041
			h-50.543v6.319c0,0,4.872-0.363,6.536,1.614l6.077,8.116C143.634,60.38,133.839,60.38,133.839,60.38L133.839,60.38z
			 M241.86,117.602l-14.838-17.614l15.3-18.159l3.212,4.103l-11.694,14.03l11.36,13.632
			C245.091,113.634,241.86,117.602,241.86,117.602L241.86,117.602z M236.745,123.741l-19.119-23.813l18.997-25.37
			c0,0,4.13,4.623,4.108,5.246l-17.007,20.185l16.498,19.581C240.346,119.839,236.745,123.741,236.745,123.741L236.745,123.741z"/>
	</g>
	<path fill-rule="evenodd" clip-rule="evenodd" fill="#04607B" d="M305.685,121.752h51.937l-19.588-21.791l19.588-21.788H304.63
		l-16.395,21.825L305.685,121.752L305.685,121.752z M308.338,82.004h40.446l-16.612,17.958l16.612,17.96h-40.446l-14.255-17.96
		L308.338,82.004L308.338,82.004z M313.73,110.002h16.497l-10.106-10.041l10.106-10.035H313.73l-8.032,10.035L313.73,110.002
		L313.73,110.002z M85.099,121.752l17.447-21.753L86.42,78.174H33.294l19.59,21.788l-19.59,21.791H85.099L85.099,121.752z
		 M82.577,82.004l14.258,17.958l-14.258,17.96H42.132l16.613-17.96L42.132,82.004H82.577L82.577,82.004z M77.188,110.002
		l8.03-10.041l-8.03-10.035H60.69l10.107,10.035L60.69,110.002H77.188L77.188,110.002z M257.099,60.38l15.297-18.154h-61.495
		l-1.54,2.041h50.54v6.319c0,0-4.824-0.49-6.534,1.614l-6.126,8.18H257.099L257.099,60.38z M124.116,139.531l-19.623,23.54h80.028
		l10.947-15.707l10.947,15.707h80.028l-19.623-23.54h-6.48l17.473,20.741h-68.171l-14.174-18.807l-14.172,18.807h-68.175
		l17.477-20.741H124.116L124.116,139.531z M133.896,139.531l-15.354,18.223h61.496l15.43-20.476l15.433,20.476h61.495
		l-15.353-18.223h-7.624l7.406,9.222c0.801,0.854,3.812,0.602,3.812,0.602v6.319H209.39v-6.319c0,0,3.62,0.138,4.472-0.257
		c-1.354-2.516-7.966-10.937-12.039-16.121c-2.556-3.253-4.87-6.197-6.354-8.207c-1.485,2.01-3.799,4.954-6.353,8.207
		c-4.073,5.185-10.686,13.605-12.041,16.121c0.625,0.283,4.474,0.257,4.474,0.257v6.319h-51.251v-6.319c0,0,2.772,0.069,3.616-0.294
		l7.642-9.529H133.896L133.896,139.531z M148.723,81.956l-3.161,4.169l11.534,13.836l-11.202,13.442l3.333,4.016l14.687-17.431
		L148.723,81.956L148.723,81.956z M154.341,74.598l-4.078,5.274l16.948,20.116l-16.348,19.403l3.478,4.19l18.969-23.654
		L154.341,74.598L154.341,74.598z M186.287,50.517v0.069c0,0-3.975-0.196-5.229,0.763v0.005c0,2.147,6.034,8.575,10.027,12.829
		c1.557,1.657,3.048,3.247,4.382,4.742c1.336-1.495,2.826-3.085,4.385-4.742c3.991-4.254,10.024-10.682,10.024-12.829v-0.005
		c-1.081-0.917-5.227-0.763-5.227-0.763v-0.069l-8.175,10.846l-1.008,1.336l-1.007-1.336L186.287,50.517L186.287,50.517z
		 M266.834,60.38l19.609-23.524h-80.028l-9.261,13.291l-1.687,2.417l-1.683-2.417l-9.264-13.291h-80.028l19.609,23.524h6.438
		l-17.42-20.678h67.545h0.63l0.377,0.504l3.06,4.061h1.554v2.063l9.181,12.182l9.183-12.182v-2.063h1.553l3.059-4.061l0.38-0.504
		h0.628h67.543l-17.42,20.678H266.834L266.834,60.38z M133.839,60.38c0,0,9.795,0,9.807-0.063l-6.077-8.116
		c-1.665-1.978-6.536-1.614-6.536-1.614v-6.319h50.543l-1.539-2.041h-61.496L133.839,60.38L133.839,60.38z M241.86,117.602
		c0,0,3.231-3.968,3.34-4.008l-11.36-13.632l11.694-14.03l-3.212-4.103l-15.3,18.159L241.86,117.602l-5.115,6.139
		c0,0,3.602-3.901,3.478-4.172l-16.498-19.581l17.007-20.185c0.021-0.623-4.108-5.246-4.108-5.246l-18.997,25.37l19.119,23.813
		L241.86,117.602L241.86,117.602z"/>
	<g>
		<path fill-rule="evenodd" clip-rule="evenodd" fill="none" d="M111.873,85.943c0.611,0.705,1.675,0.779,2.379,0.167
			c0.702-0.61,0.776-1.675,0.167-2.378l-14.047-16.177c-0.611-0.702-1.676-0.779-2.379-0.167c-0.702,0.61-0.778,1.675-0.168,2.378
			L111.873,85.943L111.873,85.943z M150.473,63.813l-19.79,0.029c0.02,0.019,0.907,0.891,0.912,2.094
			c0.011,2.479-2.959,5.834-7.834,11.066c-1.375,1.477-5.024,5.63-5.024,5.63s-3.646-4.154-5.023-5.63
			c-4.875-5.232-7.834-8.588-7.834-11.066c0-0.609,0.175-1.418,0.895-2.094H79.563c0.325,0.23,0.993,0.915,0.993,0.915
			l26.394,35.243L78,136.093h25.542c-0.371-0.448-0.583-0.994-0.583-1.58c0-1.225,1.078-2.916,9.16-13.274
			c2.278-2.924,4.634-5.942,5.174-6.842l1.446-2.409l1.446,2.409c0.538,0.899,2.895,3.921,5.175,6.842
			c8.079,10.358,9.158,12.05,9.158,13.274c0,0.586-0.212,1.132-0.584,1.58h14.665l-11.797,14.694
			c-0.684,1.002-1.857,1.514-1.857,1.514h41.124c-0.669-0.209-1.263-0.517-1.716-0.97c-0.549-0.549-0.839-1.243-0.839-2.01
			c0-1.596,2.301-4.869,12.951-18.43c3.478-4.427,6.763-8.609,7.56-9.938l1.445-2.409l1.445,2.409
			c0.798,1.328,4.084,5.511,7.56,9.938c10.652,13.561,12.953,16.834,12.953,18.43c0,0.767-0.291,1.461-0.84,2.01
			c-0.453,0.453-1.047,0.761-1.715,0.97h41.122c0,0-1.27-0.779-1.855-1.511l-11.798-14.697h14.663
			c-0.371-0.448-0.583-0.994-0.583-1.58c0-1.225,1.078-2.913,9.157-13.274c2.28-2.921,4.637-5.942,5.175-6.842l1.447-2.409
			l1.447,2.409c0.535,0.899,2.895,3.918,5.174,6.842c8.079,10.358,9.158,12.05,9.158,13.274c0,0.586-0.213,1.132-0.584,1.58h25.539
			c-0.063-0.083-28.944-36.094-28.944-36.094l26.392-35.243c0,0,0.666-0.684,0.994-0.915h-27.232
			c0.021,0.019,0.912,0.848,0.912,2.094c0,2.479-2.958,5.834-7.833,11.066c-1.376,1.477-5.022,5.63-5.022,5.63
			s-3.647-4.154-5.026-5.63c-4.871-5.232-7.832-8.588-7.832-11.066c0-0.609,0.175-1.418,0.896-2.094l-19.776-0.029l10.271-13.717
			c0,0,1.508-1.946,4.188-2.458h-45.113c0.931,0.26,1.8,0.663,2.436,1.299c0.66,0.66,1.008,1.498,1.008,2.417
			c0,3.247-4.133,7.886-10.942,15.138c-2.046,2.182-6.839,7.594-6.839,7.594s-4.792-5.413-6.841-7.594
			c-6.807-7.252-10.94-11.891-10.94-15.138c0-1.797,1.242-3.09,3.444-3.716h-45.114c1.422,0.374,2.979,1.071,4.108,2.362
			L150.473,63.813L150.473,63.813z M149.304,130.113l-24.26-30.188l22.573-30.159h0.001c0.557-0.745,0.405-1.803-0.341-2.359
			c-0.745-0.557-1.801-0.405-2.359,0.339l-24.141,32.253l25.899,32.227c0.583,0.726,1.643,0.84,2.37,0.257
			C149.771,131.9,149.888,130.839,149.304,130.113L149.304,130.113L149.304,130.113z M188.625,77.909
			c0.611,0.703,1.675,0.779,2.379,0.167c0.702-0.61,0.778-1.675,0.167-2.377l-21.51-24.773c-0.611-0.703-1.675-0.779-2.379-0.167
			c-0.702,0.609-0.778,1.675-0.167,2.377L188.625,77.909L188.625,77.909z M192.09,114.159c-0.742-0.564-1.8-0.419-2.363,0.323
			l-24.589,32.394c-0.562,0.742-0.417,1.8,0.323,2.362c0.742,0.562,1.799,0.418,2.362-0.324l24.59-32.396
			C192.976,115.779,192.832,114.721,192.09,114.159L192.09,114.159z M206.983,99.925l34.983-46.736
			c0.557-0.748,0.402-1.803-0.34-2.359c-0.747-0.559-1.802-0.408-2.358,0.337l-36.553,48.833l39.225,48.806
			c0.583,0.724,1.644,0.841,2.369,0.257c0.727-0.583,0.843-1.643,0.26-2.369L206.983,99.925L206.983,99.925z M236.85,129.257
			l-23.489-29.261l23.517-31.402l23.532,31.405L236.85,129.257L236.85,129.257z M154.071,129.278l-23.544-29.279l23.511-31.426
			l23.539,31.423L154.071,129.278L154.071,129.278z M251.493,69.766l14.048,16.177c0.61,0.705,1.676,0.779,2.378,0.167
			c0.702-0.61,0.776-1.675,0.167-2.378l-14.048-16.177c-0.61-0.702-1.676-0.779-2.378-0.167
			C250.958,67.998,250.883,69.063,251.493,69.766L251.493,69.766z M268.6,108.767c-0.742-0.562-1.803-0.418-2.364,0.323
			l-16.058,21.155c-0.563,0.742-0.419,1.8,0.323,2.361c0.742,0.564,1.797,0.419,2.361-0.323l16.061-21.154
			C269.485,110.387,269.339,109.33,268.6,108.767L268.6,108.767z M302.973,130.113l-24.264-30.188l22.575-30.159
			c0.557-0.745,0.405-1.803-0.339-2.359c-0.745-0.557-1.803-0.405-2.362,0.339l-24.139,32.253l25.899,32.227
			c0.583,0.726,1.643,0.84,2.369,0.257S303.556,130.839,302.973,130.113L302.973,130.113z M114.93,108.767
			c-0.741-0.562-1.798-0.418-2.361,0.323l-16.058,21.155c-0.563,0.742-0.419,1.8,0.323,2.361c0.741,0.564,1.8,0.419,2.362-0.323
			l16.059-21.154C115.818,110.387,115.672,109.33,114.93,108.767L114.93,108.767z"/>
		<path fill-rule="evenodd" clip-rule="evenodd" fill="none" d="M111.873,85.943c0.611,0.705,1.675,0.779,2.379,0.167
			c0.702-0.61,0.776-1.675,0.167-2.378l-14.047-16.177c-0.611-0.702-1.676-0.779-2.379-0.167c-0.702,0.61-0.778,1.675-0.168,2.378
			L111.873,85.943L111.873,85.943z M150.473,63.813l-19.79,0.029c0.02,0.019,0.907,0.891,0.912,2.094
			c0.011,2.479-2.959,5.834-7.834,11.066c-1.375,1.477-5.024,5.63-5.024,5.63s-3.646-4.154-5.023-5.63
			c-4.875-5.232-7.834-8.588-7.834-11.066c0-0.609,0.175-1.418,0.895-2.094H79.563c0.325,0.23,0.993,0.915,0.993,0.915
			l26.394,35.243L78,136.093h25.542c-0.371-0.448-0.583-0.994-0.583-1.58c0-1.225,1.078-2.916,9.16-13.274
			c2.278-2.924,4.634-5.942,5.174-6.842l1.446-2.409l1.446,2.409c0.538,0.899,2.895,3.921,5.175,6.842
			c8.079,10.358,9.158,12.05,9.158,13.274c0,0.586-0.212,1.132-0.584,1.58h14.665l-11.797,14.694
			c-0.684,1.002-1.857,1.514-1.857,1.514h41.124c-0.669-0.209-1.263-0.517-1.716-0.97c-0.549-0.549-0.839-1.243-0.839-2.01
			c0-1.596,2.301-4.869,12.951-18.43c3.478-4.427,6.763-8.609,7.56-9.938l1.445-2.409l1.445,2.409
			c0.798,1.328,4.084,5.511,7.56,9.938c10.652,13.561,12.953,16.834,12.953,18.43c0,0.767-0.291,1.461-0.84,2.01
			c-0.453,0.453-1.047,0.761-1.715,0.97h41.122c0,0-1.27-0.779-1.855-1.511l-11.798-14.697h14.663
			c-0.371-0.448-0.583-0.994-0.583-1.58c0-1.225,1.078-2.913,9.157-13.274c2.28-2.921,4.637-5.942,5.175-6.842l1.447-2.409
			l1.447,2.409c0.535,0.899,2.895,3.918,5.174,6.842c8.079,10.358,9.158,12.05,9.158,13.274c0,0.586-0.213,1.132-0.584,1.58h25.539
			c-0.063-0.083-28.944-36.094-28.944-36.094l26.392-35.243c0,0,0.666-0.684,0.994-0.915h-27.232
			c0.021,0.019,0.912,0.848,0.912,2.094c0,2.479-2.958,5.834-7.833,11.066c-1.376,1.477-5.022,5.63-5.022,5.63
			s-3.647-4.154-5.026-5.63c-4.871-5.232-7.832-8.588-7.832-11.066c0-0.609,0.175-1.418,0.896-2.094l-19.776-0.029l10.271-13.717
			c0,0,1.508-1.946,4.188-2.458h-45.113c0.931,0.26,1.8,0.663,2.436,1.299c0.66,0.66,1.008,1.498,1.008,2.417
			c0,3.247-4.133,7.886-10.942,15.138c-2.046,2.182-6.839,7.594-6.839,7.594s-4.792-5.413-6.841-7.594
			c-6.807-7.252-10.94-11.891-10.94-15.138c0-1.797,1.242-3.09,3.444-3.716h-45.114c1.422,0.374,2.979,1.071,4.108,2.362
			L150.473,63.813L150.473,63.813z M149.304,130.113l-24.26-30.188l22.573-30.159h0.001c0.557-0.745,0.405-1.803-0.341-2.359
			c-0.745-0.557-1.801-0.405-2.359,0.339l-24.141,32.253l25.899,32.227c0.583,0.726,1.643,0.84,2.37,0.257
			C149.771,131.9,149.888,130.839,149.304,130.113L149.304,130.113L149.304,130.113z M188.625,77.909
			c0.611,0.703,1.675,0.779,2.379,0.167c0.702-0.61,0.778-1.675,0.167-2.377l-21.51-24.773c-0.611-0.703-1.675-0.779-2.379-0.167
			c-0.702,0.609-0.778,1.675-0.167,2.377L188.625,77.909L188.625,77.909z M192.09,114.159c-0.742-0.564-1.8-0.419-2.363,0.323
			l-24.589,32.394c-0.562,0.742-0.417,1.8,0.323,2.362c0.742,0.562,1.799,0.418,2.362-0.324l24.59-32.396
			C192.976,115.779,192.832,114.721,192.09,114.159L192.09,114.159z M206.983,99.925l34.983-46.736
			c0.557-0.748,0.402-1.803-0.34-2.359c-0.747-0.559-1.802-0.408-2.358,0.337l-36.553,48.833l39.225,48.806
			c0.583,0.724,1.644,0.841,2.369,0.257c0.727-0.583,0.843-1.643,0.26-2.369L206.983,99.925L206.983,99.925z M236.85,129.257
			l-23.489-29.261l23.517-31.402l23.532,31.405L236.85,129.257L236.85,129.257z M154.071,129.278l-23.544-29.279l23.511-31.426
			l23.539,31.423L154.071,129.278L154.071,129.278z M251.493,69.766l14.048,16.177c0.61,0.705,1.676,0.779,2.378,0.167
			c0.702-0.61,0.776-1.675,0.167-2.378l-14.048-16.177c-0.61-0.702-1.676-0.779-2.378-0.167
			C250.958,67.998,250.883,69.063,251.493,69.766L251.493,69.766z M268.6,108.767c-0.742-0.562-1.803-0.418-2.364,0.323
			l-16.058,21.155c-0.563,0.742-0.419,1.8,0.323,2.361c0.742,0.564,1.797,0.419,2.361-0.323l16.061-21.154
			C269.485,110.387,269.339,109.33,268.6,108.767L268.6,108.767z M302.973,130.113l-24.264-30.188l22.575-30.159
			c0.557-0.745,0.405-1.803-0.339-2.359c-0.745-0.557-1.803-0.405-2.362,0.339l-24.139,32.253l25.899,32.227
			c0.583,0.726,1.643,0.84,2.369,0.257S303.556,130.839,302.973,130.113L302.973,130.113z M114.93,108.767
			c-0.741-0.562-1.798-0.418-2.361,0.323l-16.058,21.155c-0.563,0.742-0.419,1.8,0.323,2.361c0.741,0.564,1.8,0.419,2.362-0.323
			l16.059-21.154C115.818,110.387,115.672,109.33,114.93,108.767L114.93,108.767z"/>
	</g>
	<path fill-rule="evenodd" clip-rule="evenodd" fill="#EE9C21" d="M150.473,63.813l-19.79,0.029c0.02,0.019,0.907,0.891,0.912,2.094
		c0.011,2.479-2.959,5.834-7.834,11.066c-1.375,1.477-5.024,5.63-5.024,5.63s-3.646-4.154-5.023-5.63
		c-4.875-5.232-7.834-8.588-7.834-11.066c0-0.609,0.175-1.418,0.895-2.094H79.563c0.325,0.23,0.993,0.915,0.993,0.915l26.394,35.243
		L78,136.093h25.542c-0.371-0.448-0.583-0.994-0.583-1.58c0-1.225,1.078-2.916,9.16-13.274c2.278-2.924,4.634-5.942,5.174-6.842
		l1.446-2.409l1.446,2.409c0.538,0.899,2.895,3.921,5.175,6.842c8.079,10.358,9.158,12.05,9.158,13.274
		c0,0.586-0.212,1.132-0.584,1.58h14.665l-11.797,14.694c-0.684,1.002-1.857,1.514-1.857,1.514h41.124
		c-0.669-0.209-1.263-0.517-1.716-0.97c-0.549-0.549-0.839-1.243-0.839-2.01c0-1.596,2.301-4.869,12.951-18.43
		c3.478-4.427,6.763-8.609,7.56-9.938l1.445-2.409l1.445,2.409c0.798,1.328,4.084,5.511,7.56,9.938
		c10.652,13.561,12.953,16.834,12.953,18.43c0,0.767-0.291,1.461-0.84,2.01c-0.453,0.453-1.047,0.761-1.715,0.97h41.122
		c0,0-1.27-0.779-1.855-1.511l-11.798-14.697h14.663c-0.371-0.448-0.583-0.994-0.583-1.58c0-1.225,1.078-2.913,9.157-13.274
		c2.28-2.921,4.637-5.942,5.175-6.842l1.447-2.409l1.447,2.409c0.535,0.899,2.895,3.918,5.174,6.842
		c8.079,10.358,9.158,12.05,9.158,13.274c0,0.586-0.213,1.132-0.584,1.58h25.539c-0.063-0.083-28.944-36.094-28.944-36.094
		l26.392-35.243c0,0,0.666-0.684,0.994-0.915h-27.232c0.021,0.019,0.912,0.848,0.912,2.094c0,2.479-2.958,5.834-7.833,11.066
		c-1.376,1.477-5.022,5.63-5.022,5.63s-3.647-4.154-5.026-5.63c-4.871-5.232-7.832-8.588-7.832-11.066
		c0-0.609,0.175-1.418,0.896-2.094l-19.776-0.029l10.271-13.717c0,0,1.508-1.946,4.188-2.458h-45.113
		c0.931,0.26,1.8,0.663,2.436,1.299c0.66,0.66,1.008,1.498,1.008,2.417c0,3.247-4.133,7.886-10.942,15.138
		c-2.046,2.182-6.839,7.594-6.839,7.594s-4.792-5.413-6.841-7.594c-6.807-7.252-10.94-11.891-10.94-15.138
		c0-1.797,1.242-3.09,3.444-3.716h-45.114c1.422,0.374,2.979,1.071,4.108,2.362L150.473,63.813L150.473,63.813z M111.873,85.943
		L97.824,69.766c-0.609-0.703-0.534-1.768,0.168-2.378c0.703-0.612,1.768-0.535,2.379,0.167l14.047,16.177
		c0.609,0.703,0.535,1.768-0.167,2.378C113.548,86.722,112.484,86.648,111.873,85.943L111.873,85.943z M149.304,130.113
		L149.304,130.113c0.584,0.727,0.468,1.787-0.257,2.37c-0.727,0.583-1.787,0.469-2.37-0.257l-25.899-32.227l24.141-32.253
		c0.558-0.745,1.614-0.896,2.359-0.339c0.746,0.557,0.897,1.614,0.341,2.359h-0.001l-22.573,30.159L149.304,130.113L149.304,130.113
		z M188.625,77.909l-21.51-24.773c-0.611-0.702-0.535-1.768,0.167-2.377c0.704-0.612,1.768-0.536,2.379,0.167l21.51,24.773
		c0.611,0.702,0.535,1.768-0.167,2.377C190.3,78.688,189.236,78.611,188.625,77.909L188.625,77.909z M192.09,114.159
		c0.741,0.563,0.885,1.62,0.324,2.359l-24.59,32.396c-0.563,0.742-1.62,0.886-2.362,0.324c-0.741-0.563-0.885-1.62-0.323-2.362
		l24.589-32.394C190.291,113.74,191.348,113.594,192.09,114.159L192.09,114.159z M206.983,99.925l37.586,46.768
		c0.583,0.727,0.467,1.786-0.26,2.369c-0.726,0.584-1.786,0.467-2.369-0.257l-39.225-48.806l36.553-48.833
		c0.557-0.745,1.611-0.896,2.358-0.337c0.742,0.557,0.896,1.612,0.34,2.359L206.983,99.925L206.983,99.925z M236.85,129.257
		l-23.489-29.261l23.517-31.402l23.532,31.405L236.85,129.257L236.85,129.257z M154.071,129.278l-23.544-29.279l23.511-31.426
		l23.539,31.423L154.071,129.278L154.071,129.278z M251.493,69.766c-0.609-0.703-0.535-1.768,0.167-2.378
		c0.702-0.612,1.768-0.535,2.378,0.167l14.048,16.177c0.609,0.703,0.535,1.768-0.167,2.378c-0.702,0.612-1.768,0.538-2.378-0.167
		L251.493,69.766L251.493,69.766z M268.6,108.767c0.739,0.563,0.885,1.62,0.323,2.362l-16.061,21.154
		c-0.564,0.742-1.619,0.888-2.361,0.323c-0.742-0.562-0.886-1.619-0.323-2.361l16.058-21.155
		C266.797,108.349,267.858,108.206,268.6,108.767L268.6,108.767z M302.973,130.113c0.583,0.727,0.467,1.787-0.26,2.37
		s-1.786,0.469-2.369-0.257l-25.899-32.227l24.139-32.253c0.56-0.745,1.617-0.896,2.362-0.339c0.744,0.557,0.896,1.614,0.339,2.359
		l-22.575,30.159L302.973,130.113L114.93,108.767c0.742,0.563,0.888,1.62,0.325,2.362l-16.059,21.154
		c-0.562,0.742-1.621,0.888-2.362,0.323c-0.742-0.562-0.887-1.619-0.323-2.361l16.058-21.155c0.563-0.741,1.621-0.885,2.361-0.323
		L302.973,130.113L302.973,130.113z"/>
</g>
</svg>
