<?xml version="1.0" encoding="iso-8859-1"?>
<!-- Generator: Adobe Illustrator 14.0.0, SVG Export Plug-In . SVG Version: 6.00 Build 43363)  -->
<!DOCTYPE svg PUBLIC "-//W3C//DTD SVG 1.1//EN" "http://www.w3.org/Graphics/SVG/1.1/DTD/svg11.dtd">
<svg version="1.1" id="Layer_1" xmlns="http://www.w3.org/2000/svg" xmlns:xlink="http://www.w3.org/1999/xlink" x="0px" y="0px"
	 width="250px" height="95px" viewBox="0 0 250 95" style="enable-background:new 0 0 250 95;" xml:space="preserve">
<g>
	<path style="fill-rule:evenodd;clip-rule:evenodd;fill:#005496;" d="M5,37.046c4.52,3.013,8.808,4.52,13.036,4.52
		c5.621,0,8.982-2.724,8.982-6.258c0-1.043-0.348-2.145-0.985-3.072c-1.332-1.97-4.751-3.359-9.618-5.795
		C9.81,23.139,6.391,20.415,6.391,15.374c0-6.2,5.272-10.431,14.603-10.431c2.607,0,5.735,0.348,9.387,1.044v6.604
		c-3.188-2.434-6.432-3.649-10.025-3.649c-4.692,0-7.475,2.259-7.475,5.215c0,3.476,3.246,5.215,8.865,7.88
		c2.608,1.217,5.39,2.376,8.056,4.463c2.376,1.854,3.708,4.577,3.708,7.475c0,6.432-6.49,12.11-16.225,12.11
		c-3.128,0-6.606-0.696-10.43-1.912L5,37.046z"/>
	<path style="fill-rule:evenodd;clip-rule:evenodd;fill:#005496;" d="M63.043,42.028c-3.883,2.781-9.225,4.114-13.28,4.114
		c-4.577,0-8.171-1.507-10.777-4.519c-2.318-2.725-2.84-5.97-2.84-10.489V12.65c0-2.955-0.174-5.041-2.318-6.896h10.779
		c-2.145,1.854-2.318,3.94-2.318,6.896v17.268c0,4.287,0.231,7.244,1.737,9.097c1.507,1.854,4.058,2.782,7.534,2.782
		c2.839,0,6.906-0.87,8.817-2.491c1.797-1.506,2.318-3.709,2.318-7.07V12.65c0-2.955-0.116-5.041-2.259-6.896h10.777
		c-1.97,1.68-2.318,3.767-2.318,6.896v25.438c0,2.955,0.174,5.042,2.318,6.954h-8.171V42.028z"/>
	<path style="fill-rule:evenodd;clip-rule:evenodd;fill:#005496;" d="M84.892,45.042H74.114c2.144-1.912,2.317-3.999,2.317-6.954
		V12.65c0-2.955-0.174-5.041-2.317-6.896h14.08c8.865,0,14.022,4.462,14.022,10.721c0,6.199-4.868,10.661-12.689,10.661
		c-1.313,0-2.909-0.095-4.44-0.295c-0.088-0.012,0.067-0.152-0.021-0.169c7.127-1.333,10.72-4.577,10.72-9.444
		c0-4.463-3.304-7.36-8.75-7.36c-1.158,0-2.665,0.175-4.462,0.523v27.696C82.573,41.043,82.748,43.13,84.892,45.042"/>
	<path style="fill-rule:evenodd;clip-rule:evenodd;fill:#005496;" d="M105.476,38.088V12.65c0-2.955-0.176-5.041-2.318-6.896h21.555
		v6.143c-1.971-1.506-4.229-2.145-7.184-2.145c-1.682,0-3.652,0.29-5.853,0.754v11.066h9.617v5.737
		c-1.158-1.391-3.129-1.449-6.083-1.449h-3.534v14.081c3.013,0.464,5.446,0.696,7.184,0.696c3.998,0,7.475-1.044,10.895-3.303
		l-2.725,7.706h-23.872C105.3,43.13,105.476,41.043,105.476,38.088"/>
	<path style="fill-rule:evenodd;clip-rule:evenodd;fill:#005496;" d="M17.49,65.517c5.157,0,7.996-2.375,7.996-6.259
		c0-3.648-2.55-5.908-7.069-5.908c-1.158,0-2.491,0.173-4.113,0.52v11.417C15.462,65.459,16.505,65.517,17.49,65.517l1.971,19.237
		c6.143,0,9.618-2.956,9.618-7.532c0-4.634-3.824-8.17-9.792-8.17c-1.218,0-2.897,0.176-4.983,0.521v14.777
		c2.259,0.23,3.998,0.403,5.157,0.403L17.49,65.517z M8.046,82.033V56.595c0-2.956-0.175-5.043-2.318-6.896h13.385
		c8.286,0,12.865,3.476,12.865,8.69c0,3.188-1.971,5.737-5.854,7.65c6.143,1.736,9.329,5.389,9.329,10.545
		c0,7.417-6.025,12.399-17.094,12.399H5.728C7.871,87.073,8.046,84.985,8.046,82.033z"/>
	<path style="fill-rule:evenodd;clip-rule:evenodd;fill:#005496;" d="M44.189,68.937c0,9.792,6.489,16.745,14.718,16.745
		c8.576,0,15.065-6.547,15.065-16.051c0-9.792-6.489-16.688-14.718-16.688C50.679,52.943,44.189,59.434,44.189,68.937
		 M43.726,84.351c-3.998-3.769-6.258-9.1-6.258-14.72c0-4.403,1.391-8.633,4.056-12.225c4.114-5.565,10.373-8.635,17.5-8.635
		c6.199,0,11.646,2.028,15.413,5.563c4.057,3.765,6.259,9.038,6.259,15.008c0,5.446-2.492,10.95-6.896,15.008
		c-3.939,3.648-9.039,5.562-14.775,5.562C52.881,89.912,47.435,87.826,43.726,84.351z"/>
	<path style="fill-rule:evenodd;clip-rule:evenodd;fill:#005496;" d="M91.313,80.646l-9.081-22.95
		c-1.698-4.127-3.353-6.086-5.09-7.996h9.203c0,1.101,0.015,2.146,0.579,3.359l11.349,28.309l7.355-23.614
		c0.521-1.682,0.869-3.014,0.869-4.173c0-1.158-0.695-2.316-1.97-3.881h8.843c0,0.288,0,0.579,0,0.81
		c0,2.956,0.811,4.984,1.274,6.548L125.563,81.2l7.726-22.462c0.692-2.144,0.925-3.709,0.925-4.636c0-1.449-0.752-2.839-2.259-4.403
		h9.126l-13.832,40.213c-4.192-0.993-6.327-2.82-8.259-7.817l-9.328-21.328l-9.1,29.29C95.261,89.131,93.291,85.728,91.313,80.646"
		/>
	<path style="fill-rule:evenodd;clip-rule:evenodd;fill:#005496;" d="M146.613,81.979V56.541c0-2.954-0.176-5.04-2.319-6.894h10.779
		c-2.144,1.854-2.319,3.939-2.319,6.894v27.294c3.072,0.462,5.507,0.651,7.244,0.694c2.146,0.054,3.841-1.44,4.455-2.327l3.607,6.73
		h-23.767C146.438,87.021,146.613,84.936,146.613,81.979"/>
	<path style="fill-rule:evenodd;clip-rule:evenodd;fill:#005496;" d="M141.9,45.042h-10.777c2.145-1.912,2.317-3.999,2.317-6.954
		V12.65c0-2.955-0.173-5.041-2.317-6.896h13.618c8.053,0,12.979,4.288,12.979,9.968c0,4.982-3.767,7.938-8.807,10.022l10.195,13.617
		c1.093,1.474,5.286,5.129,11.224,5.322c0.084,0.003-0.007,0.119,0.032,0.249l-9.227-0.009c-0.174,0-0.289,0-0.464,0
		c-2.839,0-5.737-1.448-7.648-4.113l-11.705-16.166c6.838-1.507,10.083-4.056,10.083-8.402c0-3.882-2.956-6.722-7.533-6.722
		c-0.985,0-2.435,0.174-4.288,0.521v28.045C139.583,41.043,139.757,43.13,141.9,45.042"/>
	<path style="fill-rule:evenodd;clip-rule:evenodd;fill:#005496;" d="M193.558,44.428l-19.3-29.226
		c-2.206-3.435-5.273-6.624-9.079-9.446h20.066c2.453,3.436,4.032,5.615,4.401,6.229l14.6,22.723l14.982-17.297
		c1.718-2.208,2.577-4.049,2.577-5.889s-1.227-3.557-3.556-5.766h22.571l-30.593,37.191l24.212,35.651
		c2.944,4.416,6.906,7.604,10.56,10.332h-20.513l-24.394-35.482l-16.749,21.621c-2.453,3.188-4.292,5.273-4.292,7.727
		c0,2.086,1.594,3.559,4.168,6.135h-23.93L193.558,44.428z"/>
</g>
</svg>
