<?xml version="1.0" encoding="UTF-8" standalone="no"?>
<!-- Created with Inkscape (http://www.inkscape.org/) -->
<svg
   xmlns:dc="http://purl.org/dc/elements/1.1/"
   xmlns:cc="http://creativecommons.org/ns#"
   xmlns:rdf="http://www.w3.org/1999/02/22-rdf-syntax-ns#"
   xmlns:svg="http://www.w3.org/2000/svg"
   xmlns="http://www.w3.org/2000/svg"
   xmlns:sodipodi="http://sodipodi.sourceforge.net/DTD/sodipodi-0.dtd"
   xmlns:inkscape="http://www.inkscape.org/namespaces/inkscape"
   width="372.88425"
   height="223.2702"
   id="svg2"
   sodipodi:version="0.32"
   inkscape:version="0.46"
   version="1.0"
   sodipodi:docname="Super Bowl XLIII logo.svg"
   inkscape:output_extension="org.inkscape.output.svg.inkscape">
  <defs
     id="defs4">
    <inkscape:perspective
       sodipodi:type="inkscape:persp3d"
       inkscape:vp_x="0 : 526.18109 : 1"
       inkscape:vp_y="0 : 1000 : 0"
       inkscape:vp_z="744.09448 : 526.18109 : 1"
       inkscape:persp3d-origin="372.04724 : 350.78739 : 1"
       id="perspective10" />
    <inkscape:perspective
       id="perspective2390"
       inkscape:persp3d-origin="372.04724 : 350.78739 : 1"
       inkscape:vp_z="744.09448 : 526.18109 : 1"
       inkscape:vp_y="0 : 1000 : 0"
       inkscape:vp_x="0 : 526.18109 : 1"
       sodipodi:type="inkscape:persp3d" />
  </defs>
  <sodipodi:namedview
     id="base"
     pagecolor="#ffffff"
     bordercolor="#666666"
     borderopacity="1.0"
     gridtolerance="10000"
     guidetolerance="10"
     objecttolerance="10"
     inkscape:pageopacity="0.0"
     inkscape:pageshadow="2"
     inkscape:zoom="0.80442943"
     inkscape:cx="186.44212"
     inkscape:cy="111.6351"
     inkscape:document-units="px"
     inkscape:current-layer="g3219"
     showgrid="false"
     showguides="true"
     inkscape:guide-bbox="true"
     inkscape:window-width="1024"
     inkscape:window-height="721"
     inkscape:window-x="-4"
     inkscape:window-y="-4" />
  <metadata
     id="metadata7">
    <rdf:RDF>
      <cc:Work
         rdf:about="">
        <dc:format>image/svg+xml</dc:format>
        <dc:type
           rdf:resource="http://purl.org/dc/dcmitype/StillImage" />
      </cc:Work>
    </rdf:RDF>
  </metadata>
  <g
     inkscape:label="Layer 1"
     inkscape:groupmode="layer"
     id="layer1"
     transform="translate(-188.5137,-410.40283)">
    <g
       id="g3219"
       transform="matrix(0.5555556,0,0,0.5555556,166.64703,232.01685)">
      <path
         sodipodi:nodetypes="cccc"
         id="path3175"
         d="M 56.824656,584.39442 C 226.66356,569.45128 419.91611,570.78451 567.13235,618.9349 L 467.96776,660.16063 C 371.99088,623.1333 225.99689,588.328 56.824656,584.39442 z"
         style="fill:#47aa42;fill-opacity:1;fill-rule:evenodd;stroke:none;stroke-width:1px;stroke-linecap:butt;stroke-linejoin:miter;stroke-opacity:1" />
      <path
         sodipodi:nodetypes="cccc"
         id="path3177"
         d="M 73.537791,588.85126 C 213.26461,593.68876 332.51108,628.10898 445.68358,671.30272 L 375.48842,709.18583 C 296.00143,662.0199 200.91285,617.82608 73.537791,588.85126 z"
         style="fill:#47aa42;fill-opacity:1;fill-rule:evenodd;stroke:none;stroke-width:1px;stroke-linecap:butt;stroke-linejoin:miter;stroke-opacity:1" />
      <path
         sodipodi:nodetypes="ccccccccccc"
         id="path3173"
         d="M 600.23576,492.59728 L 616.80707,478.3626 L 640.06685,499.10027 L 626.457,471.6412 L 640.92436,461.73916 L 621.14705,458.94124 L 609.76496,437.56142 L 607.74013,456.07249 L 587.75615,452.86788 L 604.89185,468.91534 L 600.23576,492.59728 z"
         style="fill:#003a74;fill-opacity:1;fill-rule:nonzero;stroke:none;stroke-width:0;marker:none;marker-start:none;marker-mid:none;marker-end:none;stroke-miterlimit:4;stroke-opacity:1;visibility:visible;display:inline;overflow:visible;enable-background:accumulate" />
      <path
         sodipodi:nodetypes="ccccccccccc"
         id="path3170"
         d="M 109.53019,454.23648 L 92.958887,439.33523 L 69.699105,460.73946 L 83.308956,433.28039 L 68.84159,423.37835 L 88.952184,419.91387 L 99.334431,399.20061 L 103.02567,417.3784 L 122.0098,414.50707 L 105.20738,431.55438 L 109.53019,454.23648 z"
         style="fill:#da2027;fill-opacity:1;fill-rule:nonzero;stroke:none;stroke-width:0;marker:none;marker-start:none;marker-mid:none;marker-end:none;stroke-miterlimit:4;stroke-opacity:1;visibility:visible;display:inline;overflow:visible;enable-background:accumulate"
         transform="translate(40.379795,38.360805)" />
      <path
         sodipodi:nodetypes="cccccccccccccccccccccccsc"
         id="path2396"
         d="M 49.100112,583.18333 C 67.756028,575.83731 97.728991,569.38267 120.44562,564.21127 C 168.51261,552.81063 217.96937,545.59149 262.37201,541.63939 L 279.82984,539.11566 L 303.32958,387.87399 L 344.7919,384.60065 L 336.06299,501.34981 L 380.79865,500.2587 L 380.88027,535.84232 L 394.98313,535.84232 L 391.28666,385.1054 L 434.18159,387.95562 L 453.3169,538.5293 L 481.84909,540.71152 L 453.98489,388.46036 L 496.45669,394.5023 L 535.81841,547.2582 L 564.26897,550.95467 L 515.00562,397.69402 L 554.20409,405.33181 L 615.97444,561.44268 C 654.89204,569.2972 675.75055,575.80231 700.83645,582.51534 C 667.77425,587.08613 633.39721,598.23107 599.02137,609.37006 C 520.21218,582.66277 434.04657,572.33814 347.70863,568.73961 C 239.9735,564.24927 132.81359,571.35676 49.100112,583.18333 z"
         style="fill:#003a74;fill-opacity:1;fill-rule:evenodd;stroke:none;stroke-width:0;stroke-linecap:butt;stroke-linejoin:miter;stroke-miterlimit:4;stroke-dasharray:none;stroke-opacity:1" />
      <path
         sodipodi:nodetypes="ccccccccccccccc"
         id="path2422"
         d="M 120.44562,564.21127 L 193.71348,464.67508 L 180.03375,409.69627 L 218.80909,400.54423 L 226.95163,430.42742 L 253.13836,394.42068 L 295.69179,388.54198 L 237.86277,462.06972 L 262.37201,541.63939 L 261.47711,557.664 L 215.26625,551.22506 L 204.41178,504.29544 L 166.42114,559.52553 L 126.51501,570.06075 L 120.44562,564.21127 z"
         style="fill:#003a74;fill-opacity:1;fill-rule:evenodd;stroke:none;stroke-width:0;stroke-linecap:butt;stroke-linejoin:miter;stroke-miterlimit:4;stroke-dasharray:none;stroke-opacity:1" />
      <path
         sodipodi:nodetypes="ccccc"
         id="path3179"
         d="M 336.7143,672.05666 L 346.49438,667.30633 C 364.64944,675.20892 375.93316,680.53475 388.40902,686.30764 L 377.51121,692.17569 L 336.7143,672.05666 z"
         style="fill:#ffffff;fill-rule:evenodd;stroke:none;stroke-width:0;stroke-linecap:butt;stroke-linejoin:miter;stroke-miterlimit:4;stroke-dasharray:none;stroke-opacity:1" />
      <path
         sodipodi:nodetypes="ccccc"
         id="path3181"
         d="M 359.90707,661.15885 C 377.02076,667.95215 391.22798,674.01883 402.38057,679.32186 C 405.45431,677.41852 408.52805,675.62503 411.60179,674.29211 C 401.0138,669.20532 385.71556,663.33349 370.80487,657.52625 L 359.90707,661.15885 z"
         style="fill:#ffffff;fill-rule:evenodd;stroke:none;stroke-width:1px;stroke-linecap:butt;stroke-linejoin:miter;stroke-opacity:1" />
      <path
         sodipodi:nodetypes="ccccc"
         id="path3183"
         d="M 427.37777,635.52108 L 437.40047,632.43718 C 452.26162,636.6022 467.10622,640.76309 479.29017,644.25881 L 470.80943,648.37068 L 427.37777,635.52108 z"
         style="fill:#ffffff;fill-rule:evenodd;stroke:none;stroke-width:1px;stroke-linecap:butt;stroke-linejoin:miter;stroke-opacity:1" />
      <path
         sodipodi:nodetypes="ccccc"
         id="path3185"
         d="M 450.50706,627.55433 L 491.3688,639.11897 L 500.8775,635.52108 C 489.6592,632.00885 475.58803,628.49663 460.27276,624.98441 L 450.50706,627.55433 z"
         style="fill:#ffffff;fill-rule:evenodd;stroke:none;stroke-width:1px;stroke-linecap:butt;stroke-linejoin:miter;stroke-opacity:1" />
      <path
         sodipodi:nodetypes="ccccc"
         id="path3187"
         d="M 476.72025,620.87253 C 489.82352,624.38476 501.64894,627.89698 512.69914,631.40921 L 521.17988,628.06831 C 508.67293,624.06326 496.16598,620.9397 483.65903,618.30261 L 476.72025,620.87253 z"
         style="fill:#ffffff;fill-rule:evenodd;stroke:none;stroke-width:1px;stroke-linecap:butt;stroke-linejoin:miter;stroke-opacity:1" />
      <path
         sodipodi:nodetypes="ccccc"
         id="path3189"
         d="M 499.59254,614.44773 L 533.2585,623.69945 L 541.99623,621.12952 L 508.07328,611.87782 L 499.59254,614.44773 z"
         style="fill:#ffffff;fill-rule:evenodd;stroke:none;stroke-width:1px;stroke-linecap:butt;stroke-linejoin:miter;stroke-opacity:1" />
      <path
         sodipodi:nodetypes="cccccccccccccc"
         id="path3191"
         d="M 176.11041,390.01305 L 178.5381,382.10178 L 202.06855,377.05672 C 203.62468,376.55384 204.60353,374.52594 204.27926,373.19138 C 203.43141,372.65323 190.40834,374.07399 188.76856,373.19138 C 182.84001,370.24845 190.30259,355.70685 196.35891,354.71054 L 218.79992,350.75036 L 216.48982,357.68068 L 198.66901,360.98083 C 196.4343,361.30505 192.88363,365.71606 194.70883,367.25111 C 199.32601,366.8331 203.94319,366.68645 208.56037,367.13353 C 212.92194,367.60142 212.89062,373.8111 210.54955,377.15156 C 209.31735,378.71791 207.67227,383.30826 198.339,384.7419 C 190.69235,386.82442 183.1294,388.47298 176.11041,390.01305 z"
         style="fill:#003a74;fill-opacity:1;fill-rule:evenodd;stroke:none;stroke-width:1px;stroke-linecap:butt;stroke-linejoin:miter;stroke-opacity:1" />
      <path
         sodipodi:nodetypes="ccccccccccc"
         id="path3193"
         d="M 229.94284,348.2907 L 238.21471,347.29952 L 231.92521,367.02941 C 231.00743,372.37471 232.01664,372.56062 238.61597,371.01707 C 245.9621,369.12278 246.05675,367.22547 246.80497,364.81045 L 252.49256,344.85699 L 260.68156,343.66517 L 254.40405,366.46242 C 252.18396,370.70989 252.04057,375.30202 239.53628,377.2237 C 229.73656,378.47676 220.88082,379.61131 223.67733,369.43598 L 229.94284,348.2907 z"
         style="fill:#003a74;fill-opacity:1;fill-rule:evenodd;stroke:none;stroke-width:1px;stroke-linecap:butt;stroke-linejoin:miter;stroke-opacity:1" />
      <path
         sodipodi:nodetypes="ccccccccccccccc"
         id="path3199"
         d="M 313.53312,367.27251 L 337.80998,366.75598 L 338.15434,359.52457 L 316.6323,361.07416 C 315.72799,360.37569 316.00384,356.65289 317.32101,356.25322 L 334.02211,354.70364 L 334.19428,349.02182 L 318.52624,349.53835 C 317.55382,348.56268 317.38672,345.00437 319.21494,344.54523 L 339.8761,343.68436 L 340.04828,336.62512 L 318.00971,338.00253 C 315.7482,337.61175 310.44893,341.13166 310.26177,345.75047 L 309.22871,359.00805 C 309.04482,362.69286 309.01132,366.91598 313.53312,367.27251 z"
         style="fill:#003a74;fill-opacity:1;fill-rule:evenodd;stroke:none;stroke-width:1px;stroke-linecap:butt;stroke-linejoin:miter;stroke-opacity:1" />
      <path
         sodipodi:nodetypes="cccccccccccccccc"
         id="path3215"
         d="M 492.19681,344.54496 L 507.66325,375.84177 C 508.5266,377.42253 513.87253,380.1786 514.94157,375.11394 L 517.12507,361.46708 L 528.04257,378.57114 C 530.32137,382.16699 536.01606,383.91796 535.50285,377.11547 L 535.6848,351.82329 L 528.58844,349.82175 L 528.40648,364.3784 C 528.24749,365.21282 528.24046,366.35117 526.95081,364.92428 L 517.48899,350.36763 C 515.1011,346.70042 511.46261,348.6573 510.9385,350.9135 L 509.84675,362.19491 C 509.60039,363.15557 509.16081,362.76365 508.72343,362.3872 L 500.20297,345.63671 L 492.19681,344.54496 z"
         style="fill:#003a74;fill-opacity:1;fill-rule:evenodd;stroke:none;stroke-width:1px;stroke-linecap:butt;stroke-linejoin:miter;stroke-opacity:1" />
      <path
         sodipodi:nodetypes="ccccccccc"
         id="path3217"
         d="M 543.4172,353.23434 L 552.65271,379.46318 C 553.65762,382.10205 555.54819,386.8864 562.62706,387.59042 L 578.51213,391.09992 L 575.18735,383.89622 L 563.3659,381.12557 C 560.83436,380.32875 559.89656,378.64269 559.48698,376.87724 L 551.35974,354.52731 L 543.4172,353.23434 z"
         style="fill:#003a74;fill-opacity:1;fill-rule:evenodd;stroke:none;stroke-width:1px;stroke-linecap:butt;stroke-linejoin:miter;stroke-opacity:1" />
      <path
         sodipodi:nodetypes="cccccccccccc"
         id="path3195"
         d="M 290.17603,340.53009 C 285.70124,340.80579 278.71259,341.40436 271.93793,341.84149 L 265.80475,372.89071 L 273.53169,372.0636 L 275.22641,363.02527 C 276.36061,360.79656 278.17687,361.71095 282.30762,360.94721 C 294.74474,361.13382 297.0973,356.93146 297.84251,352.79645 L 290.63551,352.96358 C 289.04033,354.72163 282.77184,355.01927 276.50758,355.31824 L 278.18947,347.24513 C 283.57049,346.45252 288.98713,345.68997 291.75678,346.34812 L 290.17603,340.53009 z"
         style="fill:#003a74;fill-opacity:1;fill-rule:evenodd;stroke:none;stroke-width:1px;stroke-linecap:butt;stroke-linejoin:miter;stroke-opacity:1" />
      <path
         sodipodi:nodetypes="ccccccsc"
         id="path2424"
         d="M 290.69987,352.93389 L 293.85665,355.11663 L 297.84251,352.79645 L 299.3758,346.27994 C 299.81677,341.46901 297.05018,339.63955 290.17603,340.53009 L 287.18714,344.92497 C 289.54771,345.41507 290.94177,343.93359 291.7106,346.38275 C 292.10076,347.62562 291.98003,349.63526 290.69987,352.93389 z"
         style="fill:#003a74;fill-opacity:1;fill-rule:evenodd;stroke:none;stroke-width:1px;stroke-linecap:butt;stroke-linejoin:miter;stroke-opacity:1" />
      <path
         sodipodi:nodetypes="ccccccccccccccscc"
         id="path3201"
         d="M 381.57764,339.8112 C 380.79388,337.28316 377.73723,335.50204 371.00428,335.44515 C 366.5732,335.71357 359.11987,335.00499 352.41452,335.43057 L 350.68769,366.17584 L 358.45567,365.88711 L 358.88953,357.60415 C 359.67037,355.43434 365.41949,356.84109 369.42914,356.09754 L 375.31804,365.13828 L 385.32475,365.30915 L 377.64289,354.96226 C 377.54777,354.36038 378.74272,354.28971 379.41633,354.00437 L 374.16976,349.59979 C 371.94889,350.88078 364.78411,350.51381 358.57064,350.46394 L 359.14481,342.60155 C 361.53641,342.57919 364.48526,342.45229 367.21987,342.33457 C 370.25492,342.2039 373.03367,342.10739 374.65694,342.66728 L 381.57764,339.8112 z"
         style="fill:#003a74;fill-opacity:1;fill-rule:evenodd;stroke:none;stroke-width:1px;stroke-linecap:butt;stroke-linejoin:miter;stroke-opacity:1" />
      <path
         sodipodi:nodetypes="cccccsscc"
         id="path2426"
         d="M 377.64289,354.96226 C 377.54777,354.36038 378.74272,354.28971 379.41633,354.00437 C 383.31467,352.73572 382.67047,346.19314 381.57764,339.8112 C 380.79388,337.28316 377.73723,335.50204 371.00428,335.44515 L 372.51816,342.22643 C 373.48193,342.26076 374.2173,342.19684 374.51074,342.63892 C 375.20561,343.68574 375.26818,346.54789 374.91347,348.2688 C 374.75131,349.05557 374.40585,349.45968 374.16379,349.59785 L 377.64289,354.96226 z"
         style="fill:#003a74;fill-opacity:1;fill-rule:evenodd;stroke:none;stroke-width:1px;stroke-linecap:butt;stroke-linejoin:miter;stroke-opacity:1" />
      <path
         sodipodi:nodetypes="cccccccccsc"
         id="path3205"
         d="M 420.47172,349.81683 L 412.80623,350.18653 L 411.94037,336.57606 L 434.82984,337.8469 C 440.35657,338.04134 443.96644,349.66018 439.19111,352.9265 L 433.77478,350.17406 C 434.58994,349.14572 434.74181,344.45877 432.11843,343.81687 C 431.01728,343.76993 429.98159,343.72299 428.56161,343.67604 C 425.77114,343.60795 423.7735,343.44659 418.86545,343.62762 C 418.85955,344.15028 418.964,344.72767 418.98051,345.20441 C 419.06617,347.67892 419.38534,349.39379 420.47172,349.81683 z"
         style="fill:#003a74;fill-opacity:1;fill-rule:evenodd;stroke:none;stroke-width:1px;stroke-linecap:butt;stroke-linejoin:miter;stroke-opacity:1" />
      <path
         sodipodi:nodetypes="cccccccccccccc"
         id="path2428"
         d="M 413.48335,360.83024 L 413.09356,354.70306 L 412.61276,347.14539 L 412.63861,347.28561 L 420.30587,349.7858 C 424.73116,349.98586 429.27427,350.06811 433.8069,350.16083 L 437.93222,349.45244 L 439.19111,352.9265 C 441.29509,352.48765 443.91435,356.65896 443.8758,360.7455 L 436.0154,361.32835 C 436.78218,359.62107 436.81682,355.60333 434.30694,354.95286 C 429.6604,354.70155 425.24269,354.31004 420.18086,354.57783 C 420.57537,359.82087 420.93084,360.27359 422.09767,361.07833 L 413.48335,360.83024 z"
         style="fill:#003a74;fill-opacity:1;fill-rule:evenodd;stroke:none;stroke-width:1px;stroke-linecap:butt;stroke-linejoin:miter;stroke-opacity:1" />
      <path
         sodipodi:nodetypes="ccccccccc"
         id="path2430"
         d="M 443.52776,358.00229 C 444.43458,361.50469 443.76534,365.80599 439.19111,367.46023 C 430.45029,367.36454 421.6219,367.13068 413.84734,366.55187 L 413.30331,358.00019 L 420.47255,357.99476 C 420.45413,359.58274 421.11925,360.48718 422.09766,361.07833 C 426.81053,361.17904 431.54027,361.28819 436.038,361.28133 C 436.70944,360.41727 436.50484,359.17776 436.4321,357.99476 L 443.52776,358.00229 z"
         style="fill:#003a74;fill-opacity:1;fill-rule:evenodd;stroke:none;stroke-width:1px;stroke-linecap:butt;stroke-linejoin:miter;stroke-opacity:1" />
      <path
         sodipodi:nodetypes="cccccccccccccc"
         id="path3211"
         d="M 468.96475,341.54876 L 464.53917,341.08776 C 456.87733,340.42105 453.33869,342.84673 453.43972,348.00217 L 454.34951,356.19028 C 454.34697,365.51299 459.82419,369.66036 468.54225,370.74694 L 473.65142,371.33646 L 473.89384,371.61396 L 472.66356,364.97047 L 467.4964,364.29527 C 465.55282,364.03458 463.369,363.06288 462.20621,360.17238 C 461.47818,357.52246 460.89163,354.51881 460.48382,351.06833 C 460.21874,349.26229 460.25493,347.48688 462.51232,347.25738 C 463.44744,347.17079 465.05566,347.32162 469.95695,347.86961 L 468.96475,341.54876 z"
         style="fill:#003a74;fill-opacity:1;fill-rule:evenodd;stroke:none;stroke-width:1px;stroke-linecap:butt;stroke-linejoin:miter;stroke-opacity:1" />
      <path
         sodipodi:nodetypes="ccccccccsccccc"
         id="path2434"
         d="M 473.65142,371.33646 L 478.00407,371.83869 C 483.86389,372.29566 489.60647,371.03474 487.64785,360.73924 L 484.73652,349.63979 C 483.43469,346.08466 481.71716,342.69581 473.27316,341.99755 L 468.96475,341.54876 L 467.83351,345.13879 L 469.91073,347.8588 C 471.65156,348.03811 472.92583,348.1789 474.23267,348.3864 C 475.98299,348.66432 477.41335,349.35201 478.28704,351.88485 L 480.89327,362.15606 C 481.16261,364.74474 481.14258,366.14461 472.69843,364.95884 L 471.25698,368.14206 L 473.65142,371.33646 z"
         style="fill:#003a74;fill-opacity:1;fill-rule:evenodd;stroke:none;stroke-width:1px;stroke-linecap:butt;stroke-linejoin:miter;stroke-opacity:1" />
    </g>
  </g>
</svg>
