<?xml version="1.0" encoding="iso-8859-1"?>
<!-- Generator: Adobe Illustrator 14.0.0, SVG Export Plug-In . SVG Version: 6.00 Build 43363)  -->
<!DOCTYPE svg PUBLIC "-//W3C//DTD SVG 1.1//EN" "http://www.w3.org/Graphics/SVG/1.1/DTD/svg11.dtd">
<svg version="1.1" id="Layer_1" xmlns="http://www.w3.org/2000/svg" xmlns:xlink="http://www.w3.org/1999/xlink" x="0px" y="0px"
	 width="210px" height="250px" viewBox="0 0 210 250" style="enable-background:new 0 0 210 250;" xml:space="preserve">
<g>
	<path style="fill-rule:evenodd;clip-rule:evenodd;" d="M9.4,63.828c-0.718-0.088-1.26,0.212-1.597,0.901
		c-0.33,0.674-0.183,1.26,0.308,1.501c0.608,0.293,0.967-0.205,1.699-1.04c0.432-0.491,0.806-0.938,1.392-1.208
		c0.483-0.22,0.981-0.205,1.523,0.059c1.069,0.52,1.421,1.846,0.667,3.391c-0.623,1.274-1.78,1.897-3.083,1.655l0.308-1.165
		c0.835,0.146,1.531-0.227,1.934-1.062c0.337-0.696,0.176-1.384-0.286-1.611c-0.681-0.33-1.033,0.117-1.765,0.959
		c-0.454,0.527-0.835,1.04-1.531,1.304c-0.403,0.154-0.85,0.139-1.26-0.066c-1.084-0.527-1.443-1.787-0.762-3.193
		c0.557-1.143,1.509-1.685,2.681-1.545L9.4,63.828z"/>
	<path style="fill-rule:evenodd;clip-rule:evenodd;" d="M11.876,55.457l3.772,2.314c0.923,0.571,1.567,0.491,2.058-0.308
		c0.498-0.806,0.278-1.436-0.652-2.007l-3.757-2.314l0.542-0.872l3.801,2.344c1.465,0.901,1.765,2.051,0.872,3.494
		c-0.491,0.798-1.165,1.252-1.912,1.304c-0.439,0.037-0.952-0.161-1.589-0.557l-3.794-2.336L11.876,55.457z"/>
	<polygon style="fill-rule:evenodd;clip-rule:evenodd;" points="18.409,45.781 24.181,46.558 20.189,43.496 20.812,42.69 
		26.268,46.917 25.58,47.81 19.273,46.953 23.639,50.315 23.009,51.128 17.552,46.887 	"/>
	<path style="fill-rule:evenodd;clip-rule:evenodd;" d="M30.187,41.028l0.732-0.74c0.879-0.908,0.754-2.058-0.366-3.149
		c-1.113-1.091-2.263-1.194-3.149-0.286l-0.725,0.74L30.187,41.028z M26.759,36.099c0.549-0.557,1.099-0.894,1.67-0.989
		c1.069-0.198,2.175,0.176,3.083,1.069c1.487,1.458,1.56,3.333,0.095,4.827l-1.575,1.611l-4.929-4.827L26.759,36.099z"/>
	<path style="fill-rule:evenodd;clip-rule:evenodd;" d="M37.086,32.166l1.421-1.157l-2.578-1.699L37.086,32.166z M35.812,27.881
		l6.079,3.948l-0.981,0.798l-1.611-1.062l-1.846,1.501l0.732,1.772L37.35,35.52l-2.622-6.76L35.812,27.881z"/>
	<polygon style="fill-rule:evenodd;clip-rule:evenodd;" points="45.113,25.991 41.004,23.94 42.14,23.193 45.179,24.768 
		44.908,21.37 45.868,20.74 46.153,25.303 47.765,27.756 46.725,28.438 	"/>
	<polygon style="fill-rule:evenodd;clip-rule:evenodd;" points="53.5,22.82 54.107,23.911 54.129,25.764 53.617,26.042 
		53.507,24.402 52.965,24.702 52.291,23.479 	"/>
	<path style="fill-rule:evenodd;clip-rule:evenodd;" d="M67.43,10.75l1.487,4.314c0.557,1.597,0.205,2.542-1.274,3.054
		c-0.352,0.125-0.71,0.198-1.084,0.227l-0.352-0.981c0.352-0.037,0.659-0.095,0.894-0.176c0.806-0.278,0.967-0.769,0.645-1.692
		l-1.501-4.329L67.43,10.75z"/>
	<path style="fill-rule:evenodd;clip-rule:evenodd;" d="M75.655,12.632l1.78-0.432l-1.604-2.637L75.655,12.632z M76.329,8.223
		l3.823,6.167l-1.23,0.3l-1.003-1.648l-2.307,0.564l-0.103,1.926l-1.04,0.256l0.513-7.236L76.329,8.223z"/>
	<polygon style="fill-rule:evenodd;clip-rule:evenodd;" points="85.477,6.406 89.088,10.969 88.333,5.996 89.352,5.85 90.34,12.683 
		89.227,12.837 85.279,7.842 86.085,13.291 85.074,13.445 84.085,6.604 	"/>
	<path style="fill-rule:evenodd;clip-rule:evenodd;" d="M96.954,5.183l0.22,4.417c0.051,1.084,0.483,1.575,1.421,1.523
		c0.952-0.044,1.34-0.586,1.289-1.677l-0.22-4.395L100.689,5l0.22,4.46c0.088,1.714-0.696,2.607-2.38,2.695
		c-0.945,0.044-1.699-0.256-2.168-0.842c-0.271-0.344-0.403-0.872-0.439-1.619l-0.22-4.453L96.954,5.183z"/>
	<path style="fill-rule:evenodd;clip-rule:evenodd;" d="M107.882,9.124l1.824,0.066l-0.82-2.974L107.882,9.124z M109.728,5.059
		l1.992,6.965l-1.26-0.037l-0.513-1.86l-2.373-0.081l-0.622,1.816l-1.07-0.029l2.454-6.819L109.728,5.059z"/>
	<path style="fill-rule:evenodd;clip-rule:evenodd;" d="M118.451,8.772l1.304,0.161c0.938,0.117,1.45-0.19,1.538-0.879
		c0.08-0.659-0.352-1.099-1.253-1.208l-1.333-0.168L118.451,8.772z M120.274,5.916c1.692,0.205,2.469,0.981,2.308,2.263
		c-0.11,0.864-0.608,1.421-1.479,1.633l0.959,3.281l-1.289-0.161l-0.871-3.04l-1.567-0.19l-0.359,2.886l-1.23-0.154l0.843-6.855
		L120.274,5.916z"/>
	<polygon style="fill-rule:evenodd;clip-rule:evenodd;" points="129.188,11.445 127.782,7.065 129.101,7.358 130.111,10.625 
		132.345,8.062 133.466,8.311 130.404,11.702 129.774,14.565 128.565,14.302 	"/>
	<path style="fill-rule:evenodd;clip-rule:evenodd;" d="M149.542,13.518c1.385,0.586,1.904,1.802,1.406,2.981
		c-0.461,1.099-1.948,1.648-4.563,2.183l3.149,1.326l-0.439,0.974l-4.607-1.948l0.389-0.923c2.937-0.674,4.556-1.157,4.951-2.102
		c0.271-0.637-0.008-1.311-0.696-1.597c-0.718-0.308-1.428-0.015-1.838,0.806l-0.901-0.696
		C147.169,13.379,148.363,13.02,149.542,13.518"/>
	<path style="fill-rule:evenodd;clip-rule:evenodd;" d="M157.123,19.744c-0.374,0.681-0.161,1.443,0.461,1.794
		c0.726,0.403,1.575,0.176,1.941-0.483c0.388-0.696,0.176-1.501-0.55-1.904C158.316,18.784,157.533,19.019,157.123,19.744
		 M156.874,22.219c-1.113-0.615-1.473-1.897-0.85-3.018c0.278-0.491,0.725-0.864,1.281-1.069c0.659-0.249,1.414-0.183,2.08,0.19
		c1.509,0.842,1.831,2.432,0.784,4.314c-1.15,2.058-2.827,2.761-4.329,1.926c-0.952-0.535-1.384-1.392-1.237-2.439l1.032,0.3
		c-0.021,0.623,0.176,1.047,0.638,1.304c0.944,0.535,1.882,0.007,2.746-1.545c0.015-0.022,0.015-0.029,0.029-0.044
		C158.383,22.593,157.599,22.629,156.874,22.219z"/>
	<polygon style="fill-rule:evenodd;clip-rule:evenodd;" points="164.901,28.496 164.19,29.529 162.55,30.378 162.066,30.049 
		163.487,29.214 162.975,28.862 163.759,27.712 	"/>
	<path style="fill-rule:evenodd;clip-rule:evenodd;" d="M182.509,35.981l-4.321,4.292l1.289,1.296l-0.674,0.674l-3.509-3.53
		l0.674-0.674l1.385,1.392l3.332-3.311c-0.791-0.029-1.486-0.176-2.087-0.425l0.754-0.747c0.879,0.396,1.736,0.52,2.527,0.403
		L182.509,35.981z"/>
	<path style="fill-rule:evenodd;clip-rule:evenodd;" d="M186.464,43.906c-0.601,0.483-0.703,1.274-0.249,1.838
		c0.52,0.652,1.392,0.754,1.984,0.286c0.623-0.498,0.726-1.326,0.213-1.97C187.936,43.467,187.115,43.386,186.464,43.906
		 M185.292,46.104c-0.791-0.989-0.638-2.314,0.366-3.113c0.439-0.359,0.996-0.535,1.589-0.513c0.703,0.022,1.377,0.366,1.854,0.967
		c1.084,1.348,0.776,2.944-0.908,4.292c-1.839,1.472-3.662,1.494-4.739,0.146c-0.681-0.857-0.762-1.809-0.22-2.732l0.843,0.674
		c-0.257,0.571-0.242,1.04,0.088,1.45c0.681,0.85,1.75,0.718,3.142-0.396c0.015-0.007,0.022-0.015,0.037-0.029
		C186.559,47.019,185.819,46.763,185.292,46.104z"/>
	<path style="fill-rule:evenodd;clip-rule:evenodd;" d="M192.872,52.571c-0.651,0.425-0.827,1.194-0.439,1.802
		c0.454,0.703,1.312,0.894,1.948,0.483c0.667-0.432,0.857-1.238,0.41-1.934C194.381,52.285,193.575,52.117,192.872,52.571
		 M191.48,54.636c-0.688-1.069-0.396-2.366,0.682-3.062c0.476-0.308,1.047-0.425,1.633-0.344c0.703,0.095,1.333,0.505,1.751,1.15
		c0.938,1.458,0.469,3.01-1.348,4.182c-1.978,1.274-3.794,1.106-4.731-0.344c-0.586-0.923-0.564-1.882,0.065-2.739l0.762,0.754
		c-0.308,0.542-0.337,1.011-0.051,1.45c0.586,0.916,1.662,0.901,3.156-0.066c0.015-0.015,0.029-0.015,0.044-0.029
		C192.646,55.676,191.935,55.339,191.48,54.636z"/>
	<path style="fill-rule:evenodd;clip-rule:evenodd;" d="M201.998,64.063l-0.988,0.388l-1.494-2.9l-1.729,0.762
		c0.601,0.183,0.974,0.527,1.26,1.084c0.63,1.216,0.22,2.512-0.975,3.127c-0.557,0.286-1.157,0.352-1.729,0.19
		c-0.681-0.198-1.26-0.696-1.618-1.406c-0.615-1.187-0.498-2.285,0.344-3.127l0.711,0.842c-0.483,0.491-0.564,1.128-0.271,1.714
		c0.425,0.82,1.245,1.106,1.985,0.725c0.718-0.366,0.974-1.201,0.593-1.934c-0.249-0.491-0.695-0.776-1.274-0.791l-0.293-0.916
		l3.523-1.56L201.998,64.063z"/>
	<path style="fill-rule:evenodd;clip-rule:evenodd;" d="M25.067,224.777v4.563c0,1.692-0.652,2.468-2.205,2.468
		c-0.381,0-0.74-0.043-1.113-0.139v-1.04c0.337,0.081,0.652,0.124,0.901,0.124c0.857,0,1.165-0.417,1.165-1.391v-4.586H25.067z"/>
	<path style="fill-rule:evenodd;clip-rule:evenodd;" d="M31.981,228.221c0,1.67,0.623,2.585,1.633,2.585
		c1.003,0,1.626-0.923,1.626-2.585c0-1.663-0.623-2.586-1.626-2.586C32.604,225.635,31.981,226.551,31.981,228.221 M36.588,228.221
		c0,2.197-1.223,3.588-2.974,3.588c-1.758,0-2.974-1.384-2.974-3.588c0-2.205,1.216-3.582,2.974-3.582
		C35.365,224.639,36.588,226.023,36.588,228.221z"/>
	<polygon style="fill-rule:evenodd;clip-rule:evenodd;" points="46.783,224.777 46.783,225.767 43.355,225.767 43.355,227.605 
		46.095,227.605 46.095,228.543 43.355,228.543 43.355,230.674 46.856,230.674 46.856,231.685 42.14,231.685 42.14,224.777 	"/>
	<path style="fill-rule:evenodd;clip-rule:evenodd;" d="M58.019,227.84h1.318c0.945,0,1.421-0.367,1.421-1.063
		c0-0.666-0.483-1.047-1.392-1.047h-1.348V227.84z M59.483,224.777c1.699,0,2.563,0.674,2.563,1.971c0,0.864-0.425,1.486-1.26,1.802
		l1.348,3.135h-1.304l-1.23-2.907h-1.582v2.907h-1.245v-6.907H59.483z"/>
	<path style="fill-rule:evenodd;clip-rule:evenodd;" d="M68.558,228.221c0,1.67,0.623,2.585,1.633,2.585
		c0.996,0,1.626-0.923,1.626-2.585c0-1.663-0.63-2.586-1.626-2.586C69.181,225.635,68.558,226.551,68.558,228.221 M73.165,228.221
		c0,2.197-1.23,3.588-2.974,3.588c-1.758,0-2.974-1.384-2.974-3.588c0-2.205,1.216-3.582,2.974-3.582
		C71.935,224.639,73.165,226.023,73.165,228.221z"/>
	<path style="fill-rule:evenodd;clip-rule:evenodd;" d="M79.874,227.642h1.348c0.82,0,1.245-0.345,1.245-0.996
		c0-0.586-0.41-0.923-1.172-0.923h-1.421V227.642v3.069h1.436c0.879,0,1.333-0.381,1.333-1.048c0-0.726-0.476-1.106-1.421-1.106
		h-1.348v2.154V227.642z M81.544,224.777c1.399,0,2.153,0.667,2.153,1.744c0,0.754-0.425,1.318-1.187,1.523
		c0.923,0.248,1.399,0.842,1.399,1.729c0,1.23-0.842,1.911-2.454,1.911h-2.769v-6.907H81.544z"/>
	<path style="fill-rule:evenodd;clip-rule:evenodd;" d="M90.619,227.642h1.348c0.82,0,1.245-0.345,1.245-0.996
		c0-0.586-0.403-0.923-1.172-0.923h-1.421V227.642v3.069h1.443c0.872,0,1.333-0.381,1.333-1.048c0-0.726-0.476-1.106-1.428-1.106
		h-1.348v2.154V227.642z M92.289,224.777c1.399,0,2.161,0.667,2.161,1.744c0,0.754-0.432,1.318-1.194,1.523
		c0.923,0.248,1.399,0.842,1.399,1.729c0,1.23-0.835,1.911-2.454,1.911h-2.769v-6.907H92.289z"/>
	<rect x="100.235" y="224.777" style="fill-rule:evenodd;clip-rule:evenodd;" width="1.26" height="6.907"/>
	<polygon style="fill-rule:evenodd;clip-rule:evenodd;" points="112.094,224.777 112.094,225.767 108.658,225.767 108.658,227.605 
		111.397,227.605 111.397,228.543 108.658,228.543 108.658,230.674 112.159,230.674 112.159,231.685 107.442,231.685 
		107.442,224.777 	"/>
	<path style="fill-rule:evenodd;clip-rule:evenodd;" d="M125.922,226.646c-0.234-0.681-0.74-1.04-1.509-1.04
		c-0.755,0-1.216,0.389-1.216,0.938c0,0.674,0.607,0.77,1.685,1.069c0.622,0.169,1.193,0.308,1.685,0.718
		c0.41,0.337,0.622,0.791,0.622,1.406c0,1.18-1.047,2.072-2.754,2.072c-1.428,0-2.49-0.762-2.849-2.043l1.187-0.234
		c0.234,0.82,0.879,1.274,1.802,1.274c0.776,0,1.318-0.446,1.318-0.967c0-0.755-0.557-0.872-1.626-1.165
		c-0.682-0.176-1.304-0.293-1.846-0.805c-0.315-0.293-0.491-0.703-0.491-1.165c0-1.201,0.975-2.073,2.534-2.073
		c1.274,0,2.176,0.615,2.563,1.729L125.922,226.646z"/>
	<polygon style="fill-rule:evenodd;clip-rule:evenodd;" points="136.783,224.777 136.783,225.773 135.025,225.773 135.025,231.685 
		133.773,231.685 133.773,225.773 132.016,225.773 132.016,224.777 	"/>
	<path style="fill-rule:evenodd;clip-rule:evenodd;" d="M142.724,228.908h1.823l-0.923-2.943L142.724,228.908z M144.43,224.777
		l2.227,6.907h-1.26l-0.578-1.846h-2.373l-0.557,1.846h-1.077l2.227-6.907H144.43z"/>
	<path style="fill-rule:evenodd;clip-rule:evenodd;" d="M153.102,230.674h1.04c1.268,0,2-0.894,2-2.453
		c0-1.561-0.732-2.454-2.007-2.454h-1.033V230.674z M154.223,224.777c0.791,0,1.413,0.162,1.882,0.498
		c0.887,0.631,1.392,1.678,1.392,2.959c0,2.088-1.289,3.45-3.384,3.45h-2.256v-6.907H154.223z"/>
	<rect x="163.056" y="224.777" style="fill-rule:evenodd;clip-rule:evenodd;" width="1.267" height="6.907"/>
	<path style="fill-rule:evenodd;clip-rule:evenodd;" d="M171.508,224.777v4.424c0,1.092,0.41,1.598,1.34,1.598
		c0.96,0,1.377-0.521,1.377-1.611v-4.41h1.025v4.469c0,1.721-0.827,2.578-2.52,2.578c-0.944,0-1.677-0.338-2.116-0.945
		c-0.264-0.359-0.359-0.9-0.359-1.641v-4.461H171.508z"/>
	<polygon style="fill-rule:evenodd;clip-rule:evenodd;" points="182.86,224.777 184.618,229.92 186.332,224.777 188.061,224.777 
		188.061,231.685 186.874,231.685 186.889,225.884 184.926,231.685 184.091,231.685 182.149,225.861 182.172,231.685 
		181.168,231.685 181.168,224.777 	"/>
	<polygon style="fill-rule:evenodd;clip-rule:evenodd;" points="43.883,236.533 45.641,241.675 47.354,236.533 49.083,236.533 
		49.083,243.433 47.896,243.433 47.911,237.639 45.948,243.433 45.113,243.433 43.18,237.617 43.194,243.433 42.191,243.433 
		42.191,236.533 	"/>
	<rect x="55.03" y="236.533" style="fill-rule:evenodd;clip-rule:evenodd;" width="1.267" height="6.899"/>
	<path style="fill-rule:evenodd;clip-rule:evenodd;" d="M63.395,240.656h1.831l-0.923-2.937L63.395,240.656z M65.108,236.533
		l2.227,6.899h-1.267l-0.579-1.839h-2.373l-0.557,1.839h-1.077l2.227-6.899H65.108z"/>
	<polygon style="fill-rule:evenodd;clip-rule:evenodd;" points="74.22,236.533 75.978,241.675 77.691,236.533 79.42,236.533 
		79.42,243.433 78.241,243.433 78.248,237.639 76.285,243.433 75.45,243.433 73.517,237.617 73.531,243.433 72.528,243.433 
		72.528,236.533 	"/>
	<rect x="85.375" y="236.533" style="fill-rule:evenodd;clip-rule:evenodd;" width="1.267" height="6.899"/>
	<polygon style="fill-rule:evenodd;clip-rule:evenodd;" points="94.083,242.114 94.083,243.367 93.211,245 92.625,245 
		93.321,243.506 92.699,243.506 92.699,242.114 	"/>
	<polygon style="fill-rule:evenodd;clip-rule:evenodd;" points="109.156,236.533 109.156,237.515 105.824,237.515 105.824,239.396 
		108.453,239.396 108.453,240.35 105.824,240.35 105.824,243.433 104.579,243.433 104.579,236.533 	"/>
	<polygon style="fill-rule:evenodd;clip-rule:evenodd;" points="115.551,236.533 115.551,242.407 118.554,242.407 118.554,243.433 
		114.291,243.433 114.291,236.533 	"/>
	<path style="fill-rule:evenodd;clip-rule:evenodd;" d="M124.237,239.976c0,1.67,0.63,2.585,1.633,2.585
		c1.004,0,1.634-0.922,1.634-2.585s-0.63-2.585-1.634-2.585C124.867,237.391,124.237,238.306,124.237,239.976 M128.844,239.976
		c0,2.197-1.223,3.589-2.974,3.589c-1.75,0-2.974-1.385-2.974-3.589c0-2.212,1.224-3.581,2.974-3.581
		C127.621,236.395,128.844,237.778,128.844,239.976z"/>
	<path style="fill-rule:evenodd;clip-rule:evenodd;" d="M135.641,239.595h1.318c0.938,0,1.421-0.366,1.421-1.062
		c0-0.667-0.49-1.048-1.392-1.048h-1.348V239.595z M137.105,236.533c1.699,0,2.563,0.674,2.563,1.971
		c0,0.863-0.425,1.479-1.26,1.794l1.348,3.135h-1.296l-1.238-2.9h-1.582v2.9h-1.245v-6.899H137.105z"/>
	<rect x="145.221" y="236.533" style="fill-rule:evenodd;clip-rule:evenodd;" width="1.268" height="6.899"/>
	<path style="fill-rule:evenodd;clip-rule:evenodd;" d="M153.681,242.43h1.047c1.26,0,2-0.895,2-2.454s-0.74-2.461-2.015-2.461
		h-1.032V242.43z M154.809,236.533c0.783,0,1.406,0.161,1.875,0.498c0.886,0.623,1.392,1.678,1.392,2.951
		c0,2.088-1.289,3.45-3.384,3.45h-2.256v-6.899H154.809z"/>
	<path style="fill-rule:evenodd;clip-rule:evenodd;" d="M164.762,240.656h1.831l-0.923-2.937L164.762,240.656z M166.476,236.533
		l2.227,6.899h-1.267l-0.571-1.839h-2.381l-0.557,1.839h-1.069l2.227-6.899H166.476z"/>
	<path style="fill-rule:evenodd;clip-rule:evenodd;fill:#FAA74A;" d="M44.205,90.84l-24.111-0.828l3.384,2.9l15.959,3.992
		l8.708,15.278V81.897c0-2.241,0.864-4.285,2.271-5.83L30.45,70.845L44.205,90.84z"/>
	<polygon style="fill-rule:evenodd;clip-rule:evenodd;fill:#FAA74A;" points="105.003,214.399 131.693,179.507 104.344,179.631 
		98.778,170.168 94.01,179.463 78.307,179.507 	"/>
	<polygon style="fill-rule:evenodd;clip-rule:evenodd;fill:#5087C7;" points="149.425,102.764 158.624,120.327 171.368,97.959 
		205.229,89.492 171.815,141.092 192.931,178.518 165.128,178.335 157.284,164.082 148.106,178.335 105.04,178.416 98.697,167.642 
		93.263,178.247 61.9,178.335 52.716,164.082 44.879,178.335 17.076,178.518 38.192,141.092 4.771,89.492 38.639,97.959 
		51.383,120.327 60.582,102.764 94.068,110.271 98.983,118.936 101.437,113.574 	"/>
	<polygon style="fill-rule:evenodd;clip-rule:evenodd;fill:#FFFFFF;" points="145.675,174.043 157.892,155.205 168.607,174.043 
		185.328,174.043 166.938,141.245 195.772,96.758 174.716,101.614 159.35,127.717 147.975,107.422 104.007,117.17 98.924,127.256 
		92.801,114.27 62.032,107.422 50.65,127.717 35.284,101.614 14.234,96.758 43.07,141.245 24.679,174.043 41.393,174.043 
		52.115,155.205 64.332,174.043 89.806,174.043 98.558,156.867 106.967,173.955 	"/>
	<polygon style="fill-rule:evenodd;clip-rule:evenodd;fill:#A70054;" points="151.396,143.625 134.198,172.827 145.016,172.827 
		157.226,153.996 	"/>
	<polygon style="fill-rule:evenodd;clip-rule:evenodd;fill:#A70054;" points="166.256,140.051 193.121,98.618 175.499,102.683 
		160.009,128.992 	"/>
	<polygon style="fill-rule:evenodd;clip-rule:evenodd;fill:#A70054;" points="147.353,108.806 183.248,172.827 169.317,172.827 
		134.521,111.648 	"/>
	<polygon style="fill-rule:evenodd;clip-rule:evenodd;fill:#A70054;" points="92.069,140.93 77.97,112.278 91.952,115.332 
		98.243,128.662 	"/>
	<polygon style="fill-rule:evenodd;clip-rule:evenodd;fill:#A70054;" points="105.296,143.611 119.037,172.739 107.721,172.739 
		99.269,155.549 	"/>
	<polygon style="fill-rule:evenodd;clip-rule:evenodd;fill:#A70054;" points="104.798,118.306 77.325,172.827 89.059,172.827 
		118.414,115.237 	"/>
	<path style="fill-rule:evenodd;clip-rule:evenodd;fill:#FAA74A;" d="M165.802,90.84l24.111-0.828l-3.391,2.9l-15.952,3.992
		l-8.709,15.278V81.897c0-2.241-0.864-4.285-2.271-5.83l19.966-5.222L165.802,90.84z"/>
	<path style="fill-rule:evenodd;clip-rule:evenodd;fill:#5087C7;" d="M150.069,101.372l8.599,16.414l1.978-3.472V81.897
		c0-1.992-0.776-3.867-2.189-5.281c-1.414-1.414-3.289-2.19-5.288-2.19H56.832c-1.992,0-3.867,0.776-5.288,2.19
		c-1.406,1.414-2.183,3.289-2.183,5.281v32.417l1.978,3.472l8.599-16.414l34.929,7.83l3.999,7.068l1.78-3.882L150.069,101.372z"/>
	<path style="fill:none;stroke:#FFFFFF;stroke-width:1.5152;stroke-miterlimit:10;" d="M104.974,63.264
		c11.221,0,20.918,4.08,25.334,9.946"/>
	
		<line style="fill:none;stroke:#FFFFFF;stroke-width:1.5152;stroke-miterlimit:10;" x1="130.309" y1="73.21" x2="153.168" y2="73.21"/>
	<path style="fill:none;stroke:#FFFFFF;stroke-width:1.5152;stroke-miterlimit:10;" d="M153.168,73.21
		c1.413,0,2.739,0.344,3.926,0.945"/>
	<path style="fill:none;stroke:#FFFFFF;stroke-width:1.5152;stroke-miterlimit:10;" d="M52.914,74.155
		c1.179-0.601,2.512-0.945,3.918-0.945"/>
	
		<line style="fill:none;stroke:#FFFFFF;stroke-width:1.5152;stroke-miterlimit:10;" x1="56.832" y1="73.21" x2="79.698" y2="73.21"/>
	<path style="fill:none;stroke:#FFFFFF;stroke-width:1.5152;stroke-miterlimit:10;" d="M79.698,73.21
		c4.417-5.867,14.114-9.946,25.334-9.946"/>
	<polyline style="fill:#FAA74A;" points="157.094,74.155 164.975,54.973 143.749,66.106 147.045,43.02 128.5,59.097 125.409,35.601 
		112.841,55.391 105.003,33.022 97.167,55.391 84.598,35.601 81.507,59.097 62.955,43.02 66.251,66.106 45.025,54.973 
		52.914,74.155 	"/>
	<path style="fill-rule:evenodd;clip-rule:evenodd;fill:#A70054;" d="M127.987,72.273c-4.805-4.805-13.602-7.793-22.955-7.793
		s-18.142,2.988-22.947,7.793c-0.308,0.308-0.601,0.623-0.864,0.938h47.63C128.58,72.896,128.287,72.581,127.987,72.273"/>
	<polygon style="fill-rule:evenodd;clip-rule:evenodd;fill:#A70054;" points="43.744,140.051 16.886,98.618 34.508,102.683 
		49.991,128.992 	"/>
	<polygon style="fill-rule:evenodd;clip-rule:evenodd;fill:#A70054;" points="62.655,108.806 26.759,172.827 40.689,172.827 
		75.487,111.648 	"/>
	<polygon style="fill-rule:evenodd;clip-rule:evenodd;fill:#A70054;" points="58.612,143.625 75.802,172.827 64.991,172.827 
		52.782,153.996 	"/>
	<polygon style="fill-rule:evenodd;clip-rule:evenodd;fill:#5087C7;" points="76.534,171.678 59.352,142.482 76.578,112.197 
		91.366,142.256 	"/>
	<polygon style="fill-rule:evenodd;clip-rule:evenodd;fill:#5087C7;" points="106.007,142.264 119.571,115.654 119.535,170.93 	"/>
	<polygon style="fill-rule:evenodd;clip-rule:evenodd;fill:#5087C7;" points="133.173,111.956 150.655,142.482 133.173,172.102 	"/>
	<polygon style="fill-rule:evenodd;clip-rule:evenodd;fill:#FFFFFF;" points="76.095,119.8 63.878,142.439 75.919,163.203 
		86.993,141.984 	"/>
	<polygon style="fill-rule:evenodd;clip-rule:evenodd;fill:#5087C7;" points="75.86,160.684 65.27,142.417 76.036,122.458 
		85.631,141.971 	"/>
	<polygon style="fill-rule:evenodd;clip-rule:evenodd;fill:#FFFFFF;" points="110.409,142.688 115.8,153.807 115.8,131.805 	"/>
	<polygon style="fill-rule:evenodd;clip-rule:evenodd;fill:#5087C7;" points="114.576,148.504 111.764,142.695 114.576,137.004 	"/>
	<polygon style="fill-rule:evenodd;clip-rule:evenodd;fill:#A70054;" points="131.957,112.227 131.949,172.827 120.751,172.791 
		120.787,114.731 	"/>
	<polygon style="fill-rule:evenodd;clip-rule:evenodd;fill:#FFFFFF;" points="136.944,158.252 146.129,142.439 136.944,125.417 	"/>
	<polygon style="fill-rule:evenodd;clip-rule:evenodd;fill:#5087C7;" points="138.16,130.229 144.737,142.417 138.16,153.726 	"/>
	<path style="fill-rule:evenodd;clip-rule:evenodd;fill:#FFFFFF;" d="M64.208,82.578h2.703v3.633h1.802v-3.633
		c0.015-0.527-0.088-0.901-0.454-1.289c-0.381-0.417-0.791-0.542-1.348-0.505h-2.703c-0.476-0.059-0.974-0.015-1.384,0.359
		c-0.425,0.396-0.417,0.879-0.417,1.436v5.757c-0.022,0.417,0.073,0.681,0.308,1.033c0.359,0.52,1.047,0.535,1.494,0.615
		l2.644,0.557v5.273l-2.644-0.593v-2.871h-1.802v3.127c0.066,0.337,0.139,0.535,0.337,0.813c0.388,0.535,0.93,0.703,1.465,0.842
		l2.703,0.542c0.417,0.022,0.703-0.015,1.04-0.256c0.469-0.33,0.732-0.674,0.762-1.238v-5.64c0.044-0.513-0.059-0.864-0.396-1.26
		c-0.381-0.447-0.842-0.388-1.406-0.535l-2.703-0.586V82.578z"/>
	<path style="fill-rule:evenodd;clip-rule:evenodd;fill:#FFFFFF;" d="M71.078,80.784h1.794v16.348l2.71,0.623v-16.97h1.802v17.366
		l0.952,0.227v1.86l-5.881-1.355c-0.535-0.11-0.864-0.154-1.15-0.564c-0.278-0.381-0.227-0.593-0.227-1.187V80.784z"/>
	<path style="fill-rule:evenodd;clip-rule:evenodd;fill:#FFFFFF;" d="M90.78,80.784h3.376c0.439,0.007,0.718,0.125,1.04,0.417
		c0.256,0.227,0.425,0.476,0.425,0.82v4.614h-1.802v-4.058h-2.703v8.108h4.197v1.802h-4.197v8.811l2.703,0.564v-5.288h1.802v6.108
		c0,0.417-0.293,0.63-0.645,0.872c-0.242,0.161-0.417,0.212-0.703,0.249l-3.691-0.813c-0.359-0.073-0.593-0.168-0.813-0.476
		c-0.33-0.454-0.454-0.652-0.454-1.355v-8.672h-0.952v-1.802h0.952v-8.525c0.007-0.425,0.146-0.696,0.454-0.989
		S90.245,80.784,90.78,80.784"/>
	<path style="fill-rule:evenodd;clip-rule:evenodd;fill:#FFFFFF;" d="M141.002,80.784h1.802v14.912l2.703-0.557v-4.453h1.802v4.504
		c0.029,0.483,0.036,0.688-0.169,1.04c-0.168,0.293-0.366,0.41-0.674,0.513l-4.167,0.952c-0.425,0.146-0.63,0.051-0.931-0.168
		c-0.293-0.205-0.381-0.483-0.366-0.842V80.784z"/>
	<path style="fill-rule:evenodd;clip-rule:evenodd;fill:#FFFFFF;" d="M82.335,90.686h2.703v-8.108h-2.703V90.686z M80.533,90.686
		v-9.902h4.783c0.469,0.059,0.754,0.212,1.077,0.557c0.278,0.308,0.417,0.549,0.447,0.959v8.752
		c-0.037,0.461-0.146,0.784-0.505,1.069c-0.352,0.286-0.645,0.381-1.099,0.366h-2.9v8.591l-1.802-0.396v-8.196h-1.157v-1.802H80.533
		z"/>
	<path style="fill-rule:evenodd;clip-rule:evenodd;fill:#FFFFFF;" d="M100.47,90.686h1.062l1.663-1.179v-6.929h-2.725V90.686z
		 M98.661,80.784h4.849c0.505-0.029,0.732-0.037,1.04,0.249c0.359,0.344,0.417,0.674,0.417,1.208v7.324
		c-0.051,0.308-0.088,0.535-0.249,0.754c-0.125,0.168-1.04,0.791-1.523,1.128c0.652,0.535,0.989,0.652,1.494,1.099
		c0.161,0.146,0.183,0.286,0.278,0.476v13.066l-1.772-0.396V93.564l-1.545-1.077h-1.157V105.1l-1.831-0.366V92.488l-1.135,0.015
		l0.015-1.816h1.121V80.784z"/>
	<path style="fill-rule:evenodd;clip-rule:evenodd;fill:#FFFFFF;" d="M113.925,90.686h1.069l1.655-1.179v-6.929h-2.725V90.686
		l0.051,11.462l2.703-0.652v-8.049l-1.655-0.959h-1.048v9.661L113.925,90.686z M112.174,80.784h4.842
		c0.402,0,0.645,0.11,0.959,0.359c0.345,0.278,0.454,0.579,0.506,1.018v7.236c-0.044,0.337-0.103,0.542-0.308,0.813
		c-0.447,0.593-1.128,0.842-1.494,1.238c0.732,0.564,1.011,0.703,1.523,1.208c0.227,0.234,0.308,0.535,0.278,0.791v8.474
		c-0.088,0.315-0.132,0.513-0.337,0.762c-0.264,0.322-0.498,0.476-0.901,0.564l-5.068,1.091V92.488h-1.12v-1.802h1.12V80.784z"/>
	<path style="fill-rule:evenodd;clip-rule:evenodd;fill:#FFFFFF;" d="M122.758,100.149l2.702-0.593V82.578h-2.702V100.149z
		 M120.963,82.131c0.052-0.388,0.169-0.623,0.447-0.901s0.513-0.396,0.9-0.447h3.604c0.389,0.051,0.623,0.168,0.901,0.447
		c0.308,0.308,0.417,0.579,0.446,1.011v17.6c0.096,0.374,0,0.645-0.22,0.952c-0.22,0.3-0.454,0.366-0.85,0.425l-4.108,0.93
		c-0.33,0-0.542-0.11-0.791-0.337c-0.249-0.242-0.33-0.476-0.33-0.82V82.131z"/>
	<path style="fill-rule:evenodd;clip-rule:evenodd;fill:#FFFFFF;" d="M129.745,80.784h1.802v17.454l1.802-0.396V80.784h1.802v16.663
		l1.802-0.425V80.754h1.802v16.553c0.007-0.33-0.073,0.52-0.257,0.784c-0.183,0.271-0.358,0.396-0.651,0.535l-2.695,0.681v1.597
		l-1.802,0.425v-1.633l-2.483,0.542c-0.314,0.073-0.563,0.037-0.813-0.176c-0.278-0.234-0.337-0.447-0.308-0.872V80.784z"/>
</g>
</svg>
