<?xml version="1.0" encoding="iso-8859-1"?>
<!-- Generator: Adobe Illustrator 14.0.0, SVG Export Plug-In . SVG Version: 6.00 Build 43363)  -->
<!DOCTYPE svg PUBLIC "-//W3C//DTD SVG 1.1//EN" "http://www.w3.org/Graphics/SVG/1.1/DTD/svg11.dtd">
<svg version="1.1" id="Layer_1" xmlns="http://www.w3.org/2000/svg" xmlns:xlink="http://www.w3.org/1999/xlink" x="0px" y="0px"
	 width="250px" height="141px" viewBox="0 0 250 141" style="enable-background:new 0 0 250 141;" xml:space="preserve">
<g>
	<path style="fill:#FFFFFF;" d="M182.595,52.542v-5.276l7.579-1.417V10.441C140.921,1.814,88.286,3.355,33.701,14.64l0.015,33.356
		l11.226,2.241l1.809,2.29H5V87.78h41.854l-3.143,5.219l-13.127,2.149l0.024,31.639c63.445,12.474,125.849,12.396,190.664-0.257
		l0.015-38.75H245V52.542H182.595"/>
	<path style="fill:#CBD6DF;" d="M218.358,124.114c0-0.681,0-21.973,0.006-39.149h-0.006V124.114"/>
	<polyline style="fill:#CBD6DF;" points="18.027,72.315 16.082,78.322 18.035,72.318 18.027,72.315 	"/>
	<path style="fill:#CCCCCC;" d="M153.467,106.574l-8.681,2.922c0,0-0.007,10.161-0.015,15.235l-4.636,4.417l0.007-23.145l8.66-3.057
		l-0.02-17.982h-4.252v14.319l-8.102,2.651l-11.293-3.44l-8.211-13.53l-53.813,0.012c-0.455,0.772-11.56,18.795-11.56,18.795
		l-8.489,1.452c0,0,0.008,8.909,0.008,13.364l-4.597,2.942v-20.063l9.502-1.589c0,0,6.427-9.81,9.631-14.913H52
		c-3.307,5.517-6.483,10.698-6.483,10.698l-12.008,1.97c0,8.632,0.014,24.65,0.014,24.65c60.641,11.554,122.135,11.6,182.776,0.144
		V84.965h-62.852L153.467,106.574 M89.5,123.815c-1.543,1.352-3.087,2.678-4.63,3.999c-0.007-7.426-0.007-14.854-0.015-22.542
		l6.359-1.554l6.938,2.966l-8.661,2.199C89.492,113.86,89.5,118.838,89.5,123.815z M188.774,99.576l5.821-10.652l19.063-0.949
		l-3.65,4.901l-12.627,0.851l-5.468,10.344c-4.723,0.525-16.399,1.272-20.755,1.368l3.755-5.021
		C177.683,100.306,185.551,99.803,188.774,99.576z"/>
	<path style="fill:#CCCCCC;" d="M177.655,55.341c0-8.572,0.007-12.133,0.007-12.133l7.524-1.683V12.674
		c-15.749-2.316-31.596-3.805-47.481-4.287l0.013,32.409l6.827,2.477v12.068h-30.878c2.487-4.34,4.96-8.688,7.448-13.034
		c1.702-0.563,1.495-0.404,10.41-3.338c0-10.326,0-20.389,0-30.715C99.681,7.694,67.763,10.722,36.623,17.2
		c0.006,9.282,0.014,28.388,0.014,28.388L47.054,47.7l5,7.642H7.811v27.605H240.17V55.349v-0.007H177.655 M141.583,37.012V12.951
		c13.819,0.52,27.612,1.744,41.314,3.562l-4.146,4.329V35.48l-7.558,1.677v18.184h-17.712h-0.022h-4.85V39.86l4.857-3.694
		c-2.419-0.87-4.83-1.738-7.254-2.598L141.583,37.012z M129.188,12.665c-1.378,1.785-2.763,3.329-4.141,5.131
		c0,5.149-0.005,10.299-0.005,15.455c-2.528,0.813-5.058,1.647-7.592,2.492c-3.776,6.543-7.544,13.089-11.319,19.599H86.667
		l0.014-8.578l4.21-6.755l7.282-3.729l-7.31-2.049l-4.644,3.372c-0.008-7.766-0.008-15.279-0.014-23.05
		C100.494,13.201,114.844,12.546,129.188,12.665z M45.764,38.184l-4.56,3.307c-0.007-6.941-0.007-13.621-0.007-20.556
		c14.363-2.648,28.893-4.808,43.485-6.235l-4.112,5.357l0.007,14.85l-7.544,2.896l11.423,17.54H63.519L52.995,39.595L45.764,38.184z
		 M234.327,78.322l-5.104-3.713l-5.104,3.713l-1.234,1.718h-4.521h-17.368V61.236h-3.287V80.04h-17.374V61.236h-3.287V80.04h-17.381
		V61.236h-3.286V80.04h-17.375h-6.565h-17.389V61.236h-3.286V80.04H94.398V61.236h-3.287V80.04H73.736V61.236h-3.294V80.04H53.067
		V61.236h-3.286V80.04H32.407V68.605h-2.949l-5.112,3.713l1.95,6.004l-5.104-3.713l-5.109,3.713l-0.995,1.394h-4.52V58.212h226.881
		v10.393h0.043l-5.107,3.713L234.327,78.322z"/>
	<path style="fill:#FF0000;" d="M98.159,106.699l-8.667,2.185l0.008,14.969c12.985,0.879,26,1.282,39.02,1.229
		c0-5.119,0-10.236,0-15.35c-2.845-0.855-5.69-1.721-8.536-2.6c-4.492-7.401-8.983-14.807-13.476-22.167H85.675
		C89.085,90.826,98.159,106.699,98.159,106.699"/>
	<path style="fill:#FF0000;" d="M51.553,103.771l-8.489,1.452l0.008,13.364v0.033c11.986,1.905,24.049,3.378,36.162,4.438
		c0-4.908,0-9.813-0.006-14.721c-2.826-1.032-5.657-2.052-8.485-3.082c4.138-6.562,8.271-13.348,12.418-20.291H63.125
		C62.658,85.749,51.553,103.771,51.553,103.771"/>
	<path style="fill:#FF0000;" d="M86.667,55.341h19.463c3.775-6.509,7.543-13.055,11.319-19.599c2.535-0.844,5.064-1.678,7.592-2.492
		c0-5.156,0-10.306,0-15.455c-11.402,0.022-22.811,0.485-34.178,1.36c0,5.022,0,15.08,0,15.075l7.31,2.049
		C98.173,36.28,90.505,49.059,86.667,55.341"/>
	<path style="fill:#FF0000;" d="M73.033,37.802l7.544-2.896l-0.007-14.85c-11.667,1.141-23.282,2.694-34.806,4.542V38.19
		l7.231,1.405l10.524,15.746h20.937L73.033,37.802"/>
	<polyline style="fill:#FF0000;" points="29.458,68.605 23.139,68.605 21.19,62.606 19.227,68.605 12.93,68.605 18.035,72.318 
		16.082,78.322 21.19,74.609 26.295,78.322 24.345,72.318 29.458,68.605 	"/>
	<polyline style="fill:#005495;" points="133.563,40.765 133.508,40.78 133.563,40.765 	"/>
	<path style="fill:#000099;" d="M49.781,61.236H32.407v7.369V80.04h17.375V61.236 M41.956,76.296H40.97
		c-2.991,0-4.195-1.115-4.195-1.115l0.013-2.767h1.799l0.364,1.4c0,0,0.779,0.372,2.199,0.372h0.626c1.915,0,2.046-0.38,2.046-1.055
		c0-1.058-0.889-1.014-3.355-1.744c-3.073-0.902-3.603-1.167-3.603-3.459c0-2.737,2.294-2.989,4.106-2.989h0.996
		c2.511,0,3.668,1,3.668,1l-0.014,2.568h-1.797l-0.378-1.382c-0.208-0.119-1.2-0.292-1.834-0.292h-0.345
		c-1.364,0-2.053,0-2.053,1.095c0,1.315,0.448,1.108,3.514,1.929c2.652,0.712,3.431,1.165,3.431,3.181
		C46.158,75.142,45.441,76.296,41.956,76.296z"/>
	<path style="fill:#000099;" d="M70.442,61.236H53.067V80.04h17.375V61.236 M67.273,66.941l-0.895,0.284l-0.006,5.354
		c0,2.724-0.965,3.871-4.044,3.871h-1.15c-2.998,0-4.065-1.131-4.065-3.871v-5.354l-0.869-0.284v-1.571h4.023v1.571l-0.898,0.284
		l-0.004,5.219c0,1.168,0.366,2.147,1.451,2.147h1.844c1.095,0,1.454-0.979,1.454-2.147v-5.219l-0.869-0.284v-1.571h4.03V66.941z"/>
	<path style="fill:#000099;" d="M91.111,61.236H73.736V80.04h17.375V61.236 M84.814,71.71H83.12h-1.172l-0.007,2.748l1.021,0.273
		v1.564h-4.134v-1.564l1.02-0.273v-7.277l-0.861-0.239v-1.571l5.829-0.003c1.937,0,2.625,1.484,2.625,2.841l0.006,0.638
		C87.445,70.24,86.95,71.71,84.814,71.71z"/>
	<path style="fill:#000099;" d="M84.339,67.162h-2.364l-0.006,2.744h2.377c0.606,0,0.833-0.185,0.938-0.39
		c0.061-0.118,0.088-0.265,0.103-0.433c0.013-0.179,0.013-0.363,0.013-0.551c0-0.193,0.007-0.38,0-0.557
		c0-0.177-0.021-0.315-0.075-0.425C85.234,67.346,85.014,67.162,84.339,67.162"/>
	<path style="fill:#000099;" d="M111.765,61.236H94.398V80.04h17.367V61.236 M107.397,68.295h-1.771l-0.336-1.07h-3.376v2.581h1.64
		l0.392-0.562h1.385v3.007h-1.385l-0.386-0.549h-1.646v2.714h3.376l0.336-1.048h1.771v2.927h-8.612v-1.564l1.028-0.273v-7.277
		l-0.862-0.239v-1.571h8.447V68.295z"/>
	<path style="fill:#000099;" d="M125.544,69.517c0.06-0.118,0.089-0.265,0.103-0.433c0.008-0.179,0.008-0.363,0.008-0.551
		c0-0.193,0.012-0.38,0-0.557c0-0.177-0.022-0.315-0.07-0.425c-0.09-0.204-0.31-0.388-0.985-0.388h-2.369l-0.008,2.744h2.384
		C125.213,69.906,125.441,69.721,125.544,69.517"/>
	<path style="fill:#000099;" d="M115.051,80.04h17.389V61.236h-17.389V80.04 M119.088,74.731l1.02-0.273v-7.277l-0.854-0.239v-1.571
		l5.821-0.003c1.943,0,2.631,1.067,2.631,2.841v0.638c0,2.051-0.937,2.787-1.957,2.787l1.998,2.861l0.64,0.252v1.55h-3.053v-1.663
		l-1.838-2.923h-1.281l-0.013,2.748l1.012,0.273v1.564h-4.127V74.731z"/>
	<path style="fill:#000099;" d="M149.002,67.162h-2.377l-0.008,2.539h2.385c0.605,0,0.842-0.173,0.943-0.362
		c0.063-0.106,0.083-0.236,0.099-0.396c0.02-0.163,0.012-0.337,0.012-0.51c0-0.179,0.008-0.354,0.008-0.52
		c-0.008-0.159-0.035-0.289-0.075-0.392C149.899,67.335,149.67,67.162,149.002,67.162"/>
	<path style="fill:#000099;" d="M150.044,72.46c-0.016-0.184-0.035-0.348-0.104-0.489c-0.11-0.254-0.344-0.458-0.938-0.458h-2.385
		l0.008,2.896h2.377c0.668,0,0.89-0.179,0.979-0.38c0.048-0.111,0.075-0.258,0.083-0.432c0-0.178-0.008-0.366-0.008-0.563
		C150.056,72.854,150.063,72.656,150.044,72.46"/>
	<path style="fill:#000099;" d="M156.381,61.236h-17.375V80.04h17.375V61.236 M152.309,73.452c0,2.158-0.709,2.844-2.846,2.844
		h-5.979v-1.564l1.019-0.273v-7.277l-0.86-0.239v-1.571l5.782-0.003c1.925,0,2.623,1.186,2.623,2.564l0.015,0.77
		c0,0.874-0.207,1.582-1.109,1.92c0.984,0.381,1.356,1.191,1.356,2.199V73.452z"/>
	<path style="fill:#000099;" d="M167.624,74.498h1.461c1.089,0,1.64-0.895,1.64-2.058v-3.564c0-1.256-0.545-1.79-1.654-1.79h-1.433
		c-1.108,0-1.646,0.534-1.646,1.79v3.564C165.991,73.604,166.536,74.498,167.624,74.498"/>
	<path style="fill:#000099;" d="M159.667,80.04h17.381V61.236h-17.381V80.04 M163.629,69.012c0-2.601,1.578-3.873,4.064-3.873
		l1.35,0.003c2.509,0,4.038,1.286,4.038,3.87v3.564c0,2.725-1.592,3.873-4.038,3.873H167.7c-2.438,0-4.071-1.14-4.071-3.873V69.012z
		"/>
	<path style="fill:#000099;" d="M180.335,80.04h17.374V61.236h-17.374V80.04 M181.92,65.371h4.094v1.508l-0.862,0.232l1.012,4.62
		l0.021,0.164l0.028-0.164l1.742-6.36h2.231l1.708,6.539l0.029,0.165l0.014-0.165l1.073-4.798l-0.832-0.232v-1.508h3.946v1.508
		l-0.847,0.232l-2.425,9.185h-1.915l-1.874-7.289l-0.027-0.184l-0.034,0.184l-1.93,7.289h-1.847l-2.467-9.185l-0.84-0.232V65.371z"
		/>
	<path style="fill:#000099;" d="M218.364,61.236h-17.368V80.04h17.368V61.236 M213.762,76.296h-7.749v-1.564l1.019-0.273v-7.277
		l-0.861-0.239v-1.571h3.858v1.571l-0.89,0.239l-0.013,7.236h2.474l0.654-1.867h1.508V76.296z"/>
	<polyline style="fill:#000099;" points="224.119,78.322 229.224,74.609 234.327,78.322 232.384,72.318 237.491,68.605 
		237.448,68.605 231.165,68.605 229.224,62.606 227.272,68.605 220.955,68.605 226.06,72.318 224.119,78.322 	"/>
	<path style="fill:#000099;" d="M177.655,55.341h2.019l-0.007-10.419l7.553-1.679l0.026-30.271c0,0-1.386-0.197-2.06-0.299v28.852
		l-7.524,1.683L177.655,55.341"/>
	<path style="fill:#000099;" d="M122.761,44.208c1.571-0.554,10.06-3.225,10.747-3.427l0.055-0.015c0-10.911,0-21.566,0-32.482
		c-0.674-0.014-1.356-0.016-2.038-0.029c0,10.326,0,20.389,0,30.715c-8.916,2.935-8.708,2.776-10.41,3.338
		c-2.487,4.346-4.961,8.694-7.448,13.034h2.715C119.646,49.633,122.636,44.411,122.761,44.208"/>
	<path style="fill:#000099;" d="M153.467,55.341h17.727V37.157l7.558-1.677V20.841c-10.816-1.22-21.646-2.1-32.524-2.588
		l-0.007,15.312l-0.007,0.004l7.254,2.598V55.341"/>
	<path style="fill:#000099;" d="M240.17,55.349v27.598H7.811v2.019h106.662l7.536,12.517l3.127,1.014l-8.211-13.53h36.521
		l0.02,21.609l-8.681,2.922l-0.015,15.261c21.867-0.766,43.699-2.852,65.236-6.325V92.876l-12.627,0.851l-5.468,10.344
		c-4.723,0.525-16.399,1.272-20.755,1.368V84.965h45.141v37.462c-60.641,11.456-122.135,11.41-182.776-0.144v2.076v0.019
		c61.37,11.855,125.249,11.446,184.835-0.244v-0.02V84.965h0.006h23.824V55.349H240.17"/>
	<path style="fill:#FFFFFF;" d="M119.984,107.132c2.845,0.879,5.691,1.744,8.536,2.6l4.714-3.445l-10.101-3.031L119.984,107.132"/>
</g>
</svg>
