<?xml version="1.0" encoding="iso-8859-1"?>
<!-- Generator: Adobe Illustrator 14.0.0, SVG Export Plug-In . SVG Version: 6.00 Build 43363)  -->
<!DOCTYPE svg PUBLIC "-//W3C//DTD SVG 1.1//EN" "http://www.w3.org/Graphics/SVG/1.1/DTD/svg11.dtd">
<svg version="1.1" id="Layer_1" xmlns="http://www.w3.org/2000/svg" xmlns:xlink="http://www.w3.org/1999/xlink" x="0px" y="0px"
	 width="250px" height="205px" viewBox="0 0 250 205" style="enable-background:new 0 0 250 205;" xml:space="preserve">
<g>
	<g>
		<path style="fill:#FFFFFF;" d="M243.181,75.877L245,59.501l-17.115-9.417l-25.031,3.601c7.883-27.757,19.261-39.928,19.261-39.928
			l-10.653-8.919L83.006,34.251l-13.44,24.502c0,0-21.705,4.693-24.953,5.343c-12.887,2.582-26.21,7.033-26.21,7.033
			s6.296,1.336,17.725,2.124l2.608,4.791l-11.062,1.647l-3.98,13.864l6.902,1.473l7.185,14.043l-22.104,20.776l-6.105,2.018
			L5,146.176h24.875l37.082,24.105c-7.976,1.252-17.453,3.342-17.453,3.342s9.715,3.104,29.275,4.341l34.127,22.198h70.341
			l11.516-5.065c0,0-4.892-21.92-4.035-48.914h44.637l2.214-19.932l-6.081-3.287l5.159-44.327L243.181,75.877z"/>
		<path style="fill:#005596;" d="M77.989,175.038c1.799-0.014,52.248,0.743,92.327,1.182l-5.606-4.13
			c-39.582,0.352-87.009,0.537-88.636,0.541c-6.75,0.024-15.98,1.076-15.98,1.076S68.911,175.082,77.989,175.038"/>
		<polygon style="fill:#005596;" points="175.485,166.473 177.69,171.46 183.761,171.46 179.125,175.01 181.289,180.532 
			176.229,176.864 171.65,179.962 173.134,174.891 168.174,171.46 173.991,171.46 		"/>
		<polygon style="fill:#05B5DC;" points="81.976,142.546 84.194,133.019 92.444,130.709 102.976,83.836 98.168,82.435 
			100.542,72.061 127.92,68.121 125.658,79.055 119.618,81.856 109.382,130.291 121.836,129.982 128.454,113.603 140.401,112.929 
			134.804,142.546 		"/>
		<polygon style="fill:#05B5DC;" points="211.564,127.77 217.702,130.576 216.211,142.546 184.741,142.546 186.464,130.971 
			193.424,128.235 201.389,72.112 195.519,70.226 197.322,58.147 227.201,53.851 225.599,66.749 219.022,70.008 		"/>
		<polygon style="fill:#05B5DC;" points="171.84,128.748 178.326,131.48 176.632,142.546 142.907,142.546 144.874,131.793 
			153.063,129.215 162.3,76.771 156.656,75.238 158.746,63.695 189.586,59.261 187.694,71.414 180.563,74.599 		"/>
		<polygon style="fill:#05B5DC;" points="66.019,77.029 63.537,86.708 67.283,88.173 54.146,100.33 48.798,90.319 52.773,88.036 
			55.288,78.567 30.239,82.166 27.669,91.125 32.836,92.224 41.634,109.752 17.121,132.585 12.264,134.154 9.833,142.546 
			36.449,142.546 38.736,133.972 33.794,132.049 46.666,119.824 52.694,131.896 46.852,133.763 44.55,142.55 73.848,142.546 
			75.969,133.694 70.579,131.252 59.353,110.13 84.613,86.045 90.262,83.222 92.623,73.202 		"/>
		<path style="fill:#DA2429;" d="M44.685,69.079c3.005-0.483,139.1-22.602,139.1-22.602l1.32-2.625l-3.152-2.341
			c0,0-135.691,24.863-138.521,25.364c-7.265,1.281-15.529,3.545-15.529,3.545S35.037,70.632,44.685,69.079"/>
		<path style="fill:#DA2429;" d="M187.271,171.375l-5.612,4.473l3.366,9.273l-5.108-3.364c0.539,4.779,1.24,9.765,2.147,14.777
			l8.061-3.406C188.693,185.372,187.813,177.944,187.271,171.375 M186.609,146.183h-8.455c0,0-0.272,9.747,0.649,23.271h8.32
			C186.114,155.712,186.609,146.183,186.609,146.183"/>
		<polygon style="fill:#DA2429;" points="193.851,33.968 194.332,38.606 200.885,37.334 194.601,42.063 195.034,47.265 
			191.019,44.925 184.909,48.923 188.269,42.972 184.632,40.495 190.548,39.342 		"/>
		<path style="fill:#DA2429;" d="M128.447,113.62l5.243-26.409l6.002-2.625l1.886-9.735l-6.715-3.307l-2.042,10.176l-6.048,2.858
			l-9.316,45.512l4.379-0.108L128.447,113.62z M64.462,83.097l-2.385-1.175l-1.77,6.817l-3.341,2.157l2.53,4.481l7.785-7.206
			l-3.745-1.465L64.462,83.097z M42.799,131.285l4.053,2.478l5.843-1.866l-3.411-6.834L42.799,131.285z M195.519,70.226
			l-0.722,4.837l-7.092,2.981l-7.658,49.478l6.417,3.448l6.96-2.735L188,125.608l6.585-44.404l5.954-3.131l0.007-0.028l0.843-5.934
			L195.519,70.226z M147.692,116.365l-2.818,15.428l8.189-2.578l1.691-9.602L147.692,116.365z M239.808,73.364l1.318-11.852
			l-6.85-3.769l-1.454,12.369l-6.543,2.997l-6.533,53.266l6.11,3.057l-1.547,13.115h7.807l1.584-14.264l-6.09-3.294l5.688-48.869
			L239.808,73.364z M101.488,90.463l1.487-6.627l-4.808-1.401l-0.957,4.166l-6.658,2.739l-22.306,21.516l10.434,18.473l5.513,3.689
			l8.25-2.31l-7.299-3.259l-8.726-15.454l19.75-19.461L101.488,90.463z"/>
		<path style="fill:#DA2429;" d="M210.504,8.77c-6.583,9.336-11.171,18.777-14.335,26.93l9.182-1.679
			c5.831-13.545,11.294-20.122,11.294-20.122L210.504,8.77z M197.217,51.351l-5.177-3.219c-1.884,6.811-2.454,11.129-2.454,11.129
			l6.938,4.241l0.799-5.355c1.965-11.699,6.439-20.278,6.439-20.278l-6.91,5.506L197.217,51.351z"/>
		<path style="fill:#7A1135;" d="M182.066,196.534c-0.911-5.013-1.61-9.996-2.152-14.777l-3.665-2.415l-8.107,5.289l1.639-5.637
			l-84.044-0.702l28.554,18.239l67.778,0.007v-0.007L182.066,196.534z"/>
		<path style="fill:#7A1135;" d="M139.692,84.58l-0.002,0.008l-6.002,2.623l-4.227,21.307l27.563-1.807l4.315-24.498L139.692,84.58z
			 M76.423,111.994l20.53-1.345l4.536-20.186l-5.319,2.073L76.423,111.994z"/>
		<path style="fill:#7A1135;" d="M85.144,127.45l7.3,3.256l3.435-15.286l-16.99,0.95L85.144,127.45z M46.667,119.824l-12.873,12.225
			l4.942,1.923l-2.287,8.574h8.095l2.307-8.783l-4.053-2.478l6.485-6.223L46.667,119.824z M134.804,142.546h8.105l4.783-26.181
			l7.063,3.248l1.329-7.556l-15.681,0.871L134.804,142.546z M187.694,71.414l-7.131,3.186l-8.724,54.148l6.486,2.732l-1.694,11.065
			h8.109l1.723-11.575l-6.417-3.448l7.656-49.479l7.094-2.98l0.722-4.837l0.028-0.173l0.975-6.55l-6.936-4.243L187.694,71.414z
			 M227.201,53.851l-1.603,12.897l-6.576,3.26l-7.458,57.761l6.138,2.807l-1.491,11.97h8.099l1.547-13.115l-6.11-3.055l6.533-53.269
			l6.543-2.997l1.454-12.368L227.201,53.851z M191.064,47.524l-10.646,6.112c0,0,0.825-1.68,1.789-3.648L39.636,73.054l3.837,7.21
			l11.814-1.698l-2.513,9.469l-3.976,2.284l5.349,10.011l5.351-4.95l-2.53-4.484l3.341-2.157l1.77-6.815l2.385,1.174l1.557-6.068
			l26.604-3.827l-2.362,10.02l-5.649,2.824L59.354,110.13l11.226,21.122l5.39,2.444l-2.121,8.85h8.136h-0.009l2.218-9.527
			l-5.513-3.689l-10.434-18.471l22.306-21.517l6.658-2.74l3.331-14.54l27.38-3.94l-2.262,10.935l-6.042,2.801l-10.235,48.435
			l8.075-0.2l9.316-45.512l6.048-2.858l2.042-10.176l6.715,3.306l-0.869,4.489l21.586-2.572l-5.639-1.529l2.09-11.544l30.84-4.435
			c0,0,0.57-4.319,2.454-11.129L191.064,47.524z"/>
		<path style="fill:#7A1135;" d="M84.752,36.706L73.438,58.073l115.906-21.13c0.118-0.175,5.993-8.686,5.993-8.686l0.825,7.442
			l0.006-0.001c3.164-8.153,7.752-17.594,14.335-26.929L84.752,36.706z M104.773,41.127c1.009-0.023,1.736,0.242,2.164,0.791
			c0.463,0.593,0.552,1.39,0.239,2.526c0,0-0.281,0.874-0.279,0.87c-1.176,3.075-3.494,3.882-5.606,4.265l-11.415,2.03l1.595-3.44
			l10.454-1.921c0.571-0.104,1.272-0.687,1.464-1.134c0.192-0.447,0.277-0.751,0.277-0.751s-7.456,0.011-7.458,0.011
			c-1.318,0.024-1.898-0.456-2.178-0.877c-0.19-0.285-0.285-0.622-0.285-0.998c0-0.362,0.176-0.981,0.472-1.582
			c1.176-2.382,3.355-3.786,5.661-4.279l10.815-2.326l-1.286,3.141l-10.388,2.162c-0.556,0.117-1.057,0.499-1.373,1.038
			l-0.243,0.559L104.773,41.127z M119.337,46.222c0,0-5.279,0.99-5.281,0.991c-1.639,0.301-2.948-0.031-3.682-0.933
			c-0.694-0.85-0.769-2.079-0.21-3.461l3.731-9.197l3.804-0.819l-3.914,9.727c-0.178,0.448-0.17,0.82,0.02,1.053
			c0.21,0.256,0.632,0.341,1.184,0.239c0,0,5.144-1.1,5.146-1.1c1.255-0.237,2.514-1.243,3.126-2.494l3.831-9.451l4.011-0.895
			c0,0-4.022,10.069-4.022,10.071C125.899,42.634,124.144,45.25,119.337,46.222 M142.549,37.592c0,0-7.767,1.551-7.942,1.586
			c-0.064,0.163-1.791,4.559-1.791,4.559l-3.921,0.745L135,29.065l11.359-2.48c1.417-0.306,2.569-0.066,3.171,0.658
			c0.281,0.343,0.424,0.773,0.424,1.264c0,0.415-0.101,0.874-0.308,1.357l-1.238,2.95C147.51,34.971,146.802,36.677,142.549,37.592
			 M153.23,36.468c0.084,0.113,0.185,0.128,0.356,0.096l10.955-2.112l-1.466,3.642c0,0-10.473,1.985-10.475,1.985
			c-1.278,0.236-2.306-0.025-2.889-0.738c-0.572-0.699-0.628-1.731-0.154-2.908l3.182-7.634c0.945-2.204,3.696-4.364,6.257-4.918
			l11.54-2.527l-1.679,3.52c0,0-10.933,2.416-10.933,2.415c-0.574,0.122-1.243,0.645-1.459,1.143c0,0-0.578,1.352-0.764,1.787
			c0.595-0.125,11.652-2.468,11.652-2.468l-1.758,3.704c0,0-11.049,2.165-11.214,2.198c-0.165,0.356-1.151,2.464-1.151,2.464
			S153.125,36.333,153.23,36.468 M189.591,21.75c-0.539,1.565-1.602,3.83-1.919,4.491c-1.113,2.183-3.437,2.828-4.341,3.003
			c0.07,0.313,1.129,4.917,1.129,4.917l-4.119,0.805c0,0-1.071-4.619-1.142-4.92c-0.304,0.066-6.266,1.371-6.425,1.406
			c-0.065,0.153-2.237,5.229-2.237,5.229l-3.912,0.826l7.415-16.861l12.118-2.625c1.38-0.295,2.542-0.036,3.19,0.712
			c0.35,0.402,0.532,0.938,0.532,1.551C189.881,20.737,189.784,21.23,189.591,21.75 M185.519,21.449c0,0-9.098,1.949-9.259,1.983
			c-0.063,0.137-1.694,3.733-1.928,4.244c1.759-0.357,6.333-1.298,8.704-1.891c0.643-0.18,1.266-0.677,1.517-1.209
			c0.011-0.018,0.924-1.826,1.203-2.615c0,0,0.119-0.326,0.044-0.43C185.745,21.45,185.652,21.418,185.519,21.449 M145.455,29.801
			c0,0-7.795,1.726-7.965,1.764c-0.057,0.148-1.441,3.63-1.624,4.082c1.459-0.283,5.167-1.016,7.422-1.577
			c0.539-0.107,1.217-0.655,1.421-1.153l1.192-2.695c0,0,0.108-0.211-0.004-0.338C145.776,29.744,145.653,29.759,145.455,29.801"/>
	</g>
	<g>
		<path style="fill:#7A1135;" d="M94.822,155.373c0,0,0.022-0.604-0.034-1.011c-0.082-0.567-0.579-1.1-1.197-1.1h-7.922l0.144,3.437
			h7.692C94.379,156.715,94.849,155.967,94.822,155.373 M93.954,159.403h-8.014l0.152,3.475h8.244c0.619,0,1.148-0.467,1.122-1.083
			l-0.048-1.106C95.363,159.925,94.638,159.417,93.954,159.403 M113.034,153.608h-6.106c-0.551,0-1.087,0.229-1.469,0.627
			c-0.37,0.387-0.559,0.88-0.536,1.393l0.21,4.808c0.051,1.135,1.067,2.092,2.218,2.092h6.108c0.574,0,1.121-0.229,1.5-0.625
			c0.349-0.362,0.528-0.833,0.507-1.326l-0.216-4.939C115.201,154.536,114.187,153.608,113.034,153.608 M178.154,146.183
			l-142.679-0.002l36.424,23.273h100.713l2.495-8.323l3.696,8.323C177.882,155.93,178.154,146.183,178.154,146.183 M97.583,164.704
			C96.782,165.54,95.674,166,94.458,166H82.991l-0.697-15.864h11.173c2.425,0,4.481,1.889,4.581,4.214l0.053,1.254
			c0,1.08-0.592,1.828-1.031,2.242c0.537,0.416,1.489,1.312,1.544,2.581l0.064,1.535C98.678,162.992,98.288,163.969,97.583,164.704
			 M117.59,164.321c-1.035,1.082-2.458,1.679-4.01,1.679h-6.108c-3.132,0-5.792-2.511-5.926-5.6l-0.207-4.676
			c-0.064-1.47,0.454-2.862,1.462-3.916c1.032-1.078,2.454-1.673,4.004-1.673h6.106c3.131,0,5.79,2.484,5.923,5.536l0.21,4.764
			C119.111,161.894,118.594,163.273,117.59,164.321 M139.801,164.697c-0.183,0.757-0.894,1.303-1.692,1.303
			c-0.673,0-1.289-0.395-1.61-1.032l-4.323-8.808c0,0-3.545,8.797-3.54,8.788c-0.269,0.648-0.86,1.052-1.545,1.052
			c-0.785,0-1.53-0.535-1.775-1.272l-4.885-14.592h3.718l2.998,9.272l3.196-8.009c0.227-0.605,0.897-1.043,1.598-1.043
			c0.693,0,1.391,0.429,1.656,1.012l3.917,8.035l2.18-9.268h3.699L139.801,164.697z M150.119,166c-2.076,0-3.773-1.569-3.863-3.571
			l-0.541-12.293h3.612c0,0,0.521,12.056,0.521,12.06c0.011,0.154,0.279,0.35,0.567,0.35l9.776-0.018l0.153,3.473H150.119z"/>
	</g>
</g>
</svg>
