<?xml version="1.0" encoding="iso-8859-1"?>
<!-- Generator: Adobe Illustrator 14.0.0, SVG Export Plug-In . SVG Version: 6.00 Build 43363)  -->
<!DOCTYPE svg PUBLIC "-//W3C//DTD SVG 1.1//EN" "http://www.w3.org/Graphics/SVG/1.1/DTD/svg11.dtd">
<svg version="1.1" id="Layer_1" xmlns="http://www.w3.org/2000/svg" xmlns:xlink="http://www.w3.org/1999/xlink" x="0px" y="0px"
	 width="250px" height="224px" viewBox="0 0 250 224" style="enable-background:new 0 0 250 224;" xml:space="preserve">
<g>
	<path style="fill:#FFFFFF;" d="M231.994,124.373c6.336-10.526,9.589-21.722,9.589-33.339c0-15.885-6.192-31.252-17.831-44.583
		c0-2.797,0-38.935,0-38.935l-7.381,7.661c-4.149,4.307-9.558,8.279-15.982,11.871C179.367,14.243,152.726,7.197,125.01,7.197
		c-16.218,0-31.886,2.361-46.617,6.977C42.484,1.118,16.908,1.273,8.148,14.687C6.046,17.906,5,21.669,5,25.918
		c0,8.691,4.418,19.45,13.025,31.783c-6.336,10.521-9.587,21.716-9.587,33.333c0,15.885,6.193,31.25,17.829,44.581
		c0,2.796,0,38.905,0,38.905l7.381-7.669c4.141-4.297,9.536-8.261,15.948-11.853c21.029,12.818,47.679,19.872,75.413,19.872
		c16.226,0,31.899-2.36,46.633-6.982c35.892,13.046,61.455,12.888,70.215-0.522c2.1-3.22,3.143-6.982,3.143-11.231
		C245,147.451,240.588,136.7,231.994,124.373z"/>
	<path style="fill:#C4213E;" d="M58.708,39.598c18.056-9.38,41.142-15.011,66.302-15.011c25.159,0,48.246,5.63,66.305,15.011
		c2.112-0.856,4.153-1.756,6.135-2.688c-19.218-11.52-44.604-18.528-72.439-18.528S71.791,25.39,52.573,36.91
		C54.551,37.842,56.593,38.742,58.708,39.598z"/>
	<path style="fill:#C4213E;" d="M125.01,157.486c-25.16,0-48.246-5.633-66.302-15.016c-2.115,0.858-4.157,1.759-6.135,2.693
		c19.218,11.517,44.604,18.523,72.437,18.523c27.835,0,53.216-7.007,72.437-18.523c-1.979-0.935-4.02-1.835-6.132-2.693
		C173.256,151.854,150.169,157.486,125.01,157.486z"/>
	<path style="fill:#C4213E;" d="M30.559,48.012V18.157c4.952,5.142,11.443,9.816,19.154,13.875
		c7.094-4.547,15.014-8.458,23.58-11.612c-25.796-7.87-45.518-7.587-52.236,2.704c-4.593,7.033-2.456,17.752,4.962,30.365
		C27.438,51.619,28.942,49.787,30.559,48.012z"/>
	<path style="fill:#C4213E;" d="M219.461,134.063v29.815c-4.944-5.134-11.425-9.804-19.12-13.857
		c-7.099,4.551-15.026,8.467-23.599,11.625c25.782,7.865,45.488,7.569,52.207-2.717c4.59-7.03,2.461-17.741-4.946-30.349
		C222.585,130.449,221.077,132.282,219.461,134.063z"/>
	<path style="fill:#C4213E;" d="M33.482,51.907c-1.762,1.843-3.389,3.745-4.901,5.693c0.831,1.268,1.716,2.554,2.646,3.854
		c0.724-0.922,1.469-1.833,2.256-2.731V51.907z"/>
	<path style="fill:#C4213E;" d="M216.537,130.164c1.764-1.844,3.394-3.747,4.907-5.696c-0.832-1.268-1.72-2.554-2.649-3.854
		c-0.724,0.925-1.468,1.836-2.258,2.733V130.164z"/>
	<path style="fill:#C4213E;" d="M20.28,91.034c0-9.322,3.037-18.193,8.506-26.245c-0.982-1.193-1.933-2.376-2.847-3.552
		c-6.121,9.095-9.536,19.178-9.536,29.797c0,14.406,6.267,27.835,17.079,39.127v-6.813C25.076,113.783,20.28,102.765,20.28,91.034z"
		/>
	<path style="fill:#C4213E;" d="M229.741,91.034c0,9.325-3.039,18.198-8.503,26.248c0.977,1.19,1.933,2.374,2.847,3.547
		c6.119-9.093,9.533-19.176,9.533-29.795c0-14.406-6.267-27.832-17.081-39.127v6.816C224.945,68.289,229.741,79.306,229.741,91.034z
		"/>
	<path style="fill:#081F33;" d="M79.668,112.607l9.386-21.57l-9.388-21.568c-0.843-0.19-1.675-0.385-2.509-0.583l-9.183,22.152
		l9.183,22.154C77.991,112.991,78.826,112.795,79.668,112.607z"/>
	<path style="fill:#081F33;" d="M106.645,108.538l8-17.501l-8-17.501c-1.021-0.084-2.033-0.179-3.045-0.28l-7.74,17.781
		l7.738,17.781C104.611,108.72,105.625,108.625,106.645,108.538z"/>
	<path style="fill:#081F33;" d="M176.623,114.121c0.959,0.254,1.912,0.513,2.86,0.779V67.179c-0.948,0.267-1.901,0.528-2.86,0.779
		V56.257c4.12-1.083,8.11-2.295,11.958-3.629V64.33c-0.943,0.33-1.896,0.647-2.857,0.959v51.5c0.961,0.312,1.914,0.632,2.857,0.959
		v11.701c-3.848-1.331-7.838-2.546-11.958-3.623V114.121z M125.01,157.486c25.159,0,48.246-5.633,66.305-15.016
		c2.112,0.858,4.153,1.759,6.132,2.693c7.439,3.513,13.889,7.559,19.091,12.021v-27.021v-6.816c0.79-0.895,1.534-1.812,2.258-2.733
		c-2.057-2.878-4.352-5.83-6.86-8.833v0.058c-3.339-3.996-7.052-8.081-11.132-12.219v23.01c1.514,0.691,3.006,1.396,4.455,2.134
		v11.704c-4.246-2.16-8.778-4.133-13.556-5.907v-11.705c0.967,0.362,1.915,0.734,2.86,1.107V62.111
		c-0.945,0.375-1.894,0.748-2.86,1.106V51.514c4.777-1.772,9.31-3.745,13.556-5.908v11.705c-1.449,0.736-2.941,1.444-4.455,2.136
		v36.254c2.445,2.303,4.782,4.59,7.03,6.864v-0.058c4.98,5.031,9.457,9.975,13.402,14.776c5.467-8.052,8.506-16.923,8.506-26.248
		c0-11.728-4.796-22.746-13.204-32.311v-6.816V24.888c-5.202,4.46-11.651,8.506-19.088,12.021c-1.981,0.932-4.022,1.833-6.135,2.688
		c-18.059-9.38-41.146-15.011-66.305-15.011c-25.16,0-48.246,5.63-66.302,15.011c-2.115-0.856-4.157-1.756-6.135-2.688
		c-7.439-3.515-13.886-7.561-19.091-12.021v27.019v6.816c-0.787,0.896-1.532,1.809-2.256,2.731
		c4.926,6.887,11.185,14.184,18.587,21.645c0.394,0.394,0.787,0.79,1.183,1.186c0.383,0.38,0.766,0.761,1.154,1.141
		c2.606,2.556,5.337,5.128,8.197,7.708l0.869-2.097l-13.35-32.198c-1.062-0.502-2.121-1.006-3.15-1.529V45.606
		c5.266,2.683,10.98,5.07,17.049,7.154v11.702c-1.936-0.663-3.821-1.371-5.681-2.097l8.509,20.525l6.46-15.578
		c-1.215-0.338-2.438-0.668-3.629-1.03V54.58c7.258,2.189,14.961,3.961,22.997,5.274v11.702c-1.111-0.182-2.2-0.391-3.296-0.591
		l5.332,12.253l4.656-10.704c-0.872-0.113-1.754-0.216-2.62-0.338V60.474c7.131,1.014,14.49,1.688,22.02,1.975v11.702
		c-0.935-0.037-1.861-0.095-2.791-0.143l4.352,9.523l4.221-9.238c-0.888-0.011-1.78-0.013-2.659-0.035V62.558
		c1.774,0.042,3.56,0.069,5.353,0.069c6.6,0,13.097-0.307,19.456-0.872v11.705c-1.438,0.126-2.882,0.237-4.331,0.338
		c1.787,8.113,4.494,20.39,6.367,28.88c1.542-8.601,3.826-21.328,5.382-30.003c-1.109,0.138-2.227,0.27-3.346,0.391V61.364
		c8.678-0.94,17.047-2.398,24.987-4.323v11.702c-0.948,0.23-1.904,0.452-2.862,0.666v43.263c0.958,0.214,1.914,0.437,2.862,0.663
		v11.704c-4.331-1.051-8.786-1.965-13.353-2.728v-11.702c1.429,0.24,2.845,0.499,4.252,0.766V70.708
		c-1.991,0.377-4.003,0.726-6.034,1.048l-6.753,37.625c1.268,0.156,2.533,0.317,3.785,0.497v11.702
		c-5.805-0.827-11.769-1.416-17.842-1.765v-11.702c1.268,0.074,2.527,0.161,3.784,0.256l-7.545-34.229
		c-1.54,0.061-3.088,0.108-4.638,0.14l-7.659,16.756l7.656,16.751c1.221,0.023,2.438,0.055,3.65,0.098v11.702
		c-2.589-0.093-5.2-0.138-7.823-0.138c-1.79,0-3.575,0.023-5.35,0.065v-11.701c0.879-0.021,1.769-0.021,2.656-0.034l-4.22-9.235
		l-4.35,9.521c0.93-0.045,1.856-0.106,2.791-0.14v11.702c-7.529,0.285-14.889,0.961-22.02,1.976v-11.702
		c0.866-0.125,1.748-0.228,2.62-0.338l-4.656-10.706l-5.332,12.254c1.096-0.198,2.185-0.41,3.296-0.592v11.702
		c-8.036,1.313-15.739,3.087-22.997,5.271V115.79c1.191-0.359,2.414-0.689,3.629-1.024l-6.46-15.582l-8.509,20.528
		c1.859-0.729,3.745-1.435,5.681-2.1v11.704c-6.068,2.084-11.78,4.469-17.049,7.151v-11.704c1.029-0.523,2.089-1.024,3.15-1.526
		L59.353,95.54c-3.616-3.119-7.067-6.232-10.348-9.325v-0.021c-7.753-7.313-14.548-14.511-20.221-21.404
		c-5.464,8.052-8.504,16.923-8.504,26.245c0,11.731,4.796,22.749,13.202,32.313v6.813v27.024
		c5.205-4.463,11.651-8.509,19.091-12.021c1.978-0.935,4.02-1.835,6.135-2.693C76.764,151.854,99.85,157.486,125.01,157.486z"/>
	<path style="fill:#FCC011;" d="M188.581,117.747c-0.943-0.327-1.896-0.647-2.857-0.959v-51.5c0.961-0.312,1.914-0.629,2.857-0.959
		V52.628c-3.848,1.334-7.838,2.546-11.958,3.629v11.702c0.959-0.251,1.912-0.513,2.86-0.779V114.9
		c-0.948-0.267-1.901-0.525-2.86-0.779v11.704c4.12,1.077,8.11,2.292,11.958,3.623V117.747z"/>
	<path style="fill:#FCC011;" d="M228.949,158.929c-6.719,10.286-26.425,10.582-52.207,2.717c8.572-3.158,16.5-7.074,23.599-11.625
		c7.695,4.054,14.176,8.724,19.12,13.857v-29.815c1.616-1.78,3.124-3.613,4.542-5.482
		C231.41,141.188,233.539,151.898,228.949,158.929z M95.859,91.037l7.74-17.781c1.012,0.101,2.023,0.195,3.045,0.28l8,17.501
		l-8,17.501c-1.02,0.087-2.033,0.182-3.047,0.28L95.859,91.037z M67.975,91.037l9.183-22.152c0.834,0.198,1.666,0.394,2.509,0.583
		l9.388,21.568l-9.386,21.57c-0.842,0.188-1.677,0.383-2.511,0.584L67.975,91.037z M125.01,163.688
		c-27.832,0-53.219-7.007-72.437-18.523c-7.439,3.513-13.886,7.559-19.091,12.021v-27.024
		C22.67,118.869,16.403,105.44,16.403,91.034c0-10.619,3.415-20.702,9.536-29.797c0.914,1.175,1.864,2.358,2.845,3.552
		c5.673,6.893,12.468,14.092,20.221,21.404v0.021c3.28,3.092,6.731,6.206,10.348,9.325l-11.485,27.698
		c-1.062,0.502-2.121,1.003-3.15,1.526v11.704c5.269-2.683,10.98-5.067,17.049-7.151v-11.704c-1.936,0.665-3.821,1.37-5.681,2.1
		l8.509-20.528l6.46,15.582c-1.215,0.335-2.438,0.665-3.629,1.024v11.701c7.258-2.184,14.961-3.958,22.997-5.271v-11.702
		c-1.111,0.182-2.2,0.394-3.296,0.592l5.332-12.254l4.656,10.706c-0.872,0.111-1.754,0.214-2.62,0.338v11.702
		c7.131-1.015,14.49-1.69,22.02-1.976v-11.702c-0.935,0.034-1.861,0.095-2.791,0.14l4.35-9.521l4.22,9.235
		c-0.888,0.013-1.777,0.013-2.656,0.034v11.701c1.774-0.042,3.56-0.065,5.35-0.065c2.623,0,5.234,0.045,7.823,0.138v-11.702
		c-1.213-0.042-2.43-0.074-3.65-0.098l-7.656-16.751l7.659-16.756c1.55-0.032,3.098-0.08,4.638-0.14l7.545,34.229
		c-1.257-0.095-2.517-0.183-3.784-0.256v11.702c6.073,0.349,12.037,0.938,17.842,1.765v-11.702c-1.252-0.18-2.518-0.341-3.785-0.497
		l6.753-37.625c2.031-0.322,4.043-0.671,6.034-1.048v40.667c-1.407-0.267-2.823-0.526-4.252-0.766v11.702
		c4.566,0.763,9.021,1.677,13.353,2.728v-11.704c-0.948-0.227-1.904-0.449-2.862-0.663V69.408c0.958-0.214,1.914-0.436,2.862-0.666
		V57.041c-7.94,1.925-16.31,3.383-24.987,4.323v11.702c1.119-0.122,2.236-0.253,3.346-0.391c-1.556,8.675-3.84,21.402-5.382,30.003
		c-1.873-8.49-4.58-20.768-6.367-28.88c1.449-0.101,2.894-0.211,4.331-0.338V61.755c-6.359,0.565-12.856,0.872-19.456,0.872
		c-1.793,0-3.578-0.026-5.353-0.069v11.702c0.879,0.021,1.771,0.024,2.659,0.035l-4.221,9.238l-4.352-9.523
		c0.93,0.047,1.856,0.105,2.791,0.143V62.449c-7.529-0.288-14.889-0.961-22.02-1.975v11.702c0.866,0.122,1.748,0.225,2.62,0.338
		l-4.656,10.704l-5.332-12.253c1.096,0.201,2.185,0.409,3.296,0.591V59.854c-8.036-1.313-15.739-3.084-22.997-5.274v11.702
		c1.191,0.362,2.414,0.692,3.629,1.03l-6.46,15.578l-8.509-20.525c1.859,0.727,3.745,1.434,5.681,2.097V52.76
		c-6.068-2.084-11.783-4.471-17.049-7.154v11.705c1.029,0.522,2.089,1.027,3.15,1.529l13.35,32.198l-0.869,2.097
		c-2.86-2.58-5.591-5.152-8.197-7.708c-0.389-0.38-0.771-0.761-1.154-1.141c-0.396-0.396-0.789-0.792-1.183-1.186
		c-7.402-7.46-13.661-14.757-18.587-21.645c-0.927-1.3-1.814-2.585-2.646-3.854c1.513-1.949,3.14-3.85,4.901-5.693V24.888
		c5.205,4.46,11.651,8.506,19.091,12.021c19.218-11.52,44.602-18.528,72.437-18.528s53.222,7.009,72.439,18.528
		c7.437-3.515,13.886-7.561,19.088-12.021v27.019c10.814,11.295,17.081,24.721,17.081,39.127c0,10.619-3.414,20.702-9.533,29.795
		c-0.914-1.17-1.87-2.356-2.85-3.547c-3.945-4.801-8.422-9.745-13.402-14.776v0.058c-2.248-2.274-4.585-4.561-7.03-6.864V59.447
		c1.514-0.692,3.006-1.4,4.455-2.136V45.606c-4.246,2.163-8.778,4.136-13.556,5.908v11.704c0.967-0.359,1.915-0.731,2.86-1.106
		v57.852c-0.945-0.373-1.894-0.745-2.86-1.107v11.705c4.777,1.774,9.31,3.747,13.556,5.907v-11.704
		c-1.449-0.737-2.941-1.442-4.455-2.134V99.62c4.08,4.138,7.793,8.224,11.132,12.219v-0.058c2.509,3.003,4.804,5.956,6.86,8.833
		c0.93,1.3,1.817,2.586,2.649,3.854c-1.514,1.949-3.144,3.853-4.907,5.696v27.021c-5.202-4.463-11.651-8.509-19.091-12.021
		C178.229,156.681,152.845,163.688,125.01,163.688z M21.057,23.124c6.719-10.292,26.44-10.574,52.236-2.704
		c-8.566,3.153-16.486,7.064-23.58,11.612c-7.711-4.059-14.202-8.733-19.154-13.875v29.855c-1.616,1.775-3.121,3.607-4.54,5.477
		C18.601,40.876,16.464,30.157,21.057,23.124z M226.873,124.531c6.682-10.183,10.419-21.531,10.419-33.497
		c0-15.853-6.55-30.624-17.831-43.028v-29.85c-4.952,5.139-11.443,9.816-19.154,13.873c-19.915-12.763-46.324-20.541-75.297-20.541
		c-16.672,0-32.496,2.581-46.72,7.199C45.324,6.479,19.634,4.95,11.74,17.034c-5.766,8.829-1.064,23.43,11.405,40.511
		C16.464,67.723,12.73,79.071,12.73,91.034c0,15.851,6.546,30.621,17.828,43.025v29.818c4.943-5.134,11.425-9.806,19.12-13.859
		c19.92,12.776,46.342,20.562,75.331,20.562c16.68,0,32.507-2.583,46.735-7.204c32.953,12.2,58.63,13.722,66.521,1.64
		C244.026,156.195,239.328,141.599,226.873,124.531z"/>
	<polygon style="fill:#FFFFFF;" points="149.665,46.929 139.928,46.929 139.928,44.275 149.665,44.275 149.665,40.781 
		139.928,40.781 139.928,38.125 149.665,38.125 149.665,34.63 136.435,34.63 136.435,50.423 149.665,50.423 	"/>
	<path style="fill:#FFFFFF;" d="M111.763,46.929h-7.798V34.63h-3.492v12.621c0,1.753,1.421,3.171,3.172,3.171h8.44
		c1.754,0,3.172-1.418,3.172-3.171V34.63h-3.494V46.929z"/>
	<path style="fill:#FFFFFF;" d="M129.906,41.737h-7.484v-3.613h7.484V41.737z M130.226,34.63h-11.295v15.792h3.491v-5.194h7.804
		c1.753,0,3.174-1.418,3.174-3.172v-4.252C133.399,36.051,131.979,34.63,130.226,34.63z"/>
	<path style="fill:#FFFFFF;" d="M96.8,38.125V34.63H85.507c-1.753,0-3.171,1.421-3.171,3.174v3.296c0,1.753,1.418,3.174,3.171,3.174
		h7.802v2.646H82.336v3.494h11.292c1.751,0,3.172-1.421,3.172-3.174v-3.285c0-1.754-1.421-3.174-3.172-3.174h-7.801v-2.657H96.8z"/>
	<path style="fill:#FFFFFF;" d="M156.83,38.125h7.481v3.613h-7.481V38.125z M156.83,45.229h7.481v5.194h3.491v-4.157
		c0-1.202-0.666-2.245-1.646-2.783c0.979-0.539,1.646-1.582,1.646-2.781v-2.897c0-1.753-1.418-3.174-3.172-3.174h-11.295v15.792
		h3.494V45.229z"/>
	<polygon style="fill:#FFFFFF;" points="150.127,131.648 150.127,147.438 163.041,147.438 163.041,143.947 153.621,143.947 
		153.621,131.648 	"/>
	<path style="fill:#FFFFFF;" d="M118.891,143.947h-8.755v-8.805h8.755V143.947z M119.213,131.648h-9.399
		c-1.748,0-3.169,1.418-3.169,3.172v9.446c0,1.753,1.421,3.172,3.169,3.172h9.399c1.751,0,3.169-1.419,3.169-3.172v-9.446
		C122.382,133.066,120.964,131.648,119.213,131.648z"/>
	<path style="fill:#FFFFFF;" d="M98.709,137.796h-8.118v-2.653h8.118V137.796z M98.709,143.947h-8.118v-2.657h8.118V143.947z
		 M102.2,136.764v-1.943c0-1.754-1.421-3.172-3.169-3.172H87.1v15.79h11.932c1.748,0,3.169-1.419,3.169-3.172v-1.941
		c0-1.196-0.665-2.239-1.647-2.78C101.535,139.006,102.2,137.96,102.2,136.764z"/>
	<path style="fill:#FFFFFF;" d="M142.191,131.648v12.299h-4.186v-12.299h-3.494v12.299h-4.191v-12.299h-3.494v12.618
		c0,1.753,1.421,3.172,3.172,3.172h3.476c1.202,0,2.242-0.666,2.783-1.646c0.539,0.979,1.582,1.646,2.781,1.646h3.476
		c1.751,0,3.169-1.419,3.169-3.172v-12.618H142.191z"/>
	<polygon style="fill:#FCC011;" points="30.548,84.58 32.643,88.824 37.327,89.505 33.937,92.812 34.736,97.476 30.548,95.275 
		26.357,97.476 27.157,92.812 23.767,89.505 28.451,88.824 	"/>
	<polygon style="fill:#FCC011;" points="219.471,84.58 217.374,88.824 212.689,89.505 216.083,92.812 215.283,97.476 
		219.471,95.275 223.659,97.476 222.856,92.812 226.25,89.505 221.565,88.824 	"/>
	<polygon style="fill:#081F33;" points="12.74,187.328 17.888,187.328 17.888,189.533 15.046,189.533 15.046,192.006 
		17.652,192.006 17.652,194.194 15.046,194.194 15.046,199.241 12.74,199.241 	"/>
	<polygon style="fill:#081F33;" points="27.194,187.328 32.206,187.328 32.206,189.533 29.5,189.533 29.5,191.939 31.956,191.939 
		31.956,194.129 29.5,194.129 29.5,196.92 32.206,196.92 32.206,199.241 27.194,199.241 	"/>
	<path style="fill:#081F33;" d="M44.387,197.137c1.22,0,1.737-0.468,1.737-1.537c0-1.136-0.518-1.587-1.788-1.587h-0.285v3.108
		L44.387,197.137z M44.302,192.274c1.204,0,1.772-0.451,1.772-1.471c0-1.054-0.568-1.537-1.788-1.537h-0.235v3.008H44.302z
		 M41.745,187.328h2.306c2.958,0,4.278,0.769,4.278,3.175c0,1.286-0.468,2.104-1.505,2.606c1.138,0.401,1.688,1.254,1.688,2.726
		c0,1.101-0.384,1.985-1.052,2.572c-0.868,0.769-1.973,0.834-3.51,0.834h-2.205V187.328z"/>
	<path style="fill:#081F33;" d="M60.408,192.507c1.02,0,1.553-0.567,1.553-1.703s-0.451-1.637-1.502-1.637l-0.317,0.016v3.309
		L60.408,192.507z M57.836,187.328h2.472c2.639,0,3.877,0.951,3.877,3.359c0,1.669-0.602,2.707-1.888,3.124l2.287,5.43h-2.507
		l-1.936-4.946v4.946h-2.306V187.328z"/>
	<path style="fill:#081F33;" d="M80.81,194.464v0.349c0,1.289-0.019,2.239-0.352,2.892c-0.586,1.17-1.672,1.688-3.359,1.688
		s-2.791-0.518-3.375-1.688c-0.333-0.668-0.352-1.621-0.352-2.892v-0.349v-7.136h2.375v7.67c0,1.536,0.098,2.305,1.352,2.305
		c1.22,0,1.353-0.702,1.353-2.305v-7.67h2.358V194.464z"/>
	<path style="fill:#081F33;" d="M94.307,195.299c-0.352-1.772-0.6-3.61-0.784-5.498c-0.235,1.756-0.502,3.594-0.803,5.498H94.307z
		 M92.318,187.328h2.49l2.641,11.913h-2.374l-0.401-2.089h-2.388l-0.367,2.089h-2.374L92.318,187.328z"/>
	<path style="fill:#081F33;" d="M108.826,192.507c1.02,0,1.553-0.567,1.553-1.703s-0.449-1.637-1.503-1.637l-0.316,0.016v3.309
		L108.826,192.507z M106.254,187.328h2.472c2.642,0,3.877,0.951,3.877,3.359c0,1.669-0.602,2.707-1.888,3.124l2.289,5.43h-2.506
		l-1.938-4.946v4.946h-2.306V187.328z"/>
	<path style="fill:#081F33;" d="M122.994,193.646l-2.757-6.317h2.506l0.785,2.155c0.301,0.818,0.536,1.571,0.736,2.324
		c0.232-1.004,0.468-1.738,0.668-2.258l0.869-2.222h2.321l-2.772,6.317v5.596h-2.356V193.646z"/>
	<polygon style="fill:#081F33;" points="149.744,189.301 148.605,189.301 148.605,187.328 152.031,187.328 152.031,199.241 
		149.744,199.241 	"/>
	<polygon style="fill:#081F33;" points="163.608,196.585 165.965,196.585 163.944,201.531 162.291,201.531 	"/>
	<path style="fill:#081F33;" d="M188.956,193.545c0.784-1.521,1.117-2.707,1.117-3.394c0-0.753-0.314-1.17-0.866-1.17
		c-0.888,0-1.054,0.703-1.054,2.406h-1.938l-0.016-0.483c0-2.456,1.101-3.727,3.14-3.727c1.756,0,2.873,1.12,2.873,2.942
		c0,1.568-0.815,3.189-1.954,5.229l-1.02,1.838h2.673v2.055h-5.879L188.956,193.545z"/>
	<path style="fill:#081F33;" d="M204.477,197.237c0.818,0,0.969-1.305,0.969-3.928c0-2.672-0.15-3.977-0.969-3.977
		c-0.819,0-0.988,1.305-0.988,3.977C203.488,195.951,203.657,197.237,204.477,197.237z M204.477,199.392
		c-2.055,0-3.243-2.07-3.243-6.098c0-4.046,1.17-6.116,3.243-6.116c2.07,0,3.243,2.07,3.243,6.116
		C207.72,197.321,206.531,199.392,204.477,199.392z"/>
	<path style="fill:#081F33;" d="M219.765,197.237c0.818,0,0.969-1.305,0.969-3.928c0-2.672-0.15-3.977-0.969-3.977
		c-0.819,0-0.988,1.305-0.988,3.977C218.776,195.951,218.945,197.237,219.765,197.237z M219.765,199.392
		c-2.055,0-3.243-2.07-3.243-6.098c0-4.046,1.17-6.116,3.243-6.116c2.07,0,3.24,2.07,3.24,6.116
		C223.005,197.321,221.819,199.392,219.765,199.392z"/>
	<path style="fill:#081F33;" d="M235.369,194.496v-3.375c0-0.267,0.032-0.803,0.082-1.588c-0.301,1.054-0.584,1.804-0.8,2.274
		l-1.273,2.688H235.369z M235.285,196.283h-3.426v-1.787l3.124-7.168h2.29v7.168h0.969v1.787h-0.969v2.958h-1.988V196.283z"/>
	<polygon style="fill:#081F33;" points="72.662,207.434 75.018,207.434 75.018,211.844 77.675,211.844 77.675,207.434 
		80.049,207.434 80.049,219.347 77.675,219.347 77.675,214.165 75.018,214.165 75.018,219.347 72.662,219.347 	"/>
	<path style="fill:#081F33;" d="M95.435,213.396c0-2.572-0.603-3.843-1.819-3.843c-1.221,0-1.807,1.271-1.807,3.843
		c0,2.559,0.586,3.827,1.807,3.827C94.832,217.224,95.435,215.955,95.435,213.396z M93.615,219.497
		c-2.607,0-4.179-2.239-4.179-6.101c0-3.893,1.638-6.113,4.179-6.113c2.554,0,4.193,2.255,4.193,6.282
		C97.809,217.258,96.121,219.497,93.615,219.497z"/>
	<path style="fill:#081F33;" d="M114.581,214.566v0.352c0,1.286-0.017,2.239-0.352,2.892c-0.584,1.17-1.669,1.688-3.356,1.688
		s-2.792-0.518-3.375-1.688c-0.336-0.668-0.352-1.622-0.352-2.892v-0.352v-7.133h2.372v7.669c0,1.537,0.1,2.306,1.354,2.306
		c1.22,0,1.352-0.703,1.352-2.306v-7.669h2.356V214.566z"/>
	<path style="fill:#081F33;" d="M123.956,216.455c0.583,0.518,1.151,0.786,1.753,0.786c0.819,0,1.303-0.467,1.303-1.188
		c0-0.835-0.634-1.168-1.337-1.804c-1.252-1.136-1.904-2.039-1.904-3.526c0-2.055,1.271-3.44,3.141-3.44
		c0.687,0,1.32,0.198,2.007,0.583v2.105c-0.687-0.333-1.17-0.534-1.587-0.534c-0.687,0-1.173,0.468-1.173,1.17
		c0,0.819,0.552,1.303,1.39,2.021c1.167,1.004,1.886,1.688,1.886,3.359c0,2.139-1.286,3.51-3.423,3.51
		c-0.803,0-1.472-0.185-2.055-0.568V216.455z"/>
	<polygon style="fill:#081F33;" points="139.793,209.639 137.971,209.639 137.971,207.434 144.003,207.434 144.003,209.639 
		142.184,209.639 142.184,219.347 139.793,219.347 	"/>
	<path style="fill:#081F33;" d="M158.707,213.396c0-2.572-0.602-3.843-1.822-3.843c-1.22,0-1.804,1.271-1.804,3.843
		c0,2.559,0.584,3.827,1.804,3.827C158.105,217.224,158.707,215.955,158.707,213.396z M156.885,219.497
		c-2.606,0-4.178-2.239-4.178-6.101c0-3.893,1.638-6.113,4.178-6.113c2.557,0,4.194,2.255,4.194,6.282
		C161.079,217.258,159.392,219.497,156.885,219.497z"/>
	<path style="fill:#081F33;" d="M170.483,207.434h2.408l2.403,6.414c0.135,0.367,0.386,1.188,0.736,2.456
		c-0.235-1.587-0.367-3.005-0.367-4.294v-4.576h2.205v11.913h-2.205l-2.606-6.668c-0.084-0.201-0.251-0.869-0.552-1.989
		c0.135,1.088,0.166,2.309,0.166,3.645v5.013h-2.188V207.434z"/>
</g>
</svg>
