<?xml version="1.0" encoding="iso-8859-1"?>
<!-- Generator: Adobe Illustrator 14.0.0, SVG Export Plug-In . SVG Version: 6.00 Build 43363)  -->
<!DOCTYPE svg PUBLIC "-//W3C//DTD SVG 1.1//EN" "http://www.w3.org/Graphics/SVG/1.1/DTD/svg11.dtd">
<svg version="1.1" id="Layer_1" xmlns="http://www.w3.org/2000/svg" xmlns:xlink="http://www.w3.org/1999/xlink" x="0px" y="0px"
	 width="250px" height="124px" viewBox="0 0 250 124" style="enable-background:new 0 0 250 124;" xml:space="preserve">
<g>
	<path style="fill-rule:evenodd;clip-rule:evenodd;fill:#005496;" d="M142.915,39.024c1.685,0,3.062-1.377,3.062-3.062
		c0-1.692-1.377-3.054-3.062-3.054s-3.062,1.362-3.062,3.054C139.854,37.647,141.23,39.024,142.915,39.024"/>
	<path style="fill-rule:evenodd;clip-rule:evenodd;fill:#005496;" d="M150.371,39.017c1.699,0,3.062-1.37,3.062-3.062
		c0-1.685-1.362-3.054-3.062-3.054c-1.685,0-3.047,1.37-3.047,3.054C147.324,37.647,148.687,39.017,150.371,39.017"/>
	<path style="fill-rule:evenodd;clip-rule:evenodd;fill:#005496;" d="M157.856,39.046c1.699,0,3.062-1.37,3.062-3.054
		c0-1.692-1.362-3.062-3.062-3.062c-1.685,0-3.062,1.37-3.062,3.062C154.795,37.676,156.172,39.046,157.856,39.046"/>
	<path style="fill-rule:evenodd;clip-rule:evenodd;fill:#005496;" d="M165.386,39.046c1.699,0,3.062-1.362,3.062-3.054
		c0-1.685-1.362-3.062-3.062-3.062c-1.685,0-3.047,1.377-3.047,3.062C162.339,37.684,163.701,39.046,165.386,39.046"/>
	<path style="fill-rule:evenodd;clip-rule:evenodd;fill:#005496;" d="M142.9,53.599c1.685,0,3.047-1.37,3.047-3.062
		c0-1.685-1.362-3.054-3.047-3.054c-1.699,0-3.062,1.37-3.062,3.054C139.839,52.229,141.201,53.599,142.9,53.599"/>
	<path style="fill-rule:evenodd;clip-rule:evenodd;fill:#005496;" d="M150.4,53.599c1.685,0,3.047-1.37,3.047-3.062
		c0-1.685-1.362-3.054-3.047-3.054c-1.699,0-3.062,1.37-3.062,3.054C147.339,52.229,148.701,53.599,150.4,53.599"/>
	<path style="fill-rule:evenodd;clip-rule:evenodd;fill:#005496;" d="M142.915,46.319c1.699,0,3.062-1.37,3.062-3.054
		c0-1.692-1.362-3.062-3.062-3.062c-1.685,0-3.047,1.37-3.047,3.062C139.868,44.949,141.23,46.319,142.915,46.319"/>
	<path style="fill-rule:evenodd;clip-rule:evenodd;fill:#005496;" d="M157.886,46.333c1.685,0,3.047-1.37,3.047-3.054
		c0-1.692-1.362-3.062-3.047-3.062c-1.699,0-3.062,1.37-3.062,3.062C154.824,44.964,156.187,46.333,157.886,46.333"/>
	<path style="fill-rule:evenodd;clip-rule:evenodd;fill:#005496;" d="M165.386,46.326c1.699,0,3.062-1.377,3.062-3.062
		c0-1.692-1.362-3.062-3.062-3.062c-1.685,0-3.047,1.37-3.047,3.062C162.339,44.949,163.701,46.326,165.386,46.326"/>
	<path style="fill-rule:evenodd;clip-rule:evenodd;fill:#005496;" d="M165.386,53.599c1.699,0,3.062-1.37,3.062-3.062
		c0-1.685-1.362-3.054-3.062-3.054c-1.685,0-3.047,1.37-3.047,3.054C162.339,52.229,163.701,53.599,165.386,53.599"/>
	<path style="fill-rule:evenodd;clip-rule:evenodd;fill:#005496;" d="M157.9,53.599c1.699,0,3.062-1.37,3.062-3.062
		c0-1.685-1.362-3.054-3.062-3.054c-1.685,0-3.047,1.37-3.047,3.054C154.854,52.229,156.216,53.599,157.9,53.599"/>
	<path style="fill-rule:evenodd;clip-rule:evenodd;fill:#005496;" d="M150.43,46.326c1.685,0,3.047-1.377,3.047-3.062
		c0-1.692-1.362-3.062-3.047-3.062c-1.699,0-3.062,1.37-3.062,3.062C147.368,44.949,148.73,46.326,150.43,46.326"/>
	<path style="fill-rule:evenodd;clip-rule:evenodd;fill:#005496;" d="M142.915,60.975c1.685,0,3.062-1.37,3.062-3.062
		c0-1.685-1.377-3.054-3.062-3.054s-3.062,1.37-3.062,3.054C139.854,59.605,141.23,60.975,142.915,60.975"/>
	<path style="fill-rule:evenodd;clip-rule:evenodd;fill:#005496;" d="M150.371,60.975c1.699,0,3.062-1.377,3.062-3.062
		c0-1.692-1.362-3.054-3.062-3.054c-1.685,0-3.047,1.362-3.047,3.054C147.324,59.598,148.687,60.975,150.371,60.975"/>
	<path style="fill-rule:evenodd;clip-rule:evenodd;fill:#005496;" d="M157.856,60.997c1.699,0,3.062-1.362,3.062-3.054
		c0-1.685-1.362-3.062-3.062-3.062c-1.685,0-3.062,1.377-3.062,3.062C154.795,59.634,156.172,60.997,157.856,60.997"/>
	<path style="fill-rule:evenodd;clip-rule:evenodd;fill:#005496;" d="M165.386,60.997c1.699,0,3.062-1.362,3.062-3.054
		c0-1.685-1.362-3.054-3.062-3.054c-1.685,0-3.047,1.37-3.047,3.054C162.339,59.634,163.701,60.997,165.386,60.997"/>
	<path style="fill-rule:evenodd;clip-rule:evenodd;fill:#005496;" d="M142.9,75.557c1.685,0,3.047-1.377,3.047-3.061
		c0-1.692-1.362-3.055-3.047-3.055c-1.699,0-3.062,1.362-3.062,3.055C139.839,74.18,141.201,75.557,142.9,75.557"/>
	<path style="fill-rule:evenodd;clip-rule:evenodd;fill:#005496;" d="M150.4,75.557c1.685,0,3.047-1.377,3.047-3.061
		c0-1.692-1.362-3.055-3.047-3.055c-1.699,0-3.062,1.362-3.062,3.055C147.339,74.18,148.701,75.557,150.4,75.557"/>
	<path style="fill-rule:evenodd;clip-rule:evenodd;fill:#005496;" d="M142.915,68.277c1.699,0,3.062-1.37,3.062-3.063
		c0-1.684-1.362-3.061-3.062-3.061c-1.685,0-3.047,1.377-3.047,3.061C139.868,66.907,141.23,68.277,142.915,68.277"/>
	<path style="fill-rule:evenodd;clip-rule:evenodd;fill:#005496;" d="M157.886,68.284c1.685,0,3.047-1.37,3.047-3.054
		c0-1.686-1.362-3.062-3.047-3.062c-1.699,0-3.062,1.376-3.062,3.062C154.824,66.914,156.187,68.284,157.886,68.284"/>
	<path style="fill-rule:evenodd;clip-rule:evenodd;fill:#005496;" d="M165.386,68.277c1.699,0,3.062-1.37,3.062-3.063
		c0-1.684-1.362-3.054-3.062-3.054c-1.685,0-3.047,1.37-3.047,3.054C162.339,66.907,163.701,68.277,165.386,68.277"/>
	<path style="fill-rule:evenodd;clip-rule:evenodd;fill:#005496;" d="M165.386,75.557c1.699,0,3.062-1.377,3.062-3.061
		c0-1.692-1.362-3.055-3.062-3.055c-1.685,0-3.047,1.362-3.047,3.055C162.339,74.18,163.701,75.557,165.386,75.557"/>
	<path style="fill-rule:evenodd;clip-rule:evenodd;fill:#005496;" d="M157.9,75.557c1.699,0,3.062-1.377,3.062-3.061
		c0-1.692-1.362-3.055-3.062-3.055c-1.685,0-3.047,1.362-3.047,3.055C154.854,74.18,156.216,75.557,157.9,75.557"/>
	<path style="fill-rule:evenodd;clip-rule:evenodd;fill:#005496;" d="M150.43,68.277c1.685,0,3.047-1.37,3.047-3.063
		c0-1.684-1.362-3.054-3.047-3.054c-1.699,0-3.062,1.37-3.062,3.054C147.368,66.907,148.73,68.277,150.43,68.277"/>
	<path style="fill-rule:evenodd;clip-rule:evenodd;fill:#005496;" d="M181.25,39.024c1.685,0,3.062-1.377,3.062-3.062
		c0-1.692-1.377-3.054-3.062-3.054s-3.062,1.362-3.062,3.054C178.188,37.647,179.565,39.024,181.25,39.024"/>
	<path style="fill-rule:evenodd;clip-rule:evenodd;fill:#005496;" d="M188.706,39.017c1.699,0,3.062-1.37,3.062-3.062
		c0-1.685-1.362-3.054-3.062-3.054c-1.685,0-3.047,1.37-3.047,3.054C185.659,37.647,187.021,39.017,188.706,39.017"/>
	<path style="fill-rule:evenodd;clip-rule:evenodd;fill:#005496;" d="M196.206,39.046c1.685,0,3.047-1.37,3.047-3.054
		c0-1.692-1.362-3.062-3.047-3.062c-1.699,0-3.062,1.37-3.062,3.062C193.145,37.676,194.507,39.046,196.206,39.046"/>
	<path style="fill-rule:evenodd;clip-rule:evenodd;fill:#005496;" d="M203.735,39.046c1.685,0,3.047-1.362,3.047-3.054
		c0-1.685-1.362-3.062-3.047-3.062c-1.699,0-3.062,1.377-3.062,3.062C200.674,37.684,202.036,39.046,203.735,39.046"/>
	<path style="fill-rule:evenodd;clip-rule:evenodd;fill:#005496;" d="M181.235,53.599c1.685,0,3.047-1.37,3.047-3.062
		c0-1.685-1.362-3.054-3.047-3.054c-1.699,0-3.062,1.37-3.062,3.054C178.174,52.229,179.536,53.599,181.235,53.599"/>
	<path style="fill-rule:evenodd;clip-rule:evenodd;fill:#005496;" d="M188.735,53.599c1.685,0,3.047-1.37,3.047-3.062
		c0-1.685-1.362-3.054-3.047-3.054c-1.699,0-3.062,1.37-3.062,3.054C185.674,52.229,187.036,53.599,188.735,53.599"/>
	<path style="fill-rule:evenodd;clip-rule:evenodd;fill:#005496;" d="M181.265,46.319c1.685,0,3.047-1.37,3.047-3.054
		c0-1.692-1.362-3.062-3.047-3.062c-1.699,0-3.062,1.37-3.062,3.062C178.203,44.949,179.565,46.319,181.265,46.319"/>
	<path style="fill-rule:evenodd;clip-rule:evenodd;fill:#005496;" d="M196.221,46.333c1.685,0,3.062-1.37,3.062-3.054
		c0-1.692-1.377-3.062-3.062-3.062c-1.699,0-3.062,1.37-3.062,3.062C193.159,44.964,194.521,46.333,196.221,46.333"/>
	<path style="fill-rule:evenodd;clip-rule:evenodd;fill:#005496;" d="M203.735,46.326c1.685,0,3.047-1.377,3.047-3.062
		c0-1.692-1.362-3.062-3.047-3.062c-1.699,0-3.062,1.37-3.062,3.062C200.674,44.949,202.036,46.326,203.735,46.326"/>
	<path style="fill-rule:evenodd;clip-rule:evenodd;fill:#005496;" d="M203.735,53.599c1.685,0,3.047-1.37,3.047-3.062
		c0-1.685-1.362-3.054-3.047-3.054c-1.699,0-3.062,1.37-3.062,3.054C200.674,52.229,202.036,53.599,203.735,53.599"/>
	<path style="fill-rule:evenodd;clip-rule:evenodd;fill:#005496;" d="M196.25,53.599c1.685,0,3.047-1.37,3.047-3.062
		c0-1.685-1.362-3.054-3.047-3.054c-1.699,0-3.062,1.37-3.062,3.054C193.188,52.229,194.551,53.599,196.25,53.599"/>
	<path style="fill-rule:evenodd;clip-rule:evenodd;fill:#005496;" d="M188.765,46.326c1.685,0,3.047-1.377,3.047-3.062
		c0-1.692-1.362-3.062-3.047-3.062c-1.699,0-3.062,1.37-3.062,3.062C185.703,44.949,187.065,46.326,188.765,46.326"/>
	<path style="fill-rule:evenodd;clip-rule:evenodd;fill:#005496;" d="M181.25,60.975c1.685,0,3.062-1.37,3.062-3.062
		c0-1.685-1.377-3.054-3.062-3.054s-3.062,1.37-3.062,3.054C178.188,59.605,179.565,60.975,181.25,60.975"/>
	<path style="fill-rule:evenodd;clip-rule:evenodd;fill:#005496;" d="M188.706,60.975c1.699,0,3.062-1.377,3.062-3.062
		c0-1.692-1.362-3.054-3.062-3.054c-1.685,0-3.047,1.362-3.047,3.054C185.659,59.598,187.021,60.975,188.706,60.975"/>
	<path style="fill-rule:evenodd;clip-rule:evenodd;fill:#005496;" d="M196.206,60.997c1.685,0,3.047-1.362,3.047-3.054
		c0-1.685-1.362-3.062-3.047-3.062c-1.699,0-3.062,1.377-3.062,3.062C193.145,59.634,194.507,60.997,196.206,60.997"/>
	<path style="fill-rule:evenodd;clip-rule:evenodd;fill:#005496;" d="M203.735,60.997c1.685,0,3.047-1.362,3.047-3.054
		c0-1.685-1.362-3.054-3.047-3.054c-1.699,0-3.062,1.37-3.062,3.054C200.674,59.634,202.036,60.997,203.735,60.997"/>
	<path style="fill-rule:evenodd;clip-rule:evenodd;fill:#005496;" d="M181.235,75.557c1.685,0,3.047-1.377,3.047-3.061
		c0-1.692-1.362-3.055-3.047-3.055c-1.699,0-3.062,1.362-3.062,3.055C178.174,74.18,179.536,75.557,181.235,75.557"/>
	<path style="fill-rule:evenodd;clip-rule:evenodd;fill:#005496;" d="M188.735,75.557c1.685,0,3.047-1.377,3.047-3.061
		c0-1.692-1.362-3.055-3.047-3.055c-1.699,0-3.062,1.362-3.062,3.055C185.674,74.18,187.036,75.557,188.735,75.557"/>
	<path style="fill-rule:evenodd;clip-rule:evenodd;fill:#005496;" d="M181.265,68.277c1.685,0,3.047-1.37,3.047-3.063
		c0-1.684-1.362-3.061-3.047-3.061c-1.699,0-3.062,1.377-3.062,3.061C178.203,66.907,179.565,68.277,181.265,68.277"/>
	<path style="fill-rule:evenodd;clip-rule:evenodd;fill:#005496;" d="M196.221,68.284c1.685,0,3.062-1.37,3.062-3.054
		c0-1.686-1.377-3.062-3.062-3.062c-1.699,0-3.062,1.376-3.062,3.062C193.159,66.914,194.521,68.284,196.221,68.284"/>
	<path style="fill-rule:evenodd;clip-rule:evenodd;fill:#005496;" d="M203.735,68.277c1.685,0,3.047-1.37,3.047-3.063
		c0-1.684-1.362-3.054-3.047-3.054c-1.699,0-3.062,1.37-3.062,3.054C200.674,66.907,202.036,68.277,203.735,68.277"/>
	<path style="fill-rule:evenodd;clip-rule:evenodd;fill:#005496;" d="M203.735,75.557c1.685,0,3.047-1.377,3.047-3.061
		c0-1.692-1.362-3.055-3.047-3.055c-1.699,0-3.062,1.362-3.062,3.055C200.674,74.18,202.036,75.557,203.735,75.557"/>
	<path style="fill-rule:evenodd;clip-rule:evenodd;fill:#005496;" d="M196.25,75.557c1.685,0,3.047-1.377,3.047-3.061
		c0-1.692-1.362-3.055-3.047-3.055c-1.699,0-3.062,1.362-3.062,3.055C193.188,74.18,194.551,75.557,196.25,75.557"/>
	<path style="fill-rule:evenodd;clip-rule:evenodd;fill:#005496;" d="M188.765,68.277c1.685,0,3.047-1.37,3.047-3.063
		c0-1.684-1.362-3.054-3.047-3.054c-1.699,0-3.062,1.37-3.062,3.054C185.703,66.907,187.065,68.277,188.765,68.277"/>
	<path style="fill-rule:evenodd;clip-rule:evenodd;fill:#005496;" d="M219.468,39.024c1.685,0,3.047-1.377,3.047-3.062
		c0-1.692-1.362-3.054-3.047-3.054c-1.699,0-3.062,1.362-3.062,3.054C216.406,37.647,217.769,39.024,219.468,39.024"/>
	<path style="fill-rule:evenodd;clip-rule:evenodd;fill:#005496;" d="M226.924,39.017c1.685,0,3.062-1.37,3.062-3.062
		c0-1.685-1.377-3.054-3.062-3.054s-3.062,1.37-3.062,3.054C223.862,37.647,225.239,39.017,226.924,39.017"/>
	<path style="fill-rule:evenodd;clip-rule:evenodd;fill:#005496;" d="M234.409,39.046c1.685,0,3.062-1.37,3.062-3.054
		c0-1.692-1.377-3.062-3.062-3.062s-3.062,1.37-3.062,3.062C231.348,37.676,232.725,39.046,234.409,39.046"/>
	<path style="fill-rule:evenodd;clip-rule:evenodd;fill:#005496;" d="M241.938,39.046c1.685,0,3.062-1.362,3.062-3.054
		c0-1.685-1.377-3.062-3.062-3.062s-3.062,1.377-3.062,3.062C238.877,37.684,240.254,39.046,241.938,39.046"/>
	<path style="fill-rule:evenodd;clip-rule:evenodd;fill:#005496;" d="M219.438,53.599c1.699,0,3.062-1.37,3.062-3.062
		c0-1.685-1.362-3.054-3.062-3.054c-1.685,0-3.047,1.37-3.047,3.054C216.392,52.229,217.754,53.599,219.438,53.599"/>
	<path style="fill-rule:evenodd;clip-rule:evenodd;fill:#005496;" d="M226.938,53.599c1.685,0,3.062-1.37,3.062-3.062
		c0-1.685-1.377-3.054-3.062-3.054s-3.047,1.37-3.047,3.054C223.892,52.229,225.254,53.599,226.938,53.599"/>
	<path style="fill-rule:evenodd;clip-rule:evenodd;fill:#005496;" d="M219.468,46.319c1.685,0,3.062-1.37,3.062-3.054
		c0-1.692-1.377-3.062-3.062-3.062s-3.062,1.37-3.062,3.062C216.406,44.949,217.783,46.319,219.468,46.319"/>
	<path style="fill-rule:evenodd;clip-rule:evenodd;fill:#005496;" d="M234.424,46.333c1.699,0,3.062-1.37,3.062-3.054
		c0-1.692-1.362-3.062-3.062-3.062c-1.685,0-3.047,1.37-3.047,3.062C231.377,44.964,232.739,46.333,234.424,46.333"/>
	<path style="fill-rule:evenodd;clip-rule:evenodd;fill:#005496;" d="M241.938,46.326c1.685,0,3.062-1.377,3.062-3.062
		c0-1.692-1.377-3.062-3.062-3.062s-3.062,1.37-3.062,3.062C238.877,44.949,240.254,46.326,241.938,46.326"/>
	<path style="fill-rule:evenodd;clip-rule:evenodd;fill:#005496;" d="M241.938,53.599c1.685,0,3.062-1.37,3.062-3.062
		c0-1.685-1.377-3.054-3.062-3.054s-3.062,1.37-3.062,3.054C238.877,52.229,240.254,53.599,241.938,53.599"/>
	<path style="fill-rule:evenodd;clip-rule:evenodd;fill:#005496;" d="M234.453,53.599c1.699,0,3.062-1.37,3.062-3.062
		c0-1.685-1.362-3.054-3.062-3.054c-1.685,0-3.062,1.37-3.062,3.054C231.392,52.229,232.769,53.599,234.453,53.599"/>
	<path style="fill-rule:evenodd;clip-rule:evenodd;fill:#005496;" d="M226.968,46.326c1.685,0,3.062-1.377,3.062-3.062
		c0-1.692-1.377-3.062-3.062-3.062s-3.062,1.37-3.062,3.062C223.906,44.949,225.283,46.326,226.968,46.326"/>
	<path style="fill-rule:evenodd;clip-rule:evenodd;fill:#005496;" d="M219.468,60.975c1.685,0,3.047-1.37,3.047-3.062
		c0-1.685-1.362-3.054-3.047-3.054c-1.699,0-3.062,1.37-3.062,3.054C216.406,59.605,217.769,60.975,219.468,60.975"/>
	<path style="fill-rule:evenodd;clip-rule:evenodd;fill:#005496;" d="M226.924,60.975c1.685,0,3.062-1.377,3.062-3.062
		c0-1.692-1.377-3.054-3.062-3.054s-3.062,1.362-3.062,3.054C223.862,59.598,225.239,60.975,226.924,60.975"/>
	<path style="fill-rule:evenodd;clip-rule:evenodd;fill:#005496;" d="M234.409,60.997c1.685,0,3.062-1.362,3.062-3.054
		c0-1.685-1.377-3.062-3.062-3.062s-3.062,1.377-3.062,3.062C231.348,59.634,232.725,60.997,234.409,60.997"/>
	<path style="fill-rule:evenodd;clip-rule:evenodd;fill:#005496;" d="M241.938,60.997c1.685,0,3.062-1.362,3.062-3.054
		c0-1.685-1.377-3.054-3.062-3.054s-3.062,1.37-3.062,3.054C238.877,59.634,240.254,60.997,241.938,60.997"/>
	<path style="fill-rule:evenodd;clip-rule:evenodd;fill:#005496;" d="M219.438,75.557c1.699,0,3.062-1.377,3.062-3.061
		c0-1.692-1.362-3.055-3.062-3.055c-1.685,0-3.047,1.362-3.047,3.055C216.392,74.18,217.754,75.557,219.438,75.557"/>
	<path style="fill-rule:evenodd;clip-rule:evenodd;fill:#005496;" d="M226.938,75.557c1.685,0,3.062-1.377,3.062-3.061
		c0-1.692-1.377-3.055-3.062-3.055s-3.047,1.362-3.047,3.055C223.892,74.18,225.254,75.557,226.938,75.557"/>
	<path style="fill-rule:evenodd;clip-rule:evenodd;fill:#005496;" d="M219.468,68.277c1.685,0,3.062-1.37,3.062-3.063
		c0-1.684-1.377-3.061-3.062-3.061s-3.062,1.377-3.062,3.061C216.406,66.907,217.783,68.277,219.468,68.277"/>
	<path style="fill-rule:evenodd;clip-rule:evenodd;fill:#005496;" d="M234.424,68.284c1.699,0,3.062-1.37,3.062-3.054
		c0-1.686-1.362-3.062-3.062-3.062c-1.685,0-3.047,1.376-3.047,3.062C231.377,66.914,232.739,68.284,234.424,68.284"/>
	<path style="fill-rule:evenodd;clip-rule:evenodd;fill:#005496;" d="M241.938,68.277c1.685,0,3.062-1.37,3.062-3.063
		c0-1.684-1.377-3.054-3.062-3.054s-3.062,1.37-3.062,3.054C238.877,66.907,240.254,68.277,241.938,68.277"/>
	<path style="fill-rule:evenodd;clip-rule:evenodd;fill:#005496;" d="M241.938,75.557c1.685,0,3.062-1.377,3.062-3.061
		c0-1.692-1.377-3.055-3.062-3.055s-3.062,1.362-3.062,3.055C238.877,74.18,240.254,75.557,241.938,75.557"/>
	<path style="fill-rule:evenodd;clip-rule:evenodd;fill:#005496;" d="M234.453,75.557c1.699,0,3.062-1.377,3.062-3.061
		c0-1.692-1.362-3.055-3.062-3.055c-1.685,0-3.062,1.362-3.062,3.055C231.392,74.18,232.769,75.557,234.453,75.557"/>
	<path style="fill-rule:evenodd;clip-rule:evenodd;fill:#005496;" d="M226.968,68.277c1.685,0,3.062-1.37,3.062-3.063
		c0-1.684-1.377-3.054-3.062-3.054s-3.062,1.37-3.062,3.054C223.906,66.907,225.283,68.277,226.968,68.277"/>
	<path style="fill-rule:evenodd;clip-rule:evenodd;fill:#005496;" d="M105.371,39.024c1.685,0,3.047-1.377,3.047-3.062
		c0-1.692-1.362-3.054-3.047-3.054c-1.699,0-3.062,1.362-3.062,3.054C102.31,37.647,103.672,39.024,105.371,39.024"/>
	<path style="fill-rule:evenodd;clip-rule:evenodd;fill:#005496;" d="M112.827,39.017c1.699,0,3.062-1.37,3.062-3.062
		c0-1.685-1.362-3.054-3.062-3.054c-1.685,0-3.062,1.37-3.062,3.054C109.766,37.647,111.143,39.017,112.827,39.017"/>
	<path style="fill-rule:evenodd;clip-rule:evenodd;fill:#005496;" d="M120.313,39.046c1.685,0,3.062-1.37,3.062-3.054
		c0-1.692-1.377-3.062-3.062-3.062s-3.062,1.37-3.062,3.062C117.251,37.676,118.628,39.046,120.313,39.046"/>
	<path style="fill-rule:evenodd;clip-rule:evenodd;fill:#005496;" d="M127.842,39.046c1.685,0,3.062-1.362,3.062-3.054
		c0-1.685-1.377-3.062-3.062-3.062s-3.062,1.377-3.062,3.062C124.78,37.684,126.157,39.046,127.842,39.046"/>
	<path style="fill-rule:evenodd;clip-rule:evenodd;fill:#005496;" d="M105.356,53.599c1.685,0,3.047-1.37,3.047-3.062
		c0-1.685-1.362-3.054-3.047-3.054c-1.699,0-3.062,1.37-3.062,3.054C102.295,52.229,103.657,53.599,105.356,53.599"/>
	<path style="fill-rule:evenodd;clip-rule:evenodd;fill:#005496;" d="M112.842,53.599c1.699,0,3.062-1.37,3.062-3.062
		c0-1.685-1.362-3.054-3.062-3.054c-1.685,0-3.047,1.37-3.047,3.054C109.795,52.229,111.157,53.599,112.842,53.599"/>
	<path style="fill-rule:evenodd;clip-rule:evenodd;fill:#005496;" d="M105.371,46.319c1.699,0,3.062-1.37,3.062-3.054
		c0-1.692-1.362-3.062-3.062-3.062c-1.685,0-3.047,1.37-3.047,3.062C102.324,44.949,103.687,46.319,105.371,46.319"/>
	<path style="fill-rule:evenodd;clip-rule:evenodd;fill:#005496;" d="M120.342,46.333c1.685,0,3.047-1.37,3.047-3.054
		c0-1.692-1.362-3.062-3.047-3.062c-1.699,0-3.062,1.37-3.062,3.062C117.28,44.964,118.643,46.333,120.342,46.333"/>
	<path style="fill-rule:evenodd;clip-rule:evenodd;fill:#005496;" d="M112.871,46.326c1.699,0,3.062-1.377,3.062-3.062
		c0-1.692-1.362-3.062-3.062-3.062c-1.685,0-3.062,1.37-3.062,3.062C109.81,44.949,111.187,46.326,112.871,46.326"/>
	<path style="fill-rule:evenodd;clip-rule:evenodd;fill:#005496;" d="M105.371,60.975c1.685,0,3.047-1.37,3.047-3.062
		c0-1.685-1.362-3.054-3.047-3.054c-1.699,0-3.062,1.37-3.062,3.054C102.31,59.605,103.672,60.975,105.371,60.975"/>
	<path style="fill-rule:evenodd;clip-rule:evenodd;fill:#005496;" d="M8.054,38.965c1.692,0,3.054-1.37,3.054-3.062
		c0-1.685-1.362-3.054-3.054-3.054S5,34.219,5,35.904C5,37.596,6.362,38.965,8.054,38.965"/>
	<path style="fill-rule:evenodd;clip-rule:evenodd;fill:#005496;" d="M90.371,39.046c1.699,0,3.062-1.37,3.062-3.054
		c0-1.692-1.362-3.062-3.062-3.062c-1.685,0-3.047,1.37-3.047,3.062C87.324,37.676,88.687,39.046,90.371,39.046"/>
	<path style="fill-rule:evenodd;clip-rule:evenodd;fill:#005496;" d="M97.915,39.046c1.685,0,3.047-1.362,3.047-3.054
		c0-1.685-1.362-3.062-3.047-3.062c-1.699,0-3.062,1.377-3.062,3.062C94.854,37.684,96.216,39.046,97.915,39.046"/>
	<path style="fill-rule:evenodd;clip-rule:evenodd;fill:#005496;" d="M75.415,53.599c1.685,0,3.054-1.37,3.054-3.062
		c0-1.685-1.37-3.054-3.054-3.054c-1.692,0-3.062,1.37-3.062,3.054C72.354,52.229,73.723,53.599,75.415,53.599"/>
	<path style="fill-rule:evenodd;clip-rule:evenodd;fill:#005496;" d="M82.915,53.599c1.685,0,3.047-1.37,3.047-3.062
		c0-1.685-1.362-3.054-3.047-3.054c-1.699,0-3.062,1.37-3.062,3.054C79.854,52.229,81.216,53.599,82.915,53.599"/>
	<path style="fill-rule:evenodd;clip-rule:evenodd;fill:#005496;" d="M90.4,46.333c1.685,0,3.062-1.37,3.062-3.054
		c0-1.692-1.377-3.062-3.062-3.062s-3.062,1.37-3.062,3.062C87.339,44.964,88.716,46.333,90.4,46.333"/>
	<path style="fill-rule:evenodd;clip-rule:evenodd;fill:#005496;" d="M97.915,46.326c1.685,0,3.047-1.377,3.047-3.062
		c0-1.692-1.362-3.062-3.047-3.062c-1.699,0-3.062,1.37-3.062,3.062C94.854,44.949,96.216,46.326,97.915,46.326"/>
	<path style="fill-rule:evenodd;clip-rule:evenodd;fill:#005496;" d="M97.915,53.599c1.685,0,3.047-1.37,3.047-3.062
		c0-1.685-1.362-3.054-3.047-3.054c-1.699,0-3.062,1.37-3.062,3.054C94.854,52.229,96.216,53.599,97.915,53.599"/>
	<path style="fill-rule:evenodd;clip-rule:evenodd;fill:#005496;" d="M90.43,53.599c1.685,0,3.047-1.37,3.047-3.062
		c0-1.685-1.362-3.054-3.047-3.054c-1.699,0-3.062,1.37-3.062,3.054C87.368,52.229,88.73,53.599,90.43,53.599"/>
	<path style="fill-rule:evenodd;clip-rule:evenodd;fill:#005496;" d="M82.944,46.326c1.685,0,3.047-1.377,3.047-3.062
		c0-1.692-1.362-3.062-3.047-3.062c-1.699,0-3.062,1.37-3.062,3.062C79.883,44.949,81.245,46.326,82.944,46.326"/>
	<path style="fill-rule:evenodd;clip-rule:evenodd;fill:#005496;" d="M75.43,60.975c1.685,0,3.062-1.37,3.062-3.062
		c0-1.685-1.377-3.054-3.062-3.054s-3.062,1.37-3.062,3.054C72.368,59.605,73.745,60.975,75.43,60.975"/>
	<path style="fill-rule:evenodd;clip-rule:evenodd;fill:#005496;" d="M82.893,60.975c1.692,0,3.054-1.377,3.054-3.062
		c0-1.692-1.362-3.054-3.054-3.054s-3.054,1.362-3.054,3.054C79.839,59.598,81.201,60.975,82.893,60.975"/>
	<path style="fill-rule:evenodd;clip-rule:evenodd;fill:#005496;" d="M90.371,60.997c1.699,0,3.062-1.362,3.062-3.054
		c0-1.685-1.362-3.062-3.062-3.062c-1.685,0-3.047,1.377-3.047,3.062C87.324,59.634,88.687,60.997,90.371,60.997"/>
	<path style="fill-rule:evenodd;clip-rule:evenodd;fill:#005496;" d="M97.915,60.997c1.685,0,3.047-1.362,3.047-3.054
		c0-1.685-1.362-3.054-3.047-3.054c-1.699,0-3.062,1.37-3.062,3.054C94.854,59.634,96.216,60.997,97.915,60.997"/>
	<path style="fill-rule:evenodd;clip-rule:evenodd;fill:#005496;" d="M75.415,75.557c1.685,0,3.054-1.377,3.054-3.061
		c0-1.692-1.37-3.055-3.054-3.055c-1.692,0-3.062,1.362-3.062,3.055C72.354,74.18,73.723,75.557,75.415,75.557"/>
	<path style="fill-rule:evenodd;clip-rule:evenodd;fill:#005496;" d="M82.915,75.557c1.685,0,3.047-1.377,3.047-3.061
		c0-1.692-1.362-3.055-3.047-3.055c-1.699,0-3.062,1.362-3.062,3.055C79.854,74.18,81.216,75.557,82.915,75.557"/>
	<path style="fill-rule:evenodd;clip-rule:evenodd;fill:#005496;" d="M75.437,68.277c1.692,0,3.054-1.37,3.054-3.063
		c0-1.684-1.362-3.061-3.054-3.061s-3.054,1.377-3.054,3.061C72.383,66.907,73.745,68.277,75.437,68.277"/>
	<path style="fill-rule:evenodd;clip-rule:evenodd;fill:#005496;" d="M90.4,68.284c1.685,0,3.062-1.37,3.062-3.054
		c0-1.686-1.377-3.062-3.062-3.062s-3.062,1.376-3.062,3.062C87.339,66.914,88.716,68.284,90.4,68.284"/>
	<path style="fill-rule:evenodd;clip-rule:evenodd;fill:#005496;" d="M97.915,68.277c1.685,0,3.047-1.37,3.047-3.063
		c0-1.684-1.362-3.054-3.047-3.054c-1.699,0-3.062,1.37-3.062,3.054C94.854,66.907,96.216,68.277,97.915,68.277"/>
	<path style="fill-rule:evenodd;clip-rule:evenodd;fill:#005496;" d="M90.43,75.557c1.685,0,3.047-1.377,3.047-3.061
		c0-1.692-1.362-3.055-3.047-3.055c-1.699,0-3.062,1.362-3.062,3.055C87.368,74.18,88.73,75.557,90.43,75.557"/>
	<path style="fill-rule:evenodd;clip-rule:evenodd;fill:#005496;" d="M82.944,68.277c1.685,0,3.047-1.37,3.047-3.063
		c0-1.684-1.362-3.054-3.047-3.054c-1.699,0-3.062,1.37-3.062,3.054C79.883,66.907,81.245,68.277,82.944,68.277"/>
	<path style="fill-rule:evenodd;clip-rule:evenodd;fill:#005496;" d="M15.591,39.024c1.699,0,3.062-1.377,3.062-3.062
		c0-1.692-1.362-3.054-3.062-3.054c-1.685,0-3.047,1.362-3.047,3.054C12.544,37.647,13.906,39.024,15.591,39.024"/>
	<path style="fill-rule:evenodd;clip-rule:evenodd;fill:#005496;" d="M23.062,39.017c1.685,0,3.054-1.37,3.054-3.062
		c0-1.685-1.37-3.054-3.054-3.054c-1.692,0-3.062,1.37-3.062,3.054C20,37.647,21.37,39.017,23.062,39.017"/>
	<path style="fill-rule:evenodd;clip-rule:evenodd;fill:#005496;" d="M30.547,39.046c1.685,0,3.054-1.37,3.054-3.054
		c0-1.692-1.37-3.062-3.054-3.062c-1.692,0-3.062,1.37-3.062,3.062C27.485,37.676,28.855,39.046,30.547,39.046"/>
	<path style="fill-rule:evenodd;clip-rule:evenodd;fill:#005496;" d="M38.076,39.046c1.685,0,3.062-1.362,3.062-3.054
		c0-1.685-1.377-3.062-3.062-3.062c-1.692,0-3.062,1.377-3.062,3.062C35.015,37.684,36.384,39.046,38.076,39.046"/>
	<path style="fill-rule:evenodd;clip-rule:evenodd;fill:#005496;" d="M23.076,53.599c1.692,0,3.062-1.37,3.062-3.062
		c0-1.685-1.37-3.054-3.062-3.054c-1.685,0-3.062,1.37-3.062,3.054C20.015,52.229,21.392,53.599,23.076,53.599"/>
	<path style="fill-rule:evenodd;clip-rule:evenodd;fill:#005496;" d="M15.605,46.319c1.685,0,3.062-1.37,3.062-3.054
		c0-1.692-1.377-3.062-3.062-3.062s-3.062,1.37-3.062,3.062C12.544,44.949,13.921,46.319,15.605,46.319"/>
	<path style="fill-rule:evenodd;clip-rule:evenodd;fill:#005496;" d="M30.562,46.333c1.692,0,3.062-1.37,3.062-3.054
		c0-1.692-1.37-3.062-3.062-3.062c-1.685,0-3.054,1.37-3.054,3.062C27.507,44.964,28.877,46.333,30.562,46.333"/>
	<path style="fill-rule:evenodd;clip-rule:evenodd;fill:#005496;" d="M38.076,46.326c1.685,0,3.062-1.377,3.062-3.062
		c0-1.692-1.377-3.062-3.062-3.062c-1.692,0-3.062,1.37-3.062,3.062C35.015,44.949,36.384,46.326,38.076,46.326"/>
	<path style="fill-rule:evenodd;clip-rule:evenodd;fill:#005496;" d="M38.076,53.599c1.685,0,3.062-1.37,3.062-3.062
		c0-1.685-1.377-3.054-3.062-3.054c-1.692,0-3.062,1.37-3.062,3.054C35.015,52.229,36.384,53.599,38.076,53.599"/>
	<path style="fill-rule:evenodd;clip-rule:evenodd;fill:#005496;" d="M30.591,53.599c1.685,0,3.062-1.37,3.062-3.062
		c0-1.685-1.377-3.054-3.062-3.054s-3.062,1.37-3.062,3.054C27.529,52.229,28.906,53.599,30.591,53.599"/>
	<path style="fill-rule:evenodd;clip-rule:evenodd;fill:#005496;" d="M23.105,46.326c1.685,0,3.062-1.377,3.062-3.062
		c0-1.692-1.377-3.062-3.062-3.062s-3.062,1.37-3.062,3.062C20.044,44.949,21.421,46.326,23.105,46.326"/>
	<path style="fill-rule:evenodd;clip-rule:evenodd;fill:#005496;" d="M30.547,60.997c1.685,0,3.054-1.362,3.054-3.054
		c0-1.685-1.37-3.062-3.054-3.062c-1.692,0-3.062,1.377-3.062,3.062C27.485,59.634,28.855,60.997,30.547,60.997"/>
	<path style="fill-rule:evenodd;clip-rule:evenodd;fill:#005496;" d="M38.076,60.997c1.685,0,3.062-1.362,3.062-3.054
		c0-1.685-1.377-3.054-3.062-3.054c-1.692,0-3.062,1.37-3.062,3.054C35.015,59.634,36.384,60.997,38.076,60.997"/>
	<path style="fill-rule:evenodd;clip-rule:evenodd;fill:#005496;" d="M38.076,68.277c1.685,0,3.062-1.37,3.062-3.063
		c0-1.684-1.377-3.054-3.062-3.054c-1.692,0-3.062,1.37-3.062,3.054C35.015,66.907,36.384,68.277,38.076,68.277"/>
	<path style="fill-rule:evenodd;clip-rule:evenodd;fill:#005496;" d="M45.532,39.024c1.692,0,3.062-1.377,3.062-3.062
		c0-1.692-1.37-3.054-3.062-3.054c-1.685,0-3.062,1.362-3.062,3.054C42.471,37.647,43.848,39.024,45.532,39.024"/>
	<path style="fill-rule:evenodd;clip-rule:evenodd;fill:#005496;" d="M45.518,53.599c1.685,0,3.062-1.37,3.062-3.062
		c0-1.685-1.377-3.054-3.062-3.054s-3.062,1.37-3.062,3.054C42.456,52.229,43.833,53.599,45.518,53.599"/>
	<path style="fill-rule:evenodd;clip-rule:evenodd;fill:#005496;" d="M53.018,53.599c1.685,0,3.062-1.37,3.062-3.062
		c0-1.685-1.377-3.054-3.062-3.054c-1.692,0-3.062,1.37-3.062,3.054C49.956,52.229,51.326,53.599,53.018,53.599"/>
	<path style="fill-rule:evenodd;clip-rule:evenodd;fill:#005496;" d="M45.547,46.319c1.685,0,3.054-1.37,3.054-3.054
		c0-1.692-1.37-3.062-3.054-3.062c-1.692,0-3.062,1.37-3.062,3.062C42.485,44.949,43.855,46.319,45.547,46.319"/>
	<path style="fill-rule:evenodd;clip-rule:evenodd;fill:#005496;" d="M60.532,53.599c1.685,0,3.054-1.37,3.054-3.062
		c0-1.685-1.37-3.054-3.054-3.054c-1.699,0-3.062,1.37-3.062,3.054C57.471,52.229,58.833,53.599,60.532,53.599"/>
	<path style="fill-rule:evenodd;clip-rule:evenodd;fill:#005496;" d="M53.047,46.326c1.685,0,3.054-1.377,3.054-3.062
		c0-1.692-1.37-3.062-3.054-3.062c-1.692,0-3.062,1.37-3.062,3.062C49.985,44.949,51.355,46.326,53.047,46.326"/>
	<path style="fill-rule:evenodd;clip-rule:evenodd;fill:#005496;" d="M45.532,60.975c1.692,0,3.062-1.37,3.062-3.062
		c0-1.685-1.37-3.054-3.062-3.054c-1.685,0-3.062,1.37-3.062,3.054C42.471,59.605,43.848,60.975,45.532,60.975"/>
	<path style="fill-rule:evenodd;clip-rule:evenodd;fill:#005496;" d="M52.996,60.975c1.692,0,3.054-1.377,3.054-3.062
		c0-1.692-1.362-3.054-3.054-3.054s-3.054,1.362-3.054,3.054C49.941,59.598,51.304,60.975,52.996,60.975"/>
	<path style="fill-rule:evenodd;clip-rule:evenodd;fill:#005496;" d="M60.481,60.997c1.692,0,3.054-1.362,3.054-3.054
		c0-1.685-1.362-3.062-3.054-3.062s-3.054,1.377-3.054,3.062C57.427,59.634,58.789,60.997,60.481,60.997"/>
	<path style="fill-rule:evenodd;clip-rule:evenodd;fill:#005496;" d="M68.01,60.997c1.692,0,3.054-1.362,3.054-3.054
		c0-1.685-1.362-3.054-3.054-3.054s-3.054,1.37-3.054,3.054C64.956,59.634,66.318,60.997,68.01,60.997"/>
	<path style="fill-rule:evenodd;clip-rule:evenodd;fill:#005496;" d="M45.518,75.557c1.685,0,3.062-1.377,3.062-3.061
		c0-1.692-1.377-3.055-3.062-3.055s-3.062,1.362-3.062,3.055C42.456,74.18,43.833,75.557,45.518,75.557"/>
	<path style="fill-rule:evenodd;clip-rule:evenodd;fill:#005496;" d="M53.018,75.557c1.685,0,3.062-1.377,3.062-3.061
		c0-1.692-1.377-3.055-3.062-3.055c-1.692,0-3.062,1.362-3.062,3.055C49.956,74.18,51.326,75.557,53.018,75.557"/>
	<path style="fill-rule:evenodd;clip-rule:evenodd;fill:#005496;" d="M45.547,68.277c1.685,0,3.054-1.37,3.054-3.063
		c0-1.684-1.37-3.061-3.054-3.061c-1.692,0-3.062,1.377-3.062,3.061C42.485,66.907,43.855,68.277,45.547,68.277"/>
	<path style="fill-rule:evenodd;clip-rule:evenodd;fill:#005496;" d="M60.503,68.284c1.685,0,3.062-1.37,3.062-3.054
		c0-1.686-1.377-3.062-3.062-3.062s-3.062,1.376-3.062,3.062C57.441,66.914,58.818,68.284,60.503,68.284"/>
	<path style="fill-rule:evenodd;clip-rule:evenodd;fill:#005496;" d="M68.01,68.277c1.692,0,3.054-1.37,3.054-3.063
		c0-1.684-1.362-3.054-3.054-3.054s-3.054,1.37-3.054,3.054C64.956,66.907,66.318,68.277,68.01,68.277"/>
	<path style="fill-rule:evenodd;clip-rule:evenodd;fill:#005496;" d="M68.01,75.557c1.692,0,3.054-1.377,3.054-3.061
		c0-1.692-1.362-3.055-3.054-3.055s-3.054,1.362-3.054,3.055C64.956,74.18,66.318,75.557,68.01,75.557"/>
	<path style="fill-rule:evenodd;clip-rule:evenodd;fill:#005496;" d="M60.532,75.557c1.685,0,3.054-1.377,3.054-3.061
		c0-1.692-1.37-3.055-3.054-3.055c-1.699,0-3.062,1.362-3.062,3.055C57.471,74.18,58.833,75.557,60.532,75.557"/>
	<path style="fill-rule:evenodd;clip-rule:evenodd;fill:#005496;" d="M53.047,68.277c1.685,0,3.054-1.37,3.054-3.063
		c0-1.684-1.37-3.054-3.054-3.054c-1.692,0-3.062,1.37-3.062,3.054C49.985,66.907,51.355,68.277,53.047,68.277"/>
	<path style="fill-rule:evenodd;clip-rule:evenodd;fill:#DA2128;" d="M142.915,82.764c1.685,0,3.062-1.369,3.062-3.061
		c0-1.692-1.377-3.055-3.062-3.055s-3.062,1.362-3.062,3.055C139.854,81.395,141.23,82.764,142.915,82.764"/>
	<path style="fill-rule:evenodd;clip-rule:evenodd;fill:#DA2128;" d="M150.371,82.757c1.699,0,3.062-1.37,3.062-3.054
		c0-1.692-1.362-3.063-3.062-3.063c-1.685,0-3.047,1.37-3.047,3.063C147.324,81.387,148.687,82.757,150.371,82.757"/>
	<path style="fill-rule:evenodd;clip-rule:evenodd;fill:#DA2128;" d="M157.856,82.786c1.699,0,3.062-1.37,3.062-3.054
		c0-1.692-1.362-3.063-3.062-3.063c-1.685,0-3.062,1.37-3.062,3.063C154.795,81.416,156.172,82.786,157.856,82.786"/>
	<path style="fill-rule:evenodd;clip-rule:evenodd;fill:#DA2128;" d="M165.386,82.786c1.699,0,3.062-1.362,3.062-3.054
		c0-1.686-1.362-3.063-3.062-3.063c-1.685,0-3.047,1.377-3.047,3.063C162.339,81.424,163.701,82.786,165.386,82.786"/>
	<path style="fill-rule:evenodd;clip-rule:evenodd;fill:#DA2128;" d="M142.9,97.34c1.685,0,3.047-1.363,3.047-3.055
		s-1.362-3.062-3.047-3.062c-1.699,0-3.062,1.37-3.062,3.062S141.201,97.34,142.9,97.34"/>
	<path style="fill-rule:evenodd;clip-rule:evenodd;fill:#DA2128;" d="M150.4,97.34c1.685,0,3.047-1.363,3.047-3.055
		s-1.362-3.062-3.047-3.062c-1.699,0-3.062,1.37-3.062,3.062S148.701,97.34,150.4,97.34"/>
	<path style="fill-rule:evenodd;clip-rule:evenodd;fill:#DA2128;" d="M142.915,90.059c1.699,0,3.062-1.369,3.062-3.054
		c0-1.692-1.362-3.054-3.062-3.054c-1.685,0-3.047,1.361-3.047,3.054C139.868,88.689,141.23,90.059,142.915,90.059"/>
	<path style="fill-rule:evenodd;clip-rule:evenodd;fill:#DA2128;" d="M157.886,90.074c1.685,0,3.047-1.37,3.047-3.055
		c0-1.691-1.362-3.062-3.047-3.062c-1.699,0-3.062,1.37-3.062,3.062C154.824,88.704,156.187,90.074,157.886,90.074"/>
	<path style="fill-rule:evenodd;clip-rule:evenodd;fill:#DA2128;" d="M165.386,90.066c1.699,0,3.062-1.369,3.062-3.062
		c0-1.685-1.362-3.054-3.062-3.054c-1.685,0-3.047,1.369-3.047,3.054C162.339,88.697,163.701,90.066,165.386,90.066"/>
	<path style="fill-rule:evenodd;clip-rule:evenodd;fill:#DA2128;" d="M165.386,97.34c1.699,0,3.062-1.363,3.062-3.055
		s-1.362-3.062-3.062-3.062c-1.685,0-3.047,1.37-3.047,3.062S163.701,97.34,165.386,97.34"/>
	<path style="fill-rule:evenodd;clip-rule:evenodd;fill:#DA2128;" d="M157.9,97.34c1.699,0,3.062-1.363,3.062-3.055
		s-1.362-3.062-3.062-3.062c-1.685,0-3.047,1.37-3.047,3.062S156.216,97.34,157.9,97.34"/>
	<path style="fill-rule:evenodd;clip-rule:evenodd;fill:#DA2128;" d="M150.43,90.066c1.685,0,3.047-1.369,3.047-3.062
		c0-1.685-1.362-3.054-3.047-3.054c-1.699,0-3.062,1.369-3.062,3.054C147.368,88.697,148.73,90.066,150.43,90.066"/>
	<path style="fill-rule:evenodd;clip-rule:evenodd;fill:#DA2128;" d="M142.915,104.715c1.685,0,3.062-1.369,3.062-3.062
		c0-1.685-1.377-3.054-3.062-3.054s-3.062,1.369-3.062,3.054C139.854,103.346,141.23,104.715,142.915,104.715"/>
	<path style="fill-rule:evenodd;clip-rule:evenodd;fill:#DA2128;" d="M150.371,104.715c1.699,0,3.062-1.369,3.062-3.062
		s-1.362-3.054-3.062-3.054c-1.685,0-3.047,1.361-3.047,3.054S148.687,104.715,150.371,104.715"/>
	<path style="fill-rule:evenodd;clip-rule:evenodd;fill:#DA2128;" d="M157.856,104.744c1.699,0,3.062-1.369,3.062-3.062
		c0-1.685-1.362-3.062-3.062-3.062c-1.685,0-3.062,1.377-3.062,3.062C154.795,103.375,156.172,104.744,157.856,104.744"/>
	<path style="fill-rule:evenodd;clip-rule:evenodd;fill:#DA2128;" d="M165.386,104.744c1.699,0,3.062-1.369,3.062-3.055
		c0-1.691-1.362-3.061-3.062-3.061c-1.685,0-3.047,1.369-3.047,3.061C162.339,103.375,163.701,104.744,165.386,104.744"/>
	<path style="fill-rule:evenodd;clip-rule:evenodd;fill:#DA2128;" d="M142.9,119.297c1.685,0,3.047-1.369,3.047-3.061
		c0-1.692-1.362-3.055-3.047-3.055c-1.699,0-3.062,1.362-3.062,3.055C139.839,117.928,141.201,119.297,142.9,119.297"/>
	<path style="fill-rule:evenodd;clip-rule:evenodd;fill:#DA2128;" d="M150.4,119.297c1.685,0,3.047-1.369,3.047-3.061
		c0-1.692-1.362-3.055-3.047-3.055c-1.699,0-3.062,1.362-3.062,3.055C147.339,117.928,148.701,119.297,150.4,119.297"/>
	<path style="fill-rule:evenodd;clip-rule:evenodd;fill:#DA2128;" d="M142.915,112.018c1.699,0,3.062-1.37,3.062-3.063
		c0-1.684-1.362-3.054-3.062-3.054c-1.685,0-3.047,1.37-3.047,3.054C139.868,110.647,141.23,112.018,142.915,112.018"/>
	<path style="fill-rule:evenodd;clip-rule:evenodd;fill:#DA2128;" d="M157.886,112.031c1.685,0,3.047-1.377,3.047-3.061
		c0-1.686-1.362-3.063-3.047-3.063c-1.699,0-3.062,1.377-3.062,3.063C154.824,110.654,156.187,112.031,157.886,112.031"/>
	<path style="fill-rule:evenodd;clip-rule:evenodd;fill:#DA2128;" d="M165.386,112.024c1.699,0,3.062-1.377,3.062-3.062
		c0-1.691-1.362-3.062-3.062-3.062c-1.685,0-3.047,1.37-3.047,3.062C162.339,110.647,163.701,112.024,165.386,112.024"/>
	<path style="fill-rule:evenodd;clip-rule:evenodd;fill:#DA2128;" d="M165.386,119.297c1.699,0,3.062-1.369,3.062-3.061
		c0-1.692-1.362-3.055-3.062-3.055c-1.685,0-3.047,1.362-3.047,3.055C162.339,117.928,163.701,119.297,165.386,119.297"/>
	<path style="fill-rule:evenodd;clip-rule:evenodd;fill:#DA2128;" d="M157.9,119.297c1.699,0,3.062-1.369,3.062-3.061
		c0-1.692-1.362-3.055-3.062-3.055c-1.685,0-3.047,1.362-3.047,3.055C154.854,117.928,156.216,119.297,157.9,119.297"/>
	<path style="fill-rule:evenodd;clip-rule:evenodd;fill:#DA2128;" d="M150.43,112.024c1.685,0,3.047-1.377,3.047-3.062
		c0-1.691-1.362-3.062-3.047-3.062c-1.699,0-3.062,1.37-3.062,3.062C147.368,110.647,148.73,112.024,150.43,112.024"/>
	<path style="fill-rule:evenodd;clip-rule:evenodd;fill:#DA2128;" d="M181.25,82.764c1.685,0,3.062-1.369,3.062-3.061
		c0-1.692-1.377-3.055-3.062-3.055s-3.062,1.362-3.062,3.055C178.188,81.395,179.565,82.764,181.25,82.764"/>
	<path style="fill-rule:evenodd;clip-rule:evenodd;fill:#DA2128;" d="M188.706,82.757c1.699,0,3.062-1.37,3.062-3.054
		c0-1.692-1.362-3.063-3.062-3.063c-1.685,0-3.047,1.37-3.047,3.063C185.659,81.387,187.021,82.757,188.706,82.757"/>
	<path style="fill-rule:evenodd;clip-rule:evenodd;fill:#DA2128;" d="M196.206,82.786c1.685,0,3.047-1.37,3.047-3.054
		c0-1.692-1.362-3.063-3.047-3.063c-1.699,0-3.062,1.37-3.062,3.063C193.145,81.416,194.507,82.786,196.206,82.786"/>
	<path style="fill-rule:evenodd;clip-rule:evenodd;fill:#DA2128;" d="M203.735,82.786c1.685,0,3.047-1.362,3.047-3.054
		c0-1.686-1.362-3.063-3.047-3.063c-1.699,0-3.062,1.377-3.062,3.063C200.674,81.424,202.036,82.786,203.735,82.786"/>
	<path style="fill-rule:evenodd;clip-rule:evenodd;fill:#DA2128;" d="M181.235,97.34c1.685,0,3.047-1.363,3.047-3.055
		s-1.362-3.062-3.047-3.062c-1.699,0-3.062,1.37-3.062,3.062S179.536,97.34,181.235,97.34"/>
	<path style="fill-rule:evenodd;clip-rule:evenodd;fill:#DA2128;" d="M188.735,97.34c1.685,0,3.047-1.363,3.047-3.055
		s-1.362-3.062-3.047-3.062c-1.699,0-3.062,1.37-3.062,3.062S187.036,97.34,188.735,97.34"/>
	<path style="fill-rule:evenodd;clip-rule:evenodd;fill:#DA2128;" d="M181.265,90.059c1.685,0,3.047-1.369,3.047-3.054
		c0-1.692-1.362-3.054-3.047-3.054c-1.699,0-3.062,1.361-3.062,3.054C178.203,88.689,179.565,90.059,181.265,90.059"/>
	<path style="fill-rule:evenodd;clip-rule:evenodd;fill:#DA2128;" d="M196.221,90.074c1.685,0,3.062-1.37,3.062-3.055
		c0-1.691-1.377-3.062-3.062-3.062c-1.699,0-3.062,1.37-3.062,3.062C193.159,88.704,194.521,90.074,196.221,90.074"/>
	<path style="fill-rule:evenodd;clip-rule:evenodd;fill:#DA2128;" d="M203.735,90.066c1.685,0,3.047-1.369,3.047-3.062
		c0-1.685-1.362-3.054-3.047-3.054c-1.699,0-3.062,1.369-3.062,3.054C200.674,88.697,202.036,90.066,203.735,90.066"/>
	<path style="fill-rule:evenodd;clip-rule:evenodd;fill:#DA2128;" d="M203.735,97.34c1.685,0,3.047-1.363,3.047-3.055
		s-1.362-3.062-3.047-3.062c-1.699,0-3.062,1.37-3.062,3.062S202.036,97.34,203.735,97.34"/>
	<path style="fill-rule:evenodd;clip-rule:evenodd;fill:#DA2128;" d="M196.25,97.34c1.685,0,3.047-1.363,3.047-3.055
		s-1.362-3.062-3.047-3.062c-1.699,0-3.062,1.37-3.062,3.062S194.551,97.34,196.25,97.34"/>
	<path style="fill-rule:evenodd;clip-rule:evenodd;fill:#DA2128;" d="M188.765,90.066c1.685,0,3.047-1.369,3.047-3.062
		c0-1.685-1.362-3.054-3.047-3.054c-1.699,0-3.062,1.369-3.062,3.054C185.703,88.697,187.065,90.066,188.765,90.066"/>
	<path style="fill-rule:evenodd;clip-rule:evenodd;fill:#DA2128;" d="M181.25,104.715c1.685,0,3.062-1.369,3.062-3.062
		c0-1.685-1.377-3.054-3.062-3.054s-3.062,1.369-3.062,3.054C178.188,103.346,179.565,104.715,181.25,104.715"/>
	<path style="fill-rule:evenodd;clip-rule:evenodd;fill:#DA2128;" d="M188.706,104.715c1.699,0,3.062-1.369,3.062-3.062
		s-1.362-3.054-3.062-3.054c-1.685,0-3.047,1.361-3.047,3.054S187.021,104.715,188.706,104.715"/>
	<path style="fill-rule:evenodd;clip-rule:evenodd;fill:#DA2128;" d="M196.206,104.744c1.685,0,3.047-1.369,3.047-3.062
		c0-1.685-1.362-3.062-3.047-3.062c-1.699,0-3.062,1.377-3.062,3.062C193.145,103.375,194.507,104.744,196.206,104.744"/>
	<path style="fill-rule:evenodd;clip-rule:evenodd;fill:#DA2128;" d="M203.735,104.744c1.685,0,3.047-1.369,3.047-3.055
		c0-1.691-1.362-3.061-3.047-3.061c-1.699,0-3.062,1.369-3.062,3.061C200.674,103.375,202.036,104.744,203.735,104.744"/>
	<path style="fill-rule:evenodd;clip-rule:evenodd;fill:#DA2128;" d="M181.235,119.297c1.685,0,3.047-1.369,3.047-3.061
		c0-1.692-1.362-3.055-3.047-3.055c-1.699,0-3.062,1.362-3.062,3.055C178.174,117.928,179.536,119.297,181.235,119.297"/>
	<path style="fill-rule:evenodd;clip-rule:evenodd;fill:#DA2128;" d="M188.735,119.297c1.685,0,3.047-1.369,3.047-3.061
		c0-1.692-1.362-3.055-3.047-3.055c-1.699,0-3.062,1.362-3.062,3.055C185.674,117.928,187.036,119.297,188.735,119.297"/>
	<path style="fill-rule:evenodd;clip-rule:evenodd;fill:#DA2128;" d="M181.265,112.018c1.685,0,3.047-1.37,3.047-3.063
		c0-1.684-1.362-3.054-3.047-3.054c-1.699,0-3.062,1.37-3.062,3.054C178.203,110.647,179.565,112.018,181.265,112.018"/>
	<path style="fill-rule:evenodd;clip-rule:evenodd;fill:#DA2128;" d="M196.221,112.031c1.685,0,3.062-1.377,3.062-3.061
		c0-1.686-1.377-3.063-3.062-3.063c-1.699,0-3.062,1.377-3.062,3.063C193.159,110.654,194.521,112.031,196.221,112.031"/>
	<path style="fill-rule:evenodd;clip-rule:evenodd;fill:#DA2128;" d="M203.735,112.024c1.685,0,3.047-1.377,3.047-3.062
		c0-1.691-1.362-3.062-3.047-3.062c-1.699,0-3.062,1.37-3.062,3.062C200.674,110.647,202.036,112.024,203.735,112.024"/>
	<path style="fill-rule:evenodd;clip-rule:evenodd;fill:#DA2128;" d="M203.735,119.297c1.685,0,3.047-1.369,3.047-3.061
		c0-1.692-1.362-3.055-3.047-3.055c-1.699,0-3.062,1.362-3.062,3.055C200.674,117.928,202.036,119.297,203.735,119.297"/>
	<path style="fill-rule:evenodd;clip-rule:evenodd;fill:#DA2128;" d="M196.25,119.297c1.685,0,3.047-1.369,3.047-3.061
		c0-1.692-1.362-3.055-3.047-3.055c-1.699,0-3.062,1.362-3.062,3.055C193.188,117.928,194.551,119.297,196.25,119.297"/>
	<path style="fill-rule:evenodd;clip-rule:evenodd;fill:#DA2128;" d="M188.765,112.024c1.685,0,3.047-1.377,3.047-3.062
		c0-1.691-1.362-3.062-3.047-3.062c-1.699,0-3.062,1.37-3.062,3.062C185.703,110.647,187.065,112.024,188.765,112.024"/>
	<path style="fill-rule:evenodd;clip-rule:evenodd;fill:#DA2128;" d="M219.468,82.764c1.685,0,3.047-1.369,3.047-3.061
		c0-1.692-1.362-3.055-3.047-3.055c-1.699,0-3.062,1.362-3.062,3.055C216.406,81.395,217.769,82.764,219.468,82.764"/>
	<path style="fill-rule:evenodd;clip-rule:evenodd;fill:#DA2128;" d="M226.924,82.757c1.685,0,3.062-1.37,3.062-3.054
		c0-1.692-1.377-3.063-3.062-3.063s-3.062,1.37-3.062,3.063C223.862,81.387,225.239,82.757,226.924,82.757"/>
	<path style="fill-rule:evenodd;clip-rule:evenodd;fill:#DA2128;" d="M234.409,82.786c1.685,0,3.062-1.37,3.062-3.054
		c0-1.692-1.377-3.063-3.062-3.063s-3.062,1.37-3.062,3.063C231.348,81.416,232.725,82.786,234.409,82.786"/>
	<path style="fill-rule:evenodd;clip-rule:evenodd;fill:#DA2128;" d="M241.938,82.786c1.685,0,3.062-1.362,3.062-3.054
		c0-1.686-1.377-3.063-3.062-3.063s-3.062,1.377-3.062,3.063C238.877,81.424,240.254,82.786,241.938,82.786"/>
	<path style="fill-rule:evenodd;clip-rule:evenodd;fill:#DA2128;" d="M219.438,97.34c1.699,0,3.062-1.363,3.062-3.055
		s-1.362-3.062-3.062-3.062c-1.685,0-3.047,1.37-3.047,3.062S217.754,97.34,219.438,97.34"/>
	<path style="fill-rule:evenodd;clip-rule:evenodd;fill:#DA2128;" d="M226.938,97.34c1.685,0,3.062-1.363,3.062-3.055
		s-1.377-3.062-3.062-3.062s-3.047,1.37-3.047,3.062S225.254,97.34,226.938,97.34"/>
	<path style="fill-rule:evenodd;clip-rule:evenodd;fill:#DA2128;" d="M219.468,90.059c1.685,0,3.062-1.369,3.062-3.054
		c0-1.692-1.377-3.054-3.062-3.054s-3.062,1.361-3.062,3.054C216.406,88.689,217.783,90.059,219.468,90.059"/>
	<path style="fill-rule:evenodd;clip-rule:evenodd;fill:#DA2128;" d="M234.424,90.074c1.699,0,3.062-1.37,3.062-3.055
		c0-1.691-1.362-3.062-3.062-3.062c-1.685,0-3.047,1.37-3.047,3.062C231.377,88.704,232.739,90.074,234.424,90.074"/>
	<path style="fill-rule:evenodd;clip-rule:evenodd;fill:#DA2128;" d="M241.938,90.066c1.685,0,3.062-1.369,3.062-3.062
		c0-1.685-1.377-3.054-3.062-3.054s-3.062,1.369-3.062,3.054C238.877,88.697,240.254,90.066,241.938,90.066"/>
	<path style="fill-rule:evenodd;clip-rule:evenodd;fill:#DA2128;" d="M241.938,97.34c1.685,0,3.062-1.363,3.062-3.055
		s-1.377-3.062-3.062-3.062s-3.062,1.37-3.062,3.062S240.254,97.34,241.938,97.34"/>
	<path style="fill-rule:evenodd;clip-rule:evenodd;fill:#DA2128;" d="M234.453,97.34c1.699,0,3.062-1.363,3.062-3.055
		s-1.362-3.062-3.062-3.062c-1.685,0-3.062,1.37-3.062,3.062S232.769,97.34,234.453,97.34"/>
	<path style="fill-rule:evenodd;clip-rule:evenodd;fill:#DA2128;" d="M226.968,90.066c1.685,0,3.062-1.369,3.062-3.062
		c0-1.685-1.377-3.054-3.062-3.054s-3.062,1.369-3.062,3.054C223.906,88.697,225.283,90.066,226.968,90.066"/>
	<path style="fill-rule:evenodd;clip-rule:evenodd;fill:#DA2128;" d="M219.468,104.715c1.685,0,3.047-1.369,3.047-3.062
		c0-1.685-1.362-3.054-3.047-3.054c-1.699,0-3.062,1.369-3.062,3.054C216.406,103.346,217.769,104.715,219.468,104.715"/>
	<path style="fill-rule:evenodd;clip-rule:evenodd;fill:#DA2128;" d="M226.924,104.715c1.685,0,3.062-1.369,3.062-3.062
		s-1.377-3.054-3.062-3.054s-3.062,1.361-3.062,3.054S225.239,104.715,226.924,104.715"/>
	<path style="fill-rule:evenodd;clip-rule:evenodd;fill:#DA2128;" d="M234.409,104.744c1.685,0,3.062-1.369,3.062-3.062
		c0-1.685-1.377-3.062-3.062-3.062s-3.062,1.377-3.062,3.062C231.348,103.375,232.725,104.744,234.409,104.744"/>
	<path style="fill-rule:evenodd;clip-rule:evenodd;fill:#DA2128;" d="M241.938,104.744c1.685,0,3.062-1.369,3.062-3.055
		c0-1.691-1.377-3.061-3.062-3.061s-3.062,1.369-3.062,3.061C238.877,103.375,240.254,104.744,241.938,104.744"/>
	<path style="fill-rule:evenodd;clip-rule:evenodd;fill:#DA2128;" d="M219.438,119.297c1.699,0,3.062-1.369,3.062-3.061
		c0-1.692-1.362-3.055-3.062-3.055c-1.685,0-3.047,1.362-3.047,3.055C216.392,117.928,217.754,119.297,219.438,119.297"/>
	<path style="fill-rule:evenodd;clip-rule:evenodd;fill:#DA2128;" d="M226.938,119.297c1.685,0,3.062-1.369,3.062-3.061
		c0-1.692-1.377-3.055-3.062-3.055s-3.047,1.362-3.047,3.055C223.892,117.928,225.254,119.297,226.938,119.297"/>
	<path style="fill-rule:evenodd;clip-rule:evenodd;fill:#DA2128;" d="M219.468,112.018c1.685,0,3.062-1.37,3.062-3.063
		c0-1.684-1.377-3.054-3.062-3.054s-3.062,1.37-3.062,3.054C216.406,110.647,217.783,112.018,219.468,112.018"/>
	<path style="fill-rule:evenodd;clip-rule:evenodd;fill:#DA2128;" d="M234.424,112.031c1.699,0,3.062-1.377,3.062-3.061
		c0-1.686-1.362-3.063-3.062-3.063c-1.685,0-3.047,1.377-3.047,3.063C231.377,110.654,232.739,112.031,234.424,112.031"/>
	<path style="fill-rule:evenodd;clip-rule:evenodd;fill:#DA2128;" d="M241.938,112.024c1.685,0,3.062-1.377,3.062-3.062
		c0-1.691-1.377-3.062-3.062-3.062s-3.062,1.37-3.062,3.062C238.877,110.647,240.254,112.024,241.938,112.024"/>
	<path style="fill-rule:evenodd;clip-rule:evenodd;fill:#DA2128;" d="M241.938,119.297c1.685,0,3.062-1.369,3.062-3.061
		c0-1.692-1.377-3.055-3.062-3.055s-3.062,1.362-3.062,3.055C238.877,117.928,240.254,119.297,241.938,119.297"/>
	<path style="fill-rule:evenodd;clip-rule:evenodd;fill:#DA2128;" d="M234.453,119.297c1.699,0,3.062-1.369,3.062-3.061
		c0-1.692-1.362-3.055-3.062-3.055c-1.685,0-3.062,1.362-3.062,3.055C231.392,117.928,232.769,119.297,234.453,119.297"/>
	<path style="fill-rule:evenodd;clip-rule:evenodd;fill:#DA2128;" d="M226.968,112.024c1.685,0,3.062-1.377,3.062-3.062
		c0-1.691-1.377-3.062-3.062-3.062s-3.062,1.37-3.062,3.062C223.906,110.647,225.283,112.024,226.968,112.024"/>
	<path style="fill-rule:evenodd;clip-rule:evenodd;fill:#DA2128;" d="M105.356,97.34c1.685,0,3.047-1.363,3.047-3.055
		s-1.362-3.062-3.047-3.062c-1.699,0-3.062,1.37-3.062,3.062S103.657,97.34,105.356,97.34"/>
	<path style="fill-rule:evenodd;clip-rule:evenodd;fill:#DA2128;" d="M105.371,104.715c1.685,0,3.047-1.369,3.047-3.062
		c0-1.685-1.362-3.054-3.047-3.054c-1.699,0-3.062,1.369-3.062,3.054C102.31,103.346,103.672,104.715,105.371,104.715"/>
	<path style="fill-rule:evenodd;clip-rule:evenodd;fill:#DA2128;" d="M112.827,104.715c1.699,0,3.062-1.369,3.062-3.062
		s-1.362-3.054-3.062-3.054c-1.685,0-3.062,1.361-3.062,3.054S111.143,104.715,112.827,104.715"/>
	<path style="fill-rule:evenodd;clip-rule:evenodd;fill:#DA2128;" d="M105.356,119.297c1.685,0,3.047-1.369,3.047-3.061
		c0-1.692-1.362-3.055-3.047-3.055c-1.699,0-3.062,1.362-3.062,3.055C102.295,117.928,103.657,119.297,105.356,119.297"/>
	<path style="fill-rule:evenodd;clip-rule:evenodd;fill:#DA2128;" d="M112.842,119.297c1.699,0,3.062-1.369,3.062-3.061
		c0-1.692-1.362-3.055-3.062-3.055c-1.685,0-3.047,1.362-3.047,3.055C109.795,117.928,111.157,119.297,112.842,119.297"/>
	<path style="fill-rule:evenodd;clip-rule:evenodd;fill:#DA2128;" d="M105.371,112.018c1.699,0,3.062-1.37,3.062-3.063
		c0-1.684-1.362-3.054-3.062-3.054c-1.685,0-3.047,1.37-3.047,3.054C102.324,110.647,103.687,112.018,105.371,112.018"/>
	<path style="fill-rule:evenodd;clip-rule:evenodd;fill:#DA2128;" d="M120.342,112.031c1.685,0,3.047-1.377,3.047-3.061
		c0-1.686-1.362-3.063-3.047-3.063c-1.699,0-3.062,1.377-3.062,3.063C117.28,110.654,118.643,112.031,120.342,112.031"/>
	<path style="fill-rule:evenodd;clip-rule:evenodd;fill:#DA2128;" d="M8.054,119.254c1.692,0,3.054-1.37,3.054-3.055
		c0-1.691-1.362-3.062-3.054-3.062S5,114.508,5,116.199C5,117.884,6.362,119.254,8.054,119.254"/>
	<path style="fill-rule:evenodd;clip-rule:evenodd;fill:#DA2128;" d="M127.842,119.297c1.685,0,3.062-1.369,3.062-3.061
		c0-1.692-1.377-3.055-3.062-3.055s-3.062,1.362-3.062,3.055C124.78,117.928,126.157,119.297,127.842,119.297"/>
	<path style="fill-rule:evenodd;clip-rule:evenodd;fill:#DA2128;" d="M120.356,119.297c1.685,0,3.062-1.369,3.062-3.061
		c0-1.692-1.377-3.055-3.062-3.055s-3.047,1.362-3.047,3.055C117.31,117.928,118.672,119.297,120.356,119.297"/>
	<path style="fill-rule:evenodd;clip-rule:evenodd;fill:#DA2128;" d="M112.871,112.024c1.699,0,3.062-1.377,3.062-3.062
		c0-1.691-1.362-3.062-3.062-3.062c-1.685,0-3.062,1.37-3.062,3.062C109.81,110.647,111.187,112.024,112.871,112.024"/>
	<path style="fill-rule:evenodd;clip-rule:evenodd;fill:#DA2128;" d="M75.43,82.764c1.685,0,3.062-1.369,3.062-3.061
		c0-1.692-1.377-3.055-3.062-3.055s-3.062,1.362-3.062,3.055C72.368,81.395,73.745,82.764,75.43,82.764"/>
	<path style="fill-rule:evenodd;clip-rule:evenodd;fill:#DA2128;" d="M82.893,82.757c1.692,0,3.054-1.37,3.054-3.054
		c0-1.692-1.362-3.063-3.054-3.063s-3.054,1.37-3.054,3.063C79.839,81.387,81.201,82.757,82.893,82.757"/>
	<path style="fill-rule:evenodd;clip-rule:evenodd;fill:#DA2128;" d="M90.371,82.786c1.699,0,3.062-1.37,3.062-3.054
		c0-1.692-1.362-3.063-3.062-3.063c-1.685,0-3.047,1.37-3.047,3.063C87.324,81.416,88.687,82.786,90.371,82.786"/>
	<path style="fill-rule:evenodd;clip-rule:evenodd;fill:#DA2128;" d="M75.415,97.34c1.685,0,3.054-1.363,3.054-3.055
		s-1.37-3.062-3.054-3.062c-1.692,0-3.062,1.37-3.062,3.062S73.723,97.34,75.415,97.34"/>
	<path style="fill-rule:evenodd;clip-rule:evenodd;fill:#DA2128;" d="M82.915,97.34c1.685,0,3.047-1.363,3.047-3.055
		s-1.362-3.062-3.047-3.062c-1.699,0-3.062,1.37-3.062,3.062S81.216,97.34,82.915,97.34"/>
	<path style="fill-rule:evenodd;clip-rule:evenodd;fill:#DA2128;" d="M75.437,90.059c1.692,0,3.054-1.369,3.054-3.054
		c0-1.692-1.362-3.054-3.054-3.054s-3.054,1.361-3.054,3.054C72.383,88.689,73.745,90.059,75.437,90.059"/>
	<path style="fill-rule:evenodd;clip-rule:evenodd;fill:#DA2128;" d="M90.4,90.074c1.685,0,3.062-1.37,3.062-3.055
		c0-1.691-1.377-3.062-3.062-3.062s-3.062,1.37-3.062,3.062C87.339,88.704,88.716,90.074,90.4,90.074"/>
	<path style="fill-rule:evenodd;clip-rule:evenodd;fill:#DA2128;" d="M97.915,90.066c1.685,0,3.047-1.369,3.047-3.062
		c0-1.685-1.362-3.054-3.047-3.054c-1.699,0-3.062,1.369-3.062,3.054C94.854,88.697,96.216,90.066,97.915,90.066"/>
	<path style="fill-rule:evenodd;clip-rule:evenodd;fill:#DA2128;" d="M97.915,97.34c1.685,0,3.047-1.363,3.047-3.055
		s-1.362-3.062-3.047-3.062c-1.699,0-3.062,1.37-3.062,3.062S96.216,97.34,97.915,97.34"/>
	<path style="fill-rule:evenodd;clip-rule:evenodd;fill:#DA2128;" d="M90.43,97.34c1.685,0,3.047-1.363,3.047-3.055
		s-1.362-3.062-3.047-3.062c-1.699,0-3.062,1.37-3.062,3.062S88.73,97.34,90.43,97.34"/>
	<path style="fill-rule:evenodd;clip-rule:evenodd;fill:#DA2128;" d="M82.944,90.066c1.685,0,3.047-1.369,3.047-3.062
		c0-1.685-1.362-3.054-3.047-3.054c-1.699,0-3.062,1.369-3.062,3.054C79.883,88.697,81.245,90.066,82.944,90.066"/>
	<path style="fill-rule:evenodd;clip-rule:evenodd;fill:#DA2128;" d="M75.43,104.715c1.685,0,3.062-1.369,3.062-3.062
		c0-1.685-1.377-3.054-3.062-3.054s-3.062,1.369-3.062,3.054C72.368,103.346,73.745,104.715,75.43,104.715"/>
	<path style="fill-rule:evenodd;clip-rule:evenodd;fill:#DA2128;" d="M82.893,104.715c1.692,0,3.054-1.369,3.054-3.062
		S84.585,98.6,82.893,98.6s-3.054,1.361-3.054,3.054S81.201,104.715,82.893,104.715"/>
	<path style="fill-rule:evenodd;clip-rule:evenodd;fill:#DA2128;" d="M90.371,104.744c1.699,0,3.062-1.369,3.062-3.062
		c0-1.685-1.362-3.062-3.062-3.062c-1.685,0-3.047,1.377-3.047,3.062C87.324,103.375,88.687,104.744,90.371,104.744"/>
	<path style="fill-rule:evenodd;clip-rule:evenodd;fill:#DA2128;" d="M97.915,104.744c1.685,0,3.047-1.369,3.047-3.055
		c0-1.691-1.362-3.061-3.047-3.061c-1.699,0-3.062,1.369-3.062,3.061C94.854,103.375,96.216,104.744,97.915,104.744"/>
	<path style="fill-rule:evenodd;clip-rule:evenodd;fill:#DA2128;" d="M90.4,112.031c1.685,0,3.062-1.377,3.062-3.061
		c0-1.686-1.377-3.063-3.062-3.063s-3.062,1.377-3.062,3.063C87.339,110.654,88.716,112.031,90.4,112.031"/>
	<path style="fill-rule:evenodd;clip-rule:evenodd;fill:#DA2128;" d="M97.915,112.024c1.685,0,3.047-1.377,3.047-3.062
		c0-1.691-1.362-3.062-3.047-3.062c-1.699,0-3.062,1.37-3.062,3.062C94.854,110.647,96.216,112.024,97.915,112.024"/>
	<path style="fill-rule:evenodd;clip-rule:evenodd;fill:#DA2128;" d="M97.915,119.297c1.685,0,3.047-1.369,3.047-3.061
		c0-1.692-1.362-3.055-3.047-3.055c-1.699,0-3.062,1.362-3.062,3.055C94.854,117.928,96.216,119.297,97.915,119.297"/>
	<path style="fill-rule:evenodd;clip-rule:evenodd;fill:#DA2128;" d="M90.43,119.297c1.685,0,3.047-1.369,3.047-3.061
		c0-1.692-1.362-3.055-3.047-3.055c-1.699,0-3.062,1.362-3.062,3.055C87.368,117.928,88.73,119.297,90.43,119.297"/>
	<path style="fill-rule:evenodd;clip-rule:evenodd;fill:#DA2128;" d="M82.944,112.024c1.685,0,3.047-1.377,3.047-3.062
		c0-1.691-1.362-3.062-3.047-3.062c-1.699,0-3.062,1.37-3.062,3.062C79.883,110.647,81.245,112.024,82.944,112.024"/>
	<path style="fill-rule:evenodd;clip-rule:evenodd;fill:#DA2128;" d="M38.076,90.066c1.685,0,3.062-1.369,3.062-3.062
		c0-1.685-1.377-3.054-3.062-3.054c-1.692,0-3.062,1.369-3.062,3.054C35.015,88.697,36.384,90.066,38.076,90.066"/>
	<path style="fill-rule:evenodd;clip-rule:evenodd;fill:#DA2128;" d="M38.076,97.34c1.685,0,3.062-1.363,3.062-3.055
		s-1.377-3.062-3.062-3.062c-1.692,0-3.062,1.37-3.062,3.062S36.384,97.34,38.076,97.34"/>
	<path style="fill-rule:evenodd;clip-rule:evenodd;fill:#DA2128;" d="M30.591,97.34c1.685,0,3.062-1.363,3.062-3.055
		s-1.377-3.062-3.062-3.062s-3.062,1.37-3.062,3.062S28.906,97.34,30.591,97.34"/>
	<path style="fill-rule:evenodd;clip-rule:evenodd;fill:#DA2128;" d="M23.062,104.715c1.685,0,3.054-1.369,3.054-3.062
		s-1.37-3.054-3.054-3.054C21.37,98.6,20,99.961,20,101.653S21.37,104.715,23.062,104.715"/>
	<path style="fill-rule:evenodd;clip-rule:evenodd;fill:#DA2128;" d="M30.547,104.744c1.685,0,3.054-1.369,3.054-3.062
		c0-1.685-1.37-3.062-3.054-3.062c-1.692,0-3.062,1.377-3.062,3.062C27.485,103.375,28.855,104.744,30.547,104.744"/>
	<path style="fill-rule:evenodd;clip-rule:evenodd;fill:#DA2128;" d="M38.076,104.744c1.685,0,3.062-1.369,3.062-3.055
		c0-1.691-1.377-3.061-3.062-3.061c-1.692,0-3.062,1.369-3.062,3.061C35.015,103.375,36.384,104.744,38.076,104.744"/>
	<path style="fill-rule:evenodd;clip-rule:evenodd;fill:#DA2128;" d="M15.576,119.297c1.692,0,3.062-1.369,3.062-3.061
		c0-1.692-1.37-3.055-3.062-3.055c-1.685,0-3.054,1.362-3.054,3.055C12.522,117.928,13.892,119.297,15.576,119.297"/>
	<path style="fill-rule:evenodd;clip-rule:evenodd;fill:#DA2128;" d="M23.076,119.297c1.692,0,3.062-1.369,3.062-3.061
		c0-1.692-1.37-3.055-3.062-3.055c-1.685,0-3.062,1.362-3.062,3.055C20.015,117.928,21.392,119.297,23.076,119.297"/>
	<path style="fill-rule:evenodd;clip-rule:evenodd;fill:#DA2128;" d="M15.605,112.018c1.685,0,3.062-1.37,3.062-3.063
		c0-1.684-1.377-3.054-3.062-3.054s-3.062,1.37-3.062,3.054C12.544,110.647,13.921,112.018,15.605,112.018"/>
	<path style="fill-rule:evenodd;clip-rule:evenodd;fill:#DA2128;" d="M30.562,112.031c1.692,0,3.062-1.377,3.062-3.061
		c0-1.686-1.37-3.063-3.062-3.063c-1.685,0-3.054,1.377-3.054,3.063C27.507,110.654,28.877,112.031,30.562,112.031"/>
	<path style="fill-rule:evenodd;clip-rule:evenodd;fill:#DA2128;" d="M38.076,112.024c1.685,0,3.062-1.377,3.062-3.062
		c0-1.691-1.377-3.062-3.062-3.062c-1.692,0-3.062,1.37-3.062,3.062C35.015,110.647,36.384,112.024,38.076,112.024"/>
	<path style="fill-rule:evenodd;clip-rule:evenodd;fill:#DA2128;" d="M38.076,119.297c1.685,0,3.062-1.369,3.062-3.061
		c0-1.692-1.377-3.055-3.062-3.055c-1.692,0-3.062,1.362-3.062,3.055C35.015,117.928,36.384,119.297,38.076,119.297"/>
	<path style="fill-rule:evenodd;clip-rule:evenodd;fill:#DA2128;" d="M30.591,119.297c1.685,0,3.062-1.369,3.062-3.061
		c0-1.692-1.377-3.055-3.062-3.055s-3.062,1.362-3.062,3.055C27.529,117.928,28.906,119.297,30.591,119.297"/>
	<path style="fill-rule:evenodd;clip-rule:evenodd;fill:#DA2128;" d="M23.105,112.024c1.685,0,3.062-1.377,3.062-3.062
		c0-1.691-1.377-3.062-3.062-3.062s-3.062,1.37-3.062,3.062C20.044,110.647,21.421,112.024,23.105,112.024"/>
	<path style="fill-rule:evenodd;clip-rule:evenodd;fill:#DA2128;" d="M45.532,82.764c1.692,0,3.062-1.369,3.062-3.061
		c0-1.692-1.37-3.055-3.062-3.055c-1.685,0-3.062,1.362-3.062,3.055C42.471,81.395,43.848,82.764,45.532,82.764"/>
	<path style="fill-rule:evenodd;clip-rule:evenodd;fill:#DA2128;" d="M52.996,82.757c1.692,0,3.054-1.37,3.054-3.054
		c0-1.692-1.362-3.063-3.054-3.063s-3.054,1.37-3.054,3.063C49.941,81.387,51.304,82.757,52.996,82.757"/>
	<path style="fill-rule:evenodd;clip-rule:evenodd;fill:#DA2128;" d="M60.481,82.786c1.692,0,3.054-1.37,3.054-3.054
		c0-1.692-1.362-3.063-3.054-3.063s-3.054,1.37-3.054,3.063C57.427,81.416,58.789,82.786,60.481,82.786"/>
	<path style="fill-rule:evenodd;clip-rule:evenodd;fill:#DA2128;" d="M68.01,82.786c1.692,0,3.054-1.362,3.054-3.054
		c0-1.686-1.362-3.063-3.054-3.063s-3.054,1.377-3.054,3.063C64.956,81.424,66.318,82.786,68.01,82.786"/>
	<path style="fill-rule:evenodd;clip-rule:evenodd;fill:#DA2128;" d="M45.518,97.34c1.685,0,3.062-1.363,3.062-3.055
		s-1.377-3.062-3.062-3.062s-3.062,1.37-3.062,3.062S43.833,97.34,45.518,97.34"/>
	<path style="fill-rule:evenodd;clip-rule:evenodd;fill:#DA2128;" d="M53.018,97.34c1.685,0,3.062-1.363,3.062-3.055
		s-1.377-3.062-3.062-3.062c-1.692,0-3.062,1.37-3.062,3.062S51.326,97.34,53.018,97.34"/>
	<path style="fill-rule:evenodd;clip-rule:evenodd;fill:#DA2128;" d="M45.547,90.059c1.685,0,3.054-1.369,3.054-3.054
		c0-1.692-1.37-3.054-3.054-3.054c-1.692,0-3.062,1.361-3.062,3.054C42.485,88.689,43.855,90.059,45.547,90.059"/>
	<path style="fill-rule:evenodd;clip-rule:evenodd;fill:#DA2128;" d="M60.503,90.074c1.685,0,3.062-1.37,3.062-3.055
		c0-1.691-1.377-3.062-3.062-3.062s-3.062,1.37-3.062,3.062C57.441,88.704,58.818,90.074,60.503,90.074"/>
	<path style="fill-rule:evenodd;clip-rule:evenodd;fill:#DA2128;" d="M68.01,90.066c1.692,0,3.054-1.369,3.054-3.062
		c0-1.685-1.362-3.054-3.054-3.054s-3.054,1.369-3.054,3.054C64.956,88.697,66.318,90.066,68.01,90.066"/>
	<path style="fill-rule:evenodd;clip-rule:evenodd;fill:#DA2128;" d="M68.01,97.34c1.692,0,3.054-1.363,3.054-3.055
		s-1.362-3.062-3.054-3.062s-3.054,1.37-3.054,3.062S66.318,97.34,68.01,97.34"/>
	<path style="fill-rule:evenodd;clip-rule:evenodd;fill:#DA2128;" d="M60.532,97.34c1.685,0,3.054-1.363,3.054-3.055
		s-1.37-3.062-3.054-3.062c-1.699,0-3.062,1.37-3.062,3.062S58.833,97.34,60.532,97.34"/>
	<path style="fill-rule:evenodd;clip-rule:evenodd;fill:#DA2128;" d="M53.047,90.066c1.685,0,3.054-1.369,3.054-3.062
		c0-1.685-1.37-3.054-3.054-3.054c-1.692,0-3.062,1.369-3.062,3.054C49.985,88.697,51.355,90.066,53.047,90.066"/>
	<path style="fill-rule:evenodd;clip-rule:evenodd;fill:#DA2128;" d="M45.532,104.715c1.692,0,3.062-1.369,3.062-3.062
		c0-1.685-1.37-3.054-3.062-3.054c-1.685,0-3.062,1.369-3.062,3.054C42.471,103.346,43.848,104.715,45.532,104.715"/>
	<path style="fill-rule:evenodd;clip-rule:evenodd;fill:#DA2128;" d="M52.996,104.715c1.692,0,3.054-1.369,3.054-3.062
		S54.688,98.6,52.996,98.6s-3.054,1.361-3.054,3.054S51.304,104.715,52.996,104.715"/>
	<path style="fill-rule:evenodd;clip-rule:evenodd;fill:#DA2128;" d="M60.481,104.744c1.692,0,3.054-1.369,3.054-3.062
		c0-1.685-1.362-3.062-3.054-3.062s-3.054,1.377-3.054,3.062C57.427,103.375,58.789,104.744,60.481,104.744"/>
	<path style="fill-rule:evenodd;clip-rule:evenodd;fill:#DA2128;" d="M45.518,119.297c1.685,0,3.062-1.369,3.062-3.061
		c0-1.692-1.377-3.055-3.062-3.055s-3.062,1.362-3.062,3.055C42.456,117.928,43.833,119.297,45.518,119.297"/>
	<path style="fill-rule:evenodd;clip-rule:evenodd;fill:#DA2128;" d="M45.547,112.018c1.685,0,3.054-1.37,3.054-3.063
		c0-1.684-1.37-3.054-3.054-3.054c-1.692,0-3.062,1.37-3.062,3.054C42.485,110.647,43.855,112.018,45.547,112.018"/>
	<path style="fill-rule:evenodd;clip-rule:evenodd;fill:#DA2128;" d="M53.047,112.024c1.685,0,3.054-1.377,3.054-3.062
		c0-1.691-1.37-3.062-3.054-3.062c-1.692,0-3.062,1.37-3.062,3.062C49.985,110.647,51.355,112.024,53.047,112.024"/>
	<path style="fill-rule:evenodd;clip-rule:evenodd;fill:#005496;" d="M196.953,4.754c0.894,3.809,1.626,7.383,2.769,11.125
		c0.938-3.97,1.758-7.581,2.622-11.125h7.646c0.981,3.604,1.685,7.412,2.725,11.177c0.981-3.457,1.846-7.456,2.725-11.228h7.983
		l-6.035,24.631l-8.159-0.007c-0.996-4.189-1.934-8.723-3.032-12.847c-1.143,4.094-2.153,8.73-3.149,12.854l-8.32-0.007
		c-2.197-9.016-3.867-15.754-5.962-24.573C191.255,4.761,194.419,4.761,196.953,4.754"/>
	<path style="fill-rule:evenodd;clip-rule:evenodd;fill:#005496;" d="M5.703,22.618h15.908v-2.666h-8.496
		c-4.805,0-7.251-0.498-7.251-4.482V9.573c0-3.618,2.373-4.834,7.251-4.834h14.458v6.65H13.379v2.732h10.21
		c3.75,0,5.493,1.487,5.493,4.775v6.028c0,2.703-1.934,4.409-5.391,4.409H5.703V22.618z"/>
	<path style="fill-rule:evenodd;clip-rule:evenodd;fill:#005496;" d="M49.341,29.334H36.597c-3.516,0-5.493-2.007-5.493-5.068V4.739
		h7.676v17.878h8.394V4.739h7.639v19.526C54.812,27.327,52.871,29.334,49.341,29.334"/>
	<path style="fill-rule:evenodd;clip-rule:evenodd;fill:#005496;" d="M71.958,15.667V11.39h-7.544v4.277H71.958z M56.841,4.739
		h17.813c3.428,0,5.039,1.414,5.039,5.039v6.782c0,3.23-1.611,4.775-4.871,4.775H64.517v7.998h-7.676V4.739z"/>
	<polygon style="fill-rule:evenodd;clip-rule:evenodd;fill:#005496;" points="81.685,4.739 102.207,4.739 102.207,11.39 
		89.39,11.39 89.39,14.217 102.134,14.217 102.134,19.791 89.39,19.791 89.39,22.618 102.104,22.618 102.104,29.334 81.685,29.334 	
		"/>
	<path style="fill-rule:evenodd;clip-rule:evenodd;fill:#005496;" d="M119.595,14.583V11.39h-7.866v3.193H119.595z M104.126,4.739
		h17.256c3.984,0,5.786,1.545,5.786,5.002v3.127c0,2.241-0.688,3.296-2.886,4.058c2.402,0.85,2.886,1.904,2.886,4.08v8.328h-7.529
		v-9.148h-7.91v9.148h-7.603V4.739z"/>
	<path style="fill-rule:evenodd;clip-rule:evenodd;fill:#005496;" d="M155.571,22.618v-3.193h-8.496v3.193H155.571v-8.167V11.39
		h-8.496v3.062h8.496V22.618z M139.429,4.739h18.618c3.589,0,5.127,1.443,5.127,4.871v3.457c0,1.75-0.659,2.439-2.065,3.494
		c1.743,0.659,2.065,1.743,2.065,3.787v3.457c0,3.684-1.406,5.53-5.2,5.53h-18.545V4.739z"/>
	<path style="fill-rule:evenodd;clip-rule:evenodd;fill:#005496;" d="M180.796,22.618V11.39h-7.91v11.228H180.796z M182.51,29.334
		h-11.338c-3.94,0-5.991-2.205-5.991-6.614V11.39c0-4.512,1.948-6.65,5.991-6.65h11.338c4.072,0,5.962,2.109,5.962,6.65V22.72
		C188.472,27.129,186.465,29.334,182.51,29.334z"/>
	<polygon style="fill-rule:evenodd;clip-rule:evenodd;fill:#005496;" points="224.873,4.739 233.003,4.739 233.003,22.618 
		244.824,22.618 244.824,29.334 224.873,29.334 	"/>
</g>
</svg>
