<?xml version="1.0" encoding="iso-8859-1"?>
<!-- Generator: Adobe Illustrator 14.0.0, SVG Export Plug-In . SVG Version: 6.00 Build 43363)  -->
<!DOCTYPE svg PUBLIC "-//W3C//DTD SVG 1.1//EN" "http://www.w3.org/Graphics/SVG/1.1/DTD/svg11.dtd">
<svg version="1.1" id="Layer_1" xmlns="http://www.w3.org/2000/svg" xmlns:xlink="http://www.w3.org/1999/xlink" x="0px" y="0px"
	 width="250px" height="176px" viewBox="0 0 250 176" style="enable-background:new 0 0 250 176;" xml:space="preserve">
<g>
	<path style="fill:#1A3F72;" d="M204.121,97.571l16.853-28.262c-0.118-0.029-18.345-4.401-28.036-5.978
		c-1.062-0.97-11.493-10.491-11.493-10.491l-0.704-0.263c-0.028-0.009-2.573-0.954-6.816-2.263c0-3.191,0-16.685,0-16.685h-7.492
		l-3.19,3.038c0,0,0,6.375,0,10.67c-10.315-2.591-24.404-5.299-38.263-5.299c-13.86,0-27.949,2.708-38.267,5.298
		c0-4.295,0-10.671,0-10.671l-3.188-3.037h-7.492c0,0,0,13.495,0,16.686c-4.243,1.309-6.788,2.253-6.815,2.263l-0.706,0.263
		c0,0-10.431,9.521-11.493,10.491c-9.692,1.577-27.916,5.949-28.037,5.978l0.005,0.001H28.98l16.8,28.268l-34.677,30.013h33.934
		c-0.173-1.054,0.051-2.369,1.384-3.603l3.495-3.083c21.882,19.07,56.976,27.906,102.947,12.837
		c24.367-7.988,35.002-11.174,52.411-6.151l33.612-0.004L204.121,97.571"/>
	<path style="fill:#87AFDD;" d="M128.804,59.704c3.553,0.083,7.399,0.271,11.362,0.53l-5.361-9.129L128.804,59.704 M140.255,50.741
		l4.548,7.747l5.212-6.215C146.884,51.688,143.606,51.162,140.255,50.741z M164.628,59.999v-4.38
		c-0.958-0.258-1.954-0.519-2.986-0.779L164.628,59.999z M149.545,60.951c3.395,0.292,6.782,0.618,10.051,0.953l-4.435-7.656
		L149.545,60.951z M177.43,59.581l-3.962,3.87c3.827,0.459,7.101,0.876,9.509,1.193C180.341,62.237,177.903,60.01,177.43,59.581z
		 M124.978,49.724c-2.157,0-4.318,0.071-6.472,0.197l6.472,9.268l6.471-9.268C129.297,49.795,127.135,49.724,124.978,49.724z
		 M171.253,57.525v3.294l2.551-2.491C173.04,58.083,172.188,57.813,171.253,57.525z M78.702,60.82v-3.294
		c-0.935,0.287-1.79,0.558-2.551,0.803L78.702,60.82z M109.788,60.234c3.963-0.259,7.81-0.448,11.366-0.53l-6.006-8.599
		L109.788,60.234z M66.978,64.644c2.41-0.317,5.682-0.734,9.509-1.193l-3.963-3.87C72.054,60.01,69.613,62.237,66.978,64.644z
		 M90.359,61.903c3.271-0.334,6.654-0.661,10.051-0.953l-5.617-6.704L90.359,61.903z M85.327,59.999l2.987-5.159
		c-1.032,0.26-2.029,0.521-2.987,0.779V59.999z M105.15,58.488l4.55-7.747c-3.354,0.42-6.63,0.947-9.76,1.532L105.15,58.488z"/>
	<path style="fill:#F3A549;" d="M179.274,57.781c1.445,1.32,5.45,4.975,8.181,7.467c-0.006-0.001-0.012-0.001-0.016-0.002
		c0,0-5.678-0.801-13.972-1.796L179.274,57.781 M171.253,54.843c2.423,0.731,4.355,1.366,5.678,1.815l-5.678,5.544V54.843z
		 M159.86,51.762c2.156,0.519,4.183,1.042,6.055,1.551v8.905L159.86,51.762z M148.34,60.848l8.246-9.842
		c0.004,0.002,0.01,0.003,0.016,0.004l6.521,11.263C158.418,61.769,153.378,61.272,148.34,60.848z M138.622,47.961
		c5.334,0.599,10.505,1.479,15.265,2.467l-8.124,9.693L138.622,47.961z M127.616,59.679l8.177-11.711l7.324,12.469
		C137.665,60.041,132.353,59.759,127.616,59.679z M116.783,47.455c2.722-0.194,5.463-0.303,8.192-0.303
		c2.731,0,5.473,0.109,8.197,0.303l-8.195,11.734L116.783,47.455z M106.839,60.437l7.321-12.469l8.18,11.711
		C117.603,59.759,112.291,60.041,106.839,60.437z M96.068,50.427c4.761-0.987,9.933-1.869,15.266-2.466l-7.142,12.16L96.068,50.427z
		 M86.832,62.273l6.522-11.263c0.006-0.001,0.011-0.002,0.016-0.004l8.245,9.842C96.574,61.272,91.536,61.768,86.832,62.273z
		 M84.042,53.313c1.871-0.509,3.897-1.033,6.054-1.551l-6.054,10.456V53.313z M73.025,56.658c1.323-0.449,3.256-1.084,5.677-1.815
		v7.359L73.025,56.658z M62.518,65.247c-0.006,0.001-0.012,0.001-0.018,0.002c2.73-2.493,6.734-6.147,8.182-7.467l5.806,5.669
		C68.194,64.445,62.518,65.247,62.518,65.247z M213.756,70.341c0,0-12.182-2.952-22.028-4.5l-11.702-10.679l-0.223-0.083
		c-0.091-0.035-3.309-1.221-8.55-2.781V36.301h-3.752l-1.586,1.511v12.973c-10.622-2.853-25.942-6.078-40.937-6.078h-0.004
		c-14.994,0-30.312,3.225-40.933,6.078V37.808l-1.586-1.51h-3.753v16c-5.243,1.56-8.458,2.746-8.552,2.781l-0.221,0.083
		L58.228,65.84c-9.843,1.548-22.029,4.5-22.029,4.5l26.37-2.917c0,0,6.681-0.882,16.134-1.921v4.837h5.339v-5.408
		c12.957-1.346,29.177-2.736,40.934-2.736c11.758,0,27.982,1.39,40.939,2.736v5.412h5.338v-4.841
		c9.453,1.039,16.133,1.921,16.133,1.921L213.756,70.341z"/>
	<path style="fill:#87AFDD;" d="M169.953,112.316l-4.347-25.596c-0.221-1.263,0.204-2.401,1.054-3.245h-11.598
		c1.106,0.843,1.876,1.982,2.042,3.245l3.481,25.582c0.209,1.568-0.321,3.017-1.315,4.109h13.215
		C171.16,115.318,170.223,113.885,169.953,112.316"/>
	<path style="fill:#87AFDD;" d="M73.121,115.241L62.625,98.872l14.85-13.124c0.712-0.131,1.437-0.282,2.174-0.449l0.048-0.012
		L89.85,98.854L73.121,115.241 M115.28,84.437l13.013,14.435l-14.208,16.305l-12.937-16.32L115.28,84.437z M227.866,123.764
		l-29.273-24.892l13.379-22.16h-13.648c1.698,1.475,1.499,2.765,0.497,4.393l-7.517,11.568l-5.411-4.599
		c-0.371-0.319-0.714-0.627-1.021-0.925c1.692-3.03,3.89-6.96,3.89-6.96c0.018-0.047,0.027-0.116,0.027-0.202
		c0-0.644-0.625-2.317-3.64-4.915c-5.786-4.991-22.907-16.558-56.826-16.125c-14.189,0.179-26.312,4.266-37.011,7.87
		c-11.777,3.965-22.116,7.548-30.859,3.982c-0.652-0.264-1.592-0.862-1.592-0.862l-0.007,12.485c0,0,0.555,2.673,7.241,3.576
		c-0.458,0.655-1.173,1.331-2.035,2.076l-5.411,4.599L51.13,81.105c-1.002-1.628-1.199-2.918,0.499-4.393H37.978l13.379,22.16
		l-29.271,24.892h16.342c-0.819-2.091,0.445-3.866,2.871-6.042l13.947-12.334l3.157,5.291c1.194,2.063,1.473,3.754-0.442,5.732
		h29.914c-1.152-1.979-0.273-3.669,1.712-5.732l5.175-5.291l3.96,5.291c1.509,2.063,2.045,3.754,0.43,5.732h29.769
		c-1.458-1.979-0.793-3.669,0.876-5.732l4.369-5.291l4.772,5.291c1.82,2.063,2.609,3.754,1.3,5.732h15.908l-16.583-17.555
		l12.73-15.381H138.33c1.355,1.552,0.828,2.899-0.628,4.599l-4.002,4.599l-4.354-4.599c-1.576-1.7-2.201-3.047-0.954-4.599h-26.136
		c1.119,1.552,0.386,2.899-1.323,4.599l-4.705,4.599l-3.651-4.599c-1.317-1.7-2.004-3.05-0.526-4.6h-5.694
		c3.079-0.94,6.219-2.002,9.246-3.009c10.02-3.331,21.372-7.104,34.86-7.645c19.254-0.773,34.132,5.22,41.863,10.015
		c1.971,1.222,4.251,2.849,6.577,4.611l8.39,6.766l0.04,4.645l-11.251,17.555h15.908c-1.911-1.979-1.638-3.669-0.441-5.732
		l3.158-5.291l13.945,12.334c2.428,2.176,3.69,3.951,2.872,6.042H227.866z"/>
	<path style="fill:#FFFFFF;" d="M92.66,73.448l0.006-2.468l3.362-1.13c0.257-0.086,0.498-0.059,0.694,0.081
		c0.225,0.159,0.361,0.456,0.364,0.792v0.025c-0.011,0.754-0.377,1.254-1.185,1.618C95.897,72.366,92.66,73.448,92.66,73.448
		 M99.237,70.377c-0.002-0.927-0.323-1.668-0.907-2.087c-0.643-0.46-1.549-0.512-2.625-0.152l-6.121,2.033l-0.105,0.405l0.915,0.404
		l0.003,6.621l-0.543,0.605l0.195,0.332l3.53-1.174v-0.396l-0.916-0.139l-0.001-1.516l3.17-1.064
		c2.207-0.738,3.384-2.055,3.406-3.811C99.237,70.418,99.237,70.399,99.237,70.377z"/>
	<polyline style="fill:#FFFFFF;" points="110.249,70.15 109.803,69.991 109.137,71.238 104.102,72.686 104.102,70.806 
		107.195,69.965 107.505,70.434 107.816,70.306 107.822,67.909 107.503,67.806 107.191,68.343 104.102,69.166 104.106,67.48 
		108.742,66.203 109.407,66.994 109.763,66.735 109.255,64.327 101.044,66.594 100.94,66.991 101.812,67.447 101.819,74.158 
		101.316,74.735 101.511,75.077 110.059,72.654 110.249,70.15 	"/>
	<path style="fill:#FFFFFF;" d="M115.543,66.719l-0.007-2.072l2.652-0.46c0.755-0.132,1.299-0.081,1.572,0.149
		c0.154,0.127,0.228,0.313,0.23,0.566c0,0.7-0.605,1.145-1.85,1.363L115.543,66.719 M123.009,69.93l-1.125-0.446
		c0,0-1.305-1.424-1.807-1.978c1.451-0.593,2.219-1.53,2.226-2.813v-0.009c0-0.796-0.256-1.412-0.758-1.835
		c-0.651-0.548-1.678-0.719-2.969-0.494l-6.156,1.06l-0.083,0.385l0.926,0.557l-0.005,6.826l-0.542,0.519l0.197,0.37l3.575-0.626
		v-0.401l-0.946-0.445l-0.005-2.161l2.062-0.36l1.896,2.075l-0.458,0.433l0.199,0.37l3.772-0.624V69.93z"/>
	<path style="fill:#FFFFFF;" d="M140.297,67.199c-0.008,0.694-0.616,1.04-1.808,1.024l-2.837-0.038l0.002-2.099l2.837,0.035
		c0.825,0.012,1.806,0.207,1.806,1.07V67.199 M140.042,63.797c0,0.212-0.067,0.38-0.203,0.517c-0.252,0.25-0.729,0.381-1.348,0.371
		l-2.839-0.034l0.002-1.871l2.835,0.039c0.752,0.011,1.553,0.272,1.553,0.972V63.797z M140.869,65.468
		c0.637-0.283,1.286-0.767,1.288-1.764c-0.004-1.53-1.454-2.427-3.983-2.462l-5.543-0.076l-0.108,0.379l0.913,0.743v6.804
		l-0.533,0.418l0.164,0.351l5.962,0.088c1.186,0.016,2.126-0.285,2.725-0.872c0.408-0.402,0.625-0.918,0.627-1.492v-0.005
		C142.38,66.587,141.852,65.889,140.869,65.468z"/>
	<path style="fill:#FFFFFF;" d="M152.887,67.984c-0.079,0.615-0.367,1.106-0.86,1.458c-0.665,0.474-1.677,0.638-2.64,0.427
		c-1.572-0.349-3.079-1.689-2.866-3.327c0.075-0.613,0.365-1.104,0.86-1.455c0.665-0.475,1.679-0.639,2.636-0.427
		C151.589,65.01,153.096,66.35,152.887,67.984 M150.288,62.812c-1.611-0.356-3.298-0.087-4.406,0.702
		c-0.845,0.602-1.365,1.498-1.506,2.594c-0.368,2.885,2.168,5.045,4.745,5.612c1.607,0.356,3.294,0.086,4.402-0.705
		c0.847-0.602,1.367-1.499,1.506-2.594C155.397,65.535,152.861,63.376,150.288,62.812z"/>
	<path style="fill:#FFFFFF;" d="M168.818,68.615c0,0-0.375,0.269-0.375,0.27c-0.002-0.001,0.282,0.603,0.282,0.603
		c-0.004,0.008-2.081,3.654-2.081,3.654l-1.257-5.063l0.387-0.594l-3.237-1.123l0.247,1.097l-2.21,3.446l-1.073-4.609l0.588-0.266
		l-0.165-0.443l-3.488-1.198l-0.11,0.355l0.913,0.984l1.723,7.085l-0.547,0.24l0.197,0.466l3.078,1.043l0.264-0.337l-0.588-0.645
		l2.448-3.627l1.332,5.118l-0.932,0.136l-0.087,0.388l3.2,1.327l0.418-0.304l-0.353-0.668l3.141-5.275l1.256-0.201l0.067-0.386
		L168.818,68.615"/>
	<polyline style="fill:#FFFFFF;" points="179.607,80.397 178.497,80.816 175.066,78.559 176.743,73.391 177.358,73.227 
		177.438,72.783 173.865,70.961 173.52,71.238 174.137,72.354 172.269,78.084 171.649,78.181 171.711,78.672 178.503,83.055 
		180.014,80.669 179.607,80.397 	"/>
	<path style="fill:#FFFFFF;" d="M83.781,72.194l-0.032,0.377l0.842,0.422l0.017,4.388c-0.002,1.117-0.7,1.779-2.414,2.286
		c-1.013,0.301-1.665,0.33-1.99,0.085c-0.207-0.153-0.308-0.433-0.308-0.857l-0.009-4.514l0.64-0.8l-0.122-0.333l-3.359,0.963
		l-0.093,0.256l0.72,0.562c0,0.003-0.002,4.33-0.002,4.33c-0.001,1.03,0.252,1.721,0.778,2.114c0.7,0.524,1.869,0.504,3.791-0.063
		c2.678-0.792,4.46-1.876,4.468-4.61L86.7,72.378l0.791-0.836l-0.188-0.446L83.781,72.194"/>
	<path style="fill:#FFFFFF;" d="M70.637,77.593c-1.431-0.007-2.303-0.058-2.342-0.689c-0.028-0.516,0.917-0.844,1.864-0.901
		c1.16-0.071,2.453,0.354,2.708,0.696c-0.006-0.006,0.181,0.511,0.181,0.511l0.502-0.089l1.287-2.51l-0.414-0.083l-0.679,0.336
		c0,0-0.276-0.079-0.571-0.167c-0.662-0.2-1.664-0.502-3.168-0.411c-2.772,0.166-3.932,1.651-3.851,3.047
		c0.148,2.44,2.485,2.414,4.361,2.392c1.384-0.016,2.226,0.017,2.263,0.603c0.009,0.147-0.04,0.278-0.148,0.402
		c-0.424,0.478-1.6,0.668-2.164,0.7c-1.011,0.062-2.386-0.324-2.632-0.684c0.003,0.003-0.234-0.5-0.234-0.5l-0.49,0.137
		l-1.008,2.565l0.418,0.042l0.614-0.444c0,0,0.109,0.076,0.322,0.158c0.532,0.205,1.421,0.547,3.145,0.444
		c2.174-0.135,4.452-1.037,4.326-3.17C74.784,77.616,72.484,77.604,70.637,77.593"/>
	<path style="fill:#87AFDD;" d="M192.905,120.055c0.002,0.002,0.004,0.002,0.006,0.004c-6.044-2.012-14.054-2.941-22.905-2.418
		c-1.4,0.083-12.267,0.485-25.943,5.274c-42.518,14.889-70.866,5.996-91.481-4.499c19.909,15.732,54.618,24.607,98.796,9.392
		c23.238-7.999,35.434-9.303,49.231-3.406c-2.286-1.533-4.855-3.022-7.702-4.347C192.905,120.055,192.905,120.055,192.905,120.055"
		/>
	<g>
		<path style="fill:#FFFFFF;" d="M198.323,76.712c1.704,1.472,1.501,2.765,0.503,4.393l-7.522,11.568l1.688,6.303l11.509-18.607
			L198.323,76.712 M227.866,123.76l-10.698-3.713l-24.176-21.07l1.715,6.411l13.762,12.143c2.429,2.172,3.928,4.034,3.056,6.229
			H227.866z M172.326,82.835c-7.731-4.795-22.609-10.788-41.863-10.015c-13.489,0.542-24.841,4.314-34.86,7.645
			c-4.644,1.543-9.549,3.217-14.101,4.383l-1.853,0.45c-2.806,0.639-5.437,1.041-7.734,1.041c-2.398,0-4.679-0.162-5.784-0.336
			c-6.723-0.896-7.278-3.581-7.278-3.581l0.007-12.485c0,0,0.94,0.598,1.592,0.862c8.743,3.566,19.082-0.018,30.859-3.982
			c10.699-3.604,22.822-7.691,37.011-7.87c33.919-0.433,51.04,11.134,56.826,16.125c3.015,2.598,3.64,4.271,3.64,4.915
			c0,0.086-0.01,0.154-0.027,0.202c-0.004,0-2.131,3.791-3.896,6.953c0,0,0.353,0.35,0.623,0.582
			c0.271,0.231,0.712,0.611,0.712,0.611l4.104-7.347c0.234-0.403,1.207-2.724-4.019-7.231c-5.936-5.123-23.468-16.986-57.986-16.546
			c-14.459,0.184-26.724,4.315-37.544,7.959c-11.458,3.858-21.12,7.117-29.489,4.037c-2.372-0.873-3.038-3.366-3.038-3.366
			l-0.958,0.152l0.002,17.073c0,0,0.959,3.499,7.355,4.509l-5.983,5.099l-1.648,6.303l-11.547-18.6l-7.474-3.665l13.379,22.16
			L22.081,123.76l16.343,0.004l-5.605-3.717l24.176-21.07l-1.749,6.411l3.167,5.309c1.187,2.062,1.456,3.734-0.457,5.715h29.918
			l-5.048-4.906l12.652-12.528l-9.243-12.119l-2.139-0.907c3.97-1.116,8.103-2.521,12.057-3.836
			c9.909-3.292,21.138-7.026,34.38-7.558c15.533-0.621,26.804,3.416,35.048,7.101c8.244,3.684,21.752,17.2,21.752,17.2
			l-10.568,16.493c-2.019-0.31-4.754-0.702-6.908-0.897l-4.782-3.563l-3.752-24.252l-6.26-3.162
			c1.085,0.834,1.843,1.909,2.009,3.172l3.503,25.585c0.085,0.619,0.063,1.232-0.066,1.814c-2.744,0.012-5.743,0.141-8.371,0.425
			l-7.222-3.492l-10.984-12.008l0.236,6.415l4.772,5.291c2.479,2.773,2.438,4.397,0.741,6.512l-0.045,0.014
			c-36.75,13.78-64.493,9.813-87.054,1.212c20.78,10.579,47.079,20.165,92.357,4.267c17.987-6.316,36.506-6.438,47.973-2.624
			c-2.538-1.178-5.781-2.553-10.617-3.646l9.696-0.002l-6.384-5.405l7.386-12.029C192.992,98.977,180.058,87.631,172.326,82.835z
			 M89.85,98.854L72.685,115.67l-8.332-4.646l-7.358-12.047l12.769-10.933c0.664,0.021,1.403,0.033,2.14,0.033
			c2.648,0,5.721-0.512,8.929-1.281L89.85,98.854z M138.33,83.476c1.365,1.544,0.793,2.867-0.653,4.568l-3.995,4.609l0.249,6.319
			L144.41,86.75L138.33,83.476z M102.256,83.476c1.122,1.547,0.351,2.951-1.352,4.652l-4.676,4.546l-0.749,6.303l12.428-12.215
			L102.256,83.476z M98.723,110.679c1.512,2.063,2.04,3.752,0.43,5.732h29.769l-5.426-5.297l10.435-12.142l-11.083-12.074
			l-8.427-3.423l13.873,15.396l-14.628,16.788l-9.101-4.68l-9.086-12.004l-0.716,6.411L98.723,110.679z"/>
		<path style="fill:#FFFFFF;" d="M152.863,133.742c-45.972,15.069-81.065,6.233-102.947-12.837l-3.495,3.083
			c-1.333,1.233-1.557,2.549-1.384,3.603H11.104L45.78,97.578l-16.8-28.268h0.005L28.98,69.31
			c0.121-0.029,18.345-4.401,28.037-5.978c1.062-0.97,11.493-10.491,11.493-10.491l0.706-0.263c0.027-0.009,2.573-0.954,6.815-2.263
			c0-3.191,0-16.687,0-16.687h7.492l3.188,3.037c0,0,0,6.376,0,10.672c10.318-2.59,24.407-5.298,38.267-5.298
			c13.859,0,27.948,2.708,38.263,5.299c0-4.295,0-10.67,0-10.67l3.19-3.036h7.492c0,0,0,13.492,0,16.683
			c4.243,1.309,6.788,2.253,6.816,2.263l0.704,0.263c0,0,10.432,9.521,11.493,10.491c9.691,1.577,27.918,5.949,28.036,5.978
			l-16.853,28.262l34.766,30.016l-33.612,0.004C187.865,122.568,177.23,125.754,152.863,133.742 M207.05,97.099
			c1.736-2.91,17.457-29.272,17.457-29.272s-20.662-4.961-30.532-6.627c-0.909-0.829-11.321-10.333-11.321-10.333
			s-3.098-1.155-6.457-2.223c0-2.808,0-17.287,0-17.287h-10.674l-4.554,4.336c0,0,0,5.105,0,8.753
			c-9.631-2.274-22.899-4.68-35.991-4.68c-13.093,0-26.361,2.405-35.993,4.679c0-3.648,0-8.753,0-8.753l-4.551-4.337H73.757
			c0,0,0,14.481,0,17.29c-3.349,1.066-6.454,2.22-6.454,2.22s-10.415,9.506-11.324,10.334c-9.973,1.682-30.528,6.625-30.528,6.625
			l17.402,29.276L5,129.863h42.717c0,0-0.664-1.698-0.438-2.845c0.274-1.402,2.673-3.112,2.673-3.112
			c5.384,4.458,11.38,8.237,17.863,11.234c7.469,3.45,15.607,5.885,24.187,7.232c18.769,2.947,39.484,0.769,61.569-6.471
			c25.15-8.244,34.685-10.854,51.072-6.128l0.312,0.089L245,129.859C245,129.859,209.705,99.389,207.05,97.099z"/>
	</g>
	<path style="fill:#1A3F72;" d="M37.201,31.827v-1.859l0.236-0.016c0.331,0.488,1.324,0.396,1.953,0.107
		c0.982-0.452,1.332-0.916,0.967-1.708l-1.856-4.039c-0.103-0.226-0.424-0.262-0.613-0.174l-0.104-0.228l2.39-1.096l0.104,0.225
		c-0.289,0.134-0.446,0.389-0.341,0.615l1.906,4.149c0.603,1.309-0.291,2.482-1.94,3.237c-1.044,0.48-1.92,0.396-2.26,0.552
		c-0.1,0.046-0.151,0.132-0.194,0.272L37.201,31.827"/>
	<path style="fill:#1A3F72;" d="M45.914,25.211l2.282-0.931l-2.05-1.944L45.914,25.211 M44.431,28.868l-0.094-0.231
		c0.208-0.114,0.234-0.378,0.25-0.67l0.335-5.953c0.026-0.264,0.058-0.518,0.005-0.645c-0.069-0.167-0.249-0.168-0.386-0.142
		l-0.096-0.23l2.167-0.886l0.095,0.232c-0.106,0.074-0.238,0.186-0.165,0.366c0.051,0.128,0.169,0.229,0.373,0.401l4.795,4.128
		c0.163,0.141,0.335,0.161,0.558,0.16l0.095,0.23l-2.255,0.92l-0.093-0.23c0.063-0.025,0.183-0.135,0.142-0.237
		c-0.033-0.077-0.105-0.181-0.239-0.292l-0.875-0.749l-3.127,1.276l-0.089,1.099c-0.009,0.198-0.003,0.36,0.028,0.437
		c0.032,0.077,0.173,0.094,0.302,0.042l0.095,0.23L44.431,28.868z"/>
	<path style="fill:#1A3F72;" d="M60.697,21.461l-0.068,0.143c-0.051,0.019-0.096,0.02-0.148,0.039
		c-0.195,0.07-1.289,1.62-2.97,2.219c-2.204,0.785-4.601,0.286-5.422-2.022c-0.822-2.308,0.719-4.209,2.923-4.994
		c0.874-0.311,1.678-0.406,2.268-0.439c0.591-0.036,0.978,0.019,1.042-0.004c0.079-0.03,0.102-0.168,0.123-0.234l0.252,0.086
		l-0.456,1.94l-0.163-0.044c-0.019-0.053-0.051-0.1-0.086-0.161c-0.217-0.363-1.718-0.328-2.579-0.021
		c-1.474,0.524-2.438,1.821-1.903,3.321c0.533,1.5,2.101,1.897,3.575,1.372c1.095-0.389,2.394-1.484,2.223-1.967
		c-0.019-0.052-0.068-0.108-0.108-0.137l0.146-0.17L60.697,21.461"/>
	<path style="fill:#1A3F72;" d="M64.262,18.896l0.578,1.894c0.048,0.159,0.191,0.203,0.337,0.158l0.072,0.237l-2.064,0.63
		l-0.074-0.237c0.173-0.053,0.268-0.168,0.219-0.327l-1.833-6.012c-0.049-0.157-0.193-0.201-0.365-0.149l-0.073-0.238l2.065-0.629
		l0.073,0.239c-0.146,0.043-0.242,0.159-0.192,0.318l0.768,2.516l2.082-2.995c0.188-0.288,0.297-0.452,0.269-0.544
		c-0.037-0.119-0.146-0.145-0.251-0.112L65.8,13.406l2.781-0.849l0.072,0.238c-0.172,0.053-0.308,0.181-0.417,0.344l-2.307,3.353
		l3.763,2.369c0.305,0.196,0.726,0.387,1.06,0.387l0.072,0.237l-2.449,0.748l-0.072-0.24c0.104-0.03,0.164-0.077,0.142-0.144
		c-0.016-0.053-0.111-0.125-0.273-0.235l-3.061-1.918L64.262,18.896"/>
	<path style="fill:#1A3F72;" d="M72.157,18.497l0.322-1.812l0.151,0.034c0.021,0.078,0.051,0.142,0.109,0.199
		c0.382,0.375,1.816,0.45,2.66,0.233c0.59-0.151,2.121-0.702,1.911-1.52c-0.42-1.635-5.337,1.812-6.179-1.473
		c-0.286-1.113,0.463-2.489,2.688-3.061c1.864-0.478,2.934-0.038,3.39-0.154c0.135-0.035,0.208-0.083,0.248-0.149l0.189,0.065
		l-0.496,1.912l-0.147-0.018c-0.045-0.118-0.114-0.214-0.187-0.281c-0.388-0.343-1.627-0.498-2.661-0.233
		c-0.791,0.204-1.711,0.683-1.56,1.272c0.437,1.703,5.371-1.678,6.197,1.541c0.475,1.849-1.621,2.873-3.069,3.245
		c-2.064,0.53-2.8,0.002-3.202,0.107c-0.067,0.017-0.12,0.088-0.146,0.15L72.157,18.497"/>
	<path style="fill:#1A3F72;" d="M82.257,12.892c0.312,1.533,1.995,2.093,3.379,1.81c1.382-0.282,2.71-1.459,2.397-2.991
		c-0.313-1.534-1.997-2.094-3.38-1.809C83.271,10.184,81.941,11.358,82.257,12.892 M89.524,11.404
		c0.509,2.482-1.655,4.14-3.633,4.544c-1.981,0.407-4.619-0.27-5.125-2.751c-0.51-2.481,1.653-4.139,3.632-4.544
		C86.379,8.249,89.017,8.922,89.524,11.404z"/>
	<path style="fill:#1A3F72;" d="M92.541,14.576l-0.037-0.247c0.138-0.021,0.249-0.123,0.223-0.286L91.8,7.828
		c-0.025-0.166-0.161-0.228-0.297-0.208l-0.037-0.247l2.341-0.349l0.038,0.247c-0.056,0.007-0.105,0.057-0.091,0.152
		c0.014,0.083,0.112,0.18,0.332,0.343l4.537,3.494l-0.649-4.354c-0.024-0.164-0.161-0.228-0.393-0.193l-0.037-0.246l2.067-0.308
		l0.038,0.246c-0.138,0.02-0.249,0.122-0.224,0.285l0.926,6.215c0.024,0.164,0.161,0.227,0.298,0.208l0.038,0.246l-2.219,0.332
		l-0.037-0.247c0.096-0.014,0.172-0.067,0.16-0.15c-0.01-0.069-0.093-0.154-0.267-0.282l-4.824-3.73l0.676,4.546
		c0.024,0.163,0.161,0.227,0.352,0.198l0.036,0.248L92.541,14.576"/>
	<path style="fill:#1A3F72;" d="M110.411,5.053l0.025,0.247c-0.371,0.038-0.461,0.406-0.529,0.58l-1.922,5.595
		c-0.131,0.374-0.232,0.621-0.225,0.704c0.009,0.096,0.067,0.131,0.142,0.18l0.025,0.249l-2.109,0.202l-0.023-0.248
		c0.095-0.037,0.112-0.136,0.106-0.205c-0.008-0.083-0.204-0.383-0.438-0.778l-2.998-5.15c-0.116-0.183-0.274-0.25-0.586-0.304
		l-0.024-0.248l2.466-0.238l0.024,0.249c-0.125,0.012-0.271,0.082-0.254,0.26c0.02,0.194,0.229,0.493,0.494,0.925l2.129,3.62
		l1.362-3.9c0.174-0.504,0.369-0.926,0.355-1.077c-0.015-0.152-0.159-0.207-0.407-0.181l-0.023-0.25L110.411,5.053"/>
	<path style="fill:#1A3F72;" d="M112.901,12.22l-0.015-0.25c0.235-0.013,0.355-0.103,0.344-0.27l-0.365-6.273
		c-0.011-0.167-0.14-0.241-0.374-0.229l-0.015-0.248l2.294-0.135l0.015,0.25c-0.235,0.013-0.354,0.103-0.345,0.269l0.366,6.273
		c0.011,0.167,0.139,0.241,0.373,0.228l0.016,0.25L112.901,12.22"/>
	<path style="fill:#1A3F72;" d="M124.73,12.1c-0.007-0.276-0.204-0.301-0.479-0.295l-6.586,0.142l-0.006-0.249
		c0.291-0.006,0.415-0.092,0.411-0.259l-0.135-6.283c-0.004-0.167-0.13-0.246-0.419-0.239l-0.006-0.25l2.38-0.051l0.005,0.25
		c-0.263,0.006-0.385,0.092-0.382,0.257l0.118,5.507l4.595-0.097c0.276-0.007,0.468-0.148,0.463-0.37l0.25-0.006l0.042,1.938
		L124.73,12.1"/>
	<path style="fill:#1A3F72;" d="M133.408,12.291c0.006-0.275-0.188-0.309-0.466-0.316l-6.585-0.169l0.008-0.247
		c0.29,0.007,0.416-0.073,0.42-0.238l0.16-6.283c0.004-0.166-0.118-0.251-0.408-0.259l0.006-0.249l2.381,0.06l-0.006,0.25
		c-0.265-0.007-0.393,0.075-0.396,0.239l-0.139,5.508l4.593,0.116c0.278,0.008,0.476-0.125,0.481-0.347l0.249,0.006l-0.05,1.938
		L133.408,12.291"/>
	<path style="fill:#1A3F72;" d="M142.912,6.847l-0.248-0.02c0.014-0.193-0.116-0.313-0.503-0.344l-4.473-0.329l-0.126,1.712
		l2.704,0.199c0.359,0.026,0.586-0.012,0.618-0.425l0.246,0.018l-0.157,2.154l-0.251-0.019c0.031-0.414-0.184-0.512-0.544-0.539
		l-2.703-0.202l-0.14,1.905l4.608,0.341c0.277,0.021,0.479-0.103,0.497-0.324l0.246,0.017l-0.14,1.934l-0.249-0.019
		c0.02-0.277-0.172-0.317-0.447-0.337l-6.434-0.476l0.018-0.25c0.125,0.009,0.255-0.063,0.267-0.229l0.466-6.269
		c0.01-0.166-0.108-0.256-0.231-0.265l0.019-0.249l6.295,0.463c0.387,0.029,0.532-0.098,0.548-0.291l0.249,0.018L142.912,6.847"/>
	<path style="fill:#1A3F72;" d="M144.289,14.479c0.582-0.089,1.363-0.634,1.352-1.291c-0.014-0.128-0.081-0.251-0.149-0.261
		c-0.452-0.065-0.817-0.411-0.756-0.962c0.06-0.537,0.546-0.927,1.027-0.875c0.732,0.082,1.048,0.729,0.965,1.501
		c-0.134,1.21-1.315,2.193-2.485,2.328L144.289,14.479"/>
	<path style="fill:#1A3F72;" d="M161.804,9.489l-0.245-0.041c0.032-0.19-0.087-0.324-0.468-0.387l-4.423-0.744l-0.283,1.692
		l2.675,0.45c0.354,0.06,0.582,0.042,0.623-0.204l0.245,0.042l-0.33,1.964l-0.246-0.042c0.068-0.409-0.135-0.526-0.489-0.587
		l-2.675-0.45l-0.448,2.648c-0.027,0.163,0.134,0.274,0.369,0.314l-0.042,0.246l-2.319-0.39l0.041-0.247
		c0.232,0.04,0.367-0.021,0.396-0.187l1.042-6.198c0.029-0.162-0.081-0.264-0.313-0.304l0.041-0.247l6.334,1.065
		c0.381,0.065,0.543-0.048,0.574-0.238l0.245,0.041L161.804,9.489"/>
	<path style="fill:#1A3F72;" d="M169.205,17.264c0.06-0.272-0.126-0.338-0.396-0.397l-6.447-1.37l0.054-0.245
		c0.286,0.062,0.426,0.006,0.46-0.155l1.304-6.149c0.035-0.161-0.069-0.269-0.352-0.329l0.052-0.244l2.328,0.495l-0.052,0.244
		c-0.257-0.055-0.396,0-0.432,0.164l-1.145,5.389l4.492,0.955c0.271,0.058,0.491-0.038,0.538-0.255l0.243,0.053l-0.402,1.896
		L169.205,17.264"/>
	<path style="fill:#1A3F72;" d="M172.951,14.113c-0.393,1.514,0.87,2.759,2.235,3.114c1.365,0.357,3.075-0.112,3.47-1.627
		c0.395-1.513-0.868-2.757-2.232-3.113C175.057,12.132,173.344,12.601,172.951,14.113 M180.132,15.984
		c-0.641,2.451-3.31,2.986-5.267,2.477c-1.953-0.509-4.026-2.279-3.388-4.729c0.64-2.452,3.313-2.986,5.266-2.477
		C178.7,11.764,180.77,13.533,180.132,15.984z"/>
	<path style="fill:#1A3F72;" d="M184.277,16.82l2.282,0.718c1.271,0.397,1.773,0.09,1.947-0.463
		c0.173-0.557-0.065-1.095-1.332-1.492l-2.286-0.716L184.277,16.82 M183.357,13.139l4.516,1.415
		c1.694,0.531,2.628,1.433,2.154,2.938c-0.359,1.149-1.288,1.513-2.516,1.359l0.973,3.061c0.063,0.209,0.245,0.28,0.391,0.325
		l-0.076,0.239l-2.469-0.774l0.075-0.24c0.158,0.051,0.31,0.027,0.336-0.053c0.025-0.092-0.019-0.223-0.093-0.45l-0.808-2.516
		l-1.886-0.592l-0.739,2.352c-0.05,0.159,0.016,0.267,0.321,0.36l-0.075,0.239l-2.284-0.716l0.075-0.238
		c0.262,0.083,0.408,0.042,0.457-0.118l1.878-5.995c0.054-0.16-0.043-0.277-0.308-0.36L183.357,13.139z"/>
	<path style="fill:#1A3F72;" d="M191.043,23.278l0.083-0.236c0.222,0.079,0.365,0.042,0.423-0.114l2.093-5.926
		c0.055-0.156-0.036-0.274-0.259-0.354l0.085-0.235l2.166,0.767l-0.081,0.234c-0.223-0.078-0.368-0.042-0.424,0.115l-2.091,5.926
		c-0.056,0.155,0.033,0.275,0.252,0.354l-0.081,0.233L191.043,23.278"/>
	<path style="fill:#1A3F72;" d="M198.049,24.565l1.992,0.791c1.622,0.643,2.586,0.459,3.295-1.33c0.71-1.789,0.134-2.583-1.49-3.226
		l-1.994-0.79L198.049,24.565 M198.528,18.204l4.271,1.692c1.88,0.744,2.918,2.406,2.007,4.711c-0.914,2.304-2.81,2.803-4.688,2.06
		l-4.273-1.694l0.091-0.232c0.182,0.071,0.33,0.041,0.389-0.114l2.316-5.842c0.061-0.155-0.026-0.278-0.205-0.35L198.528,18.204z"/>
	<path style="fill:#1A3F72;" d="M208.399,27.093l2.241,1.02l0.008-2.825L208.399,27.093 M204.723,28.52l0.101-0.225
		c0.227,0.071,0.438-0.093,0.662-0.28l4.562-3.838c0.211-0.163,0.418-0.313,0.474-0.439c0.072-0.163-0.048-0.295-0.16-0.376
		l0.103-0.227l2.129,0.97l-0.104,0.226c-0.127-0.026-0.302-0.044-0.379,0.132c-0.058,0.126-0.054,0.281-0.038,0.546l0.282,6.32
		c0.01,0.217,0.117,0.356,0.271,0.518l-0.104,0.228l-2.216-1.011l0.105-0.226c0.061,0.029,0.221,0.042,0.268-0.06
		c0.034-0.075,0.06-0.201,0.048-0.373l-0.054-1.152l-3.073-1.399l-0.862,0.688c-0.149,0.131-0.265,0.246-0.298,0.32
		c-0.033,0.076,0.052,0.192,0.178,0.25l-0.104,0.225L204.723,28.52z"/>
	<path style="fill:#1A3F72;" d="M86.81,169.141c0.519-0.029,1.251-0.445,1.296-1.023c-0.001-0.112-0.051-0.229-0.109-0.243
		c-0.392-0.095-0.685-0.428-0.586-0.909c0.096-0.468,0.56-0.771,0.979-0.685c0.635,0.132,0.86,0.728,0.722,1.4
		c-0.218,1.054-1.339,1.823-2.381,1.843L86.81,169.141"/>
	<path style="fill:#1A3F72;" d="M177.4,165.681c0.447-0.265,0.909-0.969,0.686-1.503c-0.053-0.101-0.151-0.18-0.207-0.166
		c-0.395,0.095-0.805-0.069-0.938-0.541c-0.126-0.459,0.146-0.94,0.556-1.055c0.628-0.174,1.102,0.252,1.283,0.913
		c0.287,1.038-0.357,2.233-1.274,2.729L177.4,165.681"/>
	<path style="fill:#1A3F72;" d="M37.252,150.614l1.236-1.063l0.086,0.106c-0.031,0.066-0.045,0.128-0.038,0.199
		c0.052,0.47,0.994,1.325,1.695,1.651c0.49,0.225,1.849,0.706,2.163,0.029c0.628-1.357-4.676-1.75-3.413-4.477
		c0.428-0.923,1.714-1.447,3.56-0.592c1.546,0.717,2.033,1.618,2.412,1.796c0.111,0.049,0.187,0.059,0.253,0.037l0.092,0.147
		l-1.413,1.036l-0.089-0.095c0.035-0.106,0.042-0.211,0.029-0.298c-0.075-0.456-0.838-1.255-1.695-1.651
		c-0.656-0.306-1.557-0.493-1.782-0.004c-0.657,1.415,4.624,1.862,3.384,4.529c-0.711,1.537-2.722,1.063-3.923,0.507
		c-1.713-0.795-1.923-1.566-2.256-1.722c-0.055-0.025-0.131-0.006-0.186,0.021L37.252,150.614"/>
	<path style="fill:#1A3F72;" d="M49.201,149.492l-0.084,0.205c-0.147-0.059-0.278-0.033-0.333,0.103l-1.39,3.407
		c-0.389,0.953,0.138,1.511,1.295,1.984c1.159,0.472,1.925,0.442,2.314-0.513l1.391-3.405c0.057-0.136-0.019-0.244-0.258-0.343
		l0.084-0.203l1.816,0.739l-0.084,0.205c-0.169-0.068-0.299-0.041-0.355,0.093l-1.367,3.35c-0.728,1.781-1.977,1.854-3.985,1.034
		c-2.009-0.821-2.848-1.744-2.121-3.527l1.368-3.348c0.056-0.137-0.02-0.247-0.235-0.334l0.084-0.207L49.201,149.492"/>
	<path style="fill:#1A3F72;" d="M53.909,158.318l0.074-0.207c0.116,0.043,0.243,0.008,0.293-0.133l1.861-5.245
		c0.049-0.136-0.03-0.242-0.146-0.284l0.073-0.209l1.977,0.7l-0.074,0.209c-0.046-0.016-0.105,0.002-0.133,0.083
		c-0.024,0.069,0.012,0.186,0.116,0.404l2.094,4.62l1.304-3.675c0.049-0.137-0.031-0.243-0.227-0.312l0.074-0.209l1.744,0.617
		l-0.072,0.207c-0.117-0.039-0.246-0.006-0.294,0.132l-1.861,5.244c-0.049,0.14,0.031,0.248,0.145,0.288l-0.073,0.207l-1.873-0.663
		l0.075-0.209c0.081,0.029,0.162,0.02,0.187-0.052c0.021-0.059-0.009-0.159-0.091-0.331l-2.221-4.924l-1.36,3.837
		c-0.05,0.14,0.029,0.242,0.192,0.302l-0.074,0.207L53.909,158.318"/>
	<path style="fill:#1A3F72;" d="M65.137,161.039l1.818,0.552c1.477,0.45,2.317,0.217,2.813-1.412c0.497-1.63-0.073-2.29-1.549-2.74
		l-1.819-0.553L65.137,161.039 M65.099,155.387l3.895,1.184c1.712,0.522,2.75,1.914,2.111,4.015
		c-0.639,2.101-2.277,2.677-3.988,2.156l-3.896-1.184l0.065-0.211c0.164,0.049,0.291,0.014,0.333-0.129l1.62-5.326
		c0.042-0.14-0.042-0.242-0.206-0.292L65.099,155.387z"/>
	<path style="fill:#1A3F72;" d="M74.55,162.254l2.113,0.545l-0.427-2.465L74.55,162.254 M71.563,164.064l0.055-0.215
		c0.208,0.03,0.366-0.144,0.532-0.341l3.389-4.055c0.16-0.169,0.315-0.333,0.345-0.451c0.04-0.154-0.087-0.253-0.2-0.306
		l0.056-0.213l2.007,0.519l-0.057,0.213c-0.113-0.004-0.267,0.008-0.31,0.174c-0.029,0.116-0.002,0.25,0.052,0.481l1.221,5.468
		c0.041,0.188,0.152,0.294,0.313,0.411l-0.056,0.215l-2.089-0.541l0.056-0.217c0.059,0.018,0.202,0.002,0.226-0.091
		c0.019-0.069,0.022-0.186-0.015-0.333l-0.224-0.996l-2.896-0.748l-0.645,0.731c-0.111,0.139-0.192,0.255-0.21,0.326
		c-0.018,0.072,0.073,0.159,0.192,0.191l-0.055,0.211L71.563,164.064z"/>
	<path style="fill:#1A3F72;" d="M80.845,159.794l2.492,0.542l-0.047,0.218c-0.144-0.032-0.305-0.042-0.338,0.114
		c-0.042,0.191,0.706,1.824,0.979,2.584l1.823-1.621c0.173-0.164,0.278-0.241,0.298-0.338c0.024-0.106-0.163-0.174-0.294-0.201
		l0.046-0.213l2.096,0.456l-0.047,0.215c-0.275-0.06-0.41-0.014-0.928,0.464l-2.668,2.439l-0.465,2.133
		c-0.031,0.145,0.063,0.241,0.23,0.278l-0.048,0.213l-1.893-0.412l0.047-0.217c0.145,0.033,0.268-0.016,0.3-0.16l0.464-2.131
		l-1.605-3.738c-0.074-0.184-0.333-0.375-0.489-0.408L80.845,159.794"/>
	<path style="fill:#1A3F72;" d="M102.416,165.004l-0.218-0.029c0.023-0.172-0.085-0.284-0.425-0.334l-3.934-0.548l-0.21,1.505
		l2.379,0.333c0.315,0.046,0.519,0.024,0.548-0.197l0.217,0.032l-0.242,1.748l-0.222-0.03c0.053-0.364-0.131-0.463-0.446-0.511
		l-2.38-0.329l-0.329,2.355c-0.02,0.146,0.128,0.24,0.333,0.27l-0.03,0.216l-2.064-0.288l0.031-0.218
		c0.207,0.03,0.326-0.029,0.345-0.173l0.772-5.514c0.018-0.146-0.081-0.235-0.287-0.263l0.03-0.221l5.636,0.787
		c0.339,0.049,0.477-0.056,0.501-0.226l0.219,0.032L102.416,165.004"/>
	<g>
		<path style="fill:#1A3F72;" d="M110.359,165.797l-0.22-0.02c0.017-0.172-0.096-0.282-0.438-0.313l-3.955-0.383l-0.145,1.515
			l2.391,0.231c0.317,0.029,0.518,0.002,0.554-0.367l0.219,0.021l-0.184,1.901l-0.219-0.02c0.036-0.365-0.152-0.457-0.469-0.489
			l-2.393-0.229l-0.163,1.685l4.078,0.391c0.244,0.023,0.427-0.081,0.444-0.276l0.22,0.02l-0.166,1.709l-0.22-0.021
			c0.024-0.243-0.145-0.282-0.388-0.307l-5.688-0.548l0.021-0.221c0.111,0.012,0.228-0.052,0.242-0.199l0.533-5.538
			c0.013-0.147-0.089-0.23-0.199-0.242l0.021-0.219l5.565,0.534c0.342,0.033,0.474-0.075,0.492-0.245l0.22,0.021L110.359,165.797"/>
		<path style="fill:#1A3F72;" d="M114.186,167.243l2.339,0.116c0.734,0.033,1.279-0.063,1.309-0.675
			c0.03-0.613-0.503-0.76-1.238-0.797l-2.337-0.112L114.186,167.243 M114.049,170.036l2.339,0.112
			c1.003,0.048,1.46-0.271,1.486-0.797c0.027-0.528-0.397-0.892-1.401-0.94l-2.339-0.114L114.049,170.036z M116.402,164.822
			c1.519,0.073,2.893,0.582,2.831,1.858c-0.036,0.771-0.607,1.108-1.267,1.312l-0.002,0.024c0.749,0.258,1.338,0.753,1.293,1.685
			c-0.049,0.979-0.967,1.671-2.509,1.596l-4.493-0.221l0.009-0.219c0.232,0.012,0.348-0.06,0.354-0.203l0.271-5.562
			c0.006-0.146-0.1-0.225-0.332-0.239l0.011-0.219L116.402,164.822z"/>
		<path style="fill:#1A3F72;" d="M123.292,167.888l2.12-0.004c1.177,0,1.521-0.391,1.519-0.907c0-0.517-0.342-0.907-1.522-0.905
			l-2.119,0.002L123.292,167.888 M121.535,165.021l4.192-0.004c1.57-0.002,2.603,0.511,2.604,1.908c0,1.068-0.687,1.617-1.764,1.816
			l1.634,2.328c0.108,0.159,0.279,0.172,0.414,0.172v0.221l-2.29,0.002v-0.221c0.144,0,0.268-0.063,0.268-0.135
			c0-0.087-0.073-0.184-0.195-0.354l-1.351-1.912l-1.754,0.002l0.002,2.182c0.001,0.146,0.086,0.222,0.368,0.222l0.001,0.221
			l-2.122,0.002v-0.221c0.247,0,0.355-0.075,0.355-0.22l-0.007-5.566c0-0.15-0.109-0.224-0.355-0.224L121.535,165.021z"/>
		<path style="fill:#1A3F72;" d="M132.401,164.864l0.01,0.221c-0.157,0.006-0.264,0.085-0.256,0.23l0.188,3.676
			c0.053,1.027,0.768,1.312,2.016,1.244c1.249-0.061,1.932-0.418,1.876-1.443l-0.188-3.674c-0.008-0.147-0.12-0.217-0.378-0.203
			l-0.01-0.219l1.958-0.101l0.013,0.221c-0.186,0.008-0.29,0.087-0.284,0.234l0.186,3.61c0.101,1.926-1.001,2.52-3.169,2.632
			c-2.166,0.112-3.321-0.369-3.418-2.292l-0.186-3.614c-0.008-0.146-0.123-0.213-0.354-0.201l-0.012-0.219L132.401,164.864"/>
	</g>
	<path style="fill:#1A3F72;" d="M141.465,168.216l2.172-0.211l-1.247-2.171L141.465,168.216 M139.278,170.941l-0.023-0.219
		c0.205-0.047,0.296-0.264,0.385-0.507l1.793-4.968c0.091-0.217,0.182-0.422,0.17-0.546c-0.014-0.158-0.168-0.205-0.292-0.217
		l-0.02-0.22l2.062-0.201l0.021,0.222c-0.11,0.035-0.25,0.097-0.232,0.268c0.012,0.123,0.085,0.239,0.213,0.437l3.022,4.719
		c0.103,0.164,0.24,0.223,0.434,0.278l0.02,0.219l-2.146,0.209l-0.021-0.221c0.062-0.004,0.191-0.065,0.182-0.162
		c-0.008-0.073-0.041-0.182-0.128-0.31l-0.553-0.858l-2.979,0.29l-0.354,0.91c-0.059,0.165-0.095,0.304-0.087,0.378
		c0.006,0.073,0.123,0.125,0.245,0.11l0.021,0.22L139.278,170.941z"/>
	<path style="fill:#1A3F72;" d="M149.866,166.188l2.102-0.3c1.163-0.17,1.447-0.607,1.373-1.116
		c-0.071-0.51-0.464-0.849-1.634-0.681l-2.099,0.3L149.866,166.188 M147.724,163.596l4.149-0.594
		c1.554-0.226,2.647,0.138,2.847,1.522c0.153,1.056-0.45,1.7-1.492,2.048l1.947,2.071c0.133,0.146,0.304,0.132,0.437,0.112
		l0.033,0.219l-2.272,0.328l-0.031-0.219c0.147-0.022,0.26-0.101,0.25-0.174c-0.012-0.085-0.101-0.172-0.246-0.324l-1.606-1.702
		l-1.735,0.251l0.31,2.162c0.02,0.144,0.118,0.205,0.396,0.163l0.033,0.22l-2.101,0.302l-0.03-0.218
		c0.241-0.037,0.34-0.124,0.32-0.27l-0.793-5.51c-0.021-0.146-0.141-0.203-0.385-0.168L147.724,163.596z"/>
	<path style="fill:#1A3F72;" d="M155.859,162.404l2.508-0.472l0.039,0.217c-0.144,0.025-0.296,0.081-0.267,0.238
		c0.036,0.191,1.361,1.401,1.908,1.997l1.048-2.204c0.094-0.221,0.163-0.329,0.146-0.426c-0.021-0.108-0.219-0.097-0.352-0.071
		l-0.043-0.217l2.11-0.398l0.042,0.219c-0.278,0.054-0.385,0.146-0.675,0.787l-1.505,3.289l0.402,2.146
		c0.029,0.146,0.149,0.194,0.319,0.165l0.039,0.215l-1.903,0.359l-0.041-0.219c0.146-0.025,0.24-0.12,0.215-0.265l-0.404-2.145
		l-2.936-2.818c-0.137-0.135-0.454-0.214-0.609-0.184L155.859,162.404"/>
	<path style="fill:#1A3F72;" d="M170.45,163.813c0.165,0.665,0.892,0.94,1.781,0.718c0.894-0.219,1.406-0.803,1.238-1.47
		c-0.165-0.665-0.89-0.94-1.781-0.718C170.795,162.565,170.282,163.146,170.45,163.813 M173.922,159.021l-0.373,1.458l-0.155-0.012
		c-0.04-0.067-0.075-0.148-0.152-0.205c-0.438-0.395-1.45-0.294-1.828-0.199c-1.204,0.298-1.774,1.097-1.52,2.335
		c0.644-0.575,1.207-0.946,2.052-1.155c1.168-0.288,2.535,0.089,2.856,1.375c0.369,1.487-1.056,2.623-2.34,2.943
		c-1.892,0.471-3.338-0.458-3.797-2.326c-0.478-1.916,0.59-3.673,2.505-4.148c0.736-0.182,1.28-0.18,1.663-0.123
		c0.391,0.056,0.625,0.135,0.756,0.104c0.097-0.024,0.189-0.058,0.217-0.104L173.922,159.021z"/>
	<path style="fill:#1A3F72;" d="M190.244,158.691l0.525,1.58l-0.141,0.047c-0.051-0.161-0.246-0.122-0.41-0.07l-4.9,1.621
		c-0.174,0.058-0.28,0.13-0.232,0.272l-0.139,0.045l-0.151-0.453c-0.817-2.466,3.29-4.032,2.816-5.467
		c-0.219-0.649-0.938-0.605-1.459-0.43c-0.527,0.171-1.57,0.956-1.354,1.607c0.021,0.071,0.122,0.219,0.195,0.247l-0.089,0.118
		l-1.626-0.886l0.093-0.118c0.069,0.016,0.139,0.031,0.222,0.004c0.199-0.065,0.571-1.431,2.375-2.024
		c1.189-0.391,2.539-0.261,2.986,1.103c0.718,2.164-2.106,2.92-2.969,4.442l0.037,0.119l3.839-1.271
		c0.164-0.056,0.344-0.139,0.243-0.442L190.244,158.691"/>
	<path style="fill:#1A3F72;" d="M192.375,156.063c0.452,1.205,1.588,1.803,2.657,1.404c1.071-0.398,1.539-1.592,1.089-2.801
		c-0.449-1.208-1.586-1.804-2.655-1.403C192.398,153.661,191.927,154.858,192.375,156.063 M197.433,154.18
		c0.661,1.781-0.25,3.612-2.031,4.276c-1.781,0.663-3.67-0.124-4.334-1.903c-0.663-1.781,0.248-3.614,2.031-4.277
		C194.878,151.611,196.769,152.398,197.433,154.18z"/>
	<path style="fill:#1A3F72;" d="M199.935,153.157c0.497,1.189,1.659,1.742,2.708,1.299c1.052-0.44,1.475-1.655,0.977-2.839
		c-0.497-1.189-1.656-1.74-2.71-1.299C199.857,150.759,199.438,151.972,199.935,153.157 M204.908,151.076
		c0.733,1.75-0.103,3.618-1.856,4.352c-1.752,0.736-3.672,0.024-4.405-1.728c-0.736-1.756,0.104-3.618,1.856-4.354
		C202.255,148.61,204.176,149.322,204.908,151.076z"/>
	<path style="fill:#1A3F72;" d="M207.417,150.997l0.146,0.054c0.016,0.035,0.025,0.083,0.045,0.126c0.184,0.389,1.505,0.433,2.427,0
		c0.675-0.317,1.408-0.946,1.014-1.789c-0.404-0.854-1.381-0.667-2.071-0.341c-0.312,0.146-1.274,0.72-1.069,1.151
		c0.018,0.034,0.048,0.071,0.087,0.093l-0.025,0.122l-2.013-0.708c0.114-0.217,0.154-0.276,0.087-0.418l-0.718-1.533
		c-0.052-0.11-0.184-0.157-0.306-0.101l-0.063-0.134l4.563-2.141c0.153-0.075,0.317-0.18,0.234-0.356l0.134-0.063l0.704,1.499
		l-0.132,0.062c-0.12-0.255-0.308-0.193-0.466-0.12l-3.325,1.562l0.563,1.212c0.47-0.479,0.961-0.843,1.574-1.131
		c1.152-0.54,2.8-0.639,3.429,0.704c0.721,1.531-0.635,2.859-1.897,3.451c-0.811,0.382-1.466,0.432-1.98,0.404
		c-0.642-0.038-0.801-0.152-0.936-0.089c-0.043,0.02-0.106,0.063-0.157,0.099l-0.184-0.048L207.417,150.997"/>
</g>
</svg>
